%TF.GenerationSoftware,KiCad,Pcbnew,8.0.3*%
%TF.CreationDate,2024-07-10T12:49:55+02:00*%
%TF.ProjectId,Shard,53686172-642e-46b6-9963-61645f706362,rev?*%
%TF.SameCoordinates,Original*%
%TF.FileFunction,Copper,L3,Inr*%
%TF.FilePolarity,Positive*%
%FSLAX46Y46*%
G04 Gerber Fmt 4.6, Leading zero omitted, Abs format (unit mm)*
G04 Created by KiCad (PCBNEW 8.0.3) date 2024-07-10 12:49:55*
%MOMM*%
%LPD*%
G01*
G04 APERTURE LIST*
G04 Aperture macros list*
%AMHorizOval*
0 Thick line with rounded ends*
0 $1 width*
0 $2 $3 position (X,Y) of the first rounded end (center of the circle)*
0 $4 $5 position (X,Y) of the second rounded end (center of the circle)*
0 Add line between two ends*
20,1,$1,$2,$3,$4,$5,0*
0 Add two circle primitives to create the rounded ends*
1,1,$1,$2,$3*
1,1,$1,$4,$5*%
G04 Aperture macros list end*
%TA.AperFunction,ComponentPad*%
%ADD10HorizOval,1.700000X0.000000X0.000000X0.000000X0.000000X0*%
%TD*%
%TA.AperFunction,ComponentPad*%
%ADD11HorizOval,1.700000X0.000000X0.000000X0.000000X0.000000X0*%
%TD*%
%TA.AperFunction,HeatsinkPad*%
%ADD12C,0.600000*%
%TD*%
%TA.AperFunction,ComponentPad*%
%ADD13R,0.900000X0.500000*%
%TD*%
%TA.AperFunction,ComponentPad*%
%ADD14O,1.000000X2.100000*%
%TD*%
%TA.AperFunction,ComponentPad*%
%ADD15O,1.000000X1.800000*%
%TD*%
%TA.AperFunction,ViaPad*%
%ADD16C,0.600000*%
%TD*%
%TA.AperFunction,ViaPad*%
%ADD17C,1.200000*%
%TD*%
%TA.AperFunction,Conductor*%
%ADD18C,0.635000*%
%TD*%
%TA.AperFunction,Conductor*%
%ADD19C,0.600000*%
%TD*%
%TA.AperFunction,Conductor*%
%ADD20C,0.200000*%
%TD*%
G04 APERTURE END LIST*
D10*
%TO.N,/9*%
%TO.C,J5*%
X127162613Y-93329084D03*
%TO.N,/10*%
X128031344Y-95715903D03*
%TO.N,/11*%
X128900075Y-98102723D03*
%TO.N,/12*%
X129768806Y-100489542D03*
%TO.N,/13*%
X130637538Y-102876361D03*
%TO.N,/14*%
X131506269Y-105263180D03*
%TO.N,/E3.3V*%
X132375000Y-107650000D03*
%TO.N,GND*%
X133243731Y-110036819D03*
%TD*%
%TO.N,/1*%
%TO.C,J4*%
X125843882Y-81567265D03*
%TO.N,/2*%
X126712613Y-83954084D03*
%TO.N,/3*%
X127581344Y-86340904D03*
%TO.N,/4*%
X128450075Y-88727723D03*
%TO.N,/5*%
X129318807Y-91114542D03*
%TO.N,/6*%
X130187538Y-93501361D03*
%TO.N,/7*%
X131056269Y-95888181D03*
%TO.N,/8*%
X131925000Y-98275000D03*
%TD*%
D11*
%TO.N,/15*%
%TO.C,J2*%
X161175000Y-110050000D03*
%TO.N,/16*%
X162043731Y-107663181D03*
%TO.N,/17*%
X162912462Y-105276361D03*
%TO.N,/18*%
X163781193Y-102889542D03*
%TO.N,GND*%
X164649925Y-100502723D03*
%TO.N,/38*%
X165518656Y-98115904D03*
%TO.N,/47*%
X166387387Y-95729084D03*
%TO.N,/48*%
X167256118Y-93342265D03*
%TD*%
D12*
%TO.N,GND*%
%TO.C,U3*%
X138437500Y-101950000D03*
X138437500Y-103050000D03*
%TD*%
D13*
%TO.N,GND*%
%TO.C,ANT1*%
X140550000Y-80300000D03*
%TD*%
D12*
%TO.N,GND*%
%TO.C,U4*%
X138437500Y-104725000D03*
X138437500Y-105825000D03*
%TD*%
D11*
%TO.N,/RX*%
%TO.C,J3*%
X162500000Y-98275000D03*
%TO.N,/TX*%
X163368731Y-95888181D03*
%TO.N,/RESET*%
X164237463Y-93501361D03*
%TO.N,GND*%
X165106193Y-91114542D03*
X165974924Y-88727723D03*
X166843655Y-86340904D03*
%TO.N,/E3.3V*%
X167712387Y-83954084D03*
%TO.N,Net-(D2-A)*%
X168581118Y-81567265D03*
%TD*%
D14*
%TO.N,unconnected-(J1-SHIELD-PadS1)_2*%
%TO.C,J1*%
X142890000Y-113725000D03*
D15*
%TO.N,unconnected-(J1-SHIELD-PadS1)_1*%
X142890000Y-117905000D03*
D14*
%TO.N,unconnected-(J1-SHIELD-PadS1)_0*%
X151530000Y-113725000D03*
D15*
%TO.N,unconnected-(J1-SHIELD-PadS1)*%
X151530000Y-117905000D03*
%TD*%
D16*
%TO.N,GND*%
X159250000Y-90910000D03*
X157250000Y-93620000D03*
X156000000Y-93630000D03*
X147190000Y-111570000D03*
X144361000Y-115934000D03*
X152489000Y-111870000D03*
X164681000Y-85454000D03*
X143665226Y-81720113D03*
X141770407Y-83995120D03*
X146550000Y-91900000D03*
X128105000Y-101710000D03*
X151325000Y-89325000D03*
X162649000Y-81390000D03*
X146550000Y-95650000D03*
X168745000Y-79358000D03*
X151600000Y-108000000D03*
X136233000Y-87486000D03*
X146393000Y-115934000D03*
X128105000Y-99678000D03*
X158585000Y-85454000D03*
X148950000Y-87350000D03*
X143000000Y-101000000D03*
X160617000Y-81390000D03*
X154521000Y-83422000D03*
X139500000Y-107100000D03*
X136233000Y-83422000D03*
X147500000Y-94700000D03*
X164681000Y-89518000D03*
X156553000Y-85454000D03*
X143920170Y-84220409D03*
X152550000Y-85250000D03*
X155000000Y-86000000D03*
X154900000Y-102000000D03*
X143150000Y-88600000D03*
X145650000Y-94700000D03*
X138265000Y-87486000D03*
X152600000Y-83700000D03*
X139450000Y-100900000D03*
X138265000Y-81390000D03*
X152661646Y-91867501D03*
X132169000Y-81390000D03*
X155000000Y-88000000D03*
X164681000Y-81390000D03*
X150457000Y-115934000D03*
X146393000Y-81390000D03*
X162649000Y-93582000D03*
X138000000Y-97000000D03*
X156000000Y-87000000D03*
X152489000Y-81390000D03*
X151200000Y-84800000D03*
X141665226Y-81720113D03*
X136233000Y-111870000D03*
X130137000Y-83422000D03*
X156553000Y-83422000D03*
X156553000Y-113902000D03*
X130137000Y-81390000D03*
X160617000Y-111870000D03*
X126073000Y-85454000D03*
X168745000Y-91550000D03*
X134201000Y-81390000D03*
X150457000Y-83422000D03*
X154100000Y-117300000D03*
X134201000Y-83422000D03*
X154521000Y-81390000D03*
X158585000Y-113902000D03*
X157700000Y-102750000D03*
X139900000Y-99800000D03*
X141665226Y-80500000D03*
X142329000Y-111870000D03*
X150457000Y-81390000D03*
X148425000Y-115934000D03*
X146400000Y-99100000D03*
X140900000Y-88100000D03*
X132169000Y-85454000D03*
X138265000Y-109838000D03*
X158585000Y-111870000D03*
X157300000Y-95550000D03*
X148425000Y-81390000D03*
X160617000Y-83422000D03*
X152489000Y-115934000D03*
X126073000Y-95614000D03*
X144700000Y-93750000D03*
X126073000Y-79358000D03*
X166713000Y-99678000D03*
X136233000Y-113902000D03*
X158585000Y-95614000D03*
X168745000Y-85454000D03*
X160617000Y-85454000D03*
X143725000Y-89200000D03*
X134201000Y-85454000D03*
X154000000Y-89000000D03*
X130137000Y-87486000D03*
X143664924Y-82915682D03*
X140297000Y-113902000D03*
X162649000Y-99678000D03*
X143665226Y-80500000D03*
X146550000Y-93770000D03*
X141665226Y-82940226D03*
X151300000Y-102300000D03*
X156553000Y-81390000D03*
X146393000Y-83422000D03*
X150457000Y-111870000D03*
X162649000Y-91550000D03*
X160617000Y-101710000D03*
X159780000Y-97190000D03*
X124041000Y-79358000D03*
X169160000Y-93160000D03*
X153700000Y-84700000D03*
X136600000Y-103950000D03*
X126073000Y-87486000D03*
X146200000Y-86400000D03*
X145400000Y-85000000D03*
X164470000Y-106600000D03*
X134201000Y-111870000D03*
X148450000Y-93750000D03*
X162649000Y-109838000D03*
X142072134Y-84985893D03*
X150457000Y-117966000D03*
X158585000Y-81390000D03*
X136600000Y-106700000D03*
X130137000Y-89518000D03*
X136233000Y-109838000D03*
X146393000Y-117966000D03*
X158585000Y-87486000D03*
X134201000Y-87486000D03*
X142329000Y-115934000D03*
X129920000Y-105050000D03*
X144361000Y-101710000D03*
X140297000Y-109838000D03*
X152800000Y-101850000D03*
X132169000Y-83422000D03*
X124041000Y-81390000D03*
X144361000Y-117966000D03*
X128105000Y-81390000D03*
X138265000Y-83422000D03*
X147500000Y-92800000D03*
X140297000Y-81390000D03*
X158585000Y-83422000D03*
X149800000Y-85900000D03*
X140297000Y-83422000D03*
X138265000Y-113902000D03*
X136233000Y-81390000D03*
X136233000Y-85454000D03*
X160617000Y-103742000D03*
X148425000Y-117966000D03*
X145650000Y-92800000D03*
X153714726Y-104285274D03*
X154521000Y-113902000D03*
X145000000Y-88092500D03*
X164681000Y-87486000D03*
X138265000Y-85454000D03*
X140300000Y-117300000D03*
X148425000Y-83422000D03*
X126073000Y-91550000D03*
D17*
%TO.N,/VIN*%
X144338542Y-104286458D03*
X160750000Y-91225000D03*
%TO.N,+3.3V*%
X135475000Y-100325000D03*
X148000000Y-86475000D03*
X142325000Y-86325000D03*
D16*
X141250000Y-97075000D03*
X151870000Y-91520000D03*
%TO.N,/E3.3V*%
X157050000Y-110325000D03*
X148975000Y-105025000D03*
%TO.N,/RESET*%
X146457641Y-90441616D03*
X151870000Y-93640000D03*
X156025000Y-108725000D03*
%TO.N,/21*%
X145194993Y-98518215D03*
X148669999Y-102880001D03*
%TO.N,/11*%
X139150000Y-95025000D03*
%TO.N,/14*%
X139675000Y-97400000D03*
%TO.N,/15*%
X141175000Y-99650000D03*
%TO.N,/10*%
X141507500Y-93671241D03*
%TO.N,/9*%
X141486350Y-92646150D03*
%TO.N,/18*%
X145380121Y-96358570D03*
%TO.N,/16*%
X142175000Y-99475000D03*
%TO.N,/48*%
X152470000Y-95519827D03*
%TO.N,/17*%
X142966735Y-99360280D03*
%TO.N,/47*%
X148593339Y-95500890D03*
%TO.N,/RX*%
X158502637Y-93640000D03*
X152760000Y-90260000D03*
%TO.N,/TX*%
X158870000Y-91810000D03*
X161540000Y-94051361D03*
%TO.N,/SPICS0*%
X153777961Y-105197039D03*
X152018768Y-100502740D03*
%TO.N,/SPIQ*%
X150999645Y-97987415D03*
X153975000Y-102450000D03*
%TO.N,/SPIWP*%
X155185430Y-103049794D03*
X149325000Y-99325000D03*
%TO.N,/BOOT*%
X144925000Y-91850000D03*
X140500000Y-107410000D03*
%TD*%
D18*
%TO.N,+3.3V*%
X147200000Y-87275000D02*
X148000000Y-86475000D01*
X139488620Y-94207500D02*
X138811380Y-94207500D01*
X137100000Y-98700000D02*
X137100000Y-95876380D01*
X137100000Y-95876380D02*
X138811380Y-94165000D01*
X138811380Y-94165000D02*
X139446120Y-94165000D01*
X151870000Y-91520000D02*
X148000000Y-87650000D01*
X141800000Y-91176380D02*
X141800000Y-87750000D01*
X135475000Y-100325000D02*
X137100000Y-98700000D01*
X139446120Y-94165000D02*
X140612500Y-95331380D01*
X143275000Y-87275000D02*
X142375000Y-87275000D01*
X141250000Y-97075000D02*
X141250000Y-97050000D01*
X142375000Y-87275000D02*
X142325000Y-87225000D01*
X147200000Y-87275000D02*
X147375000Y-87100000D01*
X141800000Y-87750000D02*
X142325000Y-87225000D01*
X148000000Y-86475000D02*
X148000000Y-87650000D01*
X142325000Y-87225000D02*
X142325000Y-86325000D01*
X138811380Y-94207500D02*
X138811380Y-94165000D01*
X143275000Y-87275000D02*
X147200000Y-87275000D01*
X142325000Y-86325000D02*
X143275000Y-87275000D01*
X140612500Y-95331380D02*
X140612500Y-96412500D01*
X147375000Y-87100000D02*
X147450000Y-87100000D01*
X147450000Y-87100000D02*
X148000000Y-87650000D01*
X141250000Y-97050000D02*
X140612500Y-96412500D01*
X138811380Y-94165000D02*
X141800000Y-91176380D01*
D19*
%TO.N,/E3.3V*%
X132856269Y-105822369D02*
X132375000Y-106303638D01*
X151861380Y-92667500D02*
X148835496Y-89641616D01*
X144880884Y-89641616D02*
X142307500Y-92215000D01*
X142307500Y-97173620D02*
X141588620Y-97892500D01*
X140607500Y-97892500D02*
X132856269Y-105643731D01*
X141588620Y-97892500D02*
X140607500Y-97892500D01*
X148835496Y-89641616D02*
X144880884Y-89641616D01*
X155252500Y-92667500D02*
X151861380Y-92667500D01*
X142307500Y-92215000D02*
X142307500Y-97173620D01*
X132856269Y-105643731D02*
X132856269Y-105822369D01*
X132375000Y-106303638D02*
X132375000Y-107650000D01*
X167712387Y-83954084D02*
X163965916Y-83954084D01*
X163965916Y-83954084D02*
X155252500Y-92667500D01*
D20*
%TO.N,/RESET*%
X148551616Y-90441616D02*
X146457641Y-90441616D01*
X151870000Y-93640000D02*
X151750000Y-93640000D01*
X151750000Y-93640000D02*
X148551616Y-90441616D01*
%TO.N,/15*%
X160511825Y-109386825D02*
X161175000Y-110050000D01*
X141175000Y-99650000D02*
X141175000Y-103665000D01*
X146896825Y-109386825D02*
X160511825Y-109386825D01*
X141175000Y-103665000D02*
X146896825Y-109386825D01*
%TO.N,/18*%
X147800269Y-96119827D02*
X157011478Y-96119827D01*
X145380121Y-96358570D02*
X145951551Y-96930000D01*
X157011478Y-96119827D02*
X163781193Y-102889542D01*
X145951551Y-96930000D02*
X146990096Y-96930000D01*
X146990096Y-96930000D02*
X147800269Y-96119827D01*
%TO.N,/16*%
X154301710Y-107663181D02*
X162043731Y-107663181D01*
X142175000Y-99475000D02*
X142950000Y-100250000D01*
X142950000Y-100250000D02*
X146888529Y-100250000D01*
X146888529Y-100250000D02*
X154301710Y-107663181D01*
%TO.N,/17*%
X162391784Y-105797039D02*
X162912462Y-105276361D01*
X143456455Y-99850000D02*
X147054215Y-99850000D01*
X153001254Y-105797039D02*
X162391784Y-105797039D01*
X147054215Y-99850000D02*
X153001254Y-105797039D01*
X142966735Y-99360280D02*
X143456455Y-99850000D01*
%TO.N,/TX*%
X161540000Y-94051361D02*
X161111361Y-94051361D01*
X161111361Y-94051361D02*
X158870000Y-91810000D01*
%TO.N,/SPICS0*%
X153777961Y-105102961D02*
X153777961Y-105197039D01*
%TO.N,/SPIQ*%
X153975000Y-102450000D02*
X153975000Y-100962770D01*
X153975000Y-100962770D02*
X150999645Y-97987415D01*
%TO.N,/SPIWP*%
X155185430Y-103049794D02*
X155160224Y-103075000D01*
X153075000Y-103075000D02*
X149325000Y-99325000D01*
X155160224Y-103075000D02*
X153075000Y-103075000D01*
%TO.N,/47*%
X148593339Y-95500890D02*
X149356048Y-94738181D01*
X149356048Y-94738181D02*
X165396484Y-94738181D01*
X165396484Y-94738181D02*
X166387387Y-95729084D01*
%TD*%
%TA.AperFunction,Conductor*%
%TO.N,GND*%
G36*
X147381075Y-87783131D02*
G01*
X147430998Y-87813561D01*
X147585496Y-87968059D01*
X147689005Y-88071568D01*
X147689011Y-88071573D01*
X148546873Y-88929435D01*
X148580358Y-88990758D01*
X148575374Y-89060450D01*
X148533502Y-89116383D01*
X148468038Y-89140800D01*
X148459192Y-89141116D01*
X144814992Y-89141116D01*
X144687697Y-89175224D01*
X144660925Y-89190681D01*
X144634152Y-89206139D01*
X144573955Y-89240894D01*
X144573567Y-89241118D01*
X144507524Y-89307162D01*
X144446201Y-89340647D01*
X144376509Y-89335663D01*
X144332162Y-89307162D01*
X143875000Y-88850000D01*
X143863164Y-88847848D01*
X143600000Y-88800000D01*
X143599999Y-88800000D01*
X143274999Y-89074999D01*
X143375000Y-89425000D01*
X143541652Y-89544037D01*
X143557259Y-89557259D01*
X143819662Y-89819662D01*
X143853147Y-89880985D01*
X143848163Y-89950677D01*
X143819662Y-89995024D01*
X142529681Y-91285005D01*
X142468358Y-91318490D01*
X142398666Y-91313506D01*
X142342733Y-91271634D01*
X142318316Y-91206170D01*
X142318000Y-91197324D01*
X142318000Y-88015924D01*
X142337685Y-87948885D01*
X142354313Y-87928248D01*
X142453245Y-87829317D01*
X142514568Y-87795834D01*
X142540925Y-87793000D01*
X147268195Y-87793000D01*
X147268196Y-87793000D01*
X147311225Y-87781470D01*
X147381075Y-87783131D01*
G37*
%TD.AperFunction*%
%TA.AperFunction,Conductor*%
G36*
X165667917Y-89127822D02*
G01*
X165781931Y-89193648D01*
X165909098Y-89227723D01*
X166040750Y-89227723D01*
X166060952Y-89222309D01*
X165733413Y-90122219D01*
X165733413Y-90122220D01*
X165489931Y-90791174D01*
X165413200Y-90714443D01*
X165299186Y-90648617D01*
X165172019Y-90614542D01*
X165040367Y-90614542D01*
X165020161Y-90619956D01*
X165347704Y-89720045D01*
X165591184Y-89051089D01*
X165667917Y-89127822D01*
G37*
%TD.AperFunction*%
%TA.AperFunction,Conductor*%
G36*
X166536648Y-86741003D02*
G01*
X166650662Y-86806829D01*
X166777829Y-86840904D01*
X166909481Y-86840904D01*
X166929683Y-86835490D01*
X166602144Y-87735400D01*
X166602144Y-87735401D01*
X166358662Y-88404355D01*
X166281931Y-88327624D01*
X166167917Y-88261798D01*
X166040750Y-88227723D01*
X165909098Y-88227723D01*
X165888892Y-88233137D01*
X166216435Y-87333226D01*
X166459915Y-86664270D01*
X166536648Y-86741003D01*
G37*
%TD.AperFunction*%
%TA.AperFunction,Conductor*%
G36*
X169857233Y-77163708D02*
G01*
X169876163Y-77166402D01*
X170068309Y-77209096D01*
X170086598Y-77214671D01*
X170269880Y-77286424D01*
X170287102Y-77294752D01*
X170307155Y-77306438D01*
X170457151Y-77393851D01*
X170472895Y-77404736D01*
X170625662Y-77528821D01*
X170639542Y-77541998D01*
X170771395Y-77688115D01*
X170783083Y-77703273D01*
X170890874Y-77867934D01*
X170900090Y-77884708D01*
X170981261Y-78064003D01*
X170987786Y-78081997D01*
X171040398Y-78271652D01*
X171044075Y-78290435D01*
X171067535Y-78491600D01*
X171068276Y-78501148D01*
X171070916Y-78569094D01*
X171070922Y-78569147D01*
X171123512Y-79921022D01*
X171123512Y-79921032D01*
X171126107Y-79987757D01*
X171126188Y-79990761D01*
X171134261Y-80542361D01*
X171134203Y-80548374D01*
X171115578Y-81098177D01*
X171115229Y-81104180D01*
X171069973Y-81652454D01*
X171069333Y-81658432D01*
X170997556Y-82203852D01*
X170996627Y-82209793D01*
X170898491Y-82751103D01*
X170897275Y-82756991D01*
X170773022Y-83292878D01*
X170771523Y-83298701D01*
X170621430Y-83827971D01*
X170619650Y-83833714D01*
X170443519Y-84356740D01*
X170442526Y-84359575D01*
X170428802Y-84397281D01*
X170422275Y-84415218D01*
X170421955Y-84416096D01*
X170421954Y-84416098D01*
X168847436Y-88741948D01*
X168847093Y-88742878D01*
X168828190Y-88793549D01*
X168811632Y-88837933D01*
X168780721Y-88990758D01*
X168772083Y-89033464D01*
X168763779Y-89232784D01*
X168786925Y-89430933D01*
X168840942Y-89622961D01*
X168924490Y-89804111D01*
X168924493Y-89804117D01*
X169035487Y-89969868D01*
X169035491Y-89969872D01*
X169171178Y-90116110D01*
X169328175Y-90239189D01*
X169502575Y-90336045D01*
X169526500Y-90344763D01*
X169526895Y-90344937D01*
X169534349Y-90347650D01*
X169534352Y-90347652D01*
X170214424Y-90595184D01*
X170412267Y-90667195D01*
X170425039Y-90672673D01*
X170534518Y-90727092D01*
X170557836Y-90742155D01*
X170647028Y-90815128D01*
X170666415Y-90835007D01*
X170737134Y-90926000D01*
X170751613Y-90949696D01*
X170800308Y-91054142D01*
X170809150Y-91080465D01*
X170833383Y-91193132D01*
X170836145Y-91220762D01*
X170834699Y-91335988D01*
X170831244Y-91363541D01*
X170802413Y-91482924D01*
X170798395Y-91496238D01*
X170775965Y-91557841D01*
X170775931Y-91557956D01*
X170617783Y-91992457D01*
X170429178Y-92510636D01*
X170429177Y-92510638D01*
X166863331Y-102307543D01*
X163651262Y-111132468D01*
X163615951Y-111183762D01*
X158099372Y-115964795D01*
X158087359Y-115973986D01*
X152132907Y-119978396D01*
X152066293Y-119999473D01*
X152063709Y-119999500D01*
X142390458Y-119999500D01*
X142323419Y-119979815D01*
X142321260Y-119978396D01*
X139935556Y-118373995D01*
X142189499Y-118373995D01*
X142216418Y-118509322D01*
X142216421Y-118509332D01*
X142269221Y-118636804D01*
X142269228Y-118636817D01*
X142345885Y-118751541D01*
X142345888Y-118751545D01*
X142443454Y-118849111D01*
X142443458Y-118849114D01*
X142558182Y-118925771D01*
X142558195Y-118925778D01*
X142685667Y-118978578D01*
X142685672Y-118978580D01*
X142685676Y-118978580D01*
X142685677Y-118978581D01*
X142821004Y-119005500D01*
X142821007Y-119005500D01*
X142958995Y-119005500D01*
X143050041Y-118987389D01*
X143094328Y-118978580D01*
X143221811Y-118925775D01*
X143336542Y-118849114D01*
X143434114Y-118751542D01*
X143510775Y-118636811D01*
X143563580Y-118509328D01*
X143590500Y-118373995D01*
X150829499Y-118373995D01*
X150856418Y-118509322D01*
X150856421Y-118509332D01*
X150909221Y-118636804D01*
X150909228Y-118636817D01*
X150985885Y-118751541D01*
X150985888Y-118751545D01*
X151083454Y-118849111D01*
X151083458Y-118849114D01*
X151198182Y-118925771D01*
X151198195Y-118925778D01*
X151325667Y-118978578D01*
X151325672Y-118978580D01*
X151325676Y-118978580D01*
X151325677Y-118978581D01*
X151461004Y-119005500D01*
X151461007Y-119005500D01*
X151598995Y-119005500D01*
X151690041Y-118987389D01*
X151734328Y-118978580D01*
X151861811Y-118925775D01*
X151976542Y-118849114D01*
X152074114Y-118751542D01*
X152150775Y-118636811D01*
X152203580Y-118509328D01*
X152230500Y-118373993D01*
X152230500Y-117436007D01*
X152230500Y-117436004D01*
X152203581Y-117300677D01*
X152203580Y-117300676D01*
X152203580Y-117300672D01*
X152203578Y-117300667D01*
X152150778Y-117173195D01*
X152150771Y-117173182D01*
X152074114Y-117058458D01*
X152074111Y-117058454D01*
X151976545Y-116960888D01*
X151976541Y-116960885D01*
X151861817Y-116884228D01*
X151861804Y-116884221D01*
X151734332Y-116831421D01*
X151734322Y-116831418D01*
X151598995Y-116804500D01*
X151598993Y-116804500D01*
X151461007Y-116804500D01*
X151461005Y-116804500D01*
X151325677Y-116831418D01*
X151325667Y-116831421D01*
X151198195Y-116884221D01*
X151198182Y-116884228D01*
X151083458Y-116960885D01*
X151083454Y-116960888D01*
X150985888Y-117058454D01*
X150985885Y-117058458D01*
X150909228Y-117173182D01*
X150909221Y-117173195D01*
X150856421Y-117300667D01*
X150856418Y-117300677D01*
X150829500Y-117436004D01*
X150829500Y-117436007D01*
X150829500Y-118373993D01*
X150829500Y-118373995D01*
X150829499Y-118373995D01*
X143590500Y-118373995D01*
X143590500Y-118373993D01*
X143590500Y-117436007D01*
X143590500Y-117436004D01*
X143563581Y-117300677D01*
X143563580Y-117300676D01*
X143563580Y-117300672D01*
X143563578Y-117300667D01*
X143510778Y-117173195D01*
X143510771Y-117173182D01*
X143434114Y-117058458D01*
X143434111Y-117058454D01*
X143336545Y-116960888D01*
X143336541Y-116960885D01*
X143221817Y-116884228D01*
X143221804Y-116884221D01*
X143094332Y-116831421D01*
X143094322Y-116831418D01*
X142958995Y-116804500D01*
X142958993Y-116804500D01*
X142821007Y-116804500D01*
X142821005Y-116804500D01*
X142685677Y-116831418D01*
X142685667Y-116831421D01*
X142558195Y-116884221D01*
X142558182Y-116884228D01*
X142443458Y-116960885D01*
X142443454Y-116960888D01*
X142345888Y-117058454D01*
X142345885Y-117058458D01*
X142269228Y-117173182D01*
X142269221Y-117173195D01*
X142216421Y-117300667D01*
X142216418Y-117300677D01*
X142189500Y-117436004D01*
X142189500Y-117436007D01*
X142189500Y-118373993D01*
X142189500Y-118373995D01*
X142189499Y-118373995D01*
X139935556Y-118373995D01*
X136366805Y-115973987D01*
X136354792Y-115964796D01*
X135032848Y-114819111D01*
X134484637Y-114343995D01*
X142189499Y-114343995D01*
X142216418Y-114479322D01*
X142216421Y-114479332D01*
X142269221Y-114606804D01*
X142269228Y-114606817D01*
X142345885Y-114721541D01*
X142345888Y-114721545D01*
X142443454Y-114819111D01*
X142443458Y-114819114D01*
X142558182Y-114895771D01*
X142558195Y-114895778D01*
X142685667Y-114948578D01*
X142685672Y-114948580D01*
X142685676Y-114948580D01*
X142685677Y-114948581D01*
X142821004Y-114975500D01*
X142821007Y-114975500D01*
X142958995Y-114975500D01*
X143050041Y-114957389D01*
X143094328Y-114948580D01*
X143221811Y-114895775D01*
X143336542Y-114819114D01*
X143434114Y-114721542D01*
X143510775Y-114606811D01*
X143522559Y-114578361D01*
X143565911Y-114473701D01*
X143567718Y-114474449D01*
X143601044Y-114423565D01*
X143664847Y-114395089D01*
X143733918Y-114405629D01*
X143786325Y-114451838D01*
X143788822Y-114455974D01*
X143801944Y-114478702D01*
X143859485Y-114578365D01*
X143966635Y-114685515D01*
X144097865Y-114761281D01*
X144244234Y-114800500D01*
X144244236Y-114800500D01*
X144395764Y-114800500D01*
X144395766Y-114800500D01*
X144542135Y-114761281D01*
X144673365Y-114685515D01*
X144780515Y-114578365D01*
X144856281Y-114447135D01*
X144895500Y-114300766D01*
X144895500Y-114149234D01*
X149524500Y-114149234D01*
X149524500Y-114300765D01*
X149563719Y-114447136D01*
X149582308Y-114479332D01*
X149639485Y-114578365D01*
X149746635Y-114685515D01*
X149877865Y-114761281D01*
X150024234Y-114800500D01*
X150024236Y-114800500D01*
X150175764Y-114800500D01*
X150175766Y-114800500D01*
X150322135Y-114761281D01*
X150453365Y-114685515D01*
X150560515Y-114578365D01*
X150631177Y-114455974D01*
X150681744Y-114407759D01*
X150750351Y-114394536D01*
X150815216Y-114420504D01*
X150853322Y-114474018D01*
X150854089Y-114473701D01*
X150855469Y-114477033D01*
X150855744Y-114477419D01*
X150856160Y-114478702D01*
X150909221Y-114606804D01*
X150909228Y-114606817D01*
X150985885Y-114721541D01*
X150985888Y-114721545D01*
X151083454Y-114819111D01*
X151083458Y-114819114D01*
X151198182Y-114895771D01*
X151198195Y-114895778D01*
X151325667Y-114948578D01*
X151325672Y-114948580D01*
X151325676Y-114948580D01*
X151325677Y-114948581D01*
X151461004Y-114975500D01*
X151461007Y-114975500D01*
X151598995Y-114975500D01*
X151690041Y-114957389D01*
X151734328Y-114948580D01*
X151861811Y-114895775D01*
X151976542Y-114819114D01*
X152074114Y-114721542D01*
X152150775Y-114606811D01*
X152203580Y-114479328D01*
X152230500Y-114343993D01*
X152230500Y-113106007D01*
X152230500Y-113106004D01*
X152203581Y-112970677D01*
X152203580Y-112970676D01*
X152203580Y-112970672D01*
X152203578Y-112970667D01*
X152150778Y-112843195D01*
X152150771Y-112843182D01*
X152074114Y-112728458D01*
X152074111Y-112728454D01*
X151976545Y-112630888D01*
X151976541Y-112630885D01*
X151861817Y-112554228D01*
X151861804Y-112554221D01*
X151734332Y-112501421D01*
X151734322Y-112501418D01*
X151598995Y-112474500D01*
X151598993Y-112474500D01*
X151461007Y-112474500D01*
X151461005Y-112474500D01*
X151325677Y-112501418D01*
X151325667Y-112501421D01*
X151198195Y-112554221D01*
X151198182Y-112554228D01*
X151083458Y-112630885D01*
X151083454Y-112630888D01*
X150985888Y-112728454D01*
X150985885Y-112728458D01*
X150909228Y-112843182D01*
X150909221Y-112843195D01*
X150856421Y-112970667D01*
X150856418Y-112970677D01*
X150829500Y-113106004D01*
X150829500Y-113874755D01*
X150809815Y-113941794D01*
X150757011Y-113987549D01*
X150687853Y-113997493D01*
X150624297Y-113968468D01*
X150598113Y-113936756D01*
X150585731Y-113915310D01*
X150560515Y-113871635D01*
X150453365Y-113764485D01*
X150387750Y-113726602D01*
X150322136Y-113688719D01*
X150248950Y-113669109D01*
X150175766Y-113649500D01*
X150024234Y-113649500D01*
X149877863Y-113688719D01*
X149746635Y-113764485D01*
X149746632Y-113764487D01*
X149639487Y-113871632D01*
X149639485Y-113871635D01*
X149563719Y-114002863D01*
X149524500Y-114149234D01*
X144895500Y-114149234D01*
X144856281Y-114002865D01*
X144853179Y-113997493D01*
X144821021Y-113941794D01*
X144780515Y-113871635D01*
X144673365Y-113764485D01*
X144607750Y-113726602D01*
X144542136Y-113688719D01*
X144468950Y-113669109D01*
X144395766Y-113649500D01*
X144244234Y-113649500D01*
X144097863Y-113688719D01*
X143966635Y-113764485D01*
X143966632Y-113764487D01*
X143859487Y-113871632D01*
X143859485Y-113871635D01*
X143821887Y-113936756D01*
X143771319Y-113984971D01*
X143702712Y-113998193D01*
X143637847Y-113972225D01*
X143597319Y-113915310D01*
X143590500Y-113874755D01*
X143590500Y-113106004D01*
X143563581Y-112970677D01*
X143563580Y-112970676D01*
X143563580Y-112970672D01*
X143563578Y-112970667D01*
X143510778Y-112843195D01*
X143510771Y-112843182D01*
X143434114Y-112728458D01*
X143434111Y-112728454D01*
X143336545Y-112630888D01*
X143336541Y-112630885D01*
X143221817Y-112554228D01*
X143221804Y-112554221D01*
X143094332Y-112501421D01*
X143094322Y-112501418D01*
X142958995Y-112474500D01*
X142958993Y-112474500D01*
X142821007Y-112474500D01*
X142821005Y-112474500D01*
X142685677Y-112501418D01*
X142685667Y-112501421D01*
X142558195Y-112554221D01*
X142558182Y-112554228D01*
X142443458Y-112630885D01*
X142443454Y-112630888D01*
X142345888Y-112728454D01*
X142345885Y-112728458D01*
X142269228Y-112843182D01*
X142269221Y-112843195D01*
X142216421Y-112970667D01*
X142216418Y-112970677D01*
X142189500Y-113106004D01*
X142189500Y-113106007D01*
X142189500Y-114343993D01*
X142189500Y-114343995D01*
X142189499Y-114343995D01*
X134484637Y-114343995D01*
X130838213Y-111183761D01*
X130802903Y-111132468D01*
X130793117Y-111105583D01*
X128666618Y-105263180D01*
X130450686Y-105263180D01*
X130470968Y-105469112D01*
X130531038Y-105667136D01*
X130537771Y-105679734D01*
X130628584Y-105849630D01*
X130639403Y-105862813D01*
X130759858Y-106009590D01*
X130856478Y-106088882D01*
X130919819Y-106140865D01*
X131102315Y-106238412D01*
X131300335Y-106298480D01*
X131300334Y-106298480D01*
X131318798Y-106300298D01*
X131506269Y-106318763D01*
X131712203Y-106298480D01*
X131714500Y-106297782D01*
X131715764Y-106297771D01*
X131718176Y-106297292D01*
X131718266Y-106297749D01*
X131784365Y-106297156D01*
X131843480Y-106334401D01*
X131873074Y-106397694D01*
X131874500Y-106416442D01*
X131874500Y-106652051D01*
X131854815Y-106719090D01*
X131808955Y-106761408D01*
X131788548Y-106772315D01*
X131628589Y-106903589D01*
X131497317Y-107063547D01*
X131399769Y-107246043D01*
X131339699Y-107444067D01*
X131319417Y-107650000D01*
X131339699Y-107855932D01*
X131354173Y-107903645D01*
X131399768Y-108053954D01*
X131497315Y-108236450D01*
X131508134Y-108249633D01*
X131628589Y-108396410D01*
X131725209Y-108475702D01*
X131788550Y-108527685D01*
X131971046Y-108625232D01*
X132169066Y-108685300D01*
X132169065Y-108685300D01*
X132375000Y-108705583D01*
X132388611Y-108704242D01*
X132457257Y-108717257D01*
X132507969Y-108765320D01*
X132524647Y-108833170D01*
X132501994Y-108899266D01*
X132471894Y-108929218D01*
X132372660Y-108998703D01*
X132372651Y-108998710D01*
X132205622Y-109165739D01*
X132205617Y-109165745D01*
X132070131Y-109359239D01*
X132070130Y-109359241D01*
X131970301Y-109573326D01*
X131970297Y-109573335D01*
X131909163Y-109801492D01*
X131909161Y-109801503D01*
X131888574Y-110036817D01*
X131888574Y-110036821D01*
X131907836Y-110256999D01*
X132749144Y-109950788D01*
X132743731Y-109970993D01*
X132743731Y-110102645D01*
X132777806Y-110229812D01*
X132843632Y-110343826D01*
X132920364Y-110420558D01*
X132078847Y-110726846D01*
X132205621Y-110907897D01*
X132372648Y-111074924D01*
X132566152Y-111210419D01*
X132780238Y-111310248D01*
X132780247Y-111310252D01*
X133008404Y-111371386D01*
X133008415Y-111371388D01*
X133243729Y-111391976D01*
X133243732Y-111391976D01*
X133463911Y-111372711D01*
X133157701Y-110531405D01*
X133177905Y-110536819D01*
X133309557Y-110536819D01*
X133436724Y-110502744D01*
X133550738Y-110436918D01*
X133627469Y-110360186D01*
X133933758Y-111201701D01*
X134114810Y-111074928D01*
X134281836Y-110907901D01*
X134417331Y-110714397D01*
X134517160Y-110500311D01*
X134517164Y-110500302D01*
X134578298Y-110272145D01*
X134578300Y-110272134D01*
X134598888Y-110036820D01*
X134598888Y-110036818D01*
X134579623Y-109816637D01*
X133738317Y-110122846D01*
X133743731Y-110102645D01*
X133743731Y-109970993D01*
X133709656Y-109843826D01*
X133643830Y-109729812D01*
X133567096Y-109653078D01*
X134408613Y-109346791D01*
X134281840Y-109165739D01*
X134114813Y-108998713D01*
X133921309Y-108863218D01*
X133707223Y-108763389D01*
X133707214Y-108763385D01*
X133479057Y-108702251D01*
X133479046Y-108702249D01*
X133243733Y-108681662D01*
X133243729Y-108681662D01*
X133117120Y-108692738D01*
X133048620Y-108678971D01*
X132998437Y-108630355D01*
X132982504Y-108562327D01*
X133005880Y-108496483D01*
X133027644Y-108473361D01*
X133121410Y-108396410D01*
X133252685Y-108236450D01*
X133350232Y-108053954D01*
X133410300Y-107855934D01*
X133430583Y-107650000D01*
X133410300Y-107444066D01*
X133399966Y-107410000D01*
X139994353Y-107410000D01*
X140014834Y-107552456D01*
X140074622Y-107683371D01*
X140074623Y-107683373D01*
X140168872Y-107792143D01*
X140289947Y-107869953D01*
X140289950Y-107869954D01*
X140289949Y-107869954D01*
X140428036Y-107910499D01*
X140428038Y-107910500D01*
X140428039Y-107910500D01*
X140571962Y-107910500D01*
X140571962Y-107910499D01*
X140710053Y-107869953D01*
X140831128Y-107792143D01*
X140925377Y-107683373D01*
X140985165Y-107552457D01*
X141005647Y-107410000D01*
X140985165Y-107267543D01*
X140925377Y-107136627D01*
X140831128Y-107027857D01*
X140710053Y-106950047D01*
X140710051Y-106950046D01*
X140710049Y-106950045D01*
X140710050Y-106950045D01*
X140571963Y-106909500D01*
X140571961Y-106909500D01*
X140428039Y-106909500D01*
X140428036Y-106909500D01*
X140289949Y-106950045D01*
X140168873Y-107027856D01*
X140074623Y-107136626D01*
X140074622Y-107136628D01*
X140014834Y-107267543D01*
X139994353Y-107410000D01*
X133399966Y-107410000D01*
X133350232Y-107246046D01*
X133252685Y-107063550D01*
X133159536Y-106950047D01*
X133121410Y-106903589D01*
X132961451Y-106772315D01*
X132941045Y-106761408D01*
X132891202Y-106712445D01*
X132875500Y-106652051D01*
X132875500Y-106562314D01*
X132881565Y-106541660D01*
X138074392Y-106541660D01*
X138074392Y-106541661D01*
X138088192Y-106550333D01*
X138088191Y-106550333D01*
X138258361Y-106609878D01*
X138437497Y-106630062D01*
X138437503Y-106630062D01*
X138616638Y-106609878D01*
X138616641Y-106609877D01*
X138786805Y-106550334D01*
X138786806Y-106550334D01*
X138800606Y-106541661D01*
X138800606Y-106541660D01*
X138437501Y-106178553D01*
X138437500Y-106178553D01*
X138074392Y-106541660D01*
X132881565Y-106541660D01*
X132895185Y-106495275D01*
X132911819Y-106474633D01*
X133077232Y-106309220D01*
X133256769Y-106129683D01*
X133322661Y-106015555D01*
X133356769Y-105888262D01*
X133356769Y-105888249D01*
X133356916Y-105887138D01*
X133357306Y-105886256D01*
X133358872Y-105880412D01*
X133359783Y-105880656D01*
X133384403Y-105824997D01*
X137632438Y-105824997D01*
X137632438Y-105825002D01*
X137652621Y-106004138D01*
X137712165Y-106174304D01*
X137720838Y-106188107D01*
X138083946Y-105825000D01*
X138083946Y-105824999D01*
X138054110Y-105795163D01*
X138287500Y-105795163D01*
X138287500Y-105854837D01*
X138310336Y-105909968D01*
X138352532Y-105952164D01*
X138407663Y-105975000D01*
X138467337Y-105975000D01*
X138522468Y-105952164D01*
X138564664Y-105909968D01*
X138587500Y-105854837D01*
X138587500Y-105825000D01*
X138791053Y-105825000D01*
X139154160Y-106188106D01*
X139154161Y-106188106D01*
X139162834Y-106174306D01*
X139162834Y-106174305D01*
X139222377Y-106004141D01*
X139222378Y-106004138D01*
X139242562Y-105825002D01*
X139242562Y-105824997D01*
X139222378Y-105645861D01*
X139162833Y-105475692D01*
X139154161Y-105461892D01*
X139154160Y-105461892D01*
X138791053Y-105825000D01*
X138587500Y-105825000D01*
X138587500Y-105795163D01*
X138564664Y-105740032D01*
X138522468Y-105697836D01*
X138467337Y-105675000D01*
X138407663Y-105675000D01*
X138352532Y-105697836D01*
X138310336Y-105740032D01*
X138287500Y-105795163D01*
X138054110Y-105795163D01*
X137720838Y-105461891D01*
X137720837Y-105461891D01*
X137712167Y-105475691D01*
X137712162Y-105475701D01*
X137652622Y-105645858D01*
X137652621Y-105645861D01*
X137632438Y-105824997D01*
X133384403Y-105824997D01*
X133385180Y-105823241D01*
X133392163Y-105815650D01*
X133932814Y-105274999D01*
X138241053Y-105274999D01*
X138437500Y-105471446D01*
X138633946Y-105275001D01*
X138633946Y-105275000D01*
X138437500Y-105078553D01*
X138241053Y-105274999D01*
X133932814Y-105274999D01*
X134482816Y-104724997D01*
X137632438Y-104724997D01*
X137632438Y-104725002D01*
X137652621Y-104904138D01*
X137712165Y-105074304D01*
X137720838Y-105088107D01*
X138083946Y-104725000D01*
X138083946Y-104724999D01*
X138054110Y-104695163D01*
X138287500Y-104695163D01*
X138287500Y-104754837D01*
X138310336Y-104809968D01*
X138352532Y-104852164D01*
X138407663Y-104875000D01*
X138467337Y-104875000D01*
X138522468Y-104852164D01*
X138564664Y-104809968D01*
X138587500Y-104754837D01*
X138587500Y-104725000D01*
X138791053Y-104725000D01*
X139154160Y-105088106D01*
X139154161Y-105088106D01*
X139162834Y-105074306D01*
X139162834Y-105074305D01*
X139222377Y-104904141D01*
X139222378Y-104904138D01*
X139242562Y-104725002D01*
X139242562Y-104724997D01*
X139222378Y-104545861D01*
X139162833Y-104375692D01*
X139154161Y-104361892D01*
X139154160Y-104361892D01*
X138791053Y-104725000D01*
X138587500Y-104725000D01*
X138587500Y-104695163D01*
X138564664Y-104640032D01*
X138522468Y-104597836D01*
X138467337Y-104575000D01*
X138407663Y-104575000D01*
X138352532Y-104597836D01*
X138310336Y-104640032D01*
X138287500Y-104695163D01*
X138054110Y-104695163D01*
X137720838Y-104361891D01*
X137720837Y-104361891D01*
X137712167Y-104375691D01*
X137712162Y-104375701D01*
X137652622Y-104545858D01*
X137652621Y-104545861D01*
X137632438Y-104724997D01*
X134482816Y-104724997D01*
X135199476Y-104008337D01*
X138074391Y-104008337D01*
X138074391Y-104008338D01*
X138437500Y-104371446D01*
X138437501Y-104371446D01*
X138800607Y-104008338D01*
X138786800Y-103999662D01*
X138785885Y-103999222D01*
X138785395Y-103998779D01*
X138780906Y-103995959D01*
X138781399Y-103995172D01*
X138734023Y-103952402D01*
X138715708Y-103884976D01*
X138736753Y-103818351D01*
X138781331Y-103779722D01*
X138780905Y-103779043D01*
X138785312Y-103776273D01*
X138785884Y-103775778D01*
X138786809Y-103775332D01*
X138800606Y-103766661D01*
X138800606Y-103766660D01*
X138437501Y-103403553D01*
X138437500Y-103403553D01*
X138074392Y-103766660D01*
X138074392Y-103766661D01*
X138088190Y-103775332D01*
X138089108Y-103775774D01*
X138089599Y-103776217D01*
X138094094Y-103779042D01*
X138093599Y-103779828D01*
X138140972Y-103822591D01*
X138159291Y-103890016D01*
X138138250Y-103956642D01*
X138093667Y-103995284D01*
X138094092Y-103995960D01*
X138089714Y-103998710D01*
X138089138Y-103999210D01*
X138088200Y-103999661D01*
X138074391Y-104008337D01*
X135199476Y-104008337D01*
X136157816Y-103049997D01*
X137632438Y-103049997D01*
X137632438Y-103050002D01*
X137652621Y-103229138D01*
X137712165Y-103399304D01*
X137720838Y-103413107D01*
X138083946Y-103050000D01*
X138083946Y-103049999D01*
X138054110Y-103020163D01*
X138287500Y-103020163D01*
X138287500Y-103079837D01*
X138310336Y-103134968D01*
X138352532Y-103177164D01*
X138407663Y-103200000D01*
X138467337Y-103200000D01*
X138522468Y-103177164D01*
X138564664Y-103134968D01*
X138587500Y-103079837D01*
X138587500Y-103050000D01*
X138791053Y-103050000D01*
X139154160Y-103413106D01*
X139154161Y-103413106D01*
X139162834Y-103399306D01*
X139162834Y-103399305D01*
X139222377Y-103229141D01*
X139222378Y-103229138D01*
X139242562Y-103050002D01*
X139242562Y-103049997D01*
X139222378Y-102870861D01*
X139162833Y-102700692D01*
X139154161Y-102686892D01*
X139154160Y-102686892D01*
X138791053Y-103050000D01*
X138587500Y-103050000D01*
X138587500Y-103020163D01*
X138564664Y-102965032D01*
X138522468Y-102922836D01*
X138467337Y-102900000D01*
X138407663Y-102900000D01*
X138352532Y-102922836D01*
X138310336Y-102965032D01*
X138287500Y-103020163D01*
X138054110Y-103020163D01*
X137720838Y-102686891D01*
X137720837Y-102686891D01*
X137712167Y-102700691D01*
X137712162Y-102700701D01*
X137652622Y-102870858D01*
X137652621Y-102870861D01*
X137632438Y-103049997D01*
X136157816Y-103049997D01*
X136707814Y-102499999D01*
X138241053Y-102499999D01*
X138437500Y-102696446D01*
X138633946Y-102500001D01*
X138633946Y-102500000D01*
X138437500Y-102303553D01*
X138241053Y-102499999D01*
X136707814Y-102499999D01*
X137429431Y-101778382D01*
X137490752Y-101744899D01*
X137560444Y-101749883D01*
X137616377Y-101791755D01*
X137640794Y-101857219D01*
X137640330Y-101879948D01*
X137632438Y-101949995D01*
X137632438Y-101950002D01*
X137652621Y-102129138D01*
X137712165Y-102299304D01*
X137720838Y-102313107D01*
X138113783Y-101920163D01*
X138287500Y-101920163D01*
X138287500Y-101979837D01*
X138310336Y-102034968D01*
X138352532Y-102077164D01*
X138407663Y-102100000D01*
X138467337Y-102100000D01*
X138522468Y-102077164D01*
X138564664Y-102034968D01*
X138587500Y-101979837D01*
X138587500Y-101950000D01*
X138791053Y-101950000D01*
X139154160Y-102313106D01*
X139154161Y-102313106D01*
X139162834Y-102299306D01*
X139162834Y-102299305D01*
X139222377Y-102129141D01*
X139222378Y-102129138D01*
X139242562Y-101950002D01*
X139242562Y-101949997D01*
X139222378Y-101770861D01*
X139162833Y-101600692D01*
X139154161Y-101586892D01*
X139154160Y-101586892D01*
X138791053Y-101950000D01*
X138587500Y-101950000D01*
X138587500Y-101920163D01*
X138564664Y-101865032D01*
X138522468Y-101822836D01*
X138467337Y-101800000D01*
X138407663Y-101800000D01*
X138352532Y-101822836D01*
X138310336Y-101865032D01*
X138287500Y-101920163D01*
X138113783Y-101920163D01*
X138437500Y-101596447D01*
X138800606Y-101233338D01*
X138786804Y-101224665D01*
X138616638Y-101165121D01*
X138437503Y-101144938D01*
X138437496Y-101144938D01*
X138367448Y-101152830D01*
X138298626Y-101140775D01*
X138247247Y-101093426D01*
X138229623Y-101025815D01*
X138251350Y-100959410D01*
X138265879Y-100941934D01*
X139557814Y-99650000D01*
X140669353Y-99650000D01*
X140689834Y-99792456D01*
X140740361Y-99903092D01*
X140749623Y-99923373D01*
X140843872Y-100032143D01*
X140843875Y-100032144D01*
X140844213Y-100032535D01*
X140873238Y-100096091D01*
X140874500Y-100113738D01*
X140874500Y-103704562D01*
X140888152Y-103755513D01*
X140894979Y-103780990D01*
X140894982Y-103780995D01*
X140934535Y-103849504D01*
X140934539Y-103849509D01*
X140934540Y-103849511D01*
X146712314Y-109627285D01*
X146780837Y-109666847D01*
X146857263Y-109687325D01*
X146936387Y-109687325D01*
X156694182Y-109687325D01*
X156761221Y-109707010D01*
X156806976Y-109759814D01*
X156816920Y-109828972D01*
X156787895Y-109892528D01*
X156761222Y-109915640D01*
X156718874Y-109942855D01*
X156624623Y-110051626D01*
X156624622Y-110051628D01*
X156564834Y-110182543D01*
X156544353Y-110325000D01*
X156564834Y-110467456D01*
X156579835Y-110500302D01*
X156624623Y-110598373D01*
X156718872Y-110707143D01*
X156839947Y-110784953D01*
X156839950Y-110784954D01*
X156839949Y-110784954D01*
X156978036Y-110825499D01*
X156978038Y-110825500D01*
X156978039Y-110825500D01*
X157121962Y-110825500D01*
X157121962Y-110825499D01*
X157260053Y-110784953D01*
X157381128Y-110707143D01*
X157475377Y-110598373D01*
X157535165Y-110467457D01*
X157555647Y-110325000D01*
X157535165Y-110182543D01*
X157475377Y-110051627D01*
X157381128Y-109942857D01*
X157381125Y-109942855D01*
X157381126Y-109942855D01*
X157338778Y-109915640D01*
X157293024Y-109862836D01*
X157283080Y-109793678D01*
X157312105Y-109730122D01*
X157370883Y-109692348D01*
X157405818Y-109687325D01*
X160020052Y-109687325D01*
X160087091Y-109707010D01*
X160132846Y-109759814D01*
X160142790Y-109828972D01*
X160140768Y-109838070D01*
X160140888Y-109838094D01*
X160139699Y-109844066D01*
X160119417Y-110050000D01*
X160139699Y-110255932D01*
X160139700Y-110255934D01*
X160199768Y-110453954D01*
X160297315Y-110636450D01*
X160297317Y-110636452D01*
X160428589Y-110796410D01*
X160464035Y-110825499D01*
X160588550Y-110927685D01*
X160771046Y-111025232D01*
X160969066Y-111085300D01*
X160969065Y-111085300D01*
X160987529Y-111087118D01*
X161175000Y-111105583D01*
X161380934Y-111085300D01*
X161578954Y-111025232D01*
X161761450Y-110927685D01*
X161921410Y-110796410D01*
X162052685Y-110636450D01*
X162150232Y-110453954D01*
X162210300Y-110255934D01*
X162230583Y-110050000D01*
X162210300Y-109844066D01*
X162150232Y-109646046D01*
X162052685Y-109463550D01*
X162000702Y-109400209D01*
X161921410Y-109303589D01*
X161761452Y-109172317D01*
X161761453Y-109172317D01*
X161761450Y-109172315D01*
X161578954Y-109074768D01*
X161380934Y-109014700D01*
X161380932Y-109014699D01*
X161380934Y-109014699D01*
X161175000Y-108994417D01*
X160969067Y-109014699D01*
X160852676Y-109050006D01*
X160771046Y-109074768D01*
X160771043Y-109074769D01*
X160771041Y-109074770D01*
X160726464Y-109098597D01*
X160658062Y-109112838D01*
X160636031Y-109107536D01*
X160635664Y-109108908D01*
X160627815Y-109106805D01*
X160627814Y-109106804D01*
X160551387Y-109086325D01*
X160551385Y-109086325D01*
X156603159Y-109086325D01*
X156536120Y-109066640D01*
X156490365Y-109013836D01*
X156480421Y-108944678D01*
X156490365Y-108910814D01*
X156501505Y-108886418D01*
X156510165Y-108867457D01*
X156530647Y-108725000D01*
X156510165Y-108582543D01*
X156450377Y-108451627D01*
X156356128Y-108342857D01*
X156235053Y-108265047D01*
X156235051Y-108265046D01*
X156235049Y-108265045D01*
X156235050Y-108265045D01*
X156096963Y-108224500D01*
X156096961Y-108224500D01*
X155953039Y-108224500D01*
X155953036Y-108224500D01*
X155814949Y-108265045D01*
X155693873Y-108342856D01*
X155599623Y-108451626D01*
X155599622Y-108451628D01*
X155539834Y-108582543D01*
X155519353Y-108725000D01*
X155539834Y-108867457D01*
X155539835Y-108867458D01*
X155559635Y-108910814D01*
X155569579Y-108979972D01*
X155540554Y-109043528D01*
X155481776Y-109081302D01*
X155446841Y-109086325D01*
X147072658Y-109086325D01*
X147005619Y-109066640D01*
X146984977Y-109050006D01*
X142221425Y-104286454D01*
X143532977Y-104286454D01*
X143532977Y-104286461D01*
X143553172Y-104465707D01*
X143553173Y-104465712D01*
X143612753Y-104635981D01*
X143687436Y-104754837D01*
X143708726Y-104788720D01*
X143836280Y-104916274D01*
X143848046Y-104923667D01*
X143981681Y-105007636D01*
X143989020Y-105012247D01*
X144155289Y-105070427D01*
X144159287Y-105071826D01*
X144159292Y-105071827D01*
X144338538Y-105092023D01*
X144338542Y-105092023D01*
X144338546Y-105092023D01*
X144517791Y-105071827D01*
X144517794Y-105071826D01*
X144517797Y-105071826D01*
X144651618Y-105025000D01*
X148469353Y-105025000D01*
X148489834Y-105167456D01*
X148519895Y-105233279D01*
X148549623Y-105298373D01*
X148643872Y-105407143D01*
X148764947Y-105484953D01*
X148764950Y-105484954D01*
X148764949Y-105484954D01*
X148903036Y-105525499D01*
X148903038Y-105525500D01*
X148903039Y-105525500D01*
X149046962Y-105525500D01*
X149046962Y-105525499D01*
X149185053Y-105484953D01*
X149306128Y-105407143D01*
X149400377Y-105298373D01*
X149460165Y-105167457D01*
X149480647Y-105025000D01*
X149460165Y-104882543D01*
X149400377Y-104751627D01*
X149306128Y-104642857D01*
X149185053Y-104565047D01*
X149185051Y-104565046D01*
X149185049Y-104565045D01*
X149185050Y-104565045D01*
X149046963Y-104524500D01*
X149046961Y-104524500D01*
X148903039Y-104524500D01*
X148903036Y-104524500D01*
X148764949Y-104565045D01*
X148643873Y-104642856D01*
X148549623Y-104751626D01*
X148549622Y-104751628D01*
X148489834Y-104882543D01*
X148469353Y-105025000D01*
X144651618Y-105025000D01*
X144688064Y-105012247D01*
X144840804Y-104916274D01*
X144968358Y-104788720D01*
X145064331Y-104635980D01*
X145123910Y-104465713D01*
X145131463Y-104398678D01*
X145144107Y-104286461D01*
X145144107Y-104286454D01*
X145123911Y-104107208D01*
X145123910Y-104107203D01*
X145064331Y-103936936D01*
X145061194Y-103931944D01*
X144968357Y-103784195D01*
X144840804Y-103656642D01*
X144688065Y-103560669D01*
X144517796Y-103501089D01*
X144517791Y-103501088D01*
X144338546Y-103480893D01*
X144338538Y-103480893D01*
X144159292Y-103501088D01*
X144159287Y-103501089D01*
X143989018Y-103560669D01*
X143836279Y-103656642D01*
X143708726Y-103784195D01*
X143612753Y-103936934D01*
X143553173Y-104107203D01*
X143553172Y-104107208D01*
X143532977Y-104286454D01*
X142221425Y-104286454D01*
X141511819Y-103576848D01*
X141478334Y-103515525D01*
X141475500Y-103489167D01*
X141475500Y-100113738D01*
X141495185Y-100046699D01*
X141505787Y-100032535D01*
X141506124Y-100032144D01*
X141506128Y-100032143D01*
X141600377Y-99923373D01*
X141624071Y-99871490D01*
X141669823Y-99818688D01*
X141736863Y-99799003D01*
X141803902Y-99818687D01*
X141830575Y-99841798D01*
X141833510Y-99845185D01*
X141843872Y-99857143D01*
X141964947Y-99934953D01*
X141964950Y-99934954D01*
X141964949Y-99934954D01*
X142072107Y-99966417D01*
X142102957Y-99975476D01*
X142103036Y-99975499D01*
X142103038Y-99975500D01*
X142199167Y-99975500D01*
X142266206Y-99995185D01*
X142286848Y-100011819D01*
X142765489Y-100490460D01*
X142834012Y-100530022D01*
X142910438Y-100550500D01*
X146712696Y-100550500D01*
X146779735Y-100570185D01*
X146800377Y-100586819D01*
X148456858Y-102243300D01*
X148490343Y-102304623D01*
X148485359Y-102374315D01*
X148443487Y-102430248D01*
X148436217Y-102435296D01*
X148338873Y-102497856D01*
X148244622Y-102606627D01*
X148244621Y-102606629D01*
X148184833Y-102737544D01*
X148164352Y-102880001D01*
X148184833Y-103022457D01*
X148233677Y-103129409D01*
X148244622Y-103153374D01*
X148338871Y-103262144D01*
X148459946Y-103339954D01*
X148459949Y-103339955D01*
X148459948Y-103339955D01*
X148598035Y-103380500D01*
X148598037Y-103380501D01*
X148598038Y-103380501D01*
X148741961Y-103380501D01*
X148741961Y-103380500D01*
X148880052Y-103339954D01*
X149001127Y-103262144D01*
X149095376Y-103153374D01*
X149106321Y-103129407D01*
X149152074Y-103076604D01*
X149219114Y-103056919D01*
X149286153Y-103076603D01*
X149306796Y-103093238D01*
X154061250Y-107847692D01*
X154117199Y-107903641D01*
X154117201Y-107903642D01*
X154117205Y-107903645D01*
X154185714Y-107943198D01*
X154185721Y-107943202D01*
X154262148Y-107963681D01*
X154341272Y-107963681D01*
X160945152Y-107963681D01*
X161012191Y-107983366D01*
X161057946Y-108036170D01*
X161063812Y-108051684D01*
X161068499Y-108067135D01*
X161166046Y-108249631D01*
X161166048Y-108249633D01*
X161297320Y-108409591D01*
X161375019Y-108473356D01*
X161457281Y-108540866D01*
X161639777Y-108638413D01*
X161837797Y-108698481D01*
X161837796Y-108698481D01*
X161856260Y-108700299D01*
X162043731Y-108718764D01*
X162249665Y-108698481D01*
X162447685Y-108638413D01*
X162630181Y-108540866D01*
X162790141Y-108409591D01*
X162921416Y-108249631D01*
X163018963Y-108067135D01*
X163079031Y-107869115D01*
X163099314Y-107663181D01*
X163079031Y-107457247D01*
X163018963Y-107259227D01*
X162921416Y-107076731D01*
X162817450Y-106950047D01*
X162790141Y-106916770D01*
X162630183Y-106785498D01*
X162630184Y-106785498D01*
X162630181Y-106785496D01*
X162447685Y-106687949D01*
X162249665Y-106627881D01*
X162249663Y-106627880D01*
X162249665Y-106627880D01*
X162043731Y-106607598D01*
X161837798Y-106627880D01*
X161639774Y-106687950D01*
X161567891Y-106726373D01*
X161457281Y-106785496D01*
X161457279Y-106785497D01*
X161457278Y-106785498D01*
X161297320Y-106916770D01*
X161166048Y-107076728D01*
X161068500Y-107259224D01*
X161068499Y-107259227D01*
X161063812Y-107274678D01*
X161025514Y-107333116D01*
X160961701Y-107361572D01*
X160945152Y-107362681D01*
X154477543Y-107362681D01*
X154410504Y-107342996D01*
X154389862Y-107326362D01*
X153372720Y-106309220D01*
X153339235Y-106247897D01*
X153344219Y-106178205D01*
X153386091Y-106122272D01*
X153451555Y-106097855D01*
X153460401Y-106097539D01*
X162212790Y-106097539D01*
X162279829Y-106117224D01*
X162291455Y-106125686D01*
X162296325Y-106129683D01*
X162326012Y-106154046D01*
X162508508Y-106251593D01*
X162706528Y-106311661D01*
X162706527Y-106311661D01*
X162724991Y-106313479D01*
X162912462Y-106331944D01*
X163118396Y-106311661D01*
X163316416Y-106251593D01*
X163498912Y-106154046D01*
X163658872Y-106022771D01*
X163790147Y-105862811D01*
X163887694Y-105680315D01*
X163947762Y-105482295D01*
X163968045Y-105276361D01*
X163947762Y-105070427D01*
X163887694Y-104872407D01*
X163790147Y-104689911D01*
X163738164Y-104626570D01*
X163658872Y-104529950D01*
X163498914Y-104398678D01*
X163498915Y-104398678D01*
X163498912Y-104398676D01*
X163316416Y-104301129D01*
X163118396Y-104241061D01*
X163118394Y-104241060D01*
X163118396Y-104241060D01*
X162912462Y-104220778D01*
X162706529Y-104241060D01*
X162508505Y-104301130D01*
X162398360Y-104360004D01*
X162326012Y-104398676D01*
X162326010Y-104398677D01*
X162326009Y-104398678D01*
X162166051Y-104529950D01*
X162045594Y-104676730D01*
X162034777Y-104689911D01*
X162009562Y-104737084D01*
X161937231Y-104872404D01*
X161937230Y-104872406D01*
X161937230Y-104872407D01*
X161934155Y-104882543D01*
X161877161Y-105070428D01*
X161861122Y-105233279D01*
X161856879Y-105276361D01*
X161863097Y-105339496D01*
X161865155Y-105360384D01*
X161852136Y-105429031D01*
X161804072Y-105479741D01*
X161741752Y-105496539D01*
X154382659Y-105496539D01*
X154315620Y-105476854D01*
X154269865Y-105424050D01*
X154259921Y-105354892D01*
X154262844Y-105341451D01*
X154263124Y-105339498D01*
X154263126Y-105339496D01*
X154283608Y-105197039D01*
X154263126Y-105054582D01*
X154203338Y-104923666D01*
X154109089Y-104814896D01*
X153988014Y-104737086D01*
X153988012Y-104737085D01*
X153988010Y-104737084D01*
X153988011Y-104737084D01*
X153849924Y-104696539D01*
X153849922Y-104696539D01*
X153706000Y-104696539D01*
X153705997Y-104696539D01*
X153567910Y-104737084D01*
X153446834Y-104814895D01*
X153352584Y-104923665D01*
X153352583Y-104923667D01*
X153292795Y-105054582D01*
X153272314Y-105197039D01*
X153294058Y-105348274D01*
X153290657Y-105348762D01*
X153290636Y-105402108D01*
X153252838Y-105460871D01*
X153189271Y-105489870D01*
X153120116Y-105479899D01*
X153083992Y-105454806D01*
X147238727Y-99609541D01*
X147238719Y-99609535D01*
X147170210Y-99569982D01*
X147170205Y-99569979D01*
X147144728Y-99563152D01*
X147093777Y-99549500D01*
X147093775Y-99549500D01*
X143632288Y-99549500D01*
X143565249Y-99529815D01*
X143544607Y-99513181D01*
X143506130Y-99474704D01*
X143472645Y-99413381D01*
X143471074Y-99369374D01*
X143472382Y-99360280D01*
X143467310Y-99325000D01*
X148819353Y-99325000D01*
X148839834Y-99467456D01*
X148877303Y-99549500D01*
X148899623Y-99598373D01*
X148993872Y-99707143D01*
X149114947Y-99784953D01*
X149114950Y-99784954D01*
X149114949Y-99784954D01*
X149162797Y-99799003D01*
X149251823Y-99825143D01*
X149253036Y-99825499D01*
X149253038Y-99825500D01*
X149349167Y-99825500D01*
X149416206Y-99845185D01*
X149436848Y-99861819D01*
X152834540Y-103259511D01*
X152890489Y-103315460D01*
X152890491Y-103315461D01*
X152890495Y-103315464D01*
X152959004Y-103355017D01*
X152959011Y-103355021D01*
X153035438Y-103375500D01*
X154748770Y-103375500D01*
X154815809Y-103395185D01*
X154842481Y-103418295D01*
X154854302Y-103431937D01*
X154975377Y-103509747D01*
X154975380Y-103509748D01*
X154975379Y-103509748D01*
X155113466Y-103550293D01*
X155113468Y-103550294D01*
X155113469Y-103550294D01*
X155257392Y-103550294D01*
X155257392Y-103550293D01*
X155395483Y-103509747D01*
X155516558Y-103431937D01*
X155610807Y-103323167D01*
X155670595Y-103192251D01*
X155691077Y-103049794D01*
X155670595Y-102907337D01*
X155610807Y-102776421D01*
X155516558Y-102667651D01*
X155395483Y-102589841D01*
X155395481Y-102589840D01*
X155395479Y-102589839D01*
X155395480Y-102589839D01*
X155257393Y-102549294D01*
X155257391Y-102549294D01*
X155113469Y-102549294D01*
X155113466Y-102549294D01*
X154975379Y-102589839D01*
X154854299Y-102667652D01*
X154798803Y-102731701D01*
X154740025Y-102769477D01*
X154705089Y-102774500D01*
X154569976Y-102774500D01*
X154502937Y-102754815D01*
X154457182Y-102702011D01*
X154447238Y-102632853D01*
X154457183Y-102598987D01*
X154457938Y-102597333D01*
X154460165Y-102592457D01*
X154480647Y-102450000D01*
X154460165Y-102307543D01*
X154400377Y-102176627D01*
X154400375Y-102176625D01*
X154400374Y-102176622D01*
X154305787Y-102067462D01*
X154276762Y-102003906D01*
X154275500Y-101986260D01*
X154275500Y-100923209D01*
X154267539Y-100893498D01*
X154255021Y-100846781D01*
X154233630Y-100809730D01*
X154215464Y-100778265D01*
X154215458Y-100778257D01*
X151539040Y-98101839D01*
X151505555Y-98040516D01*
X151503984Y-97996509D01*
X151505292Y-97987415D01*
X151484810Y-97844958D01*
X151425022Y-97714042D01*
X151330773Y-97605272D01*
X151209698Y-97527462D01*
X151209696Y-97527461D01*
X151209694Y-97527460D01*
X151209695Y-97527460D01*
X151071608Y-97486915D01*
X151071606Y-97486915D01*
X150927684Y-97486915D01*
X150927681Y-97486915D01*
X150789594Y-97527460D01*
X150668518Y-97605271D01*
X150574268Y-97714041D01*
X150574267Y-97714043D01*
X150514479Y-97844958D01*
X150493998Y-97987415D01*
X150514479Y-98129871D01*
X150566986Y-98244843D01*
X150574268Y-98260788D01*
X150668517Y-98369558D01*
X150789592Y-98447368D01*
X150789595Y-98447369D01*
X150789594Y-98447369D01*
X150896752Y-98478832D01*
X150924925Y-98487105D01*
X150927681Y-98487914D01*
X150927683Y-98487915D01*
X151023812Y-98487915D01*
X151090851Y-98507600D01*
X151111493Y-98524234D01*
X153638181Y-101050922D01*
X153671666Y-101112245D01*
X153674500Y-101138603D01*
X153674500Y-101986260D01*
X153654815Y-102053299D01*
X153644213Y-102067462D01*
X153549625Y-102176622D01*
X153549622Y-102176628D01*
X153489834Y-102307543D01*
X153469353Y-102450000D01*
X153489834Y-102592457D01*
X153489835Y-102592458D01*
X153492817Y-102598987D01*
X153502762Y-102668145D01*
X153473738Y-102731701D01*
X153414961Y-102769477D01*
X153380024Y-102774500D01*
X153250833Y-102774500D01*
X153183794Y-102754815D01*
X153163152Y-102738181D01*
X150927711Y-100502740D01*
X151513121Y-100502740D01*
X151533602Y-100645196D01*
X151593390Y-100776111D01*
X151593391Y-100776113D01*
X151687640Y-100884883D01*
X151808715Y-100962693D01*
X151808718Y-100962694D01*
X151808717Y-100962694D01*
X151915875Y-100994157D01*
X151945046Y-101002723D01*
X151946804Y-101003239D01*
X151946806Y-101003240D01*
X151946807Y-101003240D01*
X152090730Y-101003240D01*
X152090730Y-101003239D01*
X152228821Y-100962693D01*
X152349896Y-100884883D01*
X152444145Y-100776113D01*
X152503933Y-100645197D01*
X152524415Y-100502740D01*
X152503933Y-100360283D01*
X152444145Y-100229367D01*
X152349896Y-100120597D01*
X152228821Y-100042787D01*
X152228819Y-100042786D01*
X152228817Y-100042785D01*
X152228818Y-100042785D01*
X152090731Y-100002240D01*
X152090729Y-100002240D01*
X151946807Y-100002240D01*
X151946804Y-100002240D01*
X151808717Y-100042785D01*
X151687641Y-100120596D01*
X151593391Y-100229366D01*
X151593390Y-100229368D01*
X151533602Y-100360283D01*
X151513121Y-100502740D01*
X150927711Y-100502740D01*
X149864395Y-99439424D01*
X149830910Y-99378101D01*
X149829339Y-99334094D01*
X149830647Y-99325000D01*
X149810165Y-99182543D01*
X149750377Y-99051627D01*
X149656128Y-98942857D01*
X149535053Y-98865047D01*
X149535051Y-98865046D01*
X149535049Y-98865045D01*
X149535050Y-98865045D01*
X149396963Y-98824500D01*
X149396961Y-98824500D01*
X149253039Y-98824500D01*
X149253036Y-98824500D01*
X149114949Y-98865045D01*
X148993873Y-98942856D01*
X148899623Y-99051626D01*
X148899622Y-99051628D01*
X148839834Y-99182543D01*
X148819353Y-99325000D01*
X143467310Y-99325000D01*
X143451900Y-99217823D01*
X143392112Y-99086907D01*
X143297863Y-98978137D01*
X143176788Y-98900327D01*
X143176786Y-98900326D01*
X143176784Y-98900325D01*
X143176785Y-98900325D01*
X143038698Y-98859780D01*
X143038696Y-98859780D01*
X142894774Y-98859780D01*
X142894771Y-98859780D01*
X142756684Y-98900325D01*
X142635607Y-98978136D01*
X142595806Y-99024069D01*
X142537027Y-99061843D01*
X142467158Y-99061842D01*
X142435055Y-99047181D01*
X142385050Y-99015045D01*
X142246963Y-98974500D01*
X142246961Y-98974500D01*
X142103039Y-98974500D01*
X142103036Y-98974500D01*
X141964949Y-99015045D01*
X141843873Y-99092856D01*
X141749623Y-99201626D01*
X141749621Y-99201628D01*
X141725929Y-99253508D01*
X141680174Y-99306312D01*
X141613134Y-99325996D01*
X141546095Y-99306311D01*
X141519424Y-99283201D01*
X141515278Y-99278417D01*
X141506128Y-99267857D01*
X141385053Y-99190047D01*
X141385051Y-99190046D01*
X141385049Y-99190045D01*
X141385050Y-99190045D01*
X141246963Y-99149500D01*
X141246961Y-99149500D01*
X141103039Y-99149500D01*
X141103036Y-99149500D01*
X140964949Y-99190045D01*
X140843873Y-99267856D01*
X140749623Y-99376626D01*
X140749622Y-99376628D01*
X140689834Y-99507543D01*
X140669353Y-99650000D01*
X139557814Y-99650000D01*
X140689599Y-98518215D01*
X144689346Y-98518215D01*
X144709827Y-98660671D01*
X144758932Y-98768193D01*
X144769616Y-98791588D01*
X144863865Y-98900358D01*
X144984940Y-98978168D01*
X144984943Y-98978169D01*
X144984942Y-98978169D01*
X145049097Y-98997006D01*
X145120801Y-99018060D01*
X145123029Y-99018714D01*
X145123031Y-99018715D01*
X145123032Y-99018715D01*
X145266955Y-99018715D01*
X145266955Y-99018714D01*
X145397417Y-98980408D01*
X145405043Y-98978169D01*
X145405043Y-98978168D01*
X145405046Y-98978168D01*
X145526121Y-98900358D01*
X145620370Y-98791588D01*
X145680158Y-98660672D01*
X145700640Y-98518215D01*
X145680158Y-98375758D01*
X145620370Y-98244842D01*
X145526121Y-98136072D01*
X145405046Y-98058262D01*
X145405044Y-98058261D01*
X145405042Y-98058260D01*
X145405043Y-98058260D01*
X145266956Y-98017715D01*
X145266954Y-98017715D01*
X145123032Y-98017715D01*
X145123029Y-98017715D01*
X144984942Y-98058260D01*
X144863866Y-98136071D01*
X144769616Y-98244841D01*
X144769615Y-98244843D01*
X144709827Y-98375758D01*
X144689346Y-98518215D01*
X140689599Y-98518215D01*
X140778495Y-98429319D01*
X140839818Y-98395834D01*
X140866176Y-98393000D01*
X141654510Y-98393000D01*
X141654512Y-98393000D01*
X141781806Y-98358892D01*
X141895934Y-98293000D01*
X142708000Y-97480934D01*
X142773892Y-97366806D01*
X142808000Y-97239512D01*
X142808000Y-97107727D01*
X142808000Y-92473676D01*
X142827685Y-92406637D01*
X142844319Y-92385995D01*
X143380314Y-91850000D01*
X144419353Y-91850000D01*
X144439834Y-91992456D01*
X144486442Y-92094511D01*
X144499623Y-92123373D01*
X144593872Y-92232143D01*
X144714947Y-92309953D01*
X144714950Y-92309954D01*
X144714949Y-92309954D01*
X144853036Y-92350499D01*
X144853038Y-92350500D01*
X144853039Y-92350500D01*
X144996962Y-92350500D01*
X144996962Y-92350499D01*
X145133190Y-92310500D01*
X145135050Y-92309954D01*
X145135050Y-92309953D01*
X145135053Y-92309953D01*
X145256128Y-92232143D01*
X145350377Y-92123373D01*
X145410165Y-91992457D01*
X145430647Y-91850000D01*
X145410165Y-91707543D01*
X145350377Y-91576627D01*
X145256128Y-91467857D01*
X145135053Y-91390047D01*
X145135051Y-91390046D01*
X145135049Y-91390045D01*
X145135050Y-91390045D01*
X144996963Y-91349500D01*
X144996961Y-91349500D01*
X144853039Y-91349500D01*
X144853036Y-91349500D01*
X144714949Y-91390045D01*
X144593873Y-91467856D01*
X144499623Y-91576626D01*
X144499622Y-91576628D01*
X144439834Y-91707543D01*
X144419353Y-91850000D01*
X143380314Y-91850000D01*
X145051879Y-90178435D01*
X145113202Y-90144950D01*
X145139560Y-90142116D01*
X145852943Y-90142116D01*
X145919982Y-90161801D01*
X145965737Y-90214605D01*
X145975681Y-90283763D01*
X145972757Y-90297203D01*
X145951994Y-90441616D01*
X145972475Y-90584072D01*
X146003063Y-90651049D01*
X146032264Y-90714989D01*
X146126513Y-90823759D01*
X146247588Y-90901569D01*
X146247591Y-90901570D01*
X146247590Y-90901570D01*
X146385677Y-90942115D01*
X146385679Y-90942116D01*
X146385680Y-90942116D01*
X146529603Y-90942116D01*
X146529603Y-90942115D01*
X146667694Y-90901569D01*
X146788769Y-90823759D01*
X146822429Y-90784912D01*
X146881208Y-90747139D01*
X146916142Y-90742116D01*
X148375783Y-90742116D01*
X148442822Y-90761801D01*
X148463464Y-90778435D01*
X151341772Y-93656743D01*
X151375257Y-93718066D01*
X151376829Y-93726777D01*
X151384834Y-93782453D01*
X151384835Y-93782458D01*
X151414598Y-93847629D01*
X151444623Y-93913373D01*
X151538872Y-94022143D01*
X151659947Y-94099953D01*
X151659950Y-94099954D01*
X151659949Y-94099954D01*
X151798036Y-94140499D01*
X151798038Y-94140500D01*
X151798039Y-94140500D01*
X151941962Y-94140500D01*
X151941962Y-94140499D01*
X152080053Y-94099953D01*
X152201128Y-94022143D01*
X152295377Y-93913373D01*
X152355165Y-93782457D01*
X152375647Y-93640000D01*
X157996990Y-93640000D01*
X158017471Y-93782456D01*
X158047235Y-93847629D01*
X158077260Y-93913373D01*
X158171509Y-94022143D01*
X158292584Y-94099953D01*
X158292587Y-94099954D01*
X158292586Y-94099954D01*
X158430673Y-94140499D01*
X158430675Y-94140500D01*
X158430676Y-94140500D01*
X158574599Y-94140500D01*
X158574599Y-94140499D01*
X158712690Y-94099953D01*
X158833765Y-94022143D01*
X158928014Y-93913373D01*
X158987802Y-93782457D01*
X159008284Y-93640000D01*
X158987802Y-93497543D01*
X158928014Y-93366627D01*
X158833765Y-93257857D01*
X158712690Y-93180047D01*
X158712688Y-93180046D01*
X158712686Y-93180045D01*
X158712687Y-93180045D01*
X158574600Y-93139500D01*
X158574598Y-93139500D01*
X158430676Y-93139500D01*
X158430673Y-93139500D01*
X158292586Y-93180045D01*
X158171510Y-93257856D01*
X158077260Y-93366626D01*
X158077259Y-93366628D01*
X158017471Y-93497543D01*
X157996990Y-93640000D01*
X152375647Y-93640000D01*
X152355165Y-93497543D01*
X152295377Y-93366627D01*
X152295374Y-93366624D01*
X152290582Y-93359166D01*
X152293735Y-93357139D01*
X152272046Y-93309622D01*
X152282004Y-93240465D01*
X152327770Y-93187671D01*
X152394788Y-93168000D01*
X155318390Y-93168000D01*
X155318392Y-93168000D01*
X155445686Y-93133892D01*
X155559814Y-93068000D01*
X157402818Y-91224996D01*
X159944435Y-91224996D01*
X159944435Y-91225003D01*
X159964630Y-91404249D01*
X159964631Y-91404254D01*
X160024211Y-91574523D01*
X160049357Y-91614542D01*
X160120184Y-91727262D01*
X160247738Y-91854816D01*
X160288668Y-91880534D01*
X160374560Y-91934504D01*
X160400478Y-91950789D01*
X160548828Y-92002699D01*
X160570745Y-92010368D01*
X160570750Y-92010369D01*
X160749996Y-92030565D01*
X160750000Y-92030565D01*
X160750004Y-92030565D01*
X160929249Y-92010369D01*
X160929252Y-92010368D01*
X160929255Y-92010368D01*
X161099522Y-91950789D01*
X161252262Y-91854816D01*
X161379816Y-91727262D01*
X161475789Y-91574522D01*
X161535368Y-91404255D01*
X161536969Y-91390045D01*
X161555565Y-91225003D01*
X161555565Y-91224996D01*
X161535369Y-91045750D01*
X161535368Y-91045745D01*
X161501304Y-90948397D01*
X161475789Y-90875478D01*
X161379816Y-90722738D01*
X161252262Y-90595184D01*
X161234577Y-90584072D01*
X161099523Y-90499211D01*
X160929254Y-90439631D01*
X160929249Y-90439630D01*
X160750004Y-90419435D01*
X160749996Y-90419435D01*
X160570750Y-90439630D01*
X160570745Y-90439631D01*
X160400476Y-90499211D01*
X160247737Y-90595184D01*
X160120184Y-90722737D01*
X160024211Y-90875476D01*
X159964631Y-91045745D01*
X159964630Y-91045750D01*
X159944435Y-91224996D01*
X157402818Y-91224996D01*
X164136911Y-84490903D01*
X164198234Y-84457418D01*
X164224592Y-84454584D01*
X166714438Y-84454584D01*
X166781477Y-84474269D01*
X166823795Y-84520129D01*
X166834702Y-84540535D01*
X166965977Y-84700494D01*
X167059739Y-84777443D01*
X167099073Y-84835188D01*
X167100944Y-84905033D01*
X167064757Y-84964801D01*
X167002001Y-84995517D01*
X166970267Y-84996824D01*
X166843657Y-84985747D01*
X166843653Y-84985747D01*
X166608339Y-85006334D01*
X166608328Y-85006336D01*
X166380171Y-85067470D01*
X166380162Y-85067474D01*
X166166077Y-85167303D01*
X166166075Y-85167304D01*
X165972581Y-85302790D01*
X165972575Y-85302795D01*
X165805545Y-85469825D01*
X165678771Y-85650876D01*
X166520288Y-85957164D01*
X166443556Y-86033897D01*
X166377730Y-86147911D01*
X166343655Y-86275078D01*
X166343655Y-86406730D01*
X166349068Y-86426933D01*
X165507760Y-86120722D01*
X165488498Y-86340901D01*
X165488498Y-86340905D01*
X165509085Y-86576219D01*
X165509087Y-86576230D01*
X165570221Y-86804387D01*
X165570225Y-86804396D01*
X165670054Y-87018482D01*
X165800370Y-87204590D01*
X165822697Y-87270796D01*
X165805687Y-87338564D01*
X165754739Y-87386377D01*
X165730888Y-87395489D01*
X165511440Y-87454289D01*
X165511431Y-87454293D01*
X165297346Y-87554122D01*
X165297344Y-87554123D01*
X165103850Y-87689609D01*
X165103844Y-87689614D01*
X164936814Y-87856644D01*
X164810040Y-88037695D01*
X165651558Y-88343982D01*
X165574825Y-88420716D01*
X165508999Y-88534730D01*
X165474924Y-88661897D01*
X165474924Y-88793549D01*
X165480337Y-88813752D01*
X164639029Y-88507541D01*
X164619767Y-88727720D01*
X164619767Y-88727724D01*
X164640354Y-88963038D01*
X164640356Y-88963049D01*
X164701490Y-89191206D01*
X164701494Y-89191215D01*
X164801323Y-89405301D01*
X164931639Y-89591409D01*
X164953966Y-89657615D01*
X164936956Y-89725383D01*
X164886008Y-89773196D01*
X164862157Y-89782308D01*
X164642709Y-89841108D01*
X164642700Y-89841112D01*
X164428615Y-89940941D01*
X164428613Y-89940942D01*
X164235119Y-90076428D01*
X164235113Y-90076433D01*
X164068083Y-90243463D01*
X163941309Y-90424514D01*
X164782827Y-90730801D01*
X164706094Y-90807535D01*
X164640268Y-90921549D01*
X164606193Y-91048716D01*
X164606193Y-91180368D01*
X164611606Y-91200570D01*
X163770298Y-90894360D01*
X163751036Y-91114539D01*
X163751036Y-91114543D01*
X163771623Y-91349857D01*
X163771625Y-91349868D01*
X163832759Y-91578025D01*
X163832763Y-91578034D01*
X163932592Y-91792120D01*
X164068087Y-91985624D01*
X164235114Y-92152651D01*
X164334356Y-92222142D01*
X164377981Y-92276719D01*
X164385173Y-92346217D01*
X164353651Y-92408572D01*
X164293420Y-92443985D01*
X164251078Y-92447119D01*
X164237463Y-92445778D01*
X164031530Y-92466060D01*
X163833506Y-92526130D01*
X163727722Y-92582674D01*
X163651013Y-92623676D01*
X163651011Y-92623677D01*
X163651010Y-92623678D01*
X163491052Y-92754950D01*
X163359780Y-92914908D01*
X163359778Y-92914911D01*
X163321106Y-92987259D01*
X163262232Y-93097404D01*
X163202162Y-93295428D01*
X163181880Y-93501361D01*
X163202162Y-93707293D01*
X163224963Y-93782457D01*
X163262231Y-93905315D01*
X163353194Y-94075494D01*
X163359780Y-94087814D01*
X163480585Y-94235016D01*
X163507898Y-94299326D01*
X163496107Y-94368194D01*
X163448954Y-94419754D01*
X163384732Y-94437681D01*
X162106744Y-94437681D01*
X162039705Y-94417996D01*
X161993950Y-94365192D01*
X161984006Y-94296034D01*
X161993950Y-94262169D01*
X162019250Y-94206769D01*
X162025165Y-94193818D01*
X162045647Y-94051361D01*
X162025165Y-93908904D01*
X161965377Y-93777988D01*
X161871128Y-93669218D01*
X161750053Y-93591408D01*
X161750051Y-93591407D01*
X161750049Y-93591406D01*
X161750050Y-93591406D01*
X161611963Y-93550861D01*
X161611961Y-93550861D01*
X161468039Y-93550861D01*
X161468036Y-93550861D01*
X161329949Y-93591406D01*
X161329946Y-93591408D01*
X161259643Y-93636588D01*
X161192604Y-93656272D01*
X161125564Y-93636587D01*
X161104924Y-93619953D01*
X159409395Y-91924424D01*
X159375910Y-91863101D01*
X159374339Y-91819094D01*
X159375647Y-91810000D01*
X159355165Y-91667543D01*
X159295377Y-91536627D01*
X159201128Y-91427857D01*
X159080053Y-91350047D01*
X159080051Y-91350046D01*
X159080049Y-91350045D01*
X159080050Y-91350045D01*
X158941963Y-91309500D01*
X158941961Y-91309500D01*
X158798039Y-91309500D01*
X158798036Y-91309500D01*
X158659949Y-91350045D01*
X158538873Y-91427856D01*
X158444623Y-91536626D01*
X158444622Y-91536628D01*
X158384834Y-91667543D01*
X158364353Y-91810000D01*
X158384834Y-91952456D01*
X158418126Y-92025353D01*
X158444623Y-92083373D01*
X158538872Y-92192143D01*
X158659947Y-92269953D01*
X158659950Y-92269954D01*
X158659949Y-92269954D01*
X158741105Y-92293783D01*
X158796179Y-92309954D01*
X158798036Y-92310499D01*
X158798038Y-92310500D01*
X158894167Y-92310500D01*
X158961206Y-92330185D01*
X158981848Y-92346819D01*
X160861029Y-94226000D01*
X160894514Y-94287323D01*
X160889530Y-94357015D01*
X160847658Y-94412948D01*
X160782194Y-94437365D01*
X160773348Y-94437681D01*
X149316486Y-94437681D01*
X149285915Y-94445872D01*
X149240056Y-94458160D01*
X149240055Y-94458161D01*
X149196932Y-94483059D01*
X149171540Y-94497718D01*
X149171535Y-94497722D01*
X148705186Y-94964071D01*
X148643863Y-94997556D01*
X148617505Y-95000390D01*
X148521375Y-95000390D01*
X148383288Y-95040935D01*
X148262212Y-95118746D01*
X148167962Y-95227516D01*
X148167961Y-95227518D01*
X148108173Y-95358433D01*
X148087692Y-95500890D01*
X148108173Y-95643346D01*
X148108387Y-95643813D01*
X148108460Y-95644321D01*
X148110672Y-95651854D01*
X148109589Y-95652172D01*
X148118332Y-95712972D01*
X148089308Y-95776528D01*
X148030531Y-95814303D01*
X147995594Y-95819327D01*
X147760707Y-95819327D01*
X147684279Y-95839805D01*
X147615758Y-95879367D01*
X147615755Y-95879369D01*
X146901944Y-96593181D01*
X146840621Y-96626666D01*
X146814263Y-96629500D01*
X146127384Y-96629500D01*
X146060345Y-96609815D01*
X146039703Y-96593181D01*
X145919516Y-96472994D01*
X145886031Y-96411671D01*
X145884460Y-96367664D01*
X145885768Y-96358570D01*
X145865286Y-96216113D01*
X145805498Y-96085197D01*
X145711249Y-95976427D01*
X145590174Y-95898617D01*
X145590172Y-95898616D01*
X145590170Y-95898615D01*
X145590171Y-95898615D01*
X145452084Y-95858070D01*
X145452082Y-95858070D01*
X145308160Y-95858070D01*
X145308157Y-95858070D01*
X145170070Y-95898615D01*
X145048994Y-95976426D01*
X144954744Y-96085196D01*
X144954743Y-96085198D01*
X144894955Y-96216113D01*
X144874474Y-96358570D01*
X144894955Y-96501026D01*
X144952334Y-96626666D01*
X144954744Y-96631943D01*
X145048993Y-96740713D01*
X145170068Y-96818523D01*
X145170071Y-96818524D01*
X145170070Y-96818524D01*
X145277228Y-96849987D01*
X145305401Y-96858260D01*
X145308157Y-96859069D01*
X145308159Y-96859070D01*
X145404288Y-96859070D01*
X145471327Y-96878755D01*
X145491969Y-96895389D01*
X145711091Y-97114511D01*
X145767040Y-97170460D01*
X145767042Y-97170461D01*
X145767046Y-97170464D01*
X145784116Y-97180319D01*
X145835562Y-97210021D01*
X145911989Y-97230500D01*
X145911991Y-97230500D01*
X147029656Y-97230500D01*
X147029658Y-97230500D01*
X147106085Y-97210021D01*
X147174607Y-97170460D01*
X147230556Y-97114511D01*
X147888421Y-96456646D01*
X147949744Y-96423161D01*
X147976102Y-96420327D01*
X156835645Y-96420327D01*
X156902684Y-96440012D01*
X156923326Y-96456646D01*
X162791894Y-102325214D01*
X162825379Y-102386537D01*
X162820395Y-102456229D01*
X162813574Y-102471342D01*
X162805963Y-102485581D01*
X162745892Y-102683609D01*
X162725610Y-102889542D01*
X162745892Y-103095474D01*
X162763456Y-103153374D01*
X162805961Y-103293496D01*
X162903508Y-103475992D01*
X162924105Y-103501090D01*
X163034782Y-103635952D01*
X163118385Y-103704562D01*
X163194743Y-103767227D01*
X163377239Y-103864774D01*
X163575259Y-103924842D01*
X163575258Y-103924842D01*
X163593722Y-103926660D01*
X163781193Y-103945125D01*
X163987127Y-103924842D01*
X164185147Y-103864774D01*
X164367643Y-103767227D01*
X164527603Y-103635952D01*
X164658878Y-103475992D01*
X164756425Y-103293496D01*
X164816493Y-103095476D01*
X164836776Y-102889542D01*
X164816493Y-102683608D01*
X164756425Y-102485588D01*
X164658878Y-102303092D01*
X164527603Y-102143132D01*
X164510555Y-102129141D01*
X164433841Y-102066183D01*
X164394507Y-102008438D01*
X164392636Y-101938593D01*
X164428823Y-101878825D01*
X164491579Y-101848109D01*
X164523314Y-101846802D01*
X164649925Y-101857880D01*
X164649927Y-101857880D01*
X164885240Y-101837292D01*
X164885251Y-101837290D01*
X165113408Y-101776156D01*
X165113417Y-101776152D01*
X165327503Y-101676323D01*
X165521007Y-101540828D01*
X165688034Y-101373802D01*
X165814807Y-101192750D01*
X164973290Y-100886463D01*
X165050024Y-100809730D01*
X165115850Y-100695716D01*
X165149925Y-100568549D01*
X165149925Y-100436897D01*
X165144511Y-100416693D01*
X165985817Y-100722903D01*
X166005082Y-100502723D01*
X166005082Y-100502721D01*
X165984494Y-100267407D01*
X165984492Y-100267396D01*
X165923358Y-100039239D01*
X165923354Y-100039230D01*
X165823525Y-99825145D01*
X165823524Y-99825143D01*
X165688038Y-99631649D01*
X165688033Y-99631643D01*
X165521003Y-99464613D01*
X165421761Y-99395122D01*
X165378136Y-99340545D01*
X165370944Y-99271047D01*
X165402467Y-99208692D01*
X165462697Y-99173279D01*
X165505042Y-99170146D01*
X165513438Y-99170973D01*
X165518654Y-99171487D01*
X165518655Y-99171487D01*
X165518655Y-99171486D01*
X165518656Y-99171487D01*
X165724590Y-99151204D01*
X165922610Y-99091136D01*
X166105106Y-98993589D01*
X166265066Y-98862314D01*
X166396341Y-98702354D01*
X166493888Y-98519858D01*
X166553956Y-98321838D01*
X166574239Y-98115904D01*
X166553956Y-97909970D01*
X166493888Y-97711950D01*
X166396341Y-97529454D01*
X166311528Y-97426108D01*
X166265066Y-97369493D01*
X166147333Y-97272873D01*
X166105106Y-97238219D01*
X165922610Y-97140672D01*
X165724590Y-97080604D01*
X165724588Y-97080603D01*
X165724590Y-97080603D01*
X165518656Y-97060321D01*
X165312723Y-97080603D01*
X165114699Y-97140673D01*
X165040528Y-97180319D01*
X164932206Y-97238219D01*
X164932204Y-97238220D01*
X164932203Y-97238221D01*
X164772245Y-97369493D01*
X164641680Y-97528590D01*
X164640971Y-97529454D01*
X164634021Y-97542457D01*
X164543425Y-97711947D01*
X164483355Y-97909971D01*
X164463073Y-98115904D01*
X164483355Y-98321836D01*
X164505802Y-98395834D01*
X164539426Y-98506679D01*
X164543425Y-98519860D01*
X164545763Y-98524234D01*
X164640971Y-98702354D01*
X164640973Y-98702356D01*
X164772245Y-98862314D01*
X164866006Y-98939260D01*
X164905341Y-98997006D01*
X164907212Y-99066850D01*
X164871025Y-99126619D01*
X164808270Y-99157335D01*
X164776535Y-99158642D01*
X164649927Y-99147566D01*
X164649923Y-99147566D01*
X164414609Y-99168153D01*
X164414598Y-99168155D01*
X164186441Y-99229289D01*
X164186432Y-99229293D01*
X163972347Y-99329122D01*
X163972345Y-99329123D01*
X163778851Y-99464609D01*
X163778845Y-99464614D01*
X163611815Y-99631644D01*
X163485041Y-99812695D01*
X164326558Y-100118983D01*
X164249826Y-100195716D01*
X164184000Y-100309730D01*
X164149925Y-100436897D01*
X164149925Y-100568549D01*
X164155338Y-100588751D01*
X163314030Y-100282541D01*
X163294768Y-100502720D01*
X163294768Y-100502724D01*
X163315355Y-100738038D01*
X163315357Y-100738049D01*
X163376491Y-100966206D01*
X163376495Y-100966215D01*
X163476324Y-101180301D01*
X163611819Y-101373805D01*
X163778846Y-101540832D01*
X163878088Y-101610323D01*
X163921713Y-101664900D01*
X163928905Y-101734398D01*
X163897383Y-101796753D01*
X163837152Y-101832166D01*
X163794811Y-101835300D01*
X163781194Y-101833959D01*
X163781193Y-101833959D01*
X163767578Y-101835300D01*
X163575260Y-101854241D01*
X163377232Y-101914312D01*
X163362993Y-101921923D01*
X163294590Y-101936162D01*
X163229347Y-101911158D01*
X163216865Y-101900243D01*
X159591622Y-98275000D01*
X161444417Y-98275000D01*
X161464699Y-98480932D01*
X161472789Y-98507600D01*
X161524768Y-98678954D01*
X161622315Y-98861450D01*
X161625267Y-98865047D01*
X161753589Y-99021410D01*
X161833399Y-99086907D01*
X161913550Y-99152685D01*
X162096046Y-99250232D01*
X162294066Y-99310300D01*
X162294065Y-99310300D01*
X162312529Y-99312118D01*
X162500000Y-99330583D01*
X162705934Y-99310300D01*
X162903954Y-99250232D01*
X163086450Y-99152685D01*
X163246410Y-99021410D01*
X163377685Y-98861450D01*
X163475232Y-98678954D01*
X163535300Y-98480934D01*
X163555583Y-98275000D01*
X163535300Y-98069066D01*
X163475232Y-97871046D01*
X163377685Y-97688550D01*
X163309340Y-97605271D01*
X163246410Y-97528589D01*
X163121535Y-97426108D01*
X163086450Y-97397315D01*
X162903954Y-97299768D01*
X162705934Y-97239700D01*
X162705932Y-97239699D01*
X162705934Y-97239699D01*
X162500000Y-97219417D01*
X162294067Y-97239699D01*
X162096043Y-97299769D01*
X161990259Y-97356313D01*
X161913550Y-97397315D01*
X161913548Y-97397316D01*
X161913547Y-97397317D01*
X161753589Y-97528589D01*
X161634770Y-97673373D01*
X161622315Y-97688550D01*
X161608690Y-97714041D01*
X161524769Y-97871043D01*
X161464699Y-98069067D01*
X161444417Y-98275000D01*
X159591622Y-98275000D01*
X157195990Y-95879368D01*
X157195985Y-95879364D01*
X157159100Y-95858069D01*
X157159100Y-95858068D01*
X157159098Y-95858068D01*
X157148060Y-95851695D01*
X157127468Y-95839806D01*
X157127469Y-95839806D01*
X157089253Y-95829566D01*
X157051040Y-95819327D01*
X157051038Y-95819327D01*
X153074698Y-95819327D01*
X153007659Y-95799642D01*
X152961904Y-95746838D01*
X152951960Y-95677680D01*
X152954883Y-95664239D01*
X152955163Y-95662286D01*
X152955165Y-95662284D01*
X152975647Y-95519827D01*
X152955165Y-95377370D01*
X152895377Y-95246454D01*
X152895375Y-95246452D01*
X152895374Y-95246449D01*
X152893150Y-95243883D01*
X152891739Y-95240793D01*
X152890582Y-95238993D01*
X152890840Y-95238826D01*
X152864125Y-95180327D01*
X152874069Y-95111169D01*
X152919824Y-95058365D01*
X152986863Y-95038681D01*
X162444749Y-95038681D01*
X162511788Y-95058366D01*
X162557543Y-95111170D01*
X162567487Y-95180328D01*
X162540602Y-95241346D01*
X162491048Y-95301727D01*
X162393500Y-95484224D01*
X162393499Y-95484226D01*
X162393499Y-95484227D01*
X162391202Y-95491798D01*
X162333430Y-95682248D01*
X162313148Y-95888181D01*
X162333430Y-96094113D01*
X162348048Y-96142303D01*
X162393499Y-96292135D01*
X162491046Y-96474631D01*
X162512708Y-96501026D01*
X162622320Y-96634591D01*
X162707279Y-96704314D01*
X162782281Y-96765866D01*
X162964777Y-96863413D01*
X163162797Y-96923481D01*
X163162796Y-96923481D01*
X163181260Y-96925299D01*
X163368731Y-96943764D01*
X163574665Y-96923481D01*
X163772685Y-96863413D01*
X163955181Y-96765866D01*
X164115141Y-96634591D01*
X164246416Y-96474631D01*
X164343963Y-96292135D01*
X164404031Y-96094115D01*
X164424314Y-95888181D01*
X164404031Y-95682247D01*
X164343963Y-95484227D01*
X164246416Y-95301731D01*
X164241525Y-95295771D01*
X164196860Y-95241346D01*
X164169547Y-95177036D01*
X164181338Y-95108168D01*
X164228491Y-95056608D01*
X164292713Y-95038681D01*
X165220651Y-95038681D01*
X165287690Y-95058366D01*
X165308332Y-95075000D01*
X165398088Y-95164756D01*
X165431573Y-95226079D01*
X165426589Y-95295771D01*
X165419768Y-95310884D01*
X165412157Y-95325123D01*
X165352086Y-95523151D01*
X165331804Y-95729084D01*
X165352086Y-95935016D01*
X165352087Y-95935018D01*
X165412155Y-96133038D01*
X165509702Y-96315534D01*
X165509704Y-96315536D01*
X165640976Y-96475494D01*
X165672089Y-96501027D01*
X165800937Y-96606769D01*
X165983433Y-96704316D01*
X166181453Y-96764384D01*
X166181452Y-96764384D01*
X166196469Y-96765863D01*
X166387387Y-96784667D01*
X166593321Y-96764384D01*
X166791341Y-96704316D01*
X166973837Y-96606769D01*
X167133797Y-96475494D01*
X167265072Y-96315534D01*
X167362619Y-96133038D01*
X167422687Y-95935018D01*
X167442970Y-95729084D01*
X167422687Y-95523150D01*
X167362619Y-95325130D01*
X167265072Y-95142634D01*
X167196938Y-95059612D01*
X167133797Y-94982673D01*
X167016064Y-94886053D01*
X166973837Y-94851399D01*
X166791341Y-94753852D01*
X166593321Y-94693784D01*
X166593319Y-94693783D01*
X166593321Y-94693783D01*
X166387387Y-94673501D01*
X166181454Y-94693783D01*
X165983426Y-94753854D01*
X165969187Y-94761465D01*
X165900784Y-94775704D01*
X165835541Y-94750700D01*
X165823059Y-94739785D01*
X165580996Y-94497722D01*
X165580991Y-94497718D01*
X165555600Y-94483059D01*
X165555600Y-94483058D01*
X165555598Y-94483058D01*
X165512478Y-94458162D01*
X165512475Y-94458160D01*
X165474259Y-94447920D01*
X165436046Y-94437681D01*
X165436044Y-94437681D01*
X165090194Y-94437681D01*
X165023155Y-94417996D01*
X164977400Y-94365192D01*
X164967456Y-94296034D01*
X164994341Y-94235016D01*
X165062800Y-94151597D01*
X165115148Y-94087811D01*
X165212695Y-93905315D01*
X165272763Y-93707295D01*
X165293046Y-93501361D01*
X165277376Y-93342265D01*
X166200535Y-93342265D01*
X166220817Y-93548197D01*
X166233925Y-93591408D01*
X166280886Y-93746219D01*
X166378433Y-93928715D01*
X166391479Y-93944612D01*
X166509707Y-94088675D01*
X166561519Y-94131195D01*
X166669668Y-94219950D01*
X166852164Y-94317497D01*
X167050184Y-94377565D01*
X167050183Y-94377565D01*
X167068647Y-94379383D01*
X167256118Y-94397848D01*
X167462052Y-94377565D01*
X167660072Y-94317497D01*
X167842568Y-94219950D01*
X168002528Y-94088675D01*
X168133803Y-93928715D01*
X168231350Y-93746219D01*
X168291418Y-93548199D01*
X168311701Y-93342265D01*
X168291418Y-93136331D01*
X168231350Y-92938311D01*
X168133803Y-92755815D01*
X168025362Y-92623678D01*
X168002528Y-92595854D01*
X167874328Y-92490645D01*
X167842568Y-92464580D01*
X167660072Y-92367033D01*
X167462052Y-92306965D01*
X167462050Y-92306964D01*
X167462052Y-92306964D01*
X167256118Y-92286682D01*
X167050185Y-92306964D01*
X166852161Y-92367034D01*
X166748741Y-92422314D01*
X166669668Y-92464580D01*
X166669666Y-92464581D01*
X166669665Y-92464582D01*
X166509707Y-92595854D01*
X166378435Y-92755812D01*
X166280887Y-92938308D01*
X166220817Y-93136332D01*
X166200535Y-93342265D01*
X165277376Y-93342265D01*
X165272763Y-93295427D01*
X165212695Y-93097407D01*
X165115148Y-92914911D01*
X165046192Y-92830887D01*
X164983873Y-92754950D01*
X164890112Y-92678004D01*
X164850777Y-92620258D01*
X164848906Y-92550414D01*
X164885093Y-92490645D01*
X164947849Y-92459929D01*
X164979584Y-92458622D01*
X165106192Y-92469699D01*
X165106195Y-92469699D01*
X165341508Y-92449111D01*
X165341519Y-92449109D01*
X165569676Y-92387975D01*
X165569685Y-92387971D01*
X165783771Y-92288142D01*
X165977275Y-92152647D01*
X166144302Y-91985621D01*
X166271075Y-91804569D01*
X165429558Y-91498282D01*
X165506292Y-91421549D01*
X165572118Y-91307535D01*
X165606193Y-91180368D01*
X165606193Y-91048716D01*
X165600779Y-91028512D01*
X166442085Y-91334722D01*
X166461350Y-91114542D01*
X166461350Y-91114540D01*
X166440762Y-90879226D01*
X166440760Y-90879215D01*
X166379626Y-90651058D01*
X166379622Y-90651049D01*
X166279793Y-90436964D01*
X166279792Y-90436962D01*
X166149478Y-90250854D01*
X166127151Y-90184648D01*
X166144161Y-90116881D01*
X166195109Y-90069068D01*
X166218960Y-90059956D01*
X166438407Y-90001156D01*
X166438416Y-90001152D01*
X166652502Y-89901323D01*
X166846006Y-89765828D01*
X167013033Y-89598802D01*
X167139806Y-89417750D01*
X166298290Y-89111462D01*
X166375023Y-89034730D01*
X166440849Y-88920716D01*
X166474924Y-88793549D01*
X166474924Y-88661897D01*
X166469510Y-88641693D01*
X167310816Y-88947903D01*
X167330081Y-88727723D01*
X167330081Y-88727721D01*
X167309493Y-88492407D01*
X167309491Y-88492396D01*
X167248357Y-88264239D01*
X167248353Y-88264230D01*
X167148524Y-88050145D01*
X167148523Y-88050143D01*
X167018209Y-87864035D01*
X166995882Y-87797829D01*
X167012892Y-87730062D01*
X167063840Y-87682249D01*
X167087691Y-87673137D01*
X167307138Y-87614337D01*
X167307147Y-87614333D01*
X167521233Y-87514504D01*
X167714737Y-87379009D01*
X167881764Y-87211983D01*
X168008537Y-87030931D01*
X167167021Y-86724643D01*
X167243754Y-86647911D01*
X167309580Y-86533897D01*
X167343655Y-86406730D01*
X167343655Y-86275078D01*
X167338241Y-86254874D01*
X168179547Y-86561084D01*
X168198812Y-86340904D01*
X168198812Y-86340902D01*
X168178224Y-86105588D01*
X168178222Y-86105577D01*
X168117088Y-85877420D01*
X168117084Y-85877411D01*
X168017255Y-85663326D01*
X168017254Y-85663324D01*
X167881768Y-85469830D01*
X167881763Y-85469824D01*
X167714733Y-85302794D01*
X167615489Y-85233302D01*
X167571864Y-85178725D01*
X167564672Y-85109227D01*
X167596194Y-85046872D01*
X167656425Y-85011459D01*
X167698765Y-85008325D01*
X167712387Y-85009667D01*
X167918321Y-84989384D01*
X168116341Y-84929316D01*
X168298837Y-84831769D01*
X168458797Y-84700494D01*
X168590072Y-84540534D01*
X168687619Y-84358038D01*
X168747687Y-84160018D01*
X168767970Y-83954084D01*
X168747687Y-83748150D01*
X168687619Y-83550130D01*
X168590072Y-83367634D01*
X168538089Y-83304293D01*
X168458797Y-83207673D01*
X168298839Y-83076401D01*
X168298840Y-83076401D01*
X168298837Y-83076399D01*
X168116341Y-82978852D01*
X167918321Y-82918784D01*
X167918319Y-82918783D01*
X167918321Y-82918783D01*
X167712387Y-82898501D01*
X167506454Y-82918783D01*
X167308430Y-82978853D01*
X167198285Y-83037727D01*
X167125937Y-83076399D01*
X167125935Y-83076400D01*
X167125934Y-83076401D01*
X166965976Y-83207673D01*
X166834702Y-83367632D01*
X166823795Y-83388039D01*
X166774832Y-83437882D01*
X166714438Y-83453584D01*
X163900023Y-83453584D01*
X163772728Y-83487692D01*
X163658602Y-83553584D01*
X163658599Y-83553586D01*
X155081505Y-92130681D01*
X155020182Y-92164166D01*
X154993824Y-92167000D01*
X152248136Y-92167000D01*
X152181097Y-92147315D01*
X152135342Y-92094511D01*
X152125398Y-92025353D01*
X152154423Y-91961797D01*
X152186138Y-91935612D01*
X152188059Y-91934503D01*
X152284503Y-91838059D01*
X152352699Y-91719940D01*
X152388000Y-91588195D01*
X152388000Y-91451804D01*
X152352699Y-91320060D01*
X152332460Y-91285005D01*
X152284507Y-91201946D01*
X152284501Y-91201938D01*
X151342563Y-90260000D01*
X152254353Y-90260000D01*
X152274834Y-90402456D01*
X152332210Y-90528089D01*
X152334623Y-90533373D01*
X152428872Y-90642143D01*
X152549947Y-90719953D01*
X152549950Y-90719954D01*
X152549949Y-90719954D01*
X152688036Y-90760499D01*
X152688038Y-90760500D01*
X152688039Y-90760500D01*
X152831962Y-90760500D01*
X152831962Y-90760499D01*
X152960568Y-90722738D01*
X152970050Y-90719954D01*
X152970050Y-90719953D01*
X152970053Y-90719953D01*
X153091128Y-90642143D01*
X153185377Y-90533373D01*
X153245165Y-90402457D01*
X153265647Y-90260000D01*
X153245165Y-90117543D01*
X153185377Y-89986627D01*
X153091128Y-89877857D01*
X152970053Y-89800047D01*
X152970051Y-89800046D01*
X152970049Y-89800045D01*
X152970050Y-89800045D01*
X152831963Y-89759500D01*
X152831961Y-89759500D01*
X152688039Y-89759500D01*
X152688036Y-89759500D01*
X152549949Y-89800045D01*
X152428873Y-89877856D01*
X152334623Y-89986626D01*
X152334622Y-89986628D01*
X152274834Y-90117543D01*
X152254353Y-90260000D01*
X151342563Y-90260000D01*
X148554319Y-87471756D01*
X148520834Y-87410433D01*
X148518000Y-87384075D01*
X148518000Y-87140440D01*
X148537685Y-87073401D01*
X148554319Y-87052759D01*
X148588987Y-87018091D01*
X148629816Y-86977262D01*
X148725789Y-86824522D01*
X148785368Y-86654255D01*
X148793415Y-86582834D01*
X148805565Y-86475003D01*
X148805565Y-86474996D01*
X148785369Y-86295750D01*
X148785368Y-86295745D01*
X148778136Y-86275078D01*
X148725789Y-86125478D01*
X148713284Y-86105577D01*
X148659812Y-86020476D01*
X148629816Y-85972738D01*
X148502262Y-85845184D01*
X148495450Y-85840904D01*
X148349523Y-85749211D01*
X148179254Y-85689631D01*
X148179249Y-85689630D01*
X148000004Y-85669435D01*
X147999996Y-85669435D01*
X147820750Y-85689630D01*
X147820745Y-85689631D01*
X147650476Y-85749211D01*
X147497737Y-85845184D01*
X147370184Y-85972737D01*
X147274211Y-86125476D01*
X147214631Y-86295745D01*
X147214630Y-86295750D01*
X147194435Y-86474996D01*
X147194435Y-86475004D01*
X147195141Y-86481271D01*
X147183086Y-86550093D01*
X147159603Y-86582834D01*
X147056942Y-86685495D01*
X147021756Y-86720681D01*
X146960433Y-86754166D01*
X146934075Y-86757000D01*
X143540924Y-86757000D01*
X143473885Y-86737315D01*
X143453243Y-86720681D01*
X143165397Y-86432835D01*
X143131912Y-86371512D01*
X143129859Y-86331263D01*
X143130565Y-86325000D01*
X143130565Y-86324997D01*
X143110369Y-86145750D01*
X143110368Y-86145745D01*
X143096313Y-86105577D01*
X143050789Y-85975478D01*
X143049067Y-85972738D01*
X142987641Y-85874979D01*
X142954816Y-85822738D01*
X142827262Y-85695184D01*
X142818426Y-85689632D01*
X142674523Y-85599211D01*
X142504254Y-85539631D01*
X142504249Y-85539630D01*
X142325004Y-85519435D01*
X142324996Y-85519435D01*
X142145750Y-85539630D01*
X142145745Y-85539631D01*
X141975476Y-85599211D01*
X141822737Y-85695184D01*
X141695184Y-85822737D01*
X141599211Y-85975476D01*
X141539631Y-86145745D01*
X141539630Y-86145750D01*
X141519435Y-86324996D01*
X141519435Y-86325003D01*
X141539630Y-86504249D01*
X141539631Y-86504254D01*
X141599211Y-86674523D01*
X141695184Y-86827262D01*
X141754998Y-86887076D01*
X141788483Y-86948399D01*
X141783499Y-87018091D01*
X141754998Y-87062438D01*
X141474870Y-87342565D01*
X141474871Y-87342566D01*
X141385496Y-87431941D01*
X141385495Y-87431943D01*
X141317302Y-87550056D01*
X141317302Y-87550057D01*
X141317301Y-87550059D01*
X141282000Y-87681804D01*
X141282000Y-87681806D01*
X141282000Y-90910455D01*
X141262315Y-90977494D01*
X141245681Y-90998136D01*
X136685499Y-95558317D01*
X136685495Y-95558323D01*
X136617302Y-95676436D01*
X136617302Y-95676437D01*
X136617301Y-95676439D01*
X136582000Y-95808184D01*
X136582000Y-95808186D01*
X136582000Y-98434075D01*
X136562315Y-98501114D01*
X136545681Y-98521756D01*
X135582834Y-99484602D01*
X135521511Y-99518087D01*
X135481271Y-99520141D01*
X135475004Y-99519435D01*
X135474996Y-99519435D01*
X135295750Y-99539630D01*
X135295745Y-99539631D01*
X135125476Y-99599211D01*
X134972737Y-99695184D01*
X134845184Y-99822737D01*
X134749211Y-99975476D01*
X134689631Y-100145745D01*
X134689630Y-100145750D01*
X134669435Y-100324996D01*
X134669435Y-100325003D01*
X134689630Y-100504249D01*
X134689631Y-100504254D01*
X134749211Y-100674523D01*
X134813045Y-100776113D01*
X134845184Y-100827262D01*
X134972738Y-100954816D01*
X135125478Y-101050789D01*
X135197510Y-101075994D01*
X135295745Y-101110368D01*
X135295750Y-101110369D01*
X135474996Y-101130565D01*
X135475000Y-101130565D01*
X135475004Y-101130565D01*
X135654249Y-101110369D01*
X135654252Y-101110368D01*
X135654255Y-101110368D01*
X135824522Y-101050789D01*
X135977262Y-100954816D01*
X136104816Y-100827262D01*
X136200789Y-100674522D01*
X136260368Y-100504255D01*
X136261923Y-100490460D01*
X136267957Y-100436897D01*
X136280565Y-100325000D01*
X136279858Y-100318730D01*
X136291910Y-100249911D01*
X136315394Y-100217166D01*
X137407850Y-99124711D01*
X137407855Y-99124707D01*
X137418058Y-99114503D01*
X137418060Y-99114503D01*
X137514503Y-99018060D01*
X137582699Y-98899941D01*
X137618000Y-98768196D01*
X137618000Y-96142303D01*
X137637685Y-96075264D01*
X137654314Y-96054626D01*
X138499880Y-95209060D01*
X138561201Y-95175577D01*
X138630892Y-95180561D01*
X138686826Y-95222433D01*
X138700353Y-95245230D01*
X138708553Y-95263186D01*
X138724623Y-95298373D01*
X138818872Y-95407143D01*
X138939947Y-95484953D01*
X138939950Y-95484954D01*
X138939949Y-95484954D01*
X139078036Y-95525499D01*
X139078038Y-95525500D01*
X139078039Y-95525500D01*
X139221962Y-95525500D01*
X139221962Y-95525499D01*
X139360053Y-95484953D01*
X139481128Y-95407143D01*
X139575377Y-95298373D01*
X139586322Y-95274405D01*
X139632073Y-95221605D01*
X139699112Y-95201919D01*
X139766152Y-95221602D01*
X139786796Y-95238238D01*
X140058181Y-95509623D01*
X140091666Y-95570946D01*
X140094500Y-95597304D01*
X140094500Y-96480696D01*
X140129801Y-96612441D01*
X140197997Y-96730560D01*
X140197999Y-96730562D01*
X140301505Y-96834068D01*
X140301511Y-96834073D01*
X140647757Y-97180319D01*
X140681242Y-97241642D01*
X140676258Y-97311334D01*
X140634386Y-97367267D01*
X140568922Y-97391684D01*
X140560076Y-97392000D01*
X140541608Y-97392000D01*
X140414311Y-97426108D01*
X140360686Y-97457069D01*
X140292785Y-97473540D01*
X140226759Y-97450688D01*
X140183569Y-97395766D01*
X140175949Y-97367327D01*
X140175940Y-97367267D01*
X140160165Y-97257543D01*
X140100377Y-97126627D01*
X140006128Y-97017857D01*
X139885053Y-96940047D01*
X139885051Y-96940046D01*
X139885049Y-96940045D01*
X139885050Y-96940045D01*
X139746963Y-96899500D01*
X139746961Y-96899500D01*
X139603039Y-96899500D01*
X139603036Y-96899500D01*
X139464949Y-96940045D01*
X139343873Y-97017856D01*
X139249623Y-97126626D01*
X139249622Y-97126628D01*
X139189834Y-97257543D01*
X139169353Y-97400000D01*
X139189834Y-97542456D01*
X139218522Y-97605272D01*
X139249623Y-97673373D01*
X139343872Y-97782143D01*
X139464947Y-97859953D01*
X139464950Y-97859954D01*
X139464949Y-97859954D01*
X139603032Y-97900498D01*
X139603039Y-97900500D01*
X139603046Y-97900500D01*
X139610195Y-97901528D01*
X139673752Y-97930549D01*
X139711530Y-97989325D01*
X139711534Y-98059195D01*
X139680236Y-98111948D01*
X132732861Y-105059323D01*
X132671538Y-105092808D01*
X132601846Y-105087824D01*
X132545913Y-105045952D01*
X132526521Y-105007641D01*
X132481501Y-104859226D01*
X132383954Y-104676730D01*
X132292297Y-104565045D01*
X132252679Y-104516769D01*
X132134946Y-104420149D01*
X132092719Y-104385495D01*
X131910223Y-104287948D01*
X131712203Y-104227880D01*
X131712201Y-104227879D01*
X131712203Y-104227879D01*
X131506269Y-104207597D01*
X131300336Y-104227879D01*
X131102312Y-104287949D01*
X131077653Y-104301130D01*
X130919819Y-104385495D01*
X130919817Y-104385496D01*
X130919816Y-104385497D01*
X130759858Y-104516769D01*
X130628586Y-104676727D01*
X130628584Y-104676730D01*
X130602783Y-104725000D01*
X130531038Y-104859223D01*
X130470968Y-105057247D01*
X130450686Y-105263180D01*
X128666618Y-105263180D01*
X127797871Y-102876361D01*
X129581955Y-102876361D01*
X129602237Y-103082293D01*
X129606236Y-103095476D01*
X129662306Y-103280315D01*
X129759853Y-103462811D01*
X129781483Y-103489167D01*
X129891127Y-103622771D01*
X129932400Y-103656642D01*
X130051088Y-103754046D01*
X130233584Y-103851593D01*
X130431604Y-103911661D01*
X130431603Y-103911661D01*
X130450067Y-103913479D01*
X130637538Y-103931944D01*
X130843472Y-103911661D01*
X131041492Y-103851593D01*
X131223988Y-103754046D01*
X131383948Y-103622771D01*
X131515223Y-103462811D01*
X131612770Y-103280315D01*
X131672838Y-103082295D01*
X131693121Y-102876361D01*
X131672838Y-102670427D01*
X131612770Y-102472407D01*
X131515223Y-102289911D01*
X131422250Y-102176622D01*
X131383948Y-102129950D01*
X131235883Y-102008438D01*
X131223988Y-101998676D01*
X131041492Y-101901129D01*
X130843472Y-101841061D01*
X130843470Y-101841060D01*
X130843472Y-101841060D01*
X130637538Y-101820778D01*
X130431605Y-101841060D01*
X130233581Y-101901130D01*
X130142150Y-101950002D01*
X130051088Y-101998676D01*
X130051086Y-101998677D01*
X130051085Y-101998678D01*
X129891127Y-102129950D01*
X129798105Y-102243300D01*
X129759853Y-102289911D01*
X129740983Y-102325214D01*
X129662307Y-102472404D01*
X129602237Y-102670428D01*
X129581955Y-102876361D01*
X127797871Y-102876361D01*
X126929124Y-100489542D01*
X128713223Y-100489542D01*
X128733505Y-100695474D01*
X128741646Y-100722310D01*
X128793574Y-100893496D01*
X128891121Y-101075992D01*
X128919333Y-101110369D01*
X129022395Y-101235952D01*
X129119015Y-101315244D01*
X129182356Y-101367227D01*
X129364852Y-101464774D01*
X129562872Y-101524842D01*
X129562871Y-101524842D01*
X129581335Y-101526660D01*
X129768806Y-101545125D01*
X129974740Y-101524842D01*
X130172760Y-101464774D01*
X130355256Y-101367227D01*
X130515216Y-101235952D01*
X130646491Y-101075992D01*
X130744038Y-100893496D01*
X130804106Y-100695476D01*
X130824389Y-100489542D01*
X130804106Y-100283608D01*
X130744038Y-100085588D01*
X130646491Y-99903092D01*
X130582813Y-99825500D01*
X130515216Y-99743131D01*
X130379373Y-99631649D01*
X130355256Y-99611857D01*
X130172760Y-99514310D01*
X129974740Y-99454242D01*
X129974738Y-99454241D01*
X129974740Y-99454241D01*
X129768806Y-99433959D01*
X129562873Y-99454241D01*
X129364849Y-99514311D01*
X129260698Y-99569982D01*
X129182356Y-99611857D01*
X129182354Y-99611858D01*
X129182353Y-99611859D01*
X129022395Y-99743131D01*
X128917053Y-99871493D01*
X128891121Y-99903092D01*
X128874091Y-99934953D01*
X128793575Y-100085585D01*
X128733505Y-100283609D01*
X128713223Y-100489542D01*
X126929124Y-100489542D01*
X126882077Y-100360283D01*
X126060378Y-98102723D01*
X127844492Y-98102723D01*
X127864774Y-98308655D01*
X127894809Y-98407667D01*
X127924843Y-98506677D01*
X128022390Y-98689173D01*
X128033209Y-98702356D01*
X128153664Y-98849133D01*
X128216043Y-98900325D01*
X128313625Y-98980408D01*
X128496121Y-99077955D01*
X128694141Y-99138023D01*
X128694140Y-99138023D01*
X128712604Y-99139841D01*
X128900075Y-99158306D01*
X129106009Y-99138023D01*
X129304029Y-99077955D01*
X129486525Y-98980408D01*
X129646485Y-98849133D01*
X129777760Y-98689173D01*
X129875307Y-98506677D01*
X129935375Y-98308657D01*
X129938690Y-98275000D01*
X130869417Y-98275000D01*
X130889699Y-98480932D01*
X130897789Y-98507600D01*
X130949768Y-98678954D01*
X131047315Y-98861450D01*
X131050267Y-98865047D01*
X131178589Y-99021410D01*
X131258399Y-99086907D01*
X131338550Y-99152685D01*
X131521046Y-99250232D01*
X131719066Y-99310300D01*
X131719065Y-99310300D01*
X131737529Y-99312118D01*
X131925000Y-99330583D01*
X132130934Y-99310300D01*
X132328954Y-99250232D01*
X132511450Y-99152685D01*
X132671410Y-99021410D01*
X132802685Y-98861450D01*
X132900232Y-98678954D01*
X132960300Y-98480934D01*
X132980583Y-98275000D01*
X132960300Y-98069066D01*
X132900232Y-97871046D01*
X132802685Y-97688550D01*
X132734340Y-97605271D01*
X132671410Y-97528589D01*
X132546535Y-97426108D01*
X132511450Y-97397315D01*
X132328954Y-97299768D01*
X132130934Y-97239700D01*
X132130932Y-97239699D01*
X132130934Y-97239699D01*
X131925000Y-97219417D01*
X131719067Y-97239699D01*
X131521043Y-97299769D01*
X131415259Y-97356313D01*
X131338550Y-97397315D01*
X131338548Y-97397316D01*
X131338547Y-97397317D01*
X131178589Y-97528589D01*
X131059770Y-97673373D01*
X131047315Y-97688550D01*
X131033690Y-97714041D01*
X130949769Y-97871043D01*
X130889699Y-98069067D01*
X130869417Y-98275000D01*
X129938690Y-98275000D01*
X129955658Y-98102723D01*
X129935375Y-97896789D01*
X129875307Y-97698769D01*
X129777760Y-97516273D01*
X129680136Y-97397317D01*
X129646485Y-97356312D01*
X129504391Y-97239700D01*
X129486525Y-97225038D01*
X129304029Y-97127491D01*
X129106009Y-97067423D01*
X129106007Y-97067422D01*
X129106009Y-97067422D01*
X128900075Y-97047140D01*
X128694142Y-97067422D01*
X128538911Y-97114511D01*
X128498970Y-97126627D01*
X128496118Y-97127492D01*
X128471459Y-97140673D01*
X128313625Y-97225038D01*
X128313623Y-97225039D01*
X128313622Y-97225040D01*
X128153664Y-97356312D01*
X128046483Y-97486915D01*
X128022390Y-97516273D01*
X128015346Y-97529451D01*
X127924844Y-97698766D01*
X127864774Y-97896790D01*
X127844492Y-98102723D01*
X126060378Y-98102723D01*
X125191631Y-95715903D01*
X126975761Y-95715903D01*
X126996043Y-95921835D01*
X127000042Y-95935018D01*
X127056112Y-96119857D01*
X127153659Y-96302353D01*
X127164478Y-96315536D01*
X127284933Y-96462313D01*
X127332106Y-96501026D01*
X127444894Y-96593588D01*
X127627390Y-96691135D01*
X127825410Y-96751203D01*
X127825409Y-96751203D01*
X127843873Y-96753021D01*
X128031344Y-96771486D01*
X128237278Y-96751203D01*
X128435298Y-96691135D01*
X128617794Y-96593588D01*
X128777754Y-96462313D01*
X128909029Y-96302353D01*
X129006576Y-96119857D01*
X129066644Y-95921837D01*
X129069959Y-95888181D01*
X130000686Y-95888181D01*
X130020968Y-96094113D01*
X130035586Y-96142303D01*
X130081037Y-96292135D01*
X130178584Y-96474631D01*
X130200246Y-96501026D01*
X130309858Y-96634591D01*
X130394817Y-96704314D01*
X130469819Y-96765866D01*
X130652315Y-96863413D01*
X130850335Y-96923481D01*
X130850334Y-96923481D01*
X130868798Y-96925299D01*
X131056269Y-96943764D01*
X131262203Y-96923481D01*
X131460223Y-96863413D01*
X131642719Y-96765866D01*
X131802679Y-96634591D01*
X131933954Y-96474631D01*
X132031501Y-96292135D01*
X132091569Y-96094115D01*
X132111852Y-95888181D01*
X132091569Y-95682247D01*
X132031501Y-95484227D01*
X131933954Y-95301731D01*
X131834321Y-95180327D01*
X131802679Y-95141770D01*
X131677063Y-95038681D01*
X131642719Y-95010496D01*
X131460223Y-94912949D01*
X131262203Y-94852881D01*
X131262201Y-94852880D01*
X131262203Y-94852880D01*
X131056269Y-94832598D01*
X130850336Y-94852880D01*
X130652312Y-94912950D01*
X130542167Y-94971824D01*
X130469819Y-95010496D01*
X130469817Y-95010497D01*
X130469816Y-95010498D01*
X130309858Y-95141770D01*
X130181339Y-95298374D01*
X130178584Y-95301731D01*
X130166077Y-95325130D01*
X130081038Y-95484224D01*
X130081037Y-95484226D01*
X130081037Y-95484227D01*
X130078740Y-95491798D01*
X130020968Y-95682248D01*
X130000686Y-95888181D01*
X129069959Y-95888181D01*
X129086927Y-95715903D01*
X129066644Y-95509969D01*
X129006576Y-95311949D01*
X128909029Y-95129453D01*
X128834535Y-95038681D01*
X128777754Y-94969492D01*
X128635660Y-94852880D01*
X128617794Y-94838218D01*
X128435298Y-94740671D01*
X128237278Y-94680603D01*
X128237276Y-94680602D01*
X128237278Y-94680602D01*
X128031344Y-94660320D01*
X127825411Y-94680602D01*
X127627387Y-94740672D01*
X127561848Y-94775704D01*
X127444894Y-94838218D01*
X127444892Y-94838219D01*
X127444891Y-94838220D01*
X127284933Y-94969492D01*
X127162445Y-95118747D01*
X127153659Y-95129453D01*
X127147075Y-95141771D01*
X127056113Y-95311946D01*
X126996043Y-95509970D01*
X126975761Y-95715903D01*
X125191631Y-95715903D01*
X124322884Y-93329084D01*
X126107030Y-93329084D01*
X126127312Y-93535016D01*
X126153077Y-93619953D01*
X126187381Y-93733038D01*
X126284928Y-93915534D01*
X126295747Y-93928717D01*
X126416202Y-94075494D01*
X126508935Y-94151597D01*
X126576163Y-94206769D01*
X126758659Y-94304316D01*
X126956679Y-94364384D01*
X126956678Y-94364384D01*
X126975142Y-94366202D01*
X127162613Y-94384667D01*
X127368547Y-94364384D01*
X127566567Y-94304316D01*
X127749063Y-94206769D01*
X127909023Y-94075494D01*
X128040298Y-93915534D01*
X128137845Y-93733038D01*
X128197913Y-93535018D01*
X128201228Y-93501361D01*
X129131955Y-93501361D01*
X129152237Y-93707293D01*
X129175038Y-93782457D01*
X129212306Y-93905315D01*
X129309853Y-94087811D01*
X129344507Y-94130038D01*
X129441127Y-94247771D01*
X129526087Y-94317495D01*
X129601088Y-94379046D01*
X129783584Y-94476593D01*
X129981604Y-94536661D01*
X129981603Y-94536661D01*
X130000067Y-94538479D01*
X130187538Y-94556944D01*
X130393472Y-94536661D01*
X130591492Y-94476593D01*
X130773988Y-94379046D01*
X130933948Y-94247771D01*
X131065223Y-94087811D01*
X131162770Y-93905315D01*
X131222838Y-93707295D01*
X131243121Y-93501361D01*
X131222838Y-93295427D01*
X131162770Y-93097407D01*
X131065223Y-92914911D01*
X130996267Y-92830887D01*
X130933948Y-92754950D01*
X130773990Y-92623678D01*
X130773991Y-92623678D01*
X130773988Y-92623676D01*
X130591492Y-92526129D01*
X130393472Y-92466061D01*
X130393470Y-92466060D01*
X130393472Y-92466060D01*
X130187538Y-92445778D01*
X129981605Y-92466060D01*
X129783581Y-92526130D01*
X129677797Y-92582674D01*
X129601088Y-92623676D01*
X129601086Y-92623677D01*
X129601085Y-92623678D01*
X129441127Y-92754950D01*
X129309855Y-92914908D01*
X129309853Y-92914911D01*
X129271181Y-92987259D01*
X129212307Y-93097404D01*
X129152237Y-93295428D01*
X129131955Y-93501361D01*
X128201228Y-93501361D01*
X128218196Y-93329084D01*
X128197913Y-93123150D01*
X128137845Y-92925130D01*
X128040298Y-92742634D01*
X127942674Y-92623678D01*
X127909023Y-92582673D01*
X127766929Y-92466061D01*
X127749063Y-92451399D01*
X127566567Y-92353852D01*
X127368547Y-92293784D01*
X127368545Y-92293783D01*
X127368547Y-92293783D01*
X127162613Y-92273501D01*
X126956680Y-92293783D01*
X126781844Y-92346819D01*
X126769713Y-92350499D01*
X126758656Y-92353853D01*
X126659906Y-92406637D01*
X126576163Y-92451399D01*
X126576161Y-92451400D01*
X126576160Y-92451401D01*
X126416202Y-92582673D01*
X126295979Y-92729168D01*
X126284928Y-92742634D01*
X126277884Y-92755812D01*
X126187382Y-92925127D01*
X126127312Y-93123151D01*
X126107030Y-93329084D01*
X124322884Y-93329084D01*
X124028698Y-92520830D01*
X124017711Y-92490645D01*
X123679479Y-91561375D01*
X123679473Y-91561349D01*
X123663874Y-91518498D01*
X123655616Y-91495812D01*
X123651597Y-91482484D01*
X123622855Y-91363272D01*
X123619410Y-91335655D01*
X123618071Y-91220075D01*
X123620876Y-91192379D01*
X123637744Y-91114542D01*
X128263224Y-91114542D01*
X128283506Y-91320474D01*
X128292477Y-91350047D01*
X128343575Y-91518496D01*
X128441122Y-91700992D01*
X128456672Y-91719940D01*
X128572396Y-91860952D01*
X128649738Y-91924424D01*
X128732357Y-91992227D01*
X128914853Y-92089774D01*
X129112873Y-92149842D01*
X129112872Y-92149842D01*
X129131336Y-92151660D01*
X129318807Y-92170125D01*
X129524741Y-92149842D01*
X129722761Y-92089774D01*
X129905257Y-91992227D01*
X130065217Y-91860952D01*
X130196492Y-91700992D01*
X130294039Y-91518496D01*
X130354107Y-91320476D01*
X130374390Y-91114542D01*
X130354107Y-90908608D01*
X130294039Y-90710588D01*
X130196492Y-90528092D01*
X130144509Y-90464751D01*
X130065217Y-90368131D01*
X129913306Y-90243463D01*
X129905257Y-90236857D01*
X129722761Y-90139310D01*
X129524741Y-90079242D01*
X129524739Y-90079241D01*
X129524741Y-90079241D01*
X129318807Y-90058959D01*
X129112874Y-90079241D01*
X128914850Y-90139311D01*
X128841656Y-90178435D01*
X128732357Y-90236857D01*
X128732355Y-90236858D01*
X128732354Y-90236859D01*
X128572396Y-90368131D01*
X128441124Y-90528089D01*
X128441122Y-90528092D01*
X128417494Y-90572296D01*
X128343576Y-90710585D01*
X128283506Y-90908609D01*
X128263224Y-91114542D01*
X123637744Y-91114542D01*
X123645355Y-91079420D01*
X123654269Y-91053048D01*
X123703335Y-90948397D01*
X123717903Y-90924682D01*
X123789084Y-90833612D01*
X123808579Y-90813745D01*
X123832739Y-90794113D01*
X123898281Y-90740853D01*
X123921718Y-90725835D01*
X124031725Y-90671693D01*
X124044530Y-90666262D01*
X124100002Y-90646337D01*
X124100002Y-90646336D01*
X124105055Y-90644522D01*
X124109318Y-90642655D01*
X124852607Y-90372114D01*
X124857933Y-90370176D01*
X124857932Y-90370175D01*
X124921845Y-90346919D01*
X124921867Y-90346904D01*
X124928020Y-90344664D01*
X124928166Y-90344599D01*
X124951148Y-90336237D01*
X125124681Y-90240059D01*
X125281031Y-90117918D01*
X125416349Y-89972822D01*
X125527303Y-89808343D01*
X125611159Y-89628533D01*
X125665854Y-89437817D01*
X125690041Y-89240894D01*
X125683123Y-89042611D01*
X125645272Y-88847852D01*
X125636623Y-88824087D01*
X125636612Y-88824050D01*
X125633877Y-88816536D01*
X125633877Y-88816534D01*
X125611255Y-88754382D01*
X125601553Y-88727723D01*
X127394492Y-88727723D01*
X127414774Y-88933655D01*
X127423691Y-88963049D01*
X127474843Y-89131677D01*
X127572390Y-89314173D01*
X127586029Y-89330792D01*
X127703664Y-89474133D01*
X127788844Y-89544037D01*
X127863625Y-89605408D01*
X128046121Y-89702955D01*
X128244141Y-89763023D01*
X128244140Y-89763023D01*
X128262604Y-89764841D01*
X128450075Y-89783306D01*
X128656009Y-89763023D01*
X128854029Y-89702955D01*
X129036525Y-89605408D01*
X129196485Y-89474133D01*
X129327760Y-89314173D01*
X129425307Y-89131677D01*
X129485375Y-88933657D01*
X129505658Y-88727723D01*
X129485375Y-88521789D01*
X129425307Y-88323769D01*
X129327760Y-88141273D01*
X129252972Y-88050143D01*
X129196485Y-87981312D01*
X129036527Y-87850040D01*
X129036528Y-87850040D01*
X129036525Y-87850038D01*
X128854029Y-87752491D01*
X128656009Y-87692423D01*
X128656007Y-87692422D01*
X128656009Y-87692422D01*
X128450075Y-87672140D01*
X128244142Y-87692422D01*
X128046118Y-87752492D01*
X127961300Y-87797829D01*
X127863625Y-87850038D01*
X127863623Y-87850039D01*
X127863622Y-87850040D01*
X127703664Y-87981312D01*
X127572392Y-88141270D01*
X127474844Y-88323766D01*
X127414774Y-88521790D01*
X127394492Y-88727723D01*
X125601553Y-88727723D01*
X125588811Y-88692713D01*
X125588808Y-88692709D01*
X125585935Y-88684814D01*
X125585925Y-88684790D01*
X124732801Y-86340904D01*
X126525761Y-86340904D01*
X126546043Y-86546836D01*
X126554960Y-86576230D01*
X126606112Y-86744858D01*
X126703659Y-86927354D01*
X126703661Y-86927356D01*
X126834933Y-87087314D01*
X126931553Y-87166606D01*
X126994894Y-87218589D01*
X127177390Y-87316136D01*
X127375410Y-87376204D01*
X127375409Y-87376204D01*
X127393873Y-87378022D01*
X127581344Y-87396487D01*
X127787278Y-87376204D01*
X127985298Y-87316136D01*
X128167794Y-87218589D01*
X128327754Y-87087314D01*
X128459029Y-86927354D01*
X128556576Y-86744858D01*
X128616644Y-86546838D01*
X128636927Y-86340904D01*
X128616644Y-86134970D01*
X128556576Y-85936950D01*
X128459029Y-85754454D01*
X128384241Y-85663324D01*
X128327754Y-85594493D01*
X128210021Y-85497873D01*
X128167794Y-85463219D01*
X127985298Y-85365672D01*
X127787278Y-85305604D01*
X127787276Y-85305603D01*
X127787278Y-85305603D01*
X127581344Y-85285321D01*
X127375411Y-85305603D01*
X127177387Y-85365673D01*
X127067242Y-85424547D01*
X126994894Y-85463219D01*
X126994892Y-85463220D01*
X126994891Y-85463221D01*
X126834933Y-85594493D01*
X126703661Y-85754451D01*
X126606113Y-85936947D01*
X126546043Y-86134971D01*
X126525761Y-86340904D01*
X124732801Y-86340904D01*
X124011593Y-84359444D01*
X124010596Y-84356597D01*
X123875086Y-83954084D01*
X125657030Y-83954084D01*
X125677312Y-84160016D01*
X125677313Y-84160018D01*
X125737369Y-84357999D01*
X125737382Y-84358040D01*
X125744115Y-84370638D01*
X125834928Y-84540534D01*
X125834929Y-84540535D01*
X125834930Y-84540536D01*
X125966202Y-84700494D01*
X126059966Y-84777443D01*
X126126163Y-84831769D01*
X126308659Y-84929316D01*
X126506679Y-84989384D01*
X126506678Y-84989384D01*
X126525142Y-84991202D01*
X126712613Y-85009667D01*
X126918547Y-84989384D01*
X127116567Y-84929316D01*
X127299063Y-84831769D01*
X127459023Y-84700494D01*
X127590298Y-84540534D01*
X127687845Y-84358038D01*
X127747913Y-84160018D01*
X127768196Y-83954084D01*
X127747913Y-83748150D01*
X127687845Y-83550130D01*
X127590298Y-83367634D01*
X127538315Y-83304293D01*
X127459023Y-83207673D01*
X127299065Y-83076401D01*
X127299066Y-83076401D01*
X127299063Y-83076399D01*
X127116567Y-82978852D01*
X126918547Y-82918784D01*
X126918545Y-82918783D01*
X126918547Y-82918783D01*
X126712613Y-82898501D01*
X126506680Y-82918783D01*
X126308656Y-82978853D01*
X126198511Y-83037727D01*
X126126163Y-83076399D01*
X126126161Y-83076400D01*
X126126160Y-83076401D01*
X125966202Y-83207673D01*
X125834930Y-83367631D01*
X125737382Y-83550127D01*
X125677312Y-83748151D01*
X125657030Y-83954084D01*
X123875086Y-83954084D01*
X123833986Y-83832003D01*
X123832201Y-83826241D01*
X123810076Y-83748150D01*
X123681725Y-83295132D01*
X123680238Y-83289350D01*
X123555768Y-82751538D01*
X123554554Y-82745644D01*
X123532363Y-82622847D01*
X123456392Y-82202443D01*
X123455466Y-82196489D01*
X123449869Y-82153717D01*
X123383839Y-81649159D01*
X123383204Y-81643173D01*
X123377006Y-81567265D01*
X124788299Y-81567265D01*
X124808581Y-81773197D01*
X124808582Y-81773199D01*
X124868650Y-81971219D01*
X124966197Y-82153715D01*
X124966199Y-82153717D01*
X125097471Y-82313675D01*
X125194091Y-82392967D01*
X125257432Y-82444950D01*
X125439928Y-82542497D01*
X125637948Y-82602565D01*
X125637947Y-82602565D01*
X125656411Y-82604383D01*
X125843882Y-82622848D01*
X126049816Y-82602565D01*
X126247836Y-82542497D01*
X126430332Y-82444950D01*
X126590292Y-82313675D01*
X126721567Y-82153715D01*
X126819114Y-81971219D01*
X126879182Y-81773199D01*
X126899465Y-81567265D01*
X167525535Y-81567265D01*
X167545817Y-81773197D01*
X167545818Y-81773199D01*
X167605886Y-81971219D01*
X167703433Y-82153715D01*
X167703435Y-82153717D01*
X167834707Y-82313675D01*
X167931327Y-82392967D01*
X167994668Y-82444950D01*
X168177164Y-82542497D01*
X168375184Y-82602565D01*
X168375183Y-82602565D01*
X168393647Y-82604383D01*
X168581118Y-82622848D01*
X168787052Y-82602565D01*
X168985072Y-82542497D01*
X169167568Y-82444950D01*
X169327528Y-82313675D01*
X169458803Y-82153715D01*
X169556350Y-81971219D01*
X169616418Y-81773199D01*
X169636701Y-81567265D01*
X169616418Y-81361331D01*
X169556350Y-81163311D01*
X169458803Y-80980815D01*
X169406820Y-80917474D01*
X169327528Y-80820854D01*
X169167570Y-80689582D01*
X169167571Y-80689582D01*
X169167568Y-80689580D01*
X168985072Y-80592033D01*
X168787052Y-80531965D01*
X168787050Y-80531964D01*
X168787052Y-80531964D01*
X168581118Y-80511682D01*
X168375185Y-80531964D01*
X168177161Y-80592034D01*
X168067016Y-80650908D01*
X167994668Y-80689580D01*
X167994666Y-80689581D01*
X167994665Y-80689582D01*
X167834707Y-80820854D01*
X167703435Y-80980812D01*
X167605887Y-81163308D01*
X167545817Y-81361332D01*
X167525535Y-81567265D01*
X126899465Y-81567265D01*
X126879182Y-81361331D01*
X126819114Y-81163311D01*
X126721567Y-80980815D01*
X126669584Y-80917474D01*
X126590292Y-80820854D01*
X126430334Y-80689582D01*
X126430335Y-80689582D01*
X126430332Y-80689580D01*
X126247836Y-80592033D01*
X126049816Y-80531965D01*
X126049814Y-80531964D01*
X126049816Y-80531964D01*
X125843882Y-80511682D01*
X125637949Y-80531964D01*
X125439925Y-80592034D01*
X125329780Y-80650908D01*
X125257432Y-80689580D01*
X125257430Y-80689581D01*
X125257429Y-80689582D01*
X125097471Y-80820854D01*
X124966199Y-80980812D01*
X124868651Y-81163308D01*
X124808581Y-81361332D01*
X124788299Y-81567265D01*
X123377006Y-81567265D01*
X123338279Y-81092980D01*
X123337938Y-81087014D01*
X123319824Y-80535270D01*
X123319774Y-80529307D01*
X123328530Y-79976420D01*
X123328611Y-79973535D01*
X123331225Y-79908506D01*
X123331224Y-79908503D01*
X123331516Y-79901247D01*
X123331479Y-79899801D01*
X123333882Y-79838045D01*
X123385920Y-78500369D01*
X123386662Y-78490819D01*
X123410031Y-78290537D01*
X123413707Y-78271763D01*
X123466334Y-78082092D01*
X123472858Y-78064106D01*
X123496127Y-78012711D01*
X123554046Y-77884792D01*
X123563251Y-77868038D01*
X123671068Y-77703352D01*
X123682748Y-77688206D01*
X123814617Y-77542084D01*
X123828490Y-77528913D01*
X123981284Y-77404815D01*
X123997014Y-77393941D01*
X124167082Y-77294837D01*
X124184300Y-77286511D01*
X124367597Y-77214757D01*
X124385881Y-77209184D01*
X124578042Y-77166491D01*
X124596975Y-77163797D01*
X124793396Y-77151185D01*
X124812530Y-77151435D01*
X125008555Y-77169200D01*
X125027417Y-77172392D01*
X125218385Y-77220114D01*
X125236528Y-77226171D01*
X125417862Y-77302706D01*
X125434861Y-77311483D01*
X125585777Y-77404820D01*
X125602260Y-77415014D01*
X125617712Y-77426307D01*
X125770904Y-77557551D01*
X125777924Y-77564052D01*
X125780808Y-77566937D01*
X125780821Y-77566949D01*
X127123050Y-78909882D01*
X127123193Y-78910146D01*
X127123254Y-78910087D01*
X127237027Y-79024454D01*
X127486931Y-79235198D01*
X127604982Y-79318235D01*
X127754314Y-79423277D01*
X128037120Y-79587250D01*
X128037122Y-79587251D01*
X128037129Y-79587255D01*
X128311014Y-79715479D01*
X128333185Y-79725859D01*
X128640237Y-79838043D01*
X128798081Y-79880492D01*
X128955917Y-79922939D01*
X128955918Y-79922939D01*
X128955925Y-79922941D01*
X129277829Y-79979902D01*
X129603481Y-80008491D01*
X129692785Y-80008503D01*
X129692943Y-80008515D01*
X129701037Y-80008515D01*
X129766933Y-80008515D01*
X129832826Y-80008515D01*
X134469948Y-80008515D01*
X134710825Y-80008515D01*
X134777864Y-80028200D01*
X134823008Y-80079684D01*
X134850000Y-80137000D01*
X159650000Y-80137000D01*
X159676343Y-80080282D01*
X159722435Y-80027772D01*
X159788805Y-80008515D01*
X164761051Y-80008515D01*
X164761509Y-80008485D01*
X164850190Y-80008485D01*
X164931342Y-80001383D01*
X165174806Y-79980079D01*
X165495711Y-79923479D01*
X165810460Y-79839118D01*
X166116656Y-79727636D01*
X166411966Y-79589884D01*
X166694142Y-79426910D01*
X166961035Y-79239955D01*
X167210612Y-79030443D01*
X167272921Y-78968105D01*
X167272946Y-78968083D01*
X167279216Y-78961809D01*
X167279221Y-78961807D01*
X167325794Y-78915209D01*
X167372376Y-78868605D01*
X167372376Y-78868603D01*
X167381262Y-78859714D01*
X167381279Y-78859694D01*
X167442639Y-78798302D01*
X168622998Y-77617320D01*
X168623001Y-77617319D01*
X168633207Y-77607106D01*
X168633210Y-77607106D01*
X168676408Y-77563884D01*
X168683402Y-77557406D01*
X168836546Y-77426199D01*
X168851985Y-77414916D01*
X169019387Y-77311381D01*
X169036371Y-77302612D01*
X169217713Y-77226072D01*
X169235844Y-77220020D01*
X169426809Y-77172298D01*
X169445667Y-77169108D01*
X169641684Y-77151344D01*
X169660816Y-77151094D01*
X169857233Y-77163708D01*
G37*
%TD.AperFunction*%
%TD*%
M02*
