%TF.GenerationSoftware,KiCad,Pcbnew,8.0.4*%
%TF.CreationDate,2024-08-07T12:18:32+02:00*%
%TF.ProjectId,Shard,53686172-642e-46b6-9963-61645f706362,rev?*%
%TF.SameCoordinates,Original*%
%TF.FileFunction,Drillmap*%
%TF.FilePolarity,Positive*%
%FSLAX45Y45*%
G04 Gerber Fmt 4.5, Leading zero omitted, Abs format (unit mm)*
G04 Created by KiCad (PCBNEW 8.0.4) date 2024-08-07 12:18:32*
%MOMM*%
%LPD*%
G01*
G04 APERTURE LIST*
%ADD10C,0.100000*%
%ADD11C,0.200000*%
G04 APERTURE END LIST*
D10*
X12288599Y-7847610D02*
G75*
G02*
X12612846Y-7720679I189861J-7390D01*
G01*
X15839833Y-11636801D02*
X16406617Y-11145588D01*
X17059001Y-9019927D02*
X16976746Y-8989987D01*
X13904953Y-7755227D02*
G75*
G02*
X13715905Y-7950803I-189923J-5573D01*
G01*
X15504953Y-7418801D02*
X14722708Y-7418801D01*
X17162629Y-7996983D02*
G75*
G02*
X17091343Y-8452911I-1196079J-46527D01*
G01*
X15991833Y-7950801D02*
X15730383Y-7950801D01*
X15542948Y-7457426D02*
X15542950Y-7457426D01*
X12976693Y-7950801D02*
X13453584Y-7950801D01*
X16931539Y-8891963D02*
X17091344Y-8452911D01*
X13038800Y-11145588D02*
X12353214Y-9261990D01*
X12354075Y-8452918D02*
G75*
G02*
X12282847Y-7995425I1124885J409428D01*
G01*
X12747663Y-7855565D02*
X12612847Y-7720678D01*
X13453584Y-7950801D02*
X13715905Y-7950801D01*
X17162629Y-7996983D02*
X17156818Y-7847601D01*
X14094953Y-7418801D02*
X14729429Y-7418801D01*
X16468726Y-7950801D02*
X15991833Y-7950801D01*
X17059001Y-9019927D02*
G75*
G02*
X17127121Y-9166037I-38991J-107114D01*
G01*
X16406617Y-11145588D02*
X17092203Y-9261990D01*
X13605584Y-11636801D02*
X13038800Y-11145588D01*
X12353214Y-9261990D02*
X12318292Y-9166045D01*
X12976693Y-7950801D02*
G75*
G02*
X12747663Y-7855565I-3J323002D01*
G01*
X14220000Y-12050000D02*
X13605584Y-11636801D01*
X12318292Y-9166045D02*
G75*
G02*
X12386878Y-9019758I107128J38995D01*
G01*
X13904953Y-7755227D02*
X13904953Y-7608801D01*
X16976746Y-8989987D02*
G75*
G02*
X16931535Y-8891962I25995J71427D01*
G01*
X14094953Y-7418801D02*
X13940201Y-7418801D01*
X12514102Y-8892580D02*
X12354075Y-8452918D01*
X12386878Y-9019758D02*
X12468678Y-8989985D01*
X12282848Y-7995425D02*
X12288599Y-7847610D01*
X16832579Y-7720668D02*
G75*
G02*
X17156811Y-7847602I134381J-134312D01*
G01*
X15542950Y-7457426D02*
X15540464Y-7608801D01*
X15225417Y-12050000D02*
X15839833Y-11636801D01*
X15504953Y-7418801D02*
G75*
G02*
X15542943Y-7457425I-3J-37999D01*
G01*
X15540464Y-7755268D02*
X15540464Y-7608801D01*
X15730383Y-7950801D02*
G75*
G02*
X15540459Y-7755268I-3J190002D01*
G01*
X12514102Y-8892580D02*
G75*
G02*
X12468677Y-8989983I-71413J-25990D01*
G01*
X13902467Y-7457426D02*
X13904953Y-7608801D01*
X14220000Y-12050000D02*
X15225417Y-12050000D01*
X16697180Y-7856139D02*
G75*
G02*
X16468726Y-7950798I-228450J228339D01*
G01*
X14729429Y-7418801D02*
X14722708Y-7418801D01*
X13902467Y-7457426D02*
G75*
G02*
X13940201Y-7418803I37993J626D01*
G01*
X16697180Y-7856139D02*
X16832579Y-7720668D01*
X17092203Y-9261990D02*
X17127127Y-9166039D01*
D11*
D10*
X12389100Y-7920800D02*
X12419100Y-7950800D01*
X12419100Y-7920800D02*
X12389100Y-7950800D01*
X12389100Y-8124000D02*
X12419100Y-8154000D01*
X12419100Y-8124000D02*
X12389100Y-8154000D01*
X12592300Y-7920800D02*
X12622300Y-7950800D01*
X12622300Y-7920800D02*
X12592300Y-7950800D01*
X12592300Y-8530400D02*
X12622300Y-8560400D01*
X12622300Y-8530400D02*
X12592300Y-8560400D01*
X12592300Y-8733600D02*
X12622300Y-8763600D01*
X12622300Y-8733600D02*
X12592300Y-8763600D01*
X12592300Y-9140000D02*
X12622300Y-9170000D01*
X12622300Y-9140000D02*
X12592300Y-9170000D01*
X12592300Y-9546400D02*
X12622300Y-9576400D01*
X12622300Y-9546400D02*
X12592300Y-9576400D01*
X12795500Y-8124000D02*
X12825500Y-8154000D01*
X12825500Y-8124000D02*
X12795500Y-8154000D01*
X12795500Y-9952800D02*
X12825500Y-9982800D01*
X12825500Y-9952800D02*
X12795500Y-9982800D01*
X12795500Y-10156000D02*
X12825500Y-10186000D01*
X12825500Y-10156000D02*
X12795500Y-10186000D01*
X12977000Y-10490000D02*
X13007000Y-10520000D01*
X13007000Y-10490000D02*
X12977000Y-10520000D01*
X12998700Y-8124000D02*
X13028700Y-8154000D01*
X13028700Y-8124000D02*
X12998700Y-8154000D01*
X12998700Y-8327200D02*
X13028700Y-8357200D01*
X13028700Y-8327200D02*
X12998700Y-8357200D01*
X12998700Y-8733600D02*
X13028700Y-8763600D01*
X13028700Y-8733600D02*
X12998700Y-8763600D01*
X12998700Y-8936800D02*
X13028700Y-8966800D01*
X13028700Y-8936800D02*
X12998700Y-8966800D01*
X13201900Y-8124000D02*
X13231900Y-8154000D01*
X13231900Y-8124000D02*
X13201900Y-8154000D01*
X13201900Y-8327200D02*
X13231900Y-8357200D01*
X13231900Y-8327200D02*
X13201900Y-8357200D01*
X13201900Y-8530400D02*
X13231900Y-8560400D01*
X13231900Y-8530400D02*
X13201900Y-8560400D01*
X13405100Y-8124000D02*
X13435100Y-8154000D01*
X13435100Y-8124000D02*
X13405100Y-8154000D01*
X13405100Y-8327200D02*
X13435100Y-8357200D01*
X13435100Y-8327200D02*
X13405100Y-8357200D01*
X13405100Y-8530400D02*
X13435100Y-8560400D01*
X13435100Y-8530400D02*
X13405100Y-8560400D01*
X13405100Y-8733600D02*
X13435100Y-8763600D01*
X13435100Y-8733600D02*
X13405100Y-8763600D01*
X13405100Y-11172000D02*
X13435100Y-11202000D01*
X13435100Y-11172000D02*
X13405100Y-11202000D01*
X13608300Y-8124000D02*
X13638300Y-8154000D01*
X13638300Y-8124000D02*
X13608300Y-8154000D01*
X13608300Y-8327200D02*
X13638300Y-8357200D01*
X13638300Y-8327200D02*
X13608300Y-8357200D01*
X13608300Y-8530400D02*
X13638300Y-8560400D01*
X13638300Y-8530400D02*
X13608300Y-8560400D01*
X13608300Y-8733600D02*
X13638300Y-8763600D01*
X13638300Y-8733600D02*
X13608300Y-8763600D01*
X13608300Y-10968800D02*
X13638300Y-10998800D01*
X13638300Y-10968800D02*
X13608300Y-10998800D01*
X13608300Y-11172000D02*
X13638300Y-11202000D01*
X13638300Y-11172000D02*
X13608300Y-11202000D01*
X13608300Y-11375200D02*
X13638300Y-11405200D01*
X13638300Y-11375200D02*
X13608300Y-11405200D01*
X13645000Y-10380000D02*
X13675000Y-10410000D01*
X13675000Y-10380000D02*
X13645000Y-10410000D01*
X13645000Y-10655000D02*
X13675000Y-10685000D01*
X13675000Y-10655000D02*
X13645000Y-10685000D01*
X13785000Y-9685000D02*
X13815000Y-9715000D01*
X13815000Y-9685000D02*
X13785000Y-9715000D01*
X13811500Y-8124000D02*
X13841500Y-8154000D01*
X13841500Y-8124000D02*
X13811500Y-8154000D01*
X13811500Y-8327200D02*
X13841500Y-8357200D01*
X13841500Y-8327200D02*
X13811500Y-8357200D01*
X13811500Y-8530400D02*
X13841500Y-8560400D01*
X13841500Y-8530400D02*
X13811500Y-8560400D01*
X13811500Y-8733600D02*
X13841500Y-8763600D01*
X13841500Y-8733600D02*
X13811500Y-8763600D01*
X13811500Y-10968800D02*
X13841500Y-10998800D01*
X13841500Y-10968800D02*
X13811500Y-10998800D01*
X13811500Y-11375200D02*
X13841500Y-11405200D01*
X13841500Y-11375200D02*
X13811500Y-11405200D01*
X13900000Y-9487500D02*
X13930000Y-9517500D01*
X13930000Y-9487500D02*
X13900000Y-9517500D01*
X13930000Y-10075000D02*
X13960000Y-10105000D01*
X13960000Y-10075000D02*
X13930000Y-10105000D01*
X13935000Y-10695000D02*
X13965000Y-10725000D01*
X13965000Y-10695000D02*
X13935000Y-10725000D01*
X13952500Y-9725000D02*
X13982500Y-9755000D01*
X13982500Y-9725000D02*
X13952500Y-9755000D01*
X13975000Y-9965000D02*
X14005000Y-9995000D01*
X14005000Y-9965000D02*
X13975000Y-9995000D01*
X14014700Y-8124000D02*
X14044700Y-8154000D01*
X14044700Y-8124000D02*
X14014700Y-8154000D01*
X14014700Y-8327200D02*
X14044700Y-8357200D01*
X14044700Y-8327200D02*
X14014700Y-8357200D01*
X14014700Y-10968800D02*
X14044700Y-10998800D01*
X14044700Y-10968800D02*
X14014700Y-10998800D01*
X14014700Y-11375200D02*
X14044700Y-11405200D01*
X14044700Y-11375200D02*
X14014700Y-11405200D01*
X14015000Y-11715000D02*
X14045000Y-11745000D01*
X14045000Y-11715000D02*
X14015000Y-11745000D01*
X14035000Y-10726000D02*
X14065000Y-10756000D01*
X14065000Y-10726000D02*
X14035000Y-10756000D01*
X14075000Y-8795000D02*
X14105000Y-8825000D01*
X14105000Y-8795000D02*
X14075000Y-8825000D01*
X14102500Y-9950000D02*
X14132500Y-9980000D01*
X14132500Y-9950000D02*
X14102500Y-9980000D01*
X14110000Y-9692500D02*
X14140000Y-9722500D01*
X14140000Y-9692500D02*
X14110000Y-9722500D01*
X14133635Y-9249615D02*
X14163635Y-9279615D01*
X14163635Y-9249615D02*
X14133635Y-9279615D01*
X14135750Y-9352124D02*
X14165750Y-9382124D01*
X14165750Y-9352124D02*
X14135750Y-9382124D01*
X14151523Y-8035000D02*
X14181523Y-8065000D01*
X14181523Y-8035000D02*
X14151523Y-8065000D01*
X14151523Y-8157011D02*
X14181523Y-8187011D01*
X14181523Y-8157011D02*
X14151523Y-8187011D01*
X14151523Y-8279023D02*
X14181523Y-8309023D01*
X14181523Y-8279023D02*
X14151523Y-8309023D01*
X14162041Y-8384512D02*
X14192041Y-8414512D01*
X14192041Y-8384512D02*
X14162041Y-8414512D01*
X14192213Y-8483589D02*
X14222213Y-8513589D01*
X14222213Y-8483589D02*
X14192213Y-8513589D01*
X14202500Y-9932500D02*
X14232500Y-9962500D01*
X14232500Y-9932500D02*
X14202500Y-9962500D01*
X14217900Y-11172000D02*
X14247900Y-11202000D01*
X14247900Y-11172000D02*
X14217900Y-11202000D01*
X14217900Y-11578400D02*
X14247900Y-11608400D01*
X14247900Y-11578400D02*
X14217900Y-11608400D01*
X14281673Y-9921028D02*
X14311673Y-9951028D01*
X14311673Y-9921028D02*
X14281673Y-9951028D01*
X14285000Y-10085000D02*
X14315000Y-10115000D01*
X14315000Y-10085000D02*
X14285000Y-10115000D01*
X14300000Y-8845000D02*
X14330000Y-8875000D01*
X14330000Y-8845000D02*
X14300000Y-8875000D01*
X14351492Y-8276568D02*
X14381492Y-8306568D01*
X14381492Y-8276568D02*
X14351492Y-8306568D01*
X14351523Y-8035000D02*
X14381523Y-8065000D01*
X14381523Y-8035000D02*
X14351523Y-8065000D01*
X14351523Y-8157011D02*
X14381523Y-8187011D01*
X14381523Y-8157011D02*
X14351523Y-8187011D01*
X14357500Y-8905000D02*
X14387500Y-8935000D01*
X14387500Y-8905000D02*
X14357500Y-8935000D01*
X14377017Y-8407041D02*
X14407017Y-8437041D01*
X14407017Y-8407041D02*
X14377017Y-8437041D01*
X14421100Y-10156000D02*
X14451100Y-10186000D01*
X14451100Y-10156000D02*
X14421100Y-10186000D01*
X14421100Y-11578400D02*
X14451100Y-11608400D01*
X14451100Y-11578400D02*
X14421100Y-11608400D01*
X14421100Y-11781600D02*
X14451100Y-11811600D01*
X14451100Y-11781600D02*
X14421100Y-11811600D01*
X14455000Y-9360000D02*
X14485000Y-9390000D01*
X14485000Y-9360000D02*
X14455000Y-9390000D01*
X14477500Y-9170000D02*
X14507500Y-9200000D01*
X14507500Y-9170000D02*
X14477500Y-9200000D01*
X14485000Y-8794250D02*
X14515000Y-8824250D01*
X14515000Y-8794250D02*
X14485000Y-8824250D01*
X14504499Y-9836822D02*
X14534499Y-9866822D01*
X14534499Y-9836822D02*
X14504499Y-9866822D01*
X14523012Y-9620857D02*
X14553012Y-9650857D01*
X14553012Y-9620857D02*
X14523012Y-9650857D01*
X14525000Y-8485000D02*
X14555000Y-8515000D01*
X14555000Y-8485000D02*
X14525000Y-8515000D01*
X14550000Y-9265000D02*
X14580000Y-9295000D01*
X14580000Y-9265000D02*
X14550000Y-9295000D01*
X14550000Y-9455000D02*
X14580000Y-9485000D01*
X14580000Y-9455000D02*
X14550000Y-9485000D01*
X14605000Y-8625000D02*
X14635000Y-8655000D01*
X14635000Y-8625000D02*
X14605000Y-8655000D01*
X14624300Y-8124000D02*
X14654300Y-8154000D01*
X14654300Y-8124000D02*
X14624300Y-8154000D01*
X14624300Y-8327200D02*
X14654300Y-8357200D01*
X14654300Y-8327200D02*
X14624300Y-8357200D01*
X14624300Y-11578400D02*
X14654300Y-11608400D01*
X14654300Y-11578400D02*
X14624300Y-11608400D01*
X14624300Y-11781600D02*
X14654300Y-11811600D01*
X14654300Y-11781600D02*
X14624300Y-11811600D01*
X14625000Y-9895000D02*
X14655000Y-9925000D01*
X14655000Y-9895000D02*
X14625000Y-9925000D01*
X14630764Y-9029162D02*
X14660764Y-9059162D01*
X14660764Y-9029162D02*
X14630764Y-9059162D01*
X14640000Y-9175000D02*
X14670000Y-9205000D01*
X14670000Y-9175000D02*
X14640000Y-9205000D01*
X14640000Y-9362000D02*
X14670000Y-9392000D01*
X14670000Y-9362000D02*
X14640000Y-9392000D01*
X14640000Y-9550000D02*
X14670000Y-9580000D01*
X14670000Y-9550000D02*
X14640000Y-9580000D01*
X14704000Y-11142000D02*
X14734000Y-11172000D01*
X14734000Y-11142000D02*
X14704000Y-11172000D01*
X14735000Y-9265000D02*
X14765000Y-9295000D01*
X14765000Y-9265000D02*
X14735000Y-9295000D01*
X14735000Y-9455000D02*
X14765000Y-9485000D01*
X14765000Y-9455000D02*
X14735000Y-9485000D01*
X14827500Y-8124000D02*
X14857500Y-8154000D01*
X14857500Y-8124000D02*
X14827500Y-8154000D01*
X14827500Y-8327200D02*
X14857500Y-8357200D01*
X14857500Y-8327200D02*
X14827500Y-8357200D01*
X14827500Y-11578400D02*
X14857500Y-11608400D01*
X14857500Y-11578400D02*
X14827500Y-11608400D01*
X14827500Y-11781600D02*
X14857500Y-11811600D01*
X14857500Y-11781600D02*
X14827500Y-11811600D01*
X14830000Y-9360000D02*
X14860000Y-9390000D01*
X14860000Y-9360000D02*
X14830000Y-9390000D01*
X14844334Y-9535089D02*
X14874334Y-9565089D01*
X14874334Y-9535089D02*
X14844334Y-9565089D01*
X14852000Y-10273000D02*
X14882000Y-10303000D01*
X14882000Y-10273000D02*
X14852000Y-10303000D01*
X14880000Y-8720000D02*
X14910000Y-8750000D01*
X14910000Y-8720000D02*
X14880000Y-8750000D01*
X14917500Y-9917500D02*
X14947500Y-9947500D01*
X14947500Y-9917500D02*
X14917500Y-9947500D01*
X14965000Y-8575000D02*
X14995000Y-8605000D01*
X14995000Y-8575000D02*
X14965000Y-8605000D01*
X15030700Y-8124000D02*
X15060700Y-8154000D01*
X15060700Y-8124000D02*
X15030700Y-8154000D01*
X15030700Y-8327200D02*
X15060700Y-8357200D01*
X15060700Y-8327200D02*
X15030700Y-8357200D01*
X15030700Y-11172000D02*
X15060700Y-11202000D01*
X15060700Y-11172000D02*
X15030700Y-11202000D01*
X15030700Y-11578400D02*
X15060700Y-11608400D01*
X15060700Y-11578400D02*
X15030700Y-11608400D01*
X15030700Y-11781600D02*
X15060700Y-11811600D01*
X15060700Y-11781600D02*
X15030700Y-11811600D01*
X15084964Y-9783742D02*
X15114964Y-9813742D01*
X15114964Y-9783742D02*
X15084964Y-9813742D01*
X15105000Y-8465000D02*
X15135000Y-8495000D01*
X15135000Y-8465000D02*
X15105000Y-8495000D01*
X15115000Y-10215000D02*
X15145000Y-10245000D01*
X15145000Y-10215000D02*
X15115000Y-10245000D01*
X15117500Y-8917500D02*
X15147500Y-8947500D01*
X15147500Y-8917500D02*
X15117500Y-8947500D01*
X15165000Y-10605000D02*
X15195000Y-10635000D01*
X15195000Y-10605000D02*
X15165000Y-10635000D01*
X15172000Y-9137000D02*
X15202000Y-9167000D01*
X15202000Y-9137000D02*
X15172000Y-9167000D01*
X15172000Y-9349000D02*
X15202000Y-9379000D01*
X15202000Y-9349000D02*
X15172000Y-9379000D01*
X15186877Y-10035274D02*
X15216877Y-10065274D01*
X15216877Y-10035274D02*
X15186877Y-10065274D01*
X15232000Y-9536983D02*
X15262000Y-9566983D01*
X15262000Y-9536983D02*
X15232000Y-9566983D01*
X15233900Y-8124000D02*
X15263900Y-8154000D01*
X15263900Y-8124000D02*
X15233900Y-8154000D01*
X15233900Y-11172000D02*
X15263900Y-11202000D01*
X15263900Y-11172000D02*
X15233900Y-11202000D01*
X15233900Y-11578400D02*
X15263900Y-11608400D01*
X15263900Y-11578400D02*
X15233900Y-11608400D01*
X15240000Y-8510000D02*
X15270000Y-8540000D01*
X15270000Y-8510000D02*
X15240000Y-8540000D01*
X15245000Y-8355000D02*
X15275000Y-8385000D01*
X15275000Y-8355000D02*
X15245000Y-8385000D01*
X15251165Y-9171750D02*
X15281165Y-9201750D01*
X15281165Y-9171750D02*
X15251165Y-9201750D01*
X15261000Y-9011000D02*
X15291000Y-9041000D01*
X15291000Y-9011000D02*
X15261000Y-9041000D01*
X15265000Y-10170000D02*
X15295000Y-10200000D01*
X15295000Y-10170000D02*
X15265000Y-10200000D01*
X15355000Y-8455000D02*
X15385000Y-8485000D01*
X15385000Y-8455000D02*
X15355000Y-8485000D01*
X15356473Y-10413527D02*
X15386473Y-10443527D01*
X15386473Y-10413527D02*
X15356473Y-10443527D01*
X15362796Y-10504704D02*
X15392796Y-10534704D01*
X15392796Y-10504704D02*
X15362796Y-10534704D01*
X15382500Y-10230000D02*
X15412500Y-10260000D01*
X15412500Y-10230000D02*
X15382500Y-10260000D01*
X15385000Y-8885000D02*
X15415000Y-8915000D01*
X15415000Y-8885000D02*
X15385000Y-8915000D01*
X15395000Y-11715000D02*
X15425000Y-11745000D01*
X15425000Y-11715000D02*
X15395000Y-11745000D01*
X15437100Y-8124000D02*
X15467100Y-8154000D01*
X15467100Y-8124000D02*
X15437100Y-8154000D01*
X15437100Y-8327200D02*
X15467100Y-8357200D01*
X15467100Y-8327200D02*
X15437100Y-8357200D01*
X15437100Y-11375200D02*
X15467100Y-11405200D01*
X15467100Y-11375200D02*
X15437100Y-11405200D01*
X15475000Y-10185000D02*
X15505000Y-10215000D01*
X15505000Y-10185000D02*
X15475000Y-10215000D01*
X15485000Y-8585000D02*
X15515000Y-8615000D01*
X15515000Y-8585000D02*
X15485000Y-8615000D01*
X15485000Y-8785000D02*
X15515000Y-8815000D01*
X15515000Y-8785000D02*
X15485000Y-8815000D01*
X15503543Y-10289979D02*
X15533543Y-10319979D01*
X15533543Y-10289979D02*
X15503543Y-10319979D01*
X15585000Y-8685000D02*
X15615000Y-8715000D01*
X15615000Y-8685000D02*
X15585000Y-8715000D01*
X15585000Y-9348000D02*
X15615000Y-9378000D01*
X15615000Y-9348000D02*
X15585000Y-9378000D01*
X15587500Y-10857500D02*
X15617500Y-10887500D01*
X15617500Y-10857500D02*
X15587500Y-10887500D01*
X15640300Y-8124000D02*
X15670300Y-8154000D01*
X15670300Y-8124000D02*
X15640300Y-8154000D01*
X15640300Y-8327200D02*
X15670300Y-8357200D01*
X15670300Y-8327200D02*
X15640300Y-8357200D01*
X15640300Y-8530400D02*
X15670300Y-8560400D01*
X15670300Y-8530400D02*
X15640300Y-8560400D01*
X15640300Y-11375200D02*
X15670300Y-11405200D01*
X15670300Y-11375200D02*
X15640300Y-11405200D01*
X15690000Y-11017500D02*
X15720000Y-11047500D01*
X15720000Y-11017500D02*
X15690000Y-11047500D01*
X15710000Y-9347000D02*
X15740000Y-9377000D01*
X15740000Y-9347000D02*
X15710000Y-9377000D01*
X15715000Y-9540000D02*
X15745000Y-9570000D01*
X15745000Y-9540000D02*
X15715000Y-9570000D01*
X15755000Y-10260000D02*
X15785000Y-10290000D01*
X15785000Y-10260000D02*
X15755000Y-10290000D01*
X15835264Y-9349000D02*
X15865264Y-9379000D01*
X15865264Y-9349000D02*
X15835264Y-9379000D01*
X15843500Y-8124000D02*
X15873500Y-8154000D01*
X15873500Y-8124000D02*
X15843500Y-8154000D01*
X15843500Y-8327200D02*
X15873500Y-8357200D01*
X15873500Y-8327200D02*
X15843500Y-8357200D01*
X15843500Y-8530400D02*
X15873500Y-8560400D01*
X15873500Y-8530400D02*
X15843500Y-8560400D01*
X15843500Y-8733600D02*
X15873500Y-8763600D01*
X15873500Y-8733600D02*
X15843500Y-8763600D01*
X15843500Y-9546400D02*
X15873500Y-9576400D01*
X15873500Y-9546400D02*
X15843500Y-9576400D01*
X15843500Y-11172000D02*
X15873500Y-11202000D01*
X15873500Y-11172000D02*
X15843500Y-11202000D01*
X15843500Y-11375200D02*
X15873500Y-11405200D01*
X15873500Y-11375200D02*
X15843500Y-11405200D01*
X15872000Y-9166000D02*
X15902000Y-9196000D01*
X15902000Y-9166000D02*
X15872000Y-9196000D01*
X15910000Y-9076000D02*
X15940000Y-9106000D01*
X15940000Y-9076000D02*
X15910000Y-9106000D01*
X15963000Y-9704000D02*
X15993000Y-9734000D01*
X15993000Y-9704000D02*
X15963000Y-9734000D01*
X16046700Y-8124000D02*
X16076700Y-8154000D01*
X16076700Y-8124000D02*
X16046700Y-8154000D01*
X16046700Y-8327200D02*
X16076700Y-8357200D01*
X16076700Y-8327200D02*
X16046700Y-8357200D01*
X16046700Y-8530400D02*
X16076700Y-8560400D01*
X16076700Y-8530400D02*
X16046700Y-8560400D01*
X16046700Y-10156000D02*
X16076700Y-10186000D01*
X16076700Y-10156000D02*
X16046700Y-10186000D01*
X16046700Y-10359200D02*
X16076700Y-10389200D01*
X16076700Y-10359200D02*
X16046700Y-10389200D01*
X16046700Y-11172000D02*
X16076700Y-11202000D01*
X16076700Y-11172000D02*
X16046700Y-11202000D01*
X16139000Y-9390136D02*
X16169000Y-9420136D01*
X16169000Y-9390136D02*
X16139000Y-9420136D01*
X16249900Y-8124000D02*
X16279900Y-8154000D01*
X16279900Y-8124000D02*
X16249900Y-8154000D01*
X16249900Y-9140000D02*
X16279900Y-9170000D01*
X16279900Y-9140000D02*
X16249900Y-9170000D01*
X16249900Y-9343200D02*
X16279900Y-9373200D01*
X16279900Y-9343200D02*
X16249900Y-9373200D01*
X16249900Y-9952800D02*
X16279900Y-9982800D01*
X16279900Y-9952800D02*
X16249900Y-9982800D01*
X16249900Y-10968800D02*
X16279900Y-10998800D01*
X16279900Y-10968800D02*
X16249900Y-10998800D01*
X16432000Y-10645000D02*
X16462000Y-10675000D01*
X16462000Y-10645000D02*
X16432000Y-10675000D01*
X16453100Y-8124000D02*
X16483100Y-8154000D01*
X16483100Y-8124000D02*
X16453100Y-8154000D01*
X16453100Y-8530400D02*
X16483100Y-8560400D01*
X16483100Y-8530400D02*
X16453100Y-8560400D01*
X16453100Y-8733600D02*
X16483100Y-8763600D01*
X16483100Y-8733600D02*
X16453100Y-8763600D01*
X16453100Y-8936800D02*
X16483100Y-8966800D01*
X16483100Y-8936800D02*
X16453100Y-8966800D01*
X16656300Y-9952800D02*
X16686300Y-9982800D01*
X16686300Y-9952800D02*
X16656300Y-9982800D01*
X16859500Y-7920800D02*
X16889500Y-7950800D01*
X16889500Y-7920800D02*
X16859500Y-7950800D01*
X16859500Y-8530400D02*
X16889500Y-8560400D01*
X16889500Y-8530400D02*
X16859500Y-8560400D01*
X16859500Y-9140000D02*
X16889500Y-9170000D01*
X16889500Y-9140000D02*
X16859500Y-9170000D01*
X16901000Y-9301000D02*
X16931000Y-9331000D01*
X16931000Y-9301000D02*
X16901000Y-9331000D01*
X13858750Y-10195000D02*
G75*
G02*
X13828750Y-10195000I-15000J0D01*
G01*
X13828750Y-10195000D02*
G75*
G02*
X13858750Y-10195000I15000J0D01*
G01*
X13858750Y-10305000D02*
G75*
G02*
X13828750Y-10305000I-15000J0D01*
G01*
X13828750Y-10305000D02*
G75*
G02*
X13858750Y-10305000I15000J0D01*
G01*
X13858750Y-10472500D02*
G75*
G02*
X13828750Y-10472500I-15000J0D01*
G01*
X13828750Y-10472500D02*
G75*
G02*
X13858750Y-10472500I15000J0D01*
G01*
X13858750Y-10582500D02*
G75*
G02*
X13828750Y-10582500I-15000J0D01*
G01*
X13828750Y-10582500D02*
G75*
G02*
X13858750Y-10582500I15000J0D01*
G01*
X14070000Y-8030000D02*
G75*
G02*
X14040000Y-8030000I-15000J0D01*
G01*
X14040000Y-8030000D02*
G75*
G02*
X14070000Y-8030000I15000J0D01*
G01*
X13547500Y-10002500D02*
X13547500Y-10062500D01*
X13517500Y-10032500D02*
X13577500Y-10032500D01*
X14232500Y-8602500D02*
X14232500Y-8662500D01*
X14202500Y-8632500D02*
X14262500Y-8632500D01*
X14433854Y-10398646D02*
X14433854Y-10458646D01*
X14403854Y-10428646D02*
X14463854Y-10428646D01*
X14800000Y-8617500D02*
X14800000Y-8677500D01*
X14770000Y-8647500D02*
X14830000Y-8647500D01*
X16075000Y-9092500D02*
X16075000Y-9152500D01*
X16045000Y-9122500D02*
X16105000Y-9122500D01*
X14310213Y-11393713D02*
X14310213Y-11351287D01*
X14267787Y-11351287D01*
X14267787Y-11393713D01*
X14310213Y-11393713D01*
X14259000Y-11317500D02*
X14259000Y-11427500D01*
X14319000Y-11427500D02*
G75*
G02*
X14259000Y-11427500I-30000J0D01*
G01*
X14319000Y-11427500D02*
X14319000Y-11317500D01*
X14319000Y-11317500D02*
G75*
G03*
X14259000Y-11317500I-30000J0D01*
G01*
X14310213Y-11811713D02*
X14310213Y-11769287D01*
X14267787Y-11769287D01*
X14267787Y-11811713D01*
X14310213Y-11811713D01*
X14259000Y-11750500D02*
X14259000Y-11830500D01*
X14319000Y-11830500D02*
G75*
G02*
X14259000Y-11830500I-30000J0D01*
G01*
X14319000Y-11830500D02*
X14319000Y-11750500D01*
X14319000Y-11750500D02*
G75*
G03*
X14259000Y-11750500I-30000J0D01*
G01*
X15174213Y-11393713D02*
X15174213Y-11351287D01*
X15131787Y-11351287D01*
X15131787Y-11393713D01*
X15174213Y-11393713D01*
X15123000Y-11317500D02*
X15123000Y-11427500D01*
X15183000Y-11427500D02*
G75*
G02*
X15123000Y-11427500I-30000J0D01*
G01*
X15183000Y-11427500D02*
X15183000Y-11317500D01*
X15183000Y-11317500D02*
G75*
G03*
X15123000Y-11317500I-30000J0D01*
G01*
X15174213Y-11811713D02*
X15174213Y-11769287D01*
X15131787Y-11769287D01*
X15131787Y-11811713D01*
X15174213Y-11811713D01*
X15123000Y-11750500D02*
X15123000Y-11830500D01*
X15183000Y-11830500D02*
G75*
G02*
X15123000Y-11830500I-30000J0D01*
G01*
X15183000Y-11830500D02*
X15183000Y-11750500D01*
X15183000Y-11750500D02*
G75*
G03*
X15123000Y-11750500I-30000J0D01*
G01*
X12584388Y-8206726D02*
X12634388Y-8156726D01*
X12584388Y-8106726D01*
X12534388Y-8156726D01*
X12584388Y-8206726D01*
X12671261Y-8445408D02*
X12721261Y-8395408D01*
X12671261Y-8345408D01*
X12621261Y-8395408D01*
X12671261Y-8445408D01*
X12716261Y-9382908D02*
X12766261Y-9332908D01*
X12716261Y-9282908D01*
X12666261Y-9332908D01*
X12716261Y-9382908D01*
X12758134Y-8684090D02*
X12808134Y-8634090D01*
X12758134Y-8584090D01*
X12708134Y-8634090D01*
X12758134Y-8684090D01*
X12803134Y-9621590D02*
X12853134Y-9571590D01*
X12803134Y-9521590D01*
X12753134Y-9571590D01*
X12803134Y-9621590D01*
X12845007Y-8922772D02*
X12895007Y-8872772D01*
X12845007Y-8822772D01*
X12795007Y-8872772D01*
X12845007Y-8922772D01*
X12890007Y-9860272D02*
X12940007Y-9810272D01*
X12890007Y-9760272D01*
X12840007Y-9810272D01*
X12890007Y-9860272D01*
X12931881Y-9161454D02*
X12981881Y-9111454D01*
X12931881Y-9061454D01*
X12881881Y-9111454D01*
X12931881Y-9161454D01*
X12976881Y-10098954D02*
X13026881Y-10048954D01*
X12976881Y-9998954D01*
X12926881Y-10048954D01*
X12976881Y-10098954D01*
X13018754Y-9400136D02*
X13068754Y-9350136D01*
X13018754Y-9300136D01*
X12968754Y-9350136D01*
X13018754Y-9400136D01*
X13063754Y-10337636D02*
X13113754Y-10287636D01*
X13063754Y-10237636D01*
X13013754Y-10287636D01*
X13063754Y-10337636D01*
X13105627Y-9638818D02*
X13155627Y-9588818D01*
X13105627Y-9538818D01*
X13055627Y-9588818D01*
X13105627Y-9638818D01*
X13150627Y-10576318D02*
X13200627Y-10526318D01*
X13150627Y-10476318D01*
X13100627Y-10526318D01*
X13150627Y-10576318D01*
X13192500Y-9877500D02*
X13242500Y-9827500D01*
X13192500Y-9777500D01*
X13142500Y-9827500D01*
X13192500Y-9877500D01*
X13237500Y-10815000D02*
X13287500Y-10765000D01*
X13237500Y-10715000D01*
X13187500Y-10765000D01*
X13237500Y-10815000D01*
X13324373Y-11053682D02*
X13374373Y-11003682D01*
X13324373Y-10953682D01*
X13274373Y-11003682D01*
X13324373Y-11053682D01*
X16117500Y-11055000D02*
X16167500Y-11005000D01*
X16117500Y-10955000D01*
X16067500Y-11005000D01*
X16117500Y-11055000D01*
X16204373Y-10816318D02*
X16254373Y-10766318D01*
X16204373Y-10716318D01*
X16154373Y-10766318D01*
X16204373Y-10816318D01*
X16250000Y-9877500D02*
X16300000Y-9827500D01*
X16250000Y-9777500D01*
X16200000Y-9827500D01*
X16250000Y-9877500D01*
X16291246Y-10577636D02*
X16341246Y-10527636D01*
X16291246Y-10477636D01*
X16241246Y-10527636D01*
X16291246Y-10577636D01*
X16336873Y-9638818D02*
X16386873Y-9588818D01*
X16336873Y-9538818D01*
X16286873Y-9588818D01*
X16336873Y-9638818D01*
X16378119Y-10338954D02*
X16428119Y-10288954D01*
X16378119Y-10238954D01*
X16328119Y-10288954D01*
X16378119Y-10338954D01*
X16423746Y-9400136D02*
X16473746Y-9350136D01*
X16423746Y-9300136D01*
X16373746Y-9350136D01*
X16423746Y-9400136D01*
X16464992Y-10100272D02*
X16514992Y-10050272D01*
X16464992Y-10000272D01*
X16414992Y-10050272D01*
X16464992Y-10100272D01*
X16510619Y-9161454D02*
X16560619Y-9111454D01*
X16510619Y-9061454D01*
X16460619Y-9111454D01*
X16510619Y-9161454D01*
X16551866Y-9861590D02*
X16601866Y-9811590D01*
X16551866Y-9761590D01*
X16501866Y-9811590D01*
X16551866Y-9861590D01*
X16597492Y-8922772D02*
X16647492Y-8872772D01*
X16597492Y-8822772D01*
X16547492Y-8872772D01*
X16597492Y-8922772D01*
X16638739Y-9622908D02*
X16688739Y-9572908D01*
X16638739Y-9522908D01*
X16588739Y-9572908D01*
X16638739Y-9622908D01*
X16684365Y-8684090D02*
X16734365Y-8634090D01*
X16684365Y-8584090D01*
X16634365Y-8634090D01*
X16684365Y-8684090D01*
X16725612Y-9384227D02*
X16775612Y-9334227D01*
X16725612Y-9284227D01*
X16675612Y-9334227D01*
X16725612Y-9384227D01*
X16771239Y-8445408D02*
X16821239Y-8395408D01*
X16771239Y-8345408D01*
X16721239Y-8395408D01*
X16771239Y-8445408D01*
X16858112Y-8206726D02*
X16908112Y-8156726D01*
X16858112Y-8106726D01*
X16808112Y-8156726D01*
X16858112Y-8206726D01*
D11*
X12537658Y-12366484D02*
X12537658Y-12166484D01*
X12537658Y-12166484D02*
X12585277Y-12166484D01*
X12585277Y-12166484D02*
X12613849Y-12176008D01*
X12613849Y-12176008D02*
X12632896Y-12195055D01*
X12632896Y-12195055D02*
X12642420Y-12214103D01*
X12642420Y-12214103D02*
X12651944Y-12252198D01*
X12651944Y-12252198D02*
X12651944Y-12280769D01*
X12651944Y-12280769D02*
X12642420Y-12318865D01*
X12642420Y-12318865D02*
X12632896Y-12337912D01*
X12632896Y-12337912D02*
X12613849Y-12356960D01*
X12613849Y-12356960D02*
X12585277Y-12366484D01*
X12585277Y-12366484D02*
X12537658Y-12366484D01*
X12737658Y-12366484D02*
X12737658Y-12233150D01*
X12737658Y-12271246D02*
X12747182Y-12252198D01*
X12747182Y-12252198D02*
X12756706Y-12242674D01*
X12756706Y-12242674D02*
X12775753Y-12233150D01*
X12775753Y-12233150D02*
X12794801Y-12233150D01*
X12861468Y-12366484D02*
X12861468Y-12233150D01*
X12861468Y-12166484D02*
X12851944Y-12176008D01*
X12851944Y-12176008D02*
X12861468Y-12185531D01*
X12861468Y-12185531D02*
X12870991Y-12176008D01*
X12870991Y-12176008D02*
X12861468Y-12166484D01*
X12861468Y-12166484D02*
X12861468Y-12185531D01*
X12985277Y-12366484D02*
X12966229Y-12356960D01*
X12966229Y-12356960D02*
X12956706Y-12337912D01*
X12956706Y-12337912D02*
X12956706Y-12166484D01*
X13090039Y-12366484D02*
X13070991Y-12356960D01*
X13070991Y-12356960D02*
X13061468Y-12337912D01*
X13061468Y-12337912D02*
X13061468Y-12166484D01*
X13318610Y-12366484D02*
X13318610Y-12166484D01*
X13318610Y-12166484D02*
X13385277Y-12309341D01*
X13385277Y-12309341D02*
X13451944Y-12166484D01*
X13451944Y-12166484D02*
X13451944Y-12366484D01*
X13632896Y-12366484D02*
X13632896Y-12261722D01*
X13632896Y-12261722D02*
X13623372Y-12242674D01*
X13623372Y-12242674D02*
X13604325Y-12233150D01*
X13604325Y-12233150D02*
X13566229Y-12233150D01*
X13566229Y-12233150D02*
X13547182Y-12242674D01*
X13632896Y-12356960D02*
X13613849Y-12366484D01*
X13613849Y-12366484D02*
X13566229Y-12366484D01*
X13566229Y-12366484D02*
X13547182Y-12356960D01*
X13547182Y-12356960D02*
X13537658Y-12337912D01*
X13537658Y-12337912D02*
X13537658Y-12318865D01*
X13537658Y-12318865D02*
X13547182Y-12299817D01*
X13547182Y-12299817D02*
X13566229Y-12290293D01*
X13566229Y-12290293D02*
X13613849Y-12290293D01*
X13613849Y-12290293D02*
X13632896Y-12280769D01*
X13728134Y-12233150D02*
X13728134Y-12433150D01*
X13728134Y-12242674D02*
X13747182Y-12233150D01*
X13747182Y-12233150D02*
X13785277Y-12233150D01*
X13785277Y-12233150D02*
X13804325Y-12242674D01*
X13804325Y-12242674D02*
X13813849Y-12252198D01*
X13813849Y-12252198D02*
X13823372Y-12271246D01*
X13823372Y-12271246D02*
X13823372Y-12328388D01*
X13823372Y-12328388D02*
X13813849Y-12347436D01*
X13813849Y-12347436D02*
X13804325Y-12356960D01*
X13804325Y-12356960D02*
X13785277Y-12366484D01*
X13785277Y-12366484D02*
X13747182Y-12366484D01*
X13747182Y-12366484D02*
X13728134Y-12356960D01*
X13909087Y-12347436D02*
X13918610Y-12356960D01*
X13918610Y-12356960D02*
X13909087Y-12366484D01*
X13909087Y-12366484D02*
X13899563Y-12356960D01*
X13899563Y-12356960D02*
X13909087Y-12347436D01*
X13909087Y-12347436D02*
X13909087Y-12366484D01*
X13909087Y-12242674D02*
X13918610Y-12252198D01*
X13918610Y-12252198D02*
X13909087Y-12261722D01*
X13909087Y-12261722D02*
X13899563Y-12252198D01*
X13899563Y-12252198D02*
X13909087Y-12242674D01*
X13909087Y-12242674D02*
X13909087Y-12261722D01*
D10*
X12246881Y-12680000D02*
X12276881Y-12710000D01*
X12276881Y-12680000D02*
X12246881Y-12710000D01*
D11*
X12575753Y-12586484D02*
X12594801Y-12586484D01*
X12594801Y-12586484D02*
X12613849Y-12596008D01*
X12613849Y-12596008D02*
X12623372Y-12605531D01*
X12623372Y-12605531D02*
X12632896Y-12624579D01*
X12632896Y-12624579D02*
X12642420Y-12662674D01*
X12642420Y-12662674D02*
X12642420Y-12710293D01*
X12642420Y-12710293D02*
X12632896Y-12748388D01*
X12632896Y-12748388D02*
X12623372Y-12767436D01*
X12623372Y-12767436D02*
X12613849Y-12776960D01*
X12613849Y-12776960D02*
X12594801Y-12786484D01*
X12594801Y-12786484D02*
X12575753Y-12786484D01*
X12575753Y-12786484D02*
X12556706Y-12776960D01*
X12556706Y-12776960D02*
X12547182Y-12767436D01*
X12547182Y-12767436D02*
X12537658Y-12748388D01*
X12537658Y-12748388D02*
X12528134Y-12710293D01*
X12528134Y-12710293D02*
X12528134Y-12662674D01*
X12528134Y-12662674D02*
X12537658Y-12624579D01*
X12537658Y-12624579D02*
X12547182Y-12605531D01*
X12547182Y-12605531D02*
X12556706Y-12596008D01*
X12556706Y-12596008D02*
X12575753Y-12586484D01*
X12728134Y-12767436D02*
X12737658Y-12776960D01*
X12737658Y-12776960D02*
X12728134Y-12786484D01*
X12728134Y-12786484D02*
X12718610Y-12776960D01*
X12718610Y-12776960D02*
X12728134Y-12767436D01*
X12728134Y-12767436D02*
X12728134Y-12786484D01*
X12804325Y-12586484D02*
X12928134Y-12586484D01*
X12928134Y-12586484D02*
X12861468Y-12662674D01*
X12861468Y-12662674D02*
X12890039Y-12662674D01*
X12890039Y-12662674D02*
X12909087Y-12672198D01*
X12909087Y-12672198D02*
X12918610Y-12681722D01*
X12918610Y-12681722D02*
X12928134Y-12700769D01*
X12928134Y-12700769D02*
X12928134Y-12748388D01*
X12928134Y-12748388D02*
X12918610Y-12767436D01*
X12918610Y-12767436D02*
X12909087Y-12776960D01*
X12909087Y-12776960D02*
X12890039Y-12786484D01*
X12890039Y-12786484D02*
X12832896Y-12786484D01*
X12832896Y-12786484D02*
X12813849Y-12776960D01*
X12813849Y-12776960D02*
X12804325Y-12767436D01*
X13051944Y-12586484D02*
X13070991Y-12586484D01*
X13070991Y-12586484D02*
X13090039Y-12596008D01*
X13090039Y-12596008D02*
X13099563Y-12605531D01*
X13099563Y-12605531D02*
X13109087Y-12624579D01*
X13109087Y-12624579D02*
X13118610Y-12662674D01*
X13118610Y-12662674D02*
X13118610Y-12710293D01*
X13118610Y-12710293D02*
X13109087Y-12748388D01*
X13109087Y-12748388D02*
X13099563Y-12767436D01*
X13099563Y-12767436D02*
X13090039Y-12776960D01*
X13090039Y-12776960D02*
X13070991Y-12786484D01*
X13070991Y-12786484D02*
X13051944Y-12786484D01*
X13051944Y-12786484D02*
X13032896Y-12776960D01*
X13032896Y-12776960D02*
X13023372Y-12767436D01*
X13023372Y-12767436D02*
X13013849Y-12748388D01*
X13013849Y-12748388D02*
X13004325Y-12710293D01*
X13004325Y-12710293D02*
X13004325Y-12662674D01*
X13004325Y-12662674D02*
X13013849Y-12624579D01*
X13013849Y-12624579D02*
X13023372Y-12605531D01*
X13023372Y-12605531D02*
X13032896Y-12596008D01*
X13032896Y-12596008D02*
X13051944Y-12586484D01*
X13242420Y-12586484D02*
X13261468Y-12586484D01*
X13261468Y-12586484D02*
X13280515Y-12596008D01*
X13280515Y-12596008D02*
X13290039Y-12605531D01*
X13290039Y-12605531D02*
X13299563Y-12624579D01*
X13299563Y-12624579D02*
X13309087Y-12662674D01*
X13309087Y-12662674D02*
X13309087Y-12710293D01*
X13309087Y-12710293D02*
X13299563Y-12748388D01*
X13299563Y-12748388D02*
X13290039Y-12767436D01*
X13290039Y-12767436D02*
X13280515Y-12776960D01*
X13280515Y-12776960D02*
X13261468Y-12786484D01*
X13261468Y-12786484D02*
X13242420Y-12786484D01*
X13242420Y-12786484D02*
X13223372Y-12776960D01*
X13223372Y-12776960D02*
X13213849Y-12767436D01*
X13213849Y-12767436D02*
X13204325Y-12748388D01*
X13204325Y-12748388D02*
X13194801Y-12710293D01*
X13194801Y-12710293D02*
X13194801Y-12662674D01*
X13194801Y-12662674D02*
X13204325Y-12624579D01*
X13204325Y-12624579D02*
X13213849Y-12605531D01*
X13213849Y-12605531D02*
X13223372Y-12596008D01*
X13223372Y-12596008D02*
X13242420Y-12586484D01*
X13394801Y-12786484D02*
X13394801Y-12653150D01*
X13394801Y-12672198D02*
X13404325Y-12662674D01*
X13404325Y-12662674D02*
X13423372Y-12653150D01*
X13423372Y-12653150D02*
X13451944Y-12653150D01*
X13451944Y-12653150D02*
X13470991Y-12662674D01*
X13470991Y-12662674D02*
X13480515Y-12681722D01*
X13480515Y-12681722D02*
X13480515Y-12786484D01*
X13480515Y-12681722D02*
X13490039Y-12662674D01*
X13490039Y-12662674D02*
X13509087Y-12653150D01*
X13509087Y-12653150D02*
X13537658Y-12653150D01*
X13537658Y-12653150D02*
X13556706Y-12662674D01*
X13556706Y-12662674D02*
X13566230Y-12681722D01*
X13566230Y-12681722D02*
X13566230Y-12786484D01*
X13661468Y-12786484D02*
X13661468Y-12653150D01*
X13661468Y-12672198D02*
X13670991Y-12662674D01*
X13670991Y-12662674D02*
X13690039Y-12653150D01*
X13690039Y-12653150D02*
X13718611Y-12653150D01*
X13718611Y-12653150D02*
X13737658Y-12662674D01*
X13737658Y-12662674D02*
X13747182Y-12681722D01*
X13747182Y-12681722D02*
X13747182Y-12786484D01*
X13747182Y-12681722D02*
X13756706Y-12662674D01*
X13756706Y-12662674D02*
X13775753Y-12653150D01*
X13775753Y-12653150D02*
X13804325Y-12653150D01*
X13804325Y-12653150D02*
X13823372Y-12662674D01*
X13823372Y-12662674D02*
X13832896Y-12681722D01*
X13832896Y-12681722D02*
X13832896Y-12786484D01*
X14223372Y-12576960D02*
X14051944Y-12834103D01*
X14480515Y-12586484D02*
X14499563Y-12586484D01*
X14499563Y-12586484D02*
X14518611Y-12596008D01*
X14518611Y-12596008D02*
X14528134Y-12605531D01*
X14528134Y-12605531D02*
X14537658Y-12624579D01*
X14537658Y-12624579D02*
X14547182Y-12662674D01*
X14547182Y-12662674D02*
X14547182Y-12710293D01*
X14547182Y-12710293D02*
X14537658Y-12748388D01*
X14537658Y-12748388D02*
X14528134Y-12767436D01*
X14528134Y-12767436D02*
X14518611Y-12776960D01*
X14518611Y-12776960D02*
X14499563Y-12786484D01*
X14499563Y-12786484D02*
X14480515Y-12786484D01*
X14480515Y-12786484D02*
X14461468Y-12776960D01*
X14461468Y-12776960D02*
X14451944Y-12767436D01*
X14451944Y-12767436D02*
X14442420Y-12748388D01*
X14442420Y-12748388D02*
X14432896Y-12710293D01*
X14432896Y-12710293D02*
X14432896Y-12662674D01*
X14432896Y-12662674D02*
X14442420Y-12624579D01*
X14442420Y-12624579D02*
X14451944Y-12605531D01*
X14451944Y-12605531D02*
X14461468Y-12596008D01*
X14461468Y-12596008D02*
X14480515Y-12586484D01*
X14632896Y-12767436D02*
X14642420Y-12776960D01*
X14642420Y-12776960D02*
X14632896Y-12786484D01*
X14632896Y-12786484D02*
X14623373Y-12776960D01*
X14623373Y-12776960D02*
X14632896Y-12767436D01*
X14632896Y-12767436D02*
X14632896Y-12786484D01*
X14766230Y-12586484D02*
X14785277Y-12586484D01*
X14785277Y-12586484D02*
X14804325Y-12596008D01*
X14804325Y-12596008D02*
X14813849Y-12605531D01*
X14813849Y-12605531D02*
X14823373Y-12624579D01*
X14823373Y-12624579D02*
X14832896Y-12662674D01*
X14832896Y-12662674D02*
X14832896Y-12710293D01*
X14832896Y-12710293D02*
X14823373Y-12748388D01*
X14823373Y-12748388D02*
X14813849Y-12767436D01*
X14813849Y-12767436D02*
X14804325Y-12776960D01*
X14804325Y-12776960D02*
X14785277Y-12786484D01*
X14785277Y-12786484D02*
X14766230Y-12786484D01*
X14766230Y-12786484D02*
X14747182Y-12776960D01*
X14747182Y-12776960D02*
X14737658Y-12767436D01*
X14737658Y-12767436D02*
X14728134Y-12748388D01*
X14728134Y-12748388D02*
X14718611Y-12710293D01*
X14718611Y-12710293D02*
X14718611Y-12662674D01*
X14718611Y-12662674D02*
X14728134Y-12624579D01*
X14728134Y-12624579D02*
X14737658Y-12605531D01*
X14737658Y-12605531D02*
X14747182Y-12596008D01*
X14747182Y-12596008D02*
X14766230Y-12586484D01*
X15023373Y-12786484D02*
X14909087Y-12786484D01*
X14966230Y-12786484D02*
X14966230Y-12586484D01*
X14966230Y-12586484D02*
X14947182Y-12615055D01*
X14947182Y-12615055D02*
X14928134Y-12634103D01*
X14928134Y-12634103D02*
X14909087Y-12643627D01*
X15213849Y-12786484D02*
X15099563Y-12786484D01*
X15156706Y-12786484D02*
X15156706Y-12586484D01*
X15156706Y-12586484D02*
X15137658Y-12615055D01*
X15137658Y-12615055D02*
X15118611Y-12634103D01*
X15118611Y-12634103D02*
X15099563Y-12643627D01*
X15328134Y-12672198D02*
X15309087Y-12662674D01*
X15309087Y-12662674D02*
X15299563Y-12653150D01*
X15299563Y-12653150D02*
X15290039Y-12634103D01*
X15290039Y-12634103D02*
X15290039Y-12624579D01*
X15290039Y-12624579D02*
X15299563Y-12605531D01*
X15299563Y-12605531D02*
X15309087Y-12596008D01*
X15309087Y-12596008D02*
X15328134Y-12586484D01*
X15328134Y-12586484D02*
X15366230Y-12586484D01*
X15366230Y-12586484D02*
X15385277Y-12596008D01*
X15385277Y-12596008D02*
X15394801Y-12605531D01*
X15394801Y-12605531D02*
X15404325Y-12624579D01*
X15404325Y-12624579D02*
X15404325Y-12634103D01*
X15404325Y-12634103D02*
X15394801Y-12653150D01*
X15394801Y-12653150D02*
X15385277Y-12662674D01*
X15385277Y-12662674D02*
X15366230Y-12672198D01*
X15366230Y-12672198D02*
X15328134Y-12672198D01*
X15328134Y-12672198D02*
X15309087Y-12681722D01*
X15309087Y-12681722D02*
X15299563Y-12691246D01*
X15299563Y-12691246D02*
X15290039Y-12710293D01*
X15290039Y-12710293D02*
X15290039Y-12748388D01*
X15290039Y-12748388D02*
X15299563Y-12767436D01*
X15299563Y-12767436D02*
X15309087Y-12776960D01*
X15309087Y-12776960D02*
X15328134Y-12786484D01*
X15328134Y-12786484D02*
X15366230Y-12786484D01*
X15366230Y-12786484D02*
X15385277Y-12776960D01*
X15385277Y-12776960D02*
X15394801Y-12767436D01*
X15394801Y-12767436D02*
X15404325Y-12748388D01*
X15404325Y-12748388D02*
X15404325Y-12710293D01*
X15404325Y-12710293D02*
X15394801Y-12691246D01*
X15394801Y-12691246D02*
X15385277Y-12681722D01*
X15385277Y-12681722D02*
X15366230Y-12672198D01*
X15480515Y-12586484D02*
X15480515Y-12624579D01*
X15556706Y-12586484D02*
X15556706Y-12624579D01*
X15851944Y-12862674D02*
X15842420Y-12853150D01*
X15842420Y-12853150D02*
X15823373Y-12824579D01*
X15823373Y-12824579D02*
X15813849Y-12805531D01*
X15813849Y-12805531D02*
X15804325Y-12776960D01*
X15804325Y-12776960D02*
X15794801Y-12729341D01*
X15794801Y-12729341D02*
X15794801Y-12691246D01*
X15794801Y-12691246D02*
X15804325Y-12643627D01*
X15804325Y-12643627D02*
X15813849Y-12615055D01*
X15813849Y-12615055D02*
X15823373Y-12596008D01*
X15823373Y-12596008D02*
X15842420Y-12567436D01*
X15842420Y-12567436D02*
X15851944Y-12557912D01*
X16032896Y-12786484D02*
X15918611Y-12786484D01*
X15975754Y-12786484D02*
X15975754Y-12586484D01*
X15975754Y-12586484D02*
X15956706Y-12615055D01*
X15956706Y-12615055D02*
X15937658Y-12634103D01*
X15937658Y-12634103D02*
X15918611Y-12643627D01*
X16147182Y-12672198D02*
X16128135Y-12662674D01*
X16128135Y-12662674D02*
X16118611Y-12653150D01*
X16118611Y-12653150D02*
X16109087Y-12634103D01*
X16109087Y-12634103D02*
X16109087Y-12624579D01*
X16109087Y-12624579D02*
X16118611Y-12605531D01*
X16118611Y-12605531D02*
X16128135Y-12596008D01*
X16128135Y-12596008D02*
X16147182Y-12586484D01*
X16147182Y-12586484D02*
X16185277Y-12586484D01*
X16185277Y-12586484D02*
X16204325Y-12596008D01*
X16204325Y-12596008D02*
X16213849Y-12605531D01*
X16213849Y-12605531D02*
X16223373Y-12624579D01*
X16223373Y-12624579D02*
X16223373Y-12634103D01*
X16223373Y-12634103D02*
X16213849Y-12653150D01*
X16213849Y-12653150D02*
X16204325Y-12662674D01*
X16204325Y-12662674D02*
X16185277Y-12672198D01*
X16185277Y-12672198D02*
X16147182Y-12672198D01*
X16147182Y-12672198D02*
X16128135Y-12681722D01*
X16128135Y-12681722D02*
X16118611Y-12691246D01*
X16118611Y-12691246D02*
X16109087Y-12710293D01*
X16109087Y-12710293D02*
X16109087Y-12748388D01*
X16109087Y-12748388D02*
X16118611Y-12767436D01*
X16118611Y-12767436D02*
X16128135Y-12776960D01*
X16128135Y-12776960D02*
X16147182Y-12786484D01*
X16147182Y-12786484D02*
X16185277Y-12786484D01*
X16185277Y-12786484D02*
X16204325Y-12776960D01*
X16204325Y-12776960D02*
X16213849Y-12767436D01*
X16213849Y-12767436D02*
X16223373Y-12748388D01*
X16223373Y-12748388D02*
X16223373Y-12710293D01*
X16223373Y-12710293D02*
X16213849Y-12691246D01*
X16213849Y-12691246D02*
X16204325Y-12681722D01*
X16204325Y-12681722D02*
X16185277Y-12672198D01*
X16394801Y-12653150D02*
X16394801Y-12786484D01*
X16347182Y-12576960D02*
X16299563Y-12719817D01*
X16299563Y-12719817D02*
X16423373Y-12719817D01*
X16651944Y-12786484D02*
X16651944Y-12586484D01*
X16737658Y-12786484D02*
X16737658Y-12681722D01*
X16737658Y-12681722D02*
X16728135Y-12662674D01*
X16728135Y-12662674D02*
X16709087Y-12653150D01*
X16709087Y-12653150D02*
X16680516Y-12653150D01*
X16680516Y-12653150D02*
X16661468Y-12662674D01*
X16661468Y-12662674D02*
X16651944Y-12672198D01*
X16861468Y-12786484D02*
X16842420Y-12776960D01*
X16842420Y-12776960D02*
X16832897Y-12767436D01*
X16832897Y-12767436D02*
X16823373Y-12748388D01*
X16823373Y-12748388D02*
X16823373Y-12691246D01*
X16823373Y-12691246D02*
X16832897Y-12672198D01*
X16832897Y-12672198D02*
X16842420Y-12662674D01*
X16842420Y-12662674D02*
X16861468Y-12653150D01*
X16861468Y-12653150D02*
X16890040Y-12653150D01*
X16890040Y-12653150D02*
X16909087Y-12662674D01*
X16909087Y-12662674D02*
X16918611Y-12672198D01*
X16918611Y-12672198D02*
X16928135Y-12691246D01*
X16928135Y-12691246D02*
X16928135Y-12748388D01*
X16928135Y-12748388D02*
X16918611Y-12767436D01*
X16918611Y-12767436D02*
X16909087Y-12776960D01*
X16909087Y-12776960D02*
X16890040Y-12786484D01*
X16890040Y-12786484D02*
X16861468Y-12786484D01*
X17042420Y-12786484D02*
X17023373Y-12776960D01*
X17023373Y-12776960D02*
X17013849Y-12757912D01*
X17013849Y-12757912D02*
X17013849Y-12586484D01*
X17194801Y-12776960D02*
X17175754Y-12786484D01*
X17175754Y-12786484D02*
X17137659Y-12786484D01*
X17137659Y-12786484D02*
X17118611Y-12776960D01*
X17118611Y-12776960D02*
X17109087Y-12757912D01*
X17109087Y-12757912D02*
X17109087Y-12681722D01*
X17109087Y-12681722D02*
X17118611Y-12662674D01*
X17118611Y-12662674D02*
X17137659Y-12653150D01*
X17137659Y-12653150D02*
X17175754Y-12653150D01*
X17175754Y-12653150D02*
X17194801Y-12662674D01*
X17194801Y-12662674D02*
X17204325Y-12681722D01*
X17204325Y-12681722D02*
X17204325Y-12700769D01*
X17204325Y-12700769D02*
X17109087Y-12719817D01*
X17280516Y-12776960D02*
X17299563Y-12786484D01*
X17299563Y-12786484D02*
X17337659Y-12786484D01*
X17337659Y-12786484D02*
X17356706Y-12776960D01*
X17356706Y-12776960D02*
X17366230Y-12757912D01*
X17366230Y-12757912D02*
X17366230Y-12748388D01*
X17366230Y-12748388D02*
X17356706Y-12729341D01*
X17356706Y-12729341D02*
X17337659Y-12719817D01*
X17337659Y-12719817D02*
X17309087Y-12719817D01*
X17309087Y-12719817D02*
X17290040Y-12710293D01*
X17290040Y-12710293D02*
X17280516Y-12691246D01*
X17280516Y-12691246D02*
X17280516Y-12681722D01*
X17280516Y-12681722D02*
X17290040Y-12662674D01*
X17290040Y-12662674D02*
X17309087Y-12653150D01*
X17309087Y-12653150D02*
X17337659Y-12653150D01*
X17337659Y-12653150D02*
X17356706Y-12662674D01*
X17432897Y-12862674D02*
X17442421Y-12853150D01*
X17442421Y-12853150D02*
X17461468Y-12824579D01*
X17461468Y-12824579D02*
X17470992Y-12805531D01*
X17470992Y-12805531D02*
X17480516Y-12776960D01*
X17480516Y-12776960D02*
X17490040Y-12729341D01*
X17490040Y-12729341D02*
X17490040Y-12691246D01*
X17490040Y-12691246D02*
X17480516Y-12643627D01*
X17480516Y-12643627D02*
X17470992Y-12615055D01*
X17470992Y-12615055D02*
X17461468Y-12596008D01*
X17461468Y-12596008D02*
X17442421Y-12567436D01*
X17442421Y-12567436D02*
X17432897Y-12557912D01*
D10*
X12276881Y-12959000D02*
G75*
G02*
X12246881Y-12959000I-15000J0D01*
G01*
X12246881Y-12959000D02*
G75*
G02*
X12276881Y-12959000I15000J0D01*
G01*
D11*
X12575753Y-12850484D02*
X12594801Y-12850484D01*
X12594801Y-12850484D02*
X12613849Y-12860008D01*
X12613849Y-12860008D02*
X12623372Y-12869531D01*
X12623372Y-12869531D02*
X12632896Y-12888579D01*
X12632896Y-12888579D02*
X12642420Y-12926674D01*
X12642420Y-12926674D02*
X12642420Y-12974293D01*
X12642420Y-12974293D02*
X12632896Y-13012388D01*
X12632896Y-13012388D02*
X12623372Y-13031436D01*
X12623372Y-13031436D02*
X12613849Y-13040960D01*
X12613849Y-13040960D02*
X12594801Y-13050484D01*
X12594801Y-13050484D02*
X12575753Y-13050484D01*
X12575753Y-13050484D02*
X12556706Y-13040960D01*
X12556706Y-13040960D02*
X12547182Y-13031436D01*
X12547182Y-13031436D02*
X12537658Y-13012388D01*
X12537658Y-13012388D02*
X12528134Y-12974293D01*
X12528134Y-12974293D02*
X12528134Y-12926674D01*
X12528134Y-12926674D02*
X12537658Y-12888579D01*
X12537658Y-12888579D02*
X12547182Y-12869531D01*
X12547182Y-12869531D02*
X12556706Y-12860008D01*
X12556706Y-12860008D02*
X12575753Y-12850484D01*
X12728134Y-13031436D02*
X12737658Y-13040960D01*
X12737658Y-13040960D02*
X12728134Y-13050484D01*
X12728134Y-13050484D02*
X12718610Y-13040960D01*
X12718610Y-13040960D02*
X12728134Y-13031436D01*
X12728134Y-13031436D02*
X12728134Y-13050484D01*
X12804325Y-12850484D02*
X12928134Y-12850484D01*
X12928134Y-12850484D02*
X12861468Y-12926674D01*
X12861468Y-12926674D02*
X12890039Y-12926674D01*
X12890039Y-12926674D02*
X12909087Y-12936198D01*
X12909087Y-12936198D02*
X12918610Y-12945722D01*
X12918610Y-12945722D02*
X12928134Y-12964769D01*
X12928134Y-12964769D02*
X12928134Y-13012388D01*
X12928134Y-13012388D02*
X12918610Y-13031436D01*
X12918610Y-13031436D02*
X12909087Y-13040960D01*
X12909087Y-13040960D02*
X12890039Y-13050484D01*
X12890039Y-13050484D02*
X12832896Y-13050484D01*
X12832896Y-13050484D02*
X12813849Y-13040960D01*
X12813849Y-13040960D02*
X12804325Y-13031436D01*
X13051944Y-12850484D02*
X13070991Y-12850484D01*
X13070991Y-12850484D02*
X13090039Y-12860008D01*
X13090039Y-12860008D02*
X13099563Y-12869531D01*
X13099563Y-12869531D02*
X13109087Y-12888579D01*
X13109087Y-12888579D02*
X13118610Y-12926674D01*
X13118610Y-12926674D02*
X13118610Y-12974293D01*
X13118610Y-12974293D02*
X13109087Y-13012388D01*
X13109087Y-13012388D02*
X13099563Y-13031436D01*
X13099563Y-13031436D02*
X13090039Y-13040960D01*
X13090039Y-13040960D02*
X13070991Y-13050484D01*
X13070991Y-13050484D02*
X13051944Y-13050484D01*
X13051944Y-13050484D02*
X13032896Y-13040960D01*
X13032896Y-13040960D02*
X13023372Y-13031436D01*
X13023372Y-13031436D02*
X13013849Y-13012388D01*
X13013849Y-13012388D02*
X13004325Y-12974293D01*
X13004325Y-12974293D02*
X13004325Y-12926674D01*
X13004325Y-12926674D02*
X13013849Y-12888579D01*
X13013849Y-12888579D02*
X13023372Y-12869531D01*
X13023372Y-12869531D02*
X13032896Y-12860008D01*
X13032896Y-12860008D02*
X13051944Y-12850484D01*
X13242420Y-12850484D02*
X13261468Y-12850484D01*
X13261468Y-12850484D02*
X13280515Y-12860008D01*
X13280515Y-12860008D02*
X13290039Y-12869531D01*
X13290039Y-12869531D02*
X13299563Y-12888579D01*
X13299563Y-12888579D02*
X13309087Y-12926674D01*
X13309087Y-12926674D02*
X13309087Y-12974293D01*
X13309087Y-12974293D02*
X13299563Y-13012388D01*
X13299563Y-13012388D02*
X13290039Y-13031436D01*
X13290039Y-13031436D02*
X13280515Y-13040960D01*
X13280515Y-13040960D02*
X13261468Y-13050484D01*
X13261468Y-13050484D02*
X13242420Y-13050484D01*
X13242420Y-13050484D02*
X13223372Y-13040960D01*
X13223372Y-13040960D02*
X13213849Y-13031436D01*
X13213849Y-13031436D02*
X13204325Y-13012388D01*
X13204325Y-13012388D02*
X13194801Y-12974293D01*
X13194801Y-12974293D02*
X13194801Y-12926674D01*
X13194801Y-12926674D02*
X13204325Y-12888579D01*
X13204325Y-12888579D02*
X13213849Y-12869531D01*
X13213849Y-12869531D02*
X13223372Y-12860008D01*
X13223372Y-12860008D02*
X13242420Y-12850484D01*
X13394801Y-13050484D02*
X13394801Y-12917150D01*
X13394801Y-12936198D02*
X13404325Y-12926674D01*
X13404325Y-12926674D02*
X13423372Y-12917150D01*
X13423372Y-12917150D02*
X13451944Y-12917150D01*
X13451944Y-12917150D02*
X13470991Y-12926674D01*
X13470991Y-12926674D02*
X13480515Y-12945722D01*
X13480515Y-12945722D02*
X13480515Y-13050484D01*
X13480515Y-12945722D02*
X13490039Y-12926674D01*
X13490039Y-12926674D02*
X13509087Y-12917150D01*
X13509087Y-12917150D02*
X13537658Y-12917150D01*
X13537658Y-12917150D02*
X13556706Y-12926674D01*
X13556706Y-12926674D02*
X13566230Y-12945722D01*
X13566230Y-12945722D02*
X13566230Y-13050484D01*
X13661468Y-13050484D02*
X13661468Y-12917150D01*
X13661468Y-12936198D02*
X13670991Y-12926674D01*
X13670991Y-12926674D02*
X13690039Y-12917150D01*
X13690039Y-12917150D02*
X13718611Y-12917150D01*
X13718611Y-12917150D02*
X13737658Y-12926674D01*
X13737658Y-12926674D02*
X13747182Y-12945722D01*
X13747182Y-12945722D02*
X13747182Y-13050484D01*
X13747182Y-12945722D02*
X13756706Y-12926674D01*
X13756706Y-12926674D02*
X13775753Y-12917150D01*
X13775753Y-12917150D02*
X13804325Y-12917150D01*
X13804325Y-12917150D02*
X13823372Y-12926674D01*
X13823372Y-12926674D02*
X13832896Y-12945722D01*
X13832896Y-12945722D02*
X13832896Y-13050484D01*
X14223372Y-12840960D02*
X14051944Y-13098103D01*
X14480515Y-12850484D02*
X14499563Y-12850484D01*
X14499563Y-12850484D02*
X14518611Y-12860008D01*
X14518611Y-12860008D02*
X14528134Y-12869531D01*
X14528134Y-12869531D02*
X14537658Y-12888579D01*
X14537658Y-12888579D02*
X14547182Y-12926674D01*
X14547182Y-12926674D02*
X14547182Y-12974293D01*
X14547182Y-12974293D02*
X14537658Y-13012388D01*
X14537658Y-13012388D02*
X14528134Y-13031436D01*
X14528134Y-13031436D02*
X14518611Y-13040960D01*
X14518611Y-13040960D02*
X14499563Y-13050484D01*
X14499563Y-13050484D02*
X14480515Y-13050484D01*
X14480515Y-13050484D02*
X14461468Y-13040960D01*
X14461468Y-13040960D02*
X14451944Y-13031436D01*
X14451944Y-13031436D02*
X14442420Y-13012388D01*
X14442420Y-13012388D02*
X14432896Y-12974293D01*
X14432896Y-12974293D02*
X14432896Y-12926674D01*
X14432896Y-12926674D02*
X14442420Y-12888579D01*
X14442420Y-12888579D02*
X14451944Y-12869531D01*
X14451944Y-12869531D02*
X14461468Y-12860008D01*
X14461468Y-12860008D02*
X14480515Y-12850484D01*
X14632896Y-13031436D02*
X14642420Y-13040960D01*
X14642420Y-13040960D02*
X14632896Y-13050484D01*
X14632896Y-13050484D02*
X14623373Y-13040960D01*
X14623373Y-13040960D02*
X14632896Y-13031436D01*
X14632896Y-13031436D02*
X14632896Y-13050484D01*
X14766230Y-12850484D02*
X14785277Y-12850484D01*
X14785277Y-12850484D02*
X14804325Y-12860008D01*
X14804325Y-12860008D02*
X14813849Y-12869531D01*
X14813849Y-12869531D02*
X14823373Y-12888579D01*
X14823373Y-12888579D02*
X14832896Y-12926674D01*
X14832896Y-12926674D02*
X14832896Y-12974293D01*
X14832896Y-12974293D02*
X14823373Y-13012388D01*
X14823373Y-13012388D02*
X14813849Y-13031436D01*
X14813849Y-13031436D02*
X14804325Y-13040960D01*
X14804325Y-13040960D02*
X14785277Y-13050484D01*
X14785277Y-13050484D02*
X14766230Y-13050484D01*
X14766230Y-13050484D02*
X14747182Y-13040960D01*
X14747182Y-13040960D02*
X14737658Y-13031436D01*
X14737658Y-13031436D02*
X14728134Y-13012388D01*
X14728134Y-13012388D02*
X14718611Y-12974293D01*
X14718611Y-12974293D02*
X14718611Y-12926674D01*
X14718611Y-12926674D02*
X14728134Y-12888579D01*
X14728134Y-12888579D02*
X14737658Y-12869531D01*
X14737658Y-12869531D02*
X14747182Y-12860008D01*
X14747182Y-12860008D02*
X14766230Y-12850484D01*
X15023373Y-13050484D02*
X14909087Y-13050484D01*
X14966230Y-13050484D02*
X14966230Y-12850484D01*
X14966230Y-12850484D02*
X14947182Y-12879055D01*
X14947182Y-12879055D02*
X14928134Y-12898103D01*
X14928134Y-12898103D02*
X14909087Y-12907627D01*
X15213849Y-13050484D02*
X15099563Y-13050484D01*
X15156706Y-13050484D02*
X15156706Y-12850484D01*
X15156706Y-12850484D02*
X15137658Y-12879055D01*
X15137658Y-12879055D02*
X15118611Y-12898103D01*
X15118611Y-12898103D02*
X15099563Y-12907627D01*
X15328134Y-12936198D02*
X15309087Y-12926674D01*
X15309087Y-12926674D02*
X15299563Y-12917150D01*
X15299563Y-12917150D02*
X15290039Y-12898103D01*
X15290039Y-12898103D02*
X15290039Y-12888579D01*
X15290039Y-12888579D02*
X15299563Y-12869531D01*
X15299563Y-12869531D02*
X15309087Y-12860008D01*
X15309087Y-12860008D02*
X15328134Y-12850484D01*
X15328134Y-12850484D02*
X15366230Y-12850484D01*
X15366230Y-12850484D02*
X15385277Y-12860008D01*
X15385277Y-12860008D02*
X15394801Y-12869531D01*
X15394801Y-12869531D02*
X15404325Y-12888579D01*
X15404325Y-12888579D02*
X15404325Y-12898103D01*
X15404325Y-12898103D02*
X15394801Y-12917150D01*
X15394801Y-12917150D02*
X15385277Y-12926674D01*
X15385277Y-12926674D02*
X15366230Y-12936198D01*
X15366230Y-12936198D02*
X15328134Y-12936198D01*
X15328134Y-12936198D02*
X15309087Y-12945722D01*
X15309087Y-12945722D02*
X15299563Y-12955246D01*
X15299563Y-12955246D02*
X15290039Y-12974293D01*
X15290039Y-12974293D02*
X15290039Y-13012388D01*
X15290039Y-13012388D02*
X15299563Y-13031436D01*
X15299563Y-13031436D02*
X15309087Y-13040960D01*
X15309087Y-13040960D02*
X15328134Y-13050484D01*
X15328134Y-13050484D02*
X15366230Y-13050484D01*
X15366230Y-13050484D02*
X15385277Y-13040960D01*
X15385277Y-13040960D02*
X15394801Y-13031436D01*
X15394801Y-13031436D02*
X15404325Y-13012388D01*
X15404325Y-13012388D02*
X15404325Y-12974293D01*
X15404325Y-12974293D02*
X15394801Y-12955246D01*
X15394801Y-12955246D02*
X15385277Y-12945722D01*
X15385277Y-12945722D02*
X15366230Y-12936198D01*
X15480515Y-12850484D02*
X15480515Y-12888579D01*
X15556706Y-12850484D02*
X15556706Y-12888579D01*
X15851944Y-13126674D02*
X15842420Y-13117150D01*
X15842420Y-13117150D02*
X15823373Y-13088579D01*
X15823373Y-13088579D02*
X15813849Y-13069531D01*
X15813849Y-13069531D02*
X15804325Y-13040960D01*
X15804325Y-13040960D02*
X15794801Y-12993341D01*
X15794801Y-12993341D02*
X15794801Y-12955246D01*
X15794801Y-12955246D02*
X15804325Y-12907627D01*
X15804325Y-12907627D02*
X15813849Y-12879055D01*
X15813849Y-12879055D02*
X15823373Y-12860008D01*
X15823373Y-12860008D02*
X15842420Y-12831436D01*
X15842420Y-12831436D02*
X15851944Y-12821912D01*
X16023373Y-12850484D02*
X15928135Y-12850484D01*
X15928135Y-12850484D02*
X15918611Y-12945722D01*
X15918611Y-12945722D02*
X15928135Y-12936198D01*
X15928135Y-12936198D02*
X15947182Y-12926674D01*
X15947182Y-12926674D02*
X15994801Y-12926674D01*
X15994801Y-12926674D02*
X16013849Y-12936198D01*
X16013849Y-12936198D02*
X16023373Y-12945722D01*
X16023373Y-12945722D02*
X16032896Y-12964769D01*
X16032896Y-12964769D02*
X16032896Y-13012388D01*
X16032896Y-13012388D02*
X16023373Y-13031436D01*
X16023373Y-13031436D02*
X16013849Y-13040960D01*
X16013849Y-13040960D02*
X15994801Y-13050484D01*
X15994801Y-13050484D02*
X15947182Y-13050484D01*
X15947182Y-13050484D02*
X15928135Y-13040960D01*
X15928135Y-13040960D02*
X15918611Y-13031436D01*
X16270992Y-13050484D02*
X16270992Y-12850484D01*
X16356706Y-13050484D02*
X16356706Y-12945722D01*
X16356706Y-12945722D02*
X16347182Y-12926674D01*
X16347182Y-12926674D02*
X16328135Y-12917150D01*
X16328135Y-12917150D02*
X16299563Y-12917150D01*
X16299563Y-12917150D02*
X16280516Y-12926674D01*
X16280516Y-12926674D02*
X16270992Y-12936198D01*
X16480516Y-13050484D02*
X16461468Y-13040960D01*
X16461468Y-13040960D02*
X16451944Y-13031436D01*
X16451944Y-13031436D02*
X16442420Y-13012388D01*
X16442420Y-13012388D02*
X16442420Y-12955246D01*
X16442420Y-12955246D02*
X16451944Y-12936198D01*
X16451944Y-12936198D02*
X16461468Y-12926674D01*
X16461468Y-12926674D02*
X16480516Y-12917150D01*
X16480516Y-12917150D02*
X16509087Y-12917150D01*
X16509087Y-12917150D02*
X16528135Y-12926674D01*
X16528135Y-12926674D02*
X16537658Y-12936198D01*
X16537658Y-12936198D02*
X16547182Y-12955246D01*
X16547182Y-12955246D02*
X16547182Y-13012388D01*
X16547182Y-13012388D02*
X16537658Y-13031436D01*
X16537658Y-13031436D02*
X16528135Y-13040960D01*
X16528135Y-13040960D02*
X16509087Y-13050484D01*
X16509087Y-13050484D02*
X16480516Y-13050484D01*
X16661468Y-13050484D02*
X16642420Y-13040960D01*
X16642420Y-13040960D02*
X16632897Y-13021912D01*
X16632897Y-13021912D02*
X16632897Y-12850484D01*
X16813849Y-13040960D02*
X16794801Y-13050484D01*
X16794801Y-13050484D02*
X16756706Y-13050484D01*
X16756706Y-13050484D02*
X16737658Y-13040960D01*
X16737658Y-13040960D02*
X16728135Y-13021912D01*
X16728135Y-13021912D02*
X16728135Y-12945722D01*
X16728135Y-12945722D02*
X16737658Y-12926674D01*
X16737658Y-12926674D02*
X16756706Y-12917150D01*
X16756706Y-12917150D02*
X16794801Y-12917150D01*
X16794801Y-12917150D02*
X16813849Y-12926674D01*
X16813849Y-12926674D02*
X16823373Y-12945722D01*
X16823373Y-12945722D02*
X16823373Y-12964769D01*
X16823373Y-12964769D02*
X16728135Y-12983817D01*
X16899563Y-13040960D02*
X16918611Y-13050484D01*
X16918611Y-13050484D02*
X16956706Y-13050484D01*
X16956706Y-13050484D02*
X16975754Y-13040960D01*
X16975754Y-13040960D02*
X16985278Y-13021912D01*
X16985278Y-13021912D02*
X16985278Y-13012388D01*
X16985278Y-13012388D02*
X16975754Y-12993341D01*
X16975754Y-12993341D02*
X16956706Y-12983817D01*
X16956706Y-12983817D02*
X16928135Y-12983817D01*
X16928135Y-12983817D02*
X16909087Y-12974293D01*
X16909087Y-12974293D02*
X16899563Y-12955246D01*
X16899563Y-12955246D02*
X16899563Y-12945722D01*
X16899563Y-12945722D02*
X16909087Y-12926674D01*
X16909087Y-12926674D02*
X16928135Y-12917150D01*
X16928135Y-12917150D02*
X16956706Y-12917150D01*
X16956706Y-12917150D02*
X16975754Y-12926674D01*
X17051944Y-13126674D02*
X17061468Y-13117150D01*
X17061468Y-13117150D02*
X17080516Y-13088579D01*
X17080516Y-13088579D02*
X17090040Y-13069531D01*
X17090040Y-13069531D02*
X17099563Y-13040960D01*
X17099563Y-13040960D02*
X17109087Y-12993341D01*
X17109087Y-12993341D02*
X17109087Y-12955246D01*
X17109087Y-12955246D02*
X17099563Y-12907627D01*
X17099563Y-12907627D02*
X17090040Y-12879055D01*
X17090040Y-12879055D02*
X17080516Y-12860008D01*
X17080516Y-12860008D02*
X17061468Y-12831436D01*
X17061468Y-12831436D02*
X17051944Y-12821912D01*
D10*
X12246881Y-13193000D02*
X12246881Y-13253000D01*
X12216881Y-13223000D02*
X12276881Y-13223000D01*
D11*
X12575753Y-13114484D02*
X12594801Y-13114484D01*
X12594801Y-13114484D02*
X12613849Y-13124008D01*
X12613849Y-13124008D02*
X12623372Y-13133531D01*
X12623372Y-13133531D02*
X12632896Y-13152579D01*
X12632896Y-13152579D02*
X12642420Y-13190674D01*
X12642420Y-13190674D02*
X12642420Y-13238293D01*
X12642420Y-13238293D02*
X12632896Y-13276388D01*
X12632896Y-13276388D02*
X12623372Y-13295436D01*
X12623372Y-13295436D02*
X12613849Y-13304960D01*
X12613849Y-13304960D02*
X12594801Y-13314484D01*
X12594801Y-13314484D02*
X12575753Y-13314484D01*
X12575753Y-13314484D02*
X12556706Y-13304960D01*
X12556706Y-13304960D02*
X12547182Y-13295436D01*
X12547182Y-13295436D02*
X12537658Y-13276388D01*
X12537658Y-13276388D02*
X12528134Y-13238293D01*
X12528134Y-13238293D02*
X12528134Y-13190674D01*
X12528134Y-13190674D02*
X12537658Y-13152579D01*
X12537658Y-13152579D02*
X12547182Y-13133531D01*
X12547182Y-13133531D02*
X12556706Y-13124008D01*
X12556706Y-13124008D02*
X12575753Y-13114484D01*
X12728134Y-13295436D02*
X12737658Y-13304960D01*
X12737658Y-13304960D02*
X12728134Y-13314484D01*
X12728134Y-13314484D02*
X12718610Y-13304960D01*
X12718610Y-13304960D02*
X12728134Y-13295436D01*
X12728134Y-13295436D02*
X12728134Y-13314484D01*
X12909087Y-13114484D02*
X12870991Y-13114484D01*
X12870991Y-13114484D02*
X12851944Y-13124008D01*
X12851944Y-13124008D02*
X12842420Y-13133531D01*
X12842420Y-13133531D02*
X12823372Y-13162103D01*
X12823372Y-13162103D02*
X12813849Y-13200198D01*
X12813849Y-13200198D02*
X12813849Y-13276388D01*
X12813849Y-13276388D02*
X12823372Y-13295436D01*
X12823372Y-13295436D02*
X12832896Y-13304960D01*
X12832896Y-13304960D02*
X12851944Y-13314484D01*
X12851944Y-13314484D02*
X12890039Y-13314484D01*
X12890039Y-13314484D02*
X12909087Y-13304960D01*
X12909087Y-13304960D02*
X12918610Y-13295436D01*
X12918610Y-13295436D02*
X12928134Y-13276388D01*
X12928134Y-13276388D02*
X12928134Y-13228769D01*
X12928134Y-13228769D02*
X12918610Y-13209722D01*
X12918610Y-13209722D02*
X12909087Y-13200198D01*
X12909087Y-13200198D02*
X12890039Y-13190674D01*
X12890039Y-13190674D02*
X12851944Y-13190674D01*
X12851944Y-13190674D02*
X12832896Y-13200198D01*
X12832896Y-13200198D02*
X12823372Y-13209722D01*
X12823372Y-13209722D02*
X12813849Y-13228769D01*
X13051944Y-13114484D02*
X13070991Y-13114484D01*
X13070991Y-13114484D02*
X13090039Y-13124008D01*
X13090039Y-13124008D02*
X13099563Y-13133531D01*
X13099563Y-13133531D02*
X13109087Y-13152579D01*
X13109087Y-13152579D02*
X13118610Y-13190674D01*
X13118610Y-13190674D02*
X13118610Y-13238293D01*
X13118610Y-13238293D02*
X13109087Y-13276388D01*
X13109087Y-13276388D02*
X13099563Y-13295436D01*
X13099563Y-13295436D02*
X13090039Y-13304960D01*
X13090039Y-13304960D02*
X13070991Y-13314484D01*
X13070991Y-13314484D02*
X13051944Y-13314484D01*
X13051944Y-13314484D02*
X13032896Y-13304960D01*
X13032896Y-13304960D02*
X13023372Y-13295436D01*
X13023372Y-13295436D02*
X13013849Y-13276388D01*
X13013849Y-13276388D02*
X13004325Y-13238293D01*
X13004325Y-13238293D02*
X13004325Y-13190674D01*
X13004325Y-13190674D02*
X13013849Y-13152579D01*
X13013849Y-13152579D02*
X13023372Y-13133531D01*
X13023372Y-13133531D02*
X13032896Y-13124008D01*
X13032896Y-13124008D02*
X13051944Y-13114484D01*
X13242420Y-13114484D02*
X13261468Y-13114484D01*
X13261468Y-13114484D02*
X13280515Y-13124008D01*
X13280515Y-13124008D02*
X13290039Y-13133531D01*
X13290039Y-13133531D02*
X13299563Y-13152579D01*
X13299563Y-13152579D02*
X13309087Y-13190674D01*
X13309087Y-13190674D02*
X13309087Y-13238293D01*
X13309087Y-13238293D02*
X13299563Y-13276388D01*
X13299563Y-13276388D02*
X13290039Y-13295436D01*
X13290039Y-13295436D02*
X13280515Y-13304960D01*
X13280515Y-13304960D02*
X13261468Y-13314484D01*
X13261468Y-13314484D02*
X13242420Y-13314484D01*
X13242420Y-13314484D02*
X13223372Y-13304960D01*
X13223372Y-13304960D02*
X13213849Y-13295436D01*
X13213849Y-13295436D02*
X13204325Y-13276388D01*
X13204325Y-13276388D02*
X13194801Y-13238293D01*
X13194801Y-13238293D02*
X13194801Y-13190674D01*
X13194801Y-13190674D02*
X13204325Y-13152579D01*
X13204325Y-13152579D02*
X13213849Y-13133531D01*
X13213849Y-13133531D02*
X13223372Y-13124008D01*
X13223372Y-13124008D02*
X13242420Y-13114484D01*
X13394801Y-13314484D02*
X13394801Y-13181150D01*
X13394801Y-13200198D02*
X13404325Y-13190674D01*
X13404325Y-13190674D02*
X13423372Y-13181150D01*
X13423372Y-13181150D02*
X13451944Y-13181150D01*
X13451944Y-13181150D02*
X13470991Y-13190674D01*
X13470991Y-13190674D02*
X13480515Y-13209722D01*
X13480515Y-13209722D02*
X13480515Y-13314484D01*
X13480515Y-13209722D02*
X13490039Y-13190674D01*
X13490039Y-13190674D02*
X13509087Y-13181150D01*
X13509087Y-13181150D02*
X13537658Y-13181150D01*
X13537658Y-13181150D02*
X13556706Y-13190674D01*
X13556706Y-13190674D02*
X13566230Y-13209722D01*
X13566230Y-13209722D02*
X13566230Y-13314484D01*
X13661468Y-13314484D02*
X13661468Y-13181150D01*
X13661468Y-13200198D02*
X13670991Y-13190674D01*
X13670991Y-13190674D02*
X13690039Y-13181150D01*
X13690039Y-13181150D02*
X13718611Y-13181150D01*
X13718611Y-13181150D02*
X13737658Y-13190674D01*
X13737658Y-13190674D02*
X13747182Y-13209722D01*
X13747182Y-13209722D02*
X13747182Y-13314484D01*
X13747182Y-13209722D02*
X13756706Y-13190674D01*
X13756706Y-13190674D02*
X13775753Y-13181150D01*
X13775753Y-13181150D02*
X13804325Y-13181150D01*
X13804325Y-13181150D02*
X13823372Y-13190674D01*
X13823372Y-13190674D02*
X13832896Y-13209722D01*
X13832896Y-13209722D02*
X13832896Y-13314484D01*
X14223372Y-13104960D02*
X14051944Y-13362103D01*
X14480515Y-13114484D02*
X14499563Y-13114484D01*
X14499563Y-13114484D02*
X14518611Y-13124008D01*
X14518611Y-13124008D02*
X14528134Y-13133531D01*
X14528134Y-13133531D02*
X14537658Y-13152579D01*
X14537658Y-13152579D02*
X14547182Y-13190674D01*
X14547182Y-13190674D02*
X14547182Y-13238293D01*
X14547182Y-13238293D02*
X14537658Y-13276388D01*
X14537658Y-13276388D02*
X14528134Y-13295436D01*
X14528134Y-13295436D02*
X14518611Y-13304960D01*
X14518611Y-13304960D02*
X14499563Y-13314484D01*
X14499563Y-13314484D02*
X14480515Y-13314484D01*
X14480515Y-13314484D02*
X14461468Y-13304960D01*
X14461468Y-13304960D02*
X14451944Y-13295436D01*
X14451944Y-13295436D02*
X14442420Y-13276388D01*
X14442420Y-13276388D02*
X14432896Y-13238293D01*
X14432896Y-13238293D02*
X14432896Y-13190674D01*
X14432896Y-13190674D02*
X14442420Y-13152579D01*
X14442420Y-13152579D02*
X14451944Y-13133531D01*
X14451944Y-13133531D02*
X14461468Y-13124008D01*
X14461468Y-13124008D02*
X14480515Y-13114484D01*
X14632896Y-13295436D02*
X14642420Y-13304960D01*
X14642420Y-13304960D02*
X14632896Y-13314484D01*
X14632896Y-13314484D02*
X14623373Y-13304960D01*
X14623373Y-13304960D02*
X14632896Y-13295436D01*
X14632896Y-13295436D02*
X14632896Y-13314484D01*
X14766230Y-13114484D02*
X14785277Y-13114484D01*
X14785277Y-13114484D02*
X14804325Y-13124008D01*
X14804325Y-13124008D02*
X14813849Y-13133531D01*
X14813849Y-13133531D02*
X14823373Y-13152579D01*
X14823373Y-13152579D02*
X14832896Y-13190674D01*
X14832896Y-13190674D02*
X14832896Y-13238293D01*
X14832896Y-13238293D02*
X14823373Y-13276388D01*
X14823373Y-13276388D02*
X14813849Y-13295436D01*
X14813849Y-13295436D02*
X14804325Y-13304960D01*
X14804325Y-13304960D02*
X14785277Y-13314484D01*
X14785277Y-13314484D02*
X14766230Y-13314484D01*
X14766230Y-13314484D02*
X14747182Y-13304960D01*
X14747182Y-13304960D02*
X14737658Y-13295436D01*
X14737658Y-13295436D02*
X14728134Y-13276388D01*
X14728134Y-13276388D02*
X14718611Y-13238293D01*
X14718611Y-13238293D02*
X14718611Y-13190674D01*
X14718611Y-13190674D02*
X14728134Y-13152579D01*
X14728134Y-13152579D02*
X14737658Y-13133531D01*
X14737658Y-13133531D02*
X14747182Y-13124008D01*
X14747182Y-13124008D02*
X14766230Y-13114484D01*
X14909087Y-13133531D02*
X14918611Y-13124008D01*
X14918611Y-13124008D02*
X14937658Y-13114484D01*
X14937658Y-13114484D02*
X14985277Y-13114484D01*
X14985277Y-13114484D02*
X15004325Y-13124008D01*
X15004325Y-13124008D02*
X15013849Y-13133531D01*
X15013849Y-13133531D02*
X15023373Y-13152579D01*
X15023373Y-13152579D02*
X15023373Y-13171627D01*
X15023373Y-13171627D02*
X15013849Y-13200198D01*
X15013849Y-13200198D02*
X14899563Y-13314484D01*
X14899563Y-13314484D02*
X15023373Y-13314484D01*
X15090039Y-13114484D02*
X15213849Y-13114484D01*
X15213849Y-13114484D02*
X15147182Y-13190674D01*
X15147182Y-13190674D02*
X15175754Y-13190674D01*
X15175754Y-13190674D02*
X15194801Y-13200198D01*
X15194801Y-13200198D02*
X15204325Y-13209722D01*
X15204325Y-13209722D02*
X15213849Y-13228769D01*
X15213849Y-13228769D02*
X15213849Y-13276388D01*
X15213849Y-13276388D02*
X15204325Y-13295436D01*
X15204325Y-13295436D02*
X15194801Y-13304960D01*
X15194801Y-13304960D02*
X15175754Y-13314484D01*
X15175754Y-13314484D02*
X15118611Y-13314484D01*
X15118611Y-13314484D02*
X15099563Y-13304960D01*
X15099563Y-13304960D02*
X15090039Y-13295436D01*
X15385277Y-13114484D02*
X15347182Y-13114484D01*
X15347182Y-13114484D02*
X15328134Y-13124008D01*
X15328134Y-13124008D02*
X15318611Y-13133531D01*
X15318611Y-13133531D02*
X15299563Y-13162103D01*
X15299563Y-13162103D02*
X15290039Y-13200198D01*
X15290039Y-13200198D02*
X15290039Y-13276388D01*
X15290039Y-13276388D02*
X15299563Y-13295436D01*
X15299563Y-13295436D02*
X15309087Y-13304960D01*
X15309087Y-13304960D02*
X15328134Y-13314484D01*
X15328134Y-13314484D02*
X15366230Y-13314484D01*
X15366230Y-13314484D02*
X15385277Y-13304960D01*
X15385277Y-13304960D02*
X15394801Y-13295436D01*
X15394801Y-13295436D02*
X15404325Y-13276388D01*
X15404325Y-13276388D02*
X15404325Y-13228769D01*
X15404325Y-13228769D02*
X15394801Y-13209722D01*
X15394801Y-13209722D02*
X15385277Y-13200198D01*
X15385277Y-13200198D02*
X15366230Y-13190674D01*
X15366230Y-13190674D02*
X15328134Y-13190674D01*
X15328134Y-13190674D02*
X15309087Y-13200198D01*
X15309087Y-13200198D02*
X15299563Y-13209722D01*
X15299563Y-13209722D02*
X15290039Y-13228769D01*
X15480515Y-13114484D02*
X15480515Y-13152579D01*
X15556706Y-13114484D02*
X15556706Y-13152579D01*
X15851944Y-13390674D02*
X15842420Y-13381150D01*
X15842420Y-13381150D02*
X15823373Y-13352579D01*
X15823373Y-13352579D02*
X15813849Y-13333531D01*
X15813849Y-13333531D02*
X15804325Y-13304960D01*
X15804325Y-13304960D02*
X15794801Y-13257341D01*
X15794801Y-13257341D02*
X15794801Y-13219246D01*
X15794801Y-13219246D02*
X15804325Y-13171627D01*
X15804325Y-13171627D02*
X15813849Y-13143055D01*
X15813849Y-13143055D02*
X15823373Y-13124008D01*
X15823373Y-13124008D02*
X15842420Y-13095436D01*
X15842420Y-13095436D02*
X15851944Y-13085912D01*
X16023373Y-13114484D02*
X15928135Y-13114484D01*
X15928135Y-13114484D02*
X15918611Y-13209722D01*
X15918611Y-13209722D02*
X15928135Y-13200198D01*
X15928135Y-13200198D02*
X15947182Y-13190674D01*
X15947182Y-13190674D02*
X15994801Y-13190674D01*
X15994801Y-13190674D02*
X16013849Y-13200198D01*
X16013849Y-13200198D02*
X16023373Y-13209722D01*
X16023373Y-13209722D02*
X16032896Y-13228769D01*
X16032896Y-13228769D02*
X16032896Y-13276388D01*
X16032896Y-13276388D02*
X16023373Y-13295436D01*
X16023373Y-13295436D02*
X16013849Y-13304960D01*
X16013849Y-13304960D02*
X15994801Y-13314484D01*
X15994801Y-13314484D02*
X15947182Y-13314484D01*
X15947182Y-13314484D02*
X15928135Y-13304960D01*
X15928135Y-13304960D02*
X15918611Y-13295436D01*
X16270992Y-13314484D02*
X16270992Y-13114484D01*
X16356706Y-13314484D02*
X16356706Y-13209722D01*
X16356706Y-13209722D02*
X16347182Y-13190674D01*
X16347182Y-13190674D02*
X16328135Y-13181150D01*
X16328135Y-13181150D02*
X16299563Y-13181150D01*
X16299563Y-13181150D02*
X16280516Y-13190674D01*
X16280516Y-13190674D02*
X16270992Y-13200198D01*
X16480516Y-13314484D02*
X16461468Y-13304960D01*
X16461468Y-13304960D02*
X16451944Y-13295436D01*
X16451944Y-13295436D02*
X16442420Y-13276388D01*
X16442420Y-13276388D02*
X16442420Y-13219246D01*
X16442420Y-13219246D02*
X16451944Y-13200198D01*
X16451944Y-13200198D02*
X16461468Y-13190674D01*
X16461468Y-13190674D02*
X16480516Y-13181150D01*
X16480516Y-13181150D02*
X16509087Y-13181150D01*
X16509087Y-13181150D02*
X16528135Y-13190674D01*
X16528135Y-13190674D02*
X16537658Y-13200198D01*
X16537658Y-13200198D02*
X16547182Y-13219246D01*
X16547182Y-13219246D02*
X16547182Y-13276388D01*
X16547182Y-13276388D02*
X16537658Y-13295436D01*
X16537658Y-13295436D02*
X16528135Y-13304960D01*
X16528135Y-13304960D02*
X16509087Y-13314484D01*
X16509087Y-13314484D02*
X16480516Y-13314484D01*
X16661468Y-13314484D02*
X16642420Y-13304960D01*
X16642420Y-13304960D02*
X16632897Y-13285912D01*
X16632897Y-13285912D02*
X16632897Y-13114484D01*
X16813849Y-13304960D02*
X16794801Y-13314484D01*
X16794801Y-13314484D02*
X16756706Y-13314484D01*
X16756706Y-13314484D02*
X16737658Y-13304960D01*
X16737658Y-13304960D02*
X16728135Y-13285912D01*
X16728135Y-13285912D02*
X16728135Y-13209722D01*
X16728135Y-13209722D02*
X16737658Y-13190674D01*
X16737658Y-13190674D02*
X16756706Y-13181150D01*
X16756706Y-13181150D02*
X16794801Y-13181150D01*
X16794801Y-13181150D02*
X16813849Y-13190674D01*
X16813849Y-13190674D02*
X16823373Y-13209722D01*
X16823373Y-13209722D02*
X16823373Y-13228769D01*
X16823373Y-13228769D02*
X16728135Y-13247817D01*
X16899563Y-13304960D02*
X16918611Y-13314484D01*
X16918611Y-13314484D02*
X16956706Y-13314484D01*
X16956706Y-13314484D02*
X16975754Y-13304960D01*
X16975754Y-13304960D02*
X16985278Y-13285912D01*
X16985278Y-13285912D02*
X16985278Y-13276388D01*
X16985278Y-13276388D02*
X16975754Y-13257341D01*
X16975754Y-13257341D02*
X16956706Y-13247817D01*
X16956706Y-13247817D02*
X16928135Y-13247817D01*
X16928135Y-13247817D02*
X16909087Y-13238293D01*
X16909087Y-13238293D02*
X16899563Y-13219246D01*
X16899563Y-13219246D02*
X16899563Y-13209722D01*
X16899563Y-13209722D02*
X16909087Y-13190674D01*
X16909087Y-13190674D02*
X16928135Y-13181150D01*
X16928135Y-13181150D02*
X16956706Y-13181150D01*
X16956706Y-13181150D02*
X16975754Y-13190674D01*
X17051944Y-13390674D02*
X17061468Y-13381150D01*
X17061468Y-13381150D02*
X17080516Y-13352579D01*
X17080516Y-13352579D02*
X17090040Y-13333531D01*
X17090040Y-13333531D02*
X17099563Y-13304960D01*
X17099563Y-13304960D02*
X17109087Y-13257341D01*
X17109087Y-13257341D02*
X17109087Y-13219246D01*
X17109087Y-13219246D02*
X17099563Y-13171627D01*
X17099563Y-13171627D02*
X17090040Y-13143055D01*
X17090040Y-13143055D02*
X17080516Y-13124008D01*
X17080516Y-13124008D02*
X17061468Y-13095436D01*
X17061468Y-13095436D02*
X17051944Y-13085912D01*
D10*
X12268095Y-13508213D02*
X12268095Y-13465787D01*
X12225668Y-13465787D01*
X12225668Y-13508213D01*
X12268095Y-13508213D01*
D11*
X12575753Y-13378484D02*
X12594801Y-13378484D01*
X12594801Y-13378484D02*
X12613849Y-13388008D01*
X12613849Y-13388008D02*
X12623372Y-13397531D01*
X12623372Y-13397531D02*
X12632896Y-13416579D01*
X12632896Y-13416579D02*
X12642420Y-13454674D01*
X12642420Y-13454674D02*
X12642420Y-13502293D01*
X12642420Y-13502293D02*
X12632896Y-13540388D01*
X12632896Y-13540388D02*
X12623372Y-13559436D01*
X12623372Y-13559436D02*
X12613849Y-13568960D01*
X12613849Y-13568960D02*
X12594801Y-13578484D01*
X12594801Y-13578484D02*
X12575753Y-13578484D01*
X12575753Y-13578484D02*
X12556706Y-13568960D01*
X12556706Y-13568960D02*
X12547182Y-13559436D01*
X12547182Y-13559436D02*
X12537658Y-13540388D01*
X12537658Y-13540388D02*
X12528134Y-13502293D01*
X12528134Y-13502293D02*
X12528134Y-13454674D01*
X12528134Y-13454674D02*
X12537658Y-13416579D01*
X12537658Y-13416579D02*
X12547182Y-13397531D01*
X12547182Y-13397531D02*
X12556706Y-13388008D01*
X12556706Y-13388008D02*
X12575753Y-13378484D01*
X12728134Y-13559436D02*
X12737658Y-13568960D01*
X12737658Y-13568960D02*
X12728134Y-13578484D01*
X12728134Y-13578484D02*
X12718610Y-13568960D01*
X12718610Y-13568960D02*
X12728134Y-13559436D01*
X12728134Y-13559436D02*
X12728134Y-13578484D01*
X12909087Y-13378484D02*
X12870991Y-13378484D01*
X12870991Y-13378484D02*
X12851944Y-13388008D01*
X12851944Y-13388008D02*
X12842420Y-13397531D01*
X12842420Y-13397531D02*
X12823372Y-13426103D01*
X12823372Y-13426103D02*
X12813849Y-13464198D01*
X12813849Y-13464198D02*
X12813849Y-13540388D01*
X12813849Y-13540388D02*
X12823372Y-13559436D01*
X12823372Y-13559436D02*
X12832896Y-13568960D01*
X12832896Y-13568960D02*
X12851944Y-13578484D01*
X12851944Y-13578484D02*
X12890039Y-13578484D01*
X12890039Y-13578484D02*
X12909087Y-13568960D01*
X12909087Y-13568960D02*
X12918610Y-13559436D01*
X12918610Y-13559436D02*
X12928134Y-13540388D01*
X12928134Y-13540388D02*
X12928134Y-13492769D01*
X12928134Y-13492769D02*
X12918610Y-13473722D01*
X12918610Y-13473722D02*
X12909087Y-13464198D01*
X12909087Y-13464198D02*
X12890039Y-13454674D01*
X12890039Y-13454674D02*
X12851944Y-13454674D01*
X12851944Y-13454674D02*
X12832896Y-13464198D01*
X12832896Y-13464198D02*
X12823372Y-13473722D01*
X12823372Y-13473722D02*
X12813849Y-13492769D01*
X13051944Y-13378484D02*
X13070991Y-13378484D01*
X13070991Y-13378484D02*
X13090039Y-13388008D01*
X13090039Y-13388008D02*
X13099563Y-13397531D01*
X13099563Y-13397531D02*
X13109087Y-13416579D01*
X13109087Y-13416579D02*
X13118610Y-13454674D01*
X13118610Y-13454674D02*
X13118610Y-13502293D01*
X13118610Y-13502293D02*
X13109087Y-13540388D01*
X13109087Y-13540388D02*
X13099563Y-13559436D01*
X13099563Y-13559436D02*
X13090039Y-13568960D01*
X13090039Y-13568960D02*
X13070991Y-13578484D01*
X13070991Y-13578484D02*
X13051944Y-13578484D01*
X13051944Y-13578484D02*
X13032896Y-13568960D01*
X13032896Y-13568960D02*
X13023372Y-13559436D01*
X13023372Y-13559436D02*
X13013849Y-13540388D01*
X13013849Y-13540388D02*
X13004325Y-13502293D01*
X13004325Y-13502293D02*
X13004325Y-13454674D01*
X13004325Y-13454674D02*
X13013849Y-13416579D01*
X13013849Y-13416579D02*
X13023372Y-13397531D01*
X13023372Y-13397531D02*
X13032896Y-13388008D01*
X13032896Y-13388008D02*
X13051944Y-13378484D01*
X13242420Y-13378484D02*
X13261468Y-13378484D01*
X13261468Y-13378484D02*
X13280515Y-13388008D01*
X13280515Y-13388008D02*
X13290039Y-13397531D01*
X13290039Y-13397531D02*
X13299563Y-13416579D01*
X13299563Y-13416579D02*
X13309087Y-13454674D01*
X13309087Y-13454674D02*
X13309087Y-13502293D01*
X13309087Y-13502293D02*
X13299563Y-13540388D01*
X13299563Y-13540388D02*
X13290039Y-13559436D01*
X13290039Y-13559436D02*
X13280515Y-13568960D01*
X13280515Y-13568960D02*
X13261468Y-13578484D01*
X13261468Y-13578484D02*
X13242420Y-13578484D01*
X13242420Y-13578484D02*
X13223372Y-13568960D01*
X13223372Y-13568960D02*
X13213849Y-13559436D01*
X13213849Y-13559436D02*
X13204325Y-13540388D01*
X13204325Y-13540388D02*
X13194801Y-13502293D01*
X13194801Y-13502293D02*
X13194801Y-13454674D01*
X13194801Y-13454674D02*
X13204325Y-13416579D01*
X13204325Y-13416579D02*
X13213849Y-13397531D01*
X13213849Y-13397531D02*
X13223372Y-13388008D01*
X13223372Y-13388008D02*
X13242420Y-13378484D01*
X13394801Y-13578484D02*
X13394801Y-13445150D01*
X13394801Y-13464198D02*
X13404325Y-13454674D01*
X13404325Y-13454674D02*
X13423372Y-13445150D01*
X13423372Y-13445150D02*
X13451944Y-13445150D01*
X13451944Y-13445150D02*
X13470991Y-13454674D01*
X13470991Y-13454674D02*
X13480515Y-13473722D01*
X13480515Y-13473722D02*
X13480515Y-13578484D01*
X13480515Y-13473722D02*
X13490039Y-13454674D01*
X13490039Y-13454674D02*
X13509087Y-13445150D01*
X13509087Y-13445150D02*
X13537658Y-13445150D01*
X13537658Y-13445150D02*
X13556706Y-13454674D01*
X13556706Y-13454674D02*
X13566230Y-13473722D01*
X13566230Y-13473722D02*
X13566230Y-13578484D01*
X13661468Y-13578484D02*
X13661468Y-13445150D01*
X13661468Y-13464198D02*
X13670991Y-13454674D01*
X13670991Y-13454674D02*
X13690039Y-13445150D01*
X13690039Y-13445150D02*
X13718611Y-13445150D01*
X13718611Y-13445150D02*
X13737658Y-13454674D01*
X13737658Y-13454674D02*
X13747182Y-13473722D01*
X13747182Y-13473722D02*
X13747182Y-13578484D01*
X13747182Y-13473722D02*
X13756706Y-13454674D01*
X13756706Y-13454674D02*
X13775753Y-13445150D01*
X13775753Y-13445150D02*
X13804325Y-13445150D01*
X13804325Y-13445150D02*
X13823372Y-13454674D01*
X13823372Y-13454674D02*
X13832896Y-13473722D01*
X13832896Y-13473722D02*
X13832896Y-13578484D01*
X14223372Y-13368960D02*
X14051944Y-13626103D01*
X14480515Y-13378484D02*
X14499563Y-13378484D01*
X14499563Y-13378484D02*
X14518611Y-13388008D01*
X14518611Y-13388008D02*
X14528134Y-13397531D01*
X14528134Y-13397531D02*
X14537658Y-13416579D01*
X14537658Y-13416579D02*
X14547182Y-13454674D01*
X14547182Y-13454674D02*
X14547182Y-13502293D01*
X14547182Y-13502293D02*
X14537658Y-13540388D01*
X14537658Y-13540388D02*
X14528134Y-13559436D01*
X14528134Y-13559436D02*
X14518611Y-13568960D01*
X14518611Y-13568960D02*
X14499563Y-13578484D01*
X14499563Y-13578484D02*
X14480515Y-13578484D01*
X14480515Y-13578484D02*
X14461468Y-13568960D01*
X14461468Y-13568960D02*
X14451944Y-13559436D01*
X14451944Y-13559436D02*
X14442420Y-13540388D01*
X14442420Y-13540388D02*
X14432896Y-13502293D01*
X14432896Y-13502293D02*
X14432896Y-13454674D01*
X14432896Y-13454674D02*
X14442420Y-13416579D01*
X14442420Y-13416579D02*
X14451944Y-13397531D01*
X14451944Y-13397531D02*
X14461468Y-13388008D01*
X14461468Y-13388008D02*
X14480515Y-13378484D01*
X14632896Y-13559436D02*
X14642420Y-13568960D01*
X14642420Y-13568960D02*
X14632896Y-13578484D01*
X14632896Y-13578484D02*
X14623373Y-13568960D01*
X14623373Y-13568960D02*
X14632896Y-13559436D01*
X14632896Y-13559436D02*
X14632896Y-13578484D01*
X14766230Y-13378484D02*
X14785277Y-13378484D01*
X14785277Y-13378484D02*
X14804325Y-13388008D01*
X14804325Y-13388008D02*
X14813849Y-13397531D01*
X14813849Y-13397531D02*
X14823373Y-13416579D01*
X14823373Y-13416579D02*
X14832896Y-13454674D01*
X14832896Y-13454674D02*
X14832896Y-13502293D01*
X14832896Y-13502293D02*
X14823373Y-13540388D01*
X14823373Y-13540388D02*
X14813849Y-13559436D01*
X14813849Y-13559436D02*
X14804325Y-13568960D01*
X14804325Y-13568960D02*
X14785277Y-13578484D01*
X14785277Y-13578484D02*
X14766230Y-13578484D01*
X14766230Y-13578484D02*
X14747182Y-13568960D01*
X14747182Y-13568960D02*
X14737658Y-13559436D01*
X14737658Y-13559436D02*
X14728134Y-13540388D01*
X14728134Y-13540388D02*
X14718611Y-13502293D01*
X14718611Y-13502293D02*
X14718611Y-13454674D01*
X14718611Y-13454674D02*
X14728134Y-13416579D01*
X14728134Y-13416579D02*
X14737658Y-13397531D01*
X14737658Y-13397531D02*
X14747182Y-13388008D01*
X14747182Y-13388008D02*
X14766230Y-13378484D01*
X14909087Y-13397531D02*
X14918611Y-13388008D01*
X14918611Y-13388008D02*
X14937658Y-13378484D01*
X14937658Y-13378484D02*
X14985277Y-13378484D01*
X14985277Y-13378484D02*
X15004325Y-13388008D01*
X15004325Y-13388008D02*
X15013849Y-13397531D01*
X15013849Y-13397531D02*
X15023373Y-13416579D01*
X15023373Y-13416579D02*
X15023373Y-13435627D01*
X15023373Y-13435627D02*
X15013849Y-13464198D01*
X15013849Y-13464198D02*
X14899563Y-13578484D01*
X14899563Y-13578484D02*
X15023373Y-13578484D01*
X15090039Y-13378484D02*
X15213849Y-13378484D01*
X15213849Y-13378484D02*
X15147182Y-13454674D01*
X15147182Y-13454674D02*
X15175754Y-13454674D01*
X15175754Y-13454674D02*
X15194801Y-13464198D01*
X15194801Y-13464198D02*
X15204325Y-13473722D01*
X15204325Y-13473722D02*
X15213849Y-13492769D01*
X15213849Y-13492769D02*
X15213849Y-13540388D01*
X15213849Y-13540388D02*
X15204325Y-13559436D01*
X15204325Y-13559436D02*
X15194801Y-13568960D01*
X15194801Y-13568960D02*
X15175754Y-13578484D01*
X15175754Y-13578484D02*
X15118611Y-13578484D01*
X15118611Y-13578484D02*
X15099563Y-13568960D01*
X15099563Y-13568960D02*
X15090039Y-13559436D01*
X15385277Y-13378484D02*
X15347182Y-13378484D01*
X15347182Y-13378484D02*
X15328134Y-13388008D01*
X15328134Y-13388008D02*
X15318611Y-13397531D01*
X15318611Y-13397531D02*
X15299563Y-13426103D01*
X15299563Y-13426103D02*
X15290039Y-13464198D01*
X15290039Y-13464198D02*
X15290039Y-13540388D01*
X15290039Y-13540388D02*
X15299563Y-13559436D01*
X15299563Y-13559436D02*
X15309087Y-13568960D01*
X15309087Y-13568960D02*
X15328134Y-13578484D01*
X15328134Y-13578484D02*
X15366230Y-13578484D01*
X15366230Y-13578484D02*
X15385277Y-13568960D01*
X15385277Y-13568960D02*
X15394801Y-13559436D01*
X15394801Y-13559436D02*
X15404325Y-13540388D01*
X15404325Y-13540388D02*
X15404325Y-13492769D01*
X15404325Y-13492769D02*
X15394801Y-13473722D01*
X15394801Y-13473722D02*
X15385277Y-13464198D01*
X15385277Y-13464198D02*
X15366230Y-13454674D01*
X15366230Y-13454674D02*
X15328134Y-13454674D01*
X15328134Y-13454674D02*
X15309087Y-13464198D01*
X15309087Y-13464198D02*
X15299563Y-13473722D01*
X15299563Y-13473722D02*
X15290039Y-13492769D01*
X15480515Y-13378484D02*
X15480515Y-13416579D01*
X15556706Y-13378484D02*
X15556706Y-13416579D01*
X15851944Y-13654674D02*
X15842420Y-13645150D01*
X15842420Y-13645150D02*
X15823373Y-13616579D01*
X15823373Y-13616579D02*
X15813849Y-13597531D01*
X15813849Y-13597531D02*
X15804325Y-13568960D01*
X15804325Y-13568960D02*
X15794801Y-13521341D01*
X15794801Y-13521341D02*
X15794801Y-13483246D01*
X15794801Y-13483246D02*
X15804325Y-13435627D01*
X15804325Y-13435627D02*
X15813849Y-13407055D01*
X15813849Y-13407055D02*
X15823373Y-13388008D01*
X15823373Y-13388008D02*
X15842420Y-13359436D01*
X15842420Y-13359436D02*
X15851944Y-13349912D01*
X15966230Y-13378484D02*
X15985277Y-13378484D01*
X15985277Y-13378484D02*
X16004325Y-13388008D01*
X16004325Y-13388008D02*
X16013849Y-13397531D01*
X16013849Y-13397531D02*
X16023373Y-13416579D01*
X16023373Y-13416579D02*
X16032896Y-13454674D01*
X16032896Y-13454674D02*
X16032896Y-13502293D01*
X16032896Y-13502293D02*
X16023373Y-13540388D01*
X16023373Y-13540388D02*
X16013849Y-13559436D01*
X16013849Y-13559436D02*
X16004325Y-13568960D01*
X16004325Y-13568960D02*
X15985277Y-13578484D01*
X15985277Y-13578484D02*
X15966230Y-13578484D01*
X15966230Y-13578484D02*
X15947182Y-13568960D01*
X15947182Y-13568960D02*
X15937658Y-13559436D01*
X15937658Y-13559436D02*
X15928135Y-13540388D01*
X15928135Y-13540388D02*
X15918611Y-13502293D01*
X15918611Y-13502293D02*
X15918611Y-13454674D01*
X15918611Y-13454674D02*
X15928135Y-13416579D01*
X15928135Y-13416579D02*
X15937658Y-13397531D01*
X15937658Y-13397531D02*
X15947182Y-13388008D01*
X15947182Y-13388008D02*
X15966230Y-13378484D01*
X16270992Y-13578484D02*
X16270992Y-13378484D01*
X16356706Y-13578484D02*
X16356706Y-13473722D01*
X16356706Y-13473722D02*
X16347182Y-13454674D01*
X16347182Y-13454674D02*
X16328135Y-13445150D01*
X16328135Y-13445150D02*
X16299563Y-13445150D01*
X16299563Y-13445150D02*
X16280516Y-13454674D01*
X16280516Y-13454674D02*
X16270992Y-13464198D01*
X16480516Y-13578484D02*
X16461468Y-13568960D01*
X16461468Y-13568960D02*
X16451944Y-13559436D01*
X16451944Y-13559436D02*
X16442420Y-13540388D01*
X16442420Y-13540388D02*
X16442420Y-13483246D01*
X16442420Y-13483246D02*
X16451944Y-13464198D01*
X16451944Y-13464198D02*
X16461468Y-13454674D01*
X16461468Y-13454674D02*
X16480516Y-13445150D01*
X16480516Y-13445150D02*
X16509087Y-13445150D01*
X16509087Y-13445150D02*
X16528135Y-13454674D01*
X16528135Y-13454674D02*
X16537658Y-13464198D01*
X16537658Y-13464198D02*
X16547182Y-13483246D01*
X16547182Y-13483246D02*
X16547182Y-13540388D01*
X16547182Y-13540388D02*
X16537658Y-13559436D01*
X16537658Y-13559436D02*
X16528135Y-13568960D01*
X16528135Y-13568960D02*
X16509087Y-13578484D01*
X16509087Y-13578484D02*
X16480516Y-13578484D01*
X16661468Y-13578484D02*
X16642420Y-13568960D01*
X16642420Y-13568960D02*
X16632897Y-13549912D01*
X16632897Y-13549912D02*
X16632897Y-13378484D01*
X16813849Y-13568960D02*
X16794801Y-13578484D01*
X16794801Y-13578484D02*
X16756706Y-13578484D01*
X16756706Y-13578484D02*
X16737658Y-13568960D01*
X16737658Y-13568960D02*
X16728135Y-13549912D01*
X16728135Y-13549912D02*
X16728135Y-13473722D01*
X16728135Y-13473722D02*
X16737658Y-13454674D01*
X16737658Y-13454674D02*
X16756706Y-13445150D01*
X16756706Y-13445150D02*
X16794801Y-13445150D01*
X16794801Y-13445150D02*
X16813849Y-13454674D01*
X16813849Y-13454674D02*
X16823373Y-13473722D01*
X16823373Y-13473722D02*
X16823373Y-13492769D01*
X16823373Y-13492769D02*
X16728135Y-13511817D01*
X16899563Y-13568960D02*
X16918611Y-13578484D01*
X16918611Y-13578484D02*
X16956706Y-13578484D01*
X16956706Y-13578484D02*
X16975754Y-13568960D01*
X16975754Y-13568960D02*
X16985278Y-13549912D01*
X16985278Y-13549912D02*
X16985278Y-13540388D01*
X16985278Y-13540388D02*
X16975754Y-13521341D01*
X16975754Y-13521341D02*
X16956706Y-13511817D01*
X16956706Y-13511817D02*
X16928135Y-13511817D01*
X16928135Y-13511817D02*
X16909087Y-13502293D01*
X16909087Y-13502293D02*
X16899563Y-13483246D01*
X16899563Y-13483246D02*
X16899563Y-13473722D01*
X16899563Y-13473722D02*
X16909087Y-13454674D01*
X16909087Y-13454674D02*
X16928135Y-13445150D01*
X16928135Y-13445150D02*
X16956706Y-13445150D01*
X16956706Y-13445150D02*
X16975754Y-13454674D01*
X17223373Y-13502293D02*
X17375754Y-13502293D01*
X17299563Y-13578484D02*
X17299563Y-13426103D01*
X17709087Y-13445150D02*
X17709087Y-13578484D01*
X17661468Y-13368960D02*
X17613849Y-13511817D01*
X17613849Y-13511817D02*
X17737659Y-13511817D01*
X17956706Y-13568960D02*
X17975754Y-13578484D01*
X17975754Y-13578484D02*
X18013849Y-13578484D01*
X18013849Y-13578484D02*
X18032897Y-13568960D01*
X18032897Y-13568960D02*
X18042421Y-13549912D01*
X18042421Y-13549912D02*
X18042421Y-13540388D01*
X18042421Y-13540388D02*
X18032897Y-13521341D01*
X18032897Y-13521341D02*
X18013849Y-13511817D01*
X18013849Y-13511817D02*
X17985278Y-13511817D01*
X17985278Y-13511817D02*
X17966230Y-13502293D01*
X17966230Y-13502293D02*
X17956706Y-13483246D01*
X17956706Y-13483246D02*
X17956706Y-13473722D01*
X17956706Y-13473722D02*
X17966230Y-13454674D01*
X17966230Y-13454674D02*
X17985278Y-13445150D01*
X17985278Y-13445150D02*
X18013849Y-13445150D01*
X18013849Y-13445150D02*
X18032897Y-13454674D01*
X18156706Y-13578484D02*
X18137659Y-13568960D01*
X18137659Y-13568960D02*
X18128135Y-13549912D01*
X18128135Y-13549912D02*
X18128135Y-13378484D01*
X18261468Y-13578484D02*
X18242421Y-13568960D01*
X18242421Y-13568960D02*
X18232897Y-13559436D01*
X18232897Y-13559436D02*
X18223373Y-13540388D01*
X18223373Y-13540388D02*
X18223373Y-13483246D01*
X18223373Y-13483246D02*
X18232897Y-13464198D01*
X18232897Y-13464198D02*
X18242421Y-13454674D01*
X18242421Y-13454674D02*
X18261468Y-13445150D01*
X18261468Y-13445150D02*
X18290040Y-13445150D01*
X18290040Y-13445150D02*
X18309087Y-13454674D01*
X18309087Y-13454674D02*
X18318611Y-13464198D01*
X18318611Y-13464198D02*
X18328135Y-13483246D01*
X18328135Y-13483246D02*
X18328135Y-13540388D01*
X18328135Y-13540388D02*
X18318611Y-13559436D01*
X18318611Y-13559436D02*
X18309087Y-13568960D01*
X18309087Y-13568960D02*
X18290040Y-13578484D01*
X18290040Y-13578484D02*
X18261468Y-13578484D01*
X18385278Y-13445150D02*
X18461468Y-13445150D01*
X18413849Y-13378484D02*
X18413849Y-13549912D01*
X18413849Y-13549912D02*
X18423373Y-13568960D01*
X18423373Y-13568960D02*
X18442421Y-13578484D01*
X18442421Y-13578484D02*
X18461468Y-13578484D01*
X18518611Y-13568960D02*
X18537659Y-13578484D01*
X18537659Y-13578484D02*
X18575754Y-13578484D01*
X18575754Y-13578484D02*
X18594802Y-13568960D01*
X18594802Y-13568960D02*
X18604325Y-13549912D01*
X18604325Y-13549912D02*
X18604325Y-13540388D01*
X18604325Y-13540388D02*
X18594802Y-13521341D01*
X18594802Y-13521341D02*
X18575754Y-13511817D01*
X18575754Y-13511817D02*
X18547183Y-13511817D01*
X18547183Y-13511817D02*
X18528135Y-13502293D01*
X18528135Y-13502293D02*
X18518611Y-13483246D01*
X18518611Y-13483246D02*
X18518611Y-13473722D01*
X18518611Y-13473722D02*
X18528135Y-13454674D01*
X18528135Y-13454674D02*
X18547183Y-13445150D01*
X18547183Y-13445150D02*
X18575754Y-13445150D01*
X18575754Y-13445150D02*
X18594802Y-13454674D01*
X18670992Y-13654674D02*
X18680516Y-13645150D01*
X18680516Y-13645150D02*
X18699564Y-13616579D01*
X18699564Y-13616579D02*
X18709087Y-13597531D01*
X18709087Y-13597531D02*
X18718611Y-13568960D01*
X18718611Y-13568960D02*
X18728135Y-13521341D01*
X18728135Y-13521341D02*
X18728135Y-13483246D01*
X18728135Y-13483246D02*
X18718611Y-13435627D01*
X18718611Y-13435627D02*
X18709087Y-13407055D01*
X18709087Y-13407055D02*
X18699564Y-13388008D01*
X18699564Y-13388008D02*
X18680516Y-13359436D01*
X18680516Y-13359436D02*
X18670992Y-13349912D01*
D10*
X12226881Y-13801000D02*
X12276881Y-13751000D01*
X12226881Y-13701000D01*
X12176881Y-13751000D01*
X12226881Y-13801000D01*
D11*
X12642420Y-13842484D02*
X12528134Y-13842484D01*
X12585277Y-13842484D02*
X12585277Y-13642484D01*
X12585277Y-13642484D02*
X12566229Y-13671055D01*
X12566229Y-13671055D02*
X12547182Y-13690103D01*
X12547182Y-13690103D02*
X12528134Y-13699627D01*
X12728134Y-13823436D02*
X12737658Y-13832960D01*
X12737658Y-13832960D02*
X12728134Y-13842484D01*
X12728134Y-13842484D02*
X12718610Y-13832960D01*
X12718610Y-13832960D02*
X12728134Y-13823436D01*
X12728134Y-13823436D02*
X12728134Y-13842484D01*
X12861468Y-13642484D02*
X12880515Y-13642484D01*
X12880515Y-13642484D02*
X12899563Y-13652008D01*
X12899563Y-13652008D02*
X12909087Y-13661531D01*
X12909087Y-13661531D02*
X12918610Y-13680579D01*
X12918610Y-13680579D02*
X12928134Y-13718674D01*
X12928134Y-13718674D02*
X12928134Y-13766293D01*
X12928134Y-13766293D02*
X12918610Y-13804388D01*
X12918610Y-13804388D02*
X12909087Y-13823436D01*
X12909087Y-13823436D02*
X12899563Y-13832960D01*
X12899563Y-13832960D02*
X12880515Y-13842484D01*
X12880515Y-13842484D02*
X12861468Y-13842484D01*
X12861468Y-13842484D02*
X12842420Y-13832960D01*
X12842420Y-13832960D02*
X12832896Y-13823436D01*
X12832896Y-13823436D02*
X12823372Y-13804388D01*
X12823372Y-13804388D02*
X12813849Y-13766293D01*
X12813849Y-13766293D02*
X12813849Y-13718674D01*
X12813849Y-13718674D02*
X12823372Y-13680579D01*
X12823372Y-13680579D02*
X12832896Y-13661531D01*
X12832896Y-13661531D02*
X12842420Y-13652008D01*
X12842420Y-13652008D02*
X12861468Y-13642484D01*
X13051944Y-13642484D02*
X13070991Y-13642484D01*
X13070991Y-13642484D02*
X13090039Y-13652008D01*
X13090039Y-13652008D02*
X13099563Y-13661531D01*
X13099563Y-13661531D02*
X13109087Y-13680579D01*
X13109087Y-13680579D02*
X13118610Y-13718674D01*
X13118610Y-13718674D02*
X13118610Y-13766293D01*
X13118610Y-13766293D02*
X13109087Y-13804388D01*
X13109087Y-13804388D02*
X13099563Y-13823436D01*
X13099563Y-13823436D02*
X13090039Y-13832960D01*
X13090039Y-13832960D02*
X13070991Y-13842484D01*
X13070991Y-13842484D02*
X13051944Y-13842484D01*
X13051944Y-13842484D02*
X13032896Y-13832960D01*
X13032896Y-13832960D02*
X13023372Y-13823436D01*
X13023372Y-13823436D02*
X13013849Y-13804388D01*
X13013849Y-13804388D02*
X13004325Y-13766293D01*
X13004325Y-13766293D02*
X13004325Y-13718674D01*
X13004325Y-13718674D02*
X13013849Y-13680579D01*
X13013849Y-13680579D02*
X13023372Y-13661531D01*
X13023372Y-13661531D02*
X13032896Y-13652008D01*
X13032896Y-13652008D02*
X13051944Y-13642484D01*
X13242420Y-13642484D02*
X13261468Y-13642484D01*
X13261468Y-13642484D02*
X13280515Y-13652008D01*
X13280515Y-13652008D02*
X13290039Y-13661531D01*
X13290039Y-13661531D02*
X13299563Y-13680579D01*
X13299563Y-13680579D02*
X13309087Y-13718674D01*
X13309087Y-13718674D02*
X13309087Y-13766293D01*
X13309087Y-13766293D02*
X13299563Y-13804388D01*
X13299563Y-13804388D02*
X13290039Y-13823436D01*
X13290039Y-13823436D02*
X13280515Y-13832960D01*
X13280515Y-13832960D02*
X13261468Y-13842484D01*
X13261468Y-13842484D02*
X13242420Y-13842484D01*
X13242420Y-13842484D02*
X13223372Y-13832960D01*
X13223372Y-13832960D02*
X13213849Y-13823436D01*
X13213849Y-13823436D02*
X13204325Y-13804388D01*
X13204325Y-13804388D02*
X13194801Y-13766293D01*
X13194801Y-13766293D02*
X13194801Y-13718674D01*
X13194801Y-13718674D02*
X13204325Y-13680579D01*
X13204325Y-13680579D02*
X13213849Y-13661531D01*
X13213849Y-13661531D02*
X13223372Y-13652008D01*
X13223372Y-13652008D02*
X13242420Y-13642484D01*
X13394801Y-13842484D02*
X13394801Y-13709150D01*
X13394801Y-13728198D02*
X13404325Y-13718674D01*
X13404325Y-13718674D02*
X13423372Y-13709150D01*
X13423372Y-13709150D02*
X13451944Y-13709150D01*
X13451944Y-13709150D02*
X13470991Y-13718674D01*
X13470991Y-13718674D02*
X13480515Y-13737722D01*
X13480515Y-13737722D02*
X13480515Y-13842484D01*
X13480515Y-13737722D02*
X13490039Y-13718674D01*
X13490039Y-13718674D02*
X13509087Y-13709150D01*
X13509087Y-13709150D02*
X13537658Y-13709150D01*
X13537658Y-13709150D02*
X13556706Y-13718674D01*
X13556706Y-13718674D02*
X13566230Y-13737722D01*
X13566230Y-13737722D02*
X13566230Y-13842484D01*
X13661468Y-13842484D02*
X13661468Y-13709150D01*
X13661468Y-13728198D02*
X13670991Y-13718674D01*
X13670991Y-13718674D02*
X13690039Y-13709150D01*
X13690039Y-13709150D02*
X13718611Y-13709150D01*
X13718611Y-13709150D02*
X13737658Y-13718674D01*
X13737658Y-13718674D02*
X13747182Y-13737722D01*
X13747182Y-13737722D02*
X13747182Y-13842484D01*
X13747182Y-13737722D02*
X13756706Y-13718674D01*
X13756706Y-13718674D02*
X13775753Y-13709150D01*
X13775753Y-13709150D02*
X13804325Y-13709150D01*
X13804325Y-13709150D02*
X13823372Y-13718674D01*
X13823372Y-13718674D02*
X13832896Y-13737722D01*
X13832896Y-13737722D02*
X13832896Y-13842484D01*
X14223372Y-13632960D02*
X14051944Y-13890103D01*
X14480515Y-13642484D02*
X14499563Y-13642484D01*
X14499563Y-13642484D02*
X14518611Y-13652008D01*
X14518611Y-13652008D02*
X14528134Y-13661531D01*
X14528134Y-13661531D02*
X14537658Y-13680579D01*
X14537658Y-13680579D02*
X14547182Y-13718674D01*
X14547182Y-13718674D02*
X14547182Y-13766293D01*
X14547182Y-13766293D02*
X14537658Y-13804388D01*
X14537658Y-13804388D02*
X14528134Y-13823436D01*
X14528134Y-13823436D02*
X14518611Y-13832960D01*
X14518611Y-13832960D02*
X14499563Y-13842484D01*
X14499563Y-13842484D02*
X14480515Y-13842484D01*
X14480515Y-13842484D02*
X14461468Y-13832960D01*
X14461468Y-13832960D02*
X14451944Y-13823436D01*
X14451944Y-13823436D02*
X14442420Y-13804388D01*
X14442420Y-13804388D02*
X14432896Y-13766293D01*
X14432896Y-13766293D02*
X14432896Y-13718674D01*
X14432896Y-13718674D02*
X14442420Y-13680579D01*
X14442420Y-13680579D02*
X14451944Y-13661531D01*
X14451944Y-13661531D02*
X14461468Y-13652008D01*
X14461468Y-13652008D02*
X14480515Y-13642484D01*
X14632896Y-13823436D02*
X14642420Y-13832960D01*
X14642420Y-13832960D02*
X14632896Y-13842484D01*
X14632896Y-13842484D02*
X14623373Y-13832960D01*
X14623373Y-13832960D02*
X14632896Y-13823436D01*
X14632896Y-13823436D02*
X14632896Y-13842484D01*
X14766230Y-13642484D02*
X14785277Y-13642484D01*
X14785277Y-13642484D02*
X14804325Y-13652008D01*
X14804325Y-13652008D02*
X14813849Y-13661531D01*
X14813849Y-13661531D02*
X14823373Y-13680579D01*
X14823373Y-13680579D02*
X14832896Y-13718674D01*
X14832896Y-13718674D02*
X14832896Y-13766293D01*
X14832896Y-13766293D02*
X14823373Y-13804388D01*
X14823373Y-13804388D02*
X14813849Y-13823436D01*
X14813849Y-13823436D02*
X14804325Y-13832960D01*
X14804325Y-13832960D02*
X14785277Y-13842484D01*
X14785277Y-13842484D02*
X14766230Y-13842484D01*
X14766230Y-13842484D02*
X14747182Y-13832960D01*
X14747182Y-13832960D02*
X14737658Y-13823436D01*
X14737658Y-13823436D02*
X14728134Y-13804388D01*
X14728134Y-13804388D02*
X14718611Y-13766293D01*
X14718611Y-13766293D02*
X14718611Y-13718674D01*
X14718611Y-13718674D02*
X14728134Y-13680579D01*
X14728134Y-13680579D02*
X14737658Y-13661531D01*
X14737658Y-13661531D02*
X14747182Y-13652008D01*
X14747182Y-13652008D02*
X14766230Y-13642484D01*
X14899563Y-13642484D02*
X15023373Y-13642484D01*
X15023373Y-13642484D02*
X14956706Y-13718674D01*
X14956706Y-13718674D02*
X14985277Y-13718674D01*
X14985277Y-13718674D02*
X15004325Y-13728198D01*
X15004325Y-13728198D02*
X15013849Y-13737722D01*
X15013849Y-13737722D02*
X15023373Y-13756769D01*
X15023373Y-13756769D02*
X15023373Y-13804388D01*
X15023373Y-13804388D02*
X15013849Y-13823436D01*
X15013849Y-13823436D02*
X15004325Y-13832960D01*
X15004325Y-13832960D02*
X14985277Y-13842484D01*
X14985277Y-13842484D02*
X14928134Y-13842484D01*
X14928134Y-13842484D02*
X14909087Y-13832960D01*
X14909087Y-13832960D02*
X14899563Y-13823436D01*
X15118611Y-13842484D02*
X15156706Y-13842484D01*
X15156706Y-13842484D02*
X15175754Y-13832960D01*
X15175754Y-13832960D02*
X15185277Y-13823436D01*
X15185277Y-13823436D02*
X15204325Y-13794865D01*
X15204325Y-13794865D02*
X15213849Y-13756769D01*
X15213849Y-13756769D02*
X15213849Y-13680579D01*
X15213849Y-13680579D02*
X15204325Y-13661531D01*
X15204325Y-13661531D02*
X15194801Y-13652008D01*
X15194801Y-13652008D02*
X15175754Y-13642484D01*
X15175754Y-13642484D02*
X15137658Y-13642484D01*
X15137658Y-13642484D02*
X15118611Y-13652008D01*
X15118611Y-13652008D02*
X15109087Y-13661531D01*
X15109087Y-13661531D02*
X15099563Y-13680579D01*
X15099563Y-13680579D02*
X15099563Y-13728198D01*
X15099563Y-13728198D02*
X15109087Y-13747246D01*
X15109087Y-13747246D02*
X15118611Y-13756769D01*
X15118611Y-13756769D02*
X15137658Y-13766293D01*
X15137658Y-13766293D02*
X15175754Y-13766293D01*
X15175754Y-13766293D02*
X15194801Y-13756769D01*
X15194801Y-13756769D02*
X15204325Y-13747246D01*
X15204325Y-13747246D02*
X15213849Y-13728198D01*
X15385277Y-13709150D02*
X15385277Y-13842484D01*
X15337658Y-13632960D02*
X15290039Y-13775817D01*
X15290039Y-13775817D02*
X15413849Y-13775817D01*
X15480515Y-13642484D02*
X15480515Y-13680579D01*
X15556706Y-13642484D02*
X15556706Y-13680579D01*
X15851944Y-13918674D02*
X15842420Y-13909150D01*
X15842420Y-13909150D02*
X15823373Y-13880579D01*
X15823373Y-13880579D02*
X15813849Y-13861531D01*
X15813849Y-13861531D02*
X15804325Y-13832960D01*
X15804325Y-13832960D02*
X15794801Y-13785341D01*
X15794801Y-13785341D02*
X15794801Y-13747246D01*
X15794801Y-13747246D02*
X15804325Y-13699627D01*
X15804325Y-13699627D02*
X15813849Y-13671055D01*
X15813849Y-13671055D02*
X15823373Y-13652008D01*
X15823373Y-13652008D02*
X15842420Y-13623436D01*
X15842420Y-13623436D02*
X15851944Y-13613912D01*
X15909087Y-13642484D02*
X16032896Y-13642484D01*
X16032896Y-13642484D02*
X15966230Y-13718674D01*
X15966230Y-13718674D02*
X15994801Y-13718674D01*
X15994801Y-13718674D02*
X16013849Y-13728198D01*
X16013849Y-13728198D02*
X16023373Y-13737722D01*
X16023373Y-13737722D02*
X16032896Y-13756769D01*
X16032896Y-13756769D02*
X16032896Y-13804388D01*
X16032896Y-13804388D02*
X16023373Y-13823436D01*
X16023373Y-13823436D02*
X16013849Y-13832960D01*
X16013849Y-13832960D02*
X15994801Y-13842484D01*
X15994801Y-13842484D02*
X15937658Y-13842484D01*
X15937658Y-13842484D02*
X15918611Y-13832960D01*
X15918611Y-13832960D02*
X15909087Y-13823436D01*
X16109087Y-13661531D02*
X16118611Y-13652008D01*
X16118611Y-13652008D02*
X16137658Y-13642484D01*
X16137658Y-13642484D02*
X16185277Y-13642484D01*
X16185277Y-13642484D02*
X16204325Y-13652008D01*
X16204325Y-13652008D02*
X16213849Y-13661531D01*
X16213849Y-13661531D02*
X16223373Y-13680579D01*
X16223373Y-13680579D02*
X16223373Y-13699627D01*
X16223373Y-13699627D02*
X16213849Y-13728198D01*
X16213849Y-13728198D02*
X16099563Y-13842484D01*
X16099563Y-13842484D02*
X16223373Y-13842484D01*
X16461468Y-13842484D02*
X16461468Y-13642484D01*
X16547182Y-13842484D02*
X16547182Y-13737722D01*
X16547182Y-13737722D02*
X16537658Y-13718674D01*
X16537658Y-13718674D02*
X16518611Y-13709150D01*
X16518611Y-13709150D02*
X16490039Y-13709150D01*
X16490039Y-13709150D02*
X16470992Y-13718674D01*
X16470992Y-13718674D02*
X16461468Y-13728198D01*
X16670992Y-13842484D02*
X16651944Y-13832960D01*
X16651944Y-13832960D02*
X16642420Y-13823436D01*
X16642420Y-13823436D02*
X16632897Y-13804388D01*
X16632897Y-13804388D02*
X16632897Y-13747246D01*
X16632897Y-13747246D02*
X16642420Y-13728198D01*
X16642420Y-13728198D02*
X16651944Y-13718674D01*
X16651944Y-13718674D02*
X16670992Y-13709150D01*
X16670992Y-13709150D02*
X16699563Y-13709150D01*
X16699563Y-13709150D02*
X16718611Y-13718674D01*
X16718611Y-13718674D02*
X16728135Y-13728198D01*
X16728135Y-13728198D02*
X16737658Y-13747246D01*
X16737658Y-13747246D02*
X16737658Y-13804388D01*
X16737658Y-13804388D02*
X16728135Y-13823436D01*
X16728135Y-13823436D02*
X16718611Y-13832960D01*
X16718611Y-13832960D02*
X16699563Y-13842484D01*
X16699563Y-13842484D02*
X16670992Y-13842484D01*
X16851944Y-13842484D02*
X16832897Y-13832960D01*
X16832897Y-13832960D02*
X16823373Y-13813912D01*
X16823373Y-13813912D02*
X16823373Y-13642484D01*
X17004325Y-13832960D02*
X16985278Y-13842484D01*
X16985278Y-13842484D02*
X16947182Y-13842484D01*
X16947182Y-13842484D02*
X16928135Y-13832960D01*
X16928135Y-13832960D02*
X16918611Y-13813912D01*
X16918611Y-13813912D02*
X16918611Y-13737722D01*
X16918611Y-13737722D02*
X16928135Y-13718674D01*
X16928135Y-13718674D02*
X16947182Y-13709150D01*
X16947182Y-13709150D02*
X16985278Y-13709150D01*
X16985278Y-13709150D02*
X17004325Y-13718674D01*
X17004325Y-13718674D02*
X17013849Y-13737722D01*
X17013849Y-13737722D02*
X17013849Y-13756769D01*
X17013849Y-13756769D02*
X16918611Y-13775817D01*
X17090040Y-13832960D02*
X17109087Y-13842484D01*
X17109087Y-13842484D02*
X17147182Y-13842484D01*
X17147182Y-13842484D02*
X17166230Y-13832960D01*
X17166230Y-13832960D02*
X17175754Y-13813912D01*
X17175754Y-13813912D02*
X17175754Y-13804388D01*
X17175754Y-13804388D02*
X17166230Y-13785341D01*
X17166230Y-13785341D02*
X17147182Y-13775817D01*
X17147182Y-13775817D02*
X17118611Y-13775817D01*
X17118611Y-13775817D02*
X17099563Y-13766293D01*
X17099563Y-13766293D02*
X17090040Y-13747246D01*
X17090040Y-13747246D02*
X17090040Y-13737722D01*
X17090040Y-13737722D02*
X17099563Y-13718674D01*
X17099563Y-13718674D02*
X17118611Y-13709150D01*
X17118611Y-13709150D02*
X17147182Y-13709150D01*
X17147182Y-13709150D02*
X17166230Y-13718674D01*
X17242421Y-13918674D02*
X17251944Y-13909150D01*
X17251944Y-13909150D02*
X17270992Y-13880579D01*
X17270992Y-13880579D02*
X17280516Y-13861531D01*
X17280516Y-13861531D02*
X17290040Y-13832960D01*
X17290040Y-13832960D02*
X17299563Y-13785341D01*
X17299563Y-13785341D02*
X17299563Y-13747246D01*
X17299563Y-13747246D02*
X17290040Y-13699627D01*
X17290040Y-13699627D02*
X17280516Y-13671055D01*
X17280516Y-13671055D02*
X17270992Y-13652008D01*
X17270992Y-13652008D02*
X17251944Y-13623436D01*
X17251944Y-13623436D02*
X17242421Y-13613912D01*
M02*
