%TF.GenerationSoftware,KiCad,Pcbnew,8.0.3*%
%TF.CreationDate,2024-07-10T12:49:55+02:00*%
%TF.ProjectId,Shard,53686172-642e-46b6-9963-61645f706362,rev?*%
%TF.SameCoordinates,Original*%
%TF.FileFunction,Legend,Top*%
%TF.FilePolarity,Positive*%
%FSLAX46Y46*%
G04 Gerber Fmt 4.6, Leading zero omitted, Abs format (unit mm)*
G04 Created by KiCad (PCBNEW 8.0.3) date 2024-07-10 12:49:55*
%MOMM*%
%LPD*%
G01*
G04 APERTURE LIST*
%ADD10C,0.150000*%
%ADD11C,0.120000*%
%ADD12C,0.000000*%
G04 APERTURE END LIST*
D10*
G36*
X141592000Y-115521367D02*
G01*
X141488831Y-115521367D01*
X141488831Y-115356454D01*
X141485530Y-115314315D01*
X141474273Y-115275278D01*
X141455028Y-115243907D01*
X141423113Y-115217846D01*
X141385753Y-115205582D01*
X141360457Y-115203656D01*
X141320818Y-115208597D01*
X141285212Y-115225257D01*
X141263737Y-115245470D01*
X141242781Y-115281749D01*
X141232068Y-115323647D01*
X141229348Y-115364074D01*
X141229348Y-115519218D01*
X141179913Y-115532309D01*
X141179913Y-115336719D01*
X141181720Y-115294072D01*
X141187140Y-115255231D01*
X141198029Y-115214726D01*
X141216497Y-115174777D01*
X141231302Y-115153244D01*
X141259646Y-115124863D01*
X141293290Y-115104591D01*
X141332235Y-115092428D01*
X141376480Y-115088373D01*
X141419229Y-115091318D01*
X141457546Y-115100154D01*
X141495911Y-115117465D01*
X141528486Y-115142469D01*
X141535726Y-115149922D01*
X141560346Y-115183921D01*
X141577931Y-115224368D01*
X141587548Y-115265048D01*
X141591780Y-115310665D01*
X141592000Y-115324605D01*
X141592000Y-115521367D01*
G37*
G36*
X141592000Y-115623558D02*
G01*
X140816675Y-115623558D01*
X140816675Y-115513551D01*
X141592000Y-115513551D01*
X141592000Y-115623558D01*
G37*
G36*
X141206096Y-115558687D02*
G01*
X141153339Y-115558687D01*
X141153339Y-115330076D01*
X141206096Y-115330076D01*
X141206096Y-115558687D01*
G37*
G36*
X141175614Y-115521367D02*
G01*
X141126180Y-115521367D01*
X141126180Y-115389476D01*
X141122993Y-115350036D01*
X141111012Y-115311880D01*
X141099215Y-115292951D01*
X141068644Y-115268267D01*
X141027854Y-115258696D01*
X141021644Y-115258562D01*
X140982972Y-115265481D01*
X140949584Y-115290332D01*
X140946221Y-115294710D01*
X140928189Y-115332002D01*
X140920771Y-115373255D01*
X140919843Y-115397096D01*
X140919843Y-115519218D01*
X140816675Y-115532309D01*
X140816675Y-115391625D01*
X140818447Y-115349038D01*
X140823764Y-115310228D01*
X140834447Y-115269726D01*
X140852564Y-115229734D01*
X140867087Y-115208150D01*
X140894967Y-115179769D01*
X140932726Y-115157533D01*
X140971973Y-115146383D01*
X141010702Y-115143279D01*
X141052355Y-115148148D01*
X141091930Y-115164977D01*
X141124445Y-115193829D01*
X141132823Y-115204828D01*
X141153508Y-115243530D01*
X141166212Y-115284783D01*
X141172940Y-115326168D01*
X141175447Y-115365570D01*
X141175614Y-115379511D01*
X141175614Y-115521367D01*
G37*
G36*
X141257604Y-114439225D02*
G01*
X141302315Y-114442598D01*
X141343943Y-114448220D01*
X141382488Y-114456089D01*
X141434523Y-114472110D01*
X141479620Y-114493191D01*
X141517779Y-114519330D01*
X141549001Y-114550529D01*
X141573284Y-114586787D01*
X141590629Y-114628104D01*
X141601036Y-114674481D01*
X141604505Y-114725917D01*
X141601036Y-114777388D01*
X141590629Y-114823796D01*
X141573284Y-114865141D01*
X141549001Y-114901424D01*
X141517779Y-114932644D01*
X141479620Y-114958801D01*
X141434523Y-114979895D01*
X141382488Y-114995927D01*
X141343943Y-115003803D01*
X141302315Y-115009428D01*
X141257604Y-115012803D01*
X141209808Y-115013928D01*
X141160688Y-115012803D01*
X141114737Y-115009428D01*
X141071955Y-115003803D01*
X141032341Y-114995927D01*
X140978864Y-114979895D01*
X140932516Y-114958801D01*
X140893299Y-114932644D01*
X140861213Y-114901424D01*
X140836256Y-114865141D01*
X140818431Y-114823796D01*
X140807735Y-114777388D01*
X140804170Y-114725917D01*
X140904212Y-114725917D01*
X140908987Y-114766400D01*
X140928385Y-114809413D01*
X140962705Y-114843993D01*
X141000904Y-114865584D01*
X141048654Y-114881777D01*
X141090733Y-114890380D01*
X141138184Y-114895946D01*
X141191007Y-114898477D01*
X141209808Y-114898645D01*
X141262466Y-114897127D01*
X141309945Y-114892573D01*
X141352244Y-114884982D01*
X141400586Y-114870138D01*
X141439719Y-114849897D01*
X141469645Y-114824257D01*
X141494104Y-114784617D01*
X141504175Y-114736544D01*
X141504463Y-114725917D01*
X141499859Y-114685479D01*
X141481155Y-114642515D01*
X141448064Y-114607974D01*
X141411232Y-114586408D01*
X141365193Y-114570233D01*
X141324620Y-114561640D01*
X141278868Y-114556079D01*
X141227936Y-114553552D01*
X141209808Y-114553384D01*
X141155195Y-114554900D01*
X141105953Y-114559449D01*
X141062083Y-114567031D01*
X141023585Y-114577646D01*
X140980611Y-114596517D01*
X140947186Y-114620779D01*
X140918835Y-114658689D01*
X140905405Y-114705024D01*
X140904212Y-114725917D01*
X140804170Y-114725917D01*
X140807735Y-114674481D01*
X140818431Y-114628104D01*
X140836256Y-114586787D01*
X140861213Y-114550529D01*
X140893299Y-114519330D01*
X140932516Y-114493191D01*
X140978864Y-114472110D01*
X141032341Y-114456089D01*
X141071955Y-114448220D01*
X141114737Y-114442598D01*
X141160688Y-114439225D01*
X141209808Y-114438101D01*
X141257604Y-114439225D01*
G37*
G36*
X141257604Y-113783482D02*
G01*
X141302315Y-113786855D01*
X141343943Y-113792476D01*
X141382488Y-113800346D01*
X141434523Y-113816367D01*
X141479620Y-113837448D01*
X141517779Y-113863587D01*
X141549001Y-113894786D01*
X141573284Y-113931044D01*
X141590629Y-113972361D01*
X141601036Y-114018738D01*
X141604505Y-114070174D01*
X141601036Y-114121644D01*
X141590629Y-114168052D01*
X141573284Y-114209398D01*
X141549001Y-114245680D01*
X141517779Y-114276900D01*
X141479620Y-114303058D01*
X141434523Y-114324152D01*
X141382488Y-114340184D01*
X141343943Y-114348059D01*
X141302315Y-114353685D01*
X141257604Y-114357060D01*
X141209808Y-114358185D01*
X141160688Y-114357060D01*
X141114737Y-114353685D01*
X141071955Y-114348059D01*
X141032341Y-114340184D01*
X140978864Y-114324152D01*
X140932516Y-114303058D01*
X140893299Y-114276900D01*
X140861213Y-114245680D01*
X140836256Y-114209398D01*
X140818431Y-114168052D01*
X140807735Y-114121644D01*
X140804170Y-114070174D01*
X140904212Y-114070174D01*
X140908987Y-114110657D01*
X140928385Y-114153670D01*
X140962705Y-114188250D01*
X141000904Y-114209841D01*
X141048654Y-114226034D01*
X141090733Y-114234637D01*
X141138184Y-114240203D01*
X141191007Y-114242733D01*
X141209808Y-114242902D01*
X141262466Y-114241384D01*
X141309945Y-114236830D01*
X141352244Y-114229239D01*
X141400586Y-114214395D01*
X141439719Y-114194154D01*
X141469645Y-114168514D01*
X141494104Y-114128874D01*
X141504175Y-114080800D01*
X141504463Y-114070174D01*
X141499859Y-114029736D01*
X141481155Y-113986771D01*
X141448064Y-113952231D01*
X141411232Y-113930664D01*
X141365193Y-113914489D01*
X141324620Y-113905896D01*
X141278868Y-113900336D01*
X141227936Y-113897809D01*
X141209808Y-113897640D01*
X141155195Y-113899157D01*
X141105953Y-113903706D01*
X141062083Y-113911288D01*
X141023585Y-113921903D01*
X140980611Y-113940774D01*
X140947186Y-113965036D01*
X140918835Y-114002946D01*
X140905405Y-114049281D01*
X140904212Y-114070174D01*
X140804170Y-114070174D01*
X140807735Y-114018738D01*
X140818431Y-113972361D01*
X140836256Y-113931044D01*
X140861213Y-113894786D01*
X140893299Y-113863587D01*
X140932516Y-113837448D01*
X140978864Y-113816367D01*
X141032341Y-113800346D01*
X141071955Y-113792476D01*
X141114737Y-113786855D01*
X141160688Y-113783482D01*
X141209808Y-113782358D01*
X141257604Y-113783482D01*
G37*
G36*
X141592000Y-113469532D02*
G01*
X140816675Y-113469532D01*
X140816675Y-113359525D01*
X141592000Y-113359525D01*
X141592000Y-113469532D01*
G37*
G36*
X140919843Y-113700292D02*
G01*
X140816675Y-113700292D01*
X140816675Y-113128764D01*
X140919843Y-113128764D01*
X140919843Y-113700292D01*
G37*
G36*
X153311874Y-115850180D02*
G01*
X153208706Y-115850180D01*
X153208706Y-115684290D01*
X153204711Y-115642706D01*
X153191243Y-115605135D01*
X153174903Y-115582294D01*
X153142796Y-115558637D01*
X153105203Y-115547504D01*
X153079745Y-115545756D01*
X153040751Y-115549324D01*
X153001916Y-115563026D01*
X152976187Y-115582294D01*
X152952656Y-115616755D01*
X152941582Y-115657037D01*
X152939843Y-115684290D01*
X152939843Y-115848031D01*
X152836675Y-115861122D01*
X152836675Y-115684290D01*
X152838804Y-115640659D01*
X152845193Y-115600915D01*
X152858029Y-115559461D01*
X152876662Y-115523300D01*
X152897247Y-115496516D01*
X152930611Y-115467537D01*
X152965013Y-115448972D01*
X153004278Y-115436746D01*
X153048404Y-115430860D01*
X153068803Y-115430278D01*
X153110354Y-115432606D01*
X153154210Y-115441210D01*
X153193092Y-115456152D01*
X153227001Y-115477434D01*
X153248175Y-115496516D01*
X153272995Y-115528142D01*
X153291719Y-115565059D01*
X153304347Y-115607269D01*
X153310319Y-115647660D01*
X153311874Y-115684290D01*
X153311874Y-115850180D01*
G37*
G36*
X153612000Y-115952371D02*
G01*
X152836675Y-115952371D01*
X152836675Y-115842560D01*
X153612000Y-115842560D01*
X153612000Y-115952371D01*
G37*
G36*
X153612000Y-115533641D02*
G01*
X153242314Y-115708324D01*
X153242314Y-115587570D01*
X153612000Y-115401750D01*
X153612000Y-115533641D01*
G37*
G36*
X153612000Y-115285686D02*
G01*
X152836675Y-115285686D01*
X152836675Y-115175679D01*
X153612000Y-115175679D01*
X153612000Y-115285686D01*
G37*
G36*
X153612000Y-115285686D02*
G01*
X153508831Y-115285686D01*
X153508831Y-114769063D01*
X153612000Y-114769063D01*
X153612000Y-115285686D01*
G37*
G36*
X153274358Y-115285686D02*
G01*
X153171190Y-115285686D01*
X153171190Y-114867933D01*
X153274358Y-114867933D01*
X153274358Y-115285686D01*
G37*
G36*
X152939843Y-115285686D02*
G01*
X152836675Y-115285686D01*
X152836675Y-114769063D01*
X152939843Y-114769063D01*
X152939843Y-115285686D01*
G37*
G36*
X153624505Y-114415009D02*
G01*
X153623455Y-114455813D01*
X153620307Y-114494937D01*
X153614419Y-114536035D01*
X153613758Y-114539671D01*
X153605257Y-114578440D01*
X153593140Y-114618470D01*
X153582104Y-114646942D01*
X153471706Y-114632678D01*
X153486624Y-114595343D01*
X153500257Y-114555201D01*
X153510981Y-114516028D01*
X153518657Y-114477575D01*
X153523396Y-114436469D01*
X153524463Y-114406216D01*
X153522330Y-114366144D01*
X153513930Y-114325647D01*
X153497498Y-114292106D01*
X153465854Y-114265178D01*
X153425163Y-114254920D01*
X153415042Y-114254590D01*
X153375192Y-114261574D01*
X153339732Y-114285389D01*
X153317246Y-114317445D01*
X153313046Y-114326105D01*
X153251692Y-114461317D01*
X153232690Y-114498772D01*
X153209094Y-114535391D01*
X153183149Y-114566167D01*
X153164547Y-114583439D01*
X153130269Y-114605902D01*
X153091182Y-114620045D01*
X153051893Y-114625660D01*
X153037931Y-114626035D01*
X152995515Y-114623090D01*
X152952442Y-114612511D01*
X152915134Y-114594238D01*
X152883590Y-114568272D01*
X152880053Y-114564486D01*
X152855604Y-114530524D01*
X152838140Y-114490187D01*
X152828590Y-114449663D01*
X152824388Y-114404258D01*
X152824170Y-114390389D01*
X152825994Y-114347643D01*
X152831465Y-114307772D01*
X152841822Y-114266842D01*
X152847226Y-114251464D01*
X152864461Y-114214045D01*
X152887343Y-114177504D01*
X152912767Y-114145368D01*
X152922258Y-114134814D01*
X153000220Y-114211799D01*
X152975402Y-114244240D01*
X152954226Y-114277946D01*
X152942383Y-114302071D01*
X152929961Y-114339540D01*
X152924496Y-114378431D01*
X152924212Y-114389803D01*
X152928058Y-114428702D01*
X152943686Y-114467202D01*
X152951567Y-114477535D01*
X152985468Y-114500689D01*
X153025870Y-114508287D01*
X153032460Y-114508407D01*
X153072514Y-114501243D01*
X153094205Y-114488086D01*
X153120653Y-114457205D01*
X153136605Y-114428296D01*
X153190339Y-114313990D01*
X153208615Y-114277960D01*
X153230716Y-114241705D01*
X153257127Y-114207195D01*
X153281979Y-114182099D01*
X153316592Y-114158297D01*
X153356931Y-114143310D01*
X153398129Y-114137360D01*
X153412893Y-114136963D01*
X153456692Y-114140263D01*
X153495423Y-114150165D01*
X153533482Y-114169564D01*
X153564922Y-114197585D01*
X153571748Y-114205937D01*
X153592305Y-114239517D01*
X153607812Y-114279903D01*
X153617086Y-114319937D01*
X153622650Y-114364973D01*
X153624453Y-114406322D01*
X153624505Y-114415009D01*
G37*
G36*
X153612000Y-113974199D02*
G01*
X152836675Y-113974199D01*
X152836675Y-113864193D01*
X153612000Y-113864193D01*
X153612000Y-113974199D01*
G37*
G36*
X153612000Y-113974199D02*
G01*
X153508831Y-113974199D01*
X153508831Y-113457577D01*
X153612000Y-113457577D01*
X153612000Y-113974199D01*
G37*
G36*
X153274358Y-113974199D02*
G01*
X153171190Y-113974199D01*
X153171190Y-113556447D01*
X153274358Y-113556447D01*
X153274358Y-113974199D01*
G37*
G36*
X152939843Y-113974199D02*
G01*
X152836675Y-113974199D01*
X152836675Y-113457577D01*
X152939843Y-113457577D01*
X152939843Y-113974199D01*
G37*
G36*
X153612000Y-113131659D02*
G01*
X152836675Y-113131659D01*
X152836675Y-113021652D01*
X153612000Y-113021652D01*
X153612000Y-113131659D01*
G37*
G36*
X152939843Y-113362420D02*
G01*
X152836675Y-113362420D01*
X152836675Y-112790892D01*
X152939843Y-112790892D01*
X152939843Y-113362420D01*
G37*
D11*
%TO.C,D2*%
X159649016Y-89508988D02*
X161533547Y-84331282D01*
X159649016Y-89508988D02*
X162750002Y-90637654D01*
X162750002Y-90637654D02*
X164634533Y-85459948D01*
%TO.C,J5*%
X126347187Y-94977379D02*
X128846770Y-94067607D01*
X126347187Y-94977379D02*
X132448827Y-111741497D01*
X126707726Y-92079293D02*
X127957517Y-91624406D01*
X127957517Y-91624406D02*
X128412404Y-92874197D01*
X128846770Y-94067607D02*
X134948409Y-110831723D01*
X132448827Y-111741497D02*
X134948409Y-110831723D01*
%TO.C,J4*%
X125028456Y-83215560D02*
X127528039Y-82305788D01*
X125028456Y-83215560D02*
X131130096Y-99979678D01*
X125388995Y-80317474D02*
X126638786Y-79862587D01*
X126638786Y-79862587D02*
X127093673Y-81112378D01*
X127528039Y-82305788D02*
X133629678Y-99069904D01*
X131130096Y-99979678D02*
X133629678Y-99069904D01*
%TO.C,C8*%
X144346693Y-88994190D02*
X144194190Y-89146693D01*
X144855810Y-89503307D02*
X144703307Y-89655810D01*
%TO.C,R2*%
X148445000Y-111103641D02*
X148445000Y-110796359D01*
X149205000Y-111103641D02*
X149205000Y-110796359D01*
%TO.C,D1*%
X140850000Y-101715001D02*
X140850000Y-107225001D01*
X144150000Y-101715001D02*
X140850000Y-101715001D01*
X144150000Y-101715001D02*
X144150000Y-107225001D01*
%TO.C,R4*%
X156703641Y-110770000D02*
X156396359Y-110770000D01*
X156703641Y-111530000D02*
X156396359Y-111530000D01*
%TO.C,BOOT*%
X137330000Y-112330000D02*
X137630000Y-112330000D01*
X137330000Y-116470000D02*
X137330000Y-112330000D01*
X137630000Y-116470000D02*
X137330000Y-116470000D01*
X140170000Y-112330000D02*
X140470000Y-112330000D01*
X140470000Y-112330000D02*
X140470000Y-116470000D01*
X140470000Y-116470000D02*
X140170000Y-116470000D01*
%TO.C,U2*%
X146210000Y-109350000D02*
X146210000Y-110400000D01*
X148190000Y-109350000D02*
X148190000Y-110650000D01*
X146210000Y-111050000D02*
X145930000Y-110770000D01*
X146210000Y-110770000D01*
X146210000Y-111050000D01*
G36*
X146210000Y-111050000D02*
G01*
X145930000Y-110770000D01*
X146210000Y-110770000D01*
X146210000Y-111050000D01*
G37*
%TO.C,C2*%
X136240000Y-102517164D02*
X136240000Y-102732836D01*
X136960000Y-102517164D02*
X136960000Y-102732836D01*
%TO.C,J2*%
X159470322Y-110844904D02*
X159925209Y-109595113D01*
X160359574Y-108401705D02*
X166461214Y-91637587D01*
X160720113Y-111299791D02*
X159470322Y-110844904D01*
X162859157Y-109311477D02*
X160359574Y-108401705D01*
X162859157Y-109311477D02*
X168960796Y-92547361D01*
X168960796Y-92547361D02*
X166461214Y-91637587D01*
%TO.C,C5*%
X138890000Y-86813747D02*
X138890000Y-87336253D01*
X140360000Y-86813747D02*
X140360000Y-87336253D01*
%TO.C,U3*%
X137437500Y-101390000D02*
X139437500Y-101390000D01*
X137437500Y-103610000D02*
X139437500Y-103610000D01*
X137197500Y-101490000D02*
X136917500Y-101490000D01*
X137197500Y-101210000D01*
X137197500Y-101490000D01*
G36*
X137197500Y-101490000D02*
G01*
X136917500Y-101490000D01*
X137197500Y-101210000D01*
X137197500Y-101490000D01*
G37*
%TO.C,U5*%
X149600865Y-102356572D02*
X149784713Y-102172724D01*
X151527731Y-104283438D02*
X149600865Y-102356572D01*
X151527731Y-104283438D02*
X153454597Y-106210304D01*
X153454597Y-98502840D02*
X153270749Y-98686688D01*
X153454597Y-106210304D02*
X153638445Y-106026456D01*
X155381463Y-100429706D02*
X153454597Y-98502840D01*
X155381463Y-100429706D02*
X157308329Y-102356572D01*
X157308329Y-102356572D02*
X157124481Y-102540420D01*
X154128116Y-106982818D02*
X153788705Y-106643407D01*
X154191756Y-106579767D01*
X154128116Y-106982818D01*
G36*
X154128116Y-106982818D02*
G01*
X153788705Y-106643407D01*
X154191756Y-106579767D01*
X154128116Y-106982818D01*
G37*
%TO.C,D4*%
X148530000Y-105575000D02*
X148530000Y-106225000D01*
X148530000Y-105575000D02*
X151370000Y-105575000D01*
X148530000Y-107875000D02*
X151370000Y-107875000D01*
%TO.C,C20*%
X143983601Y-85532282D02*
X144136104Y-85379779D01*
X144492718Y-86041399D02*
X144645221Y-85888896D01*
%TO.C,Y1*%
X149932017Y-87271967D02*
X152265470Y-89605420D01*
X151911916Y-85292068D02*
X149932017Y-87271967D01*
%TO.C,C7*%
X142596693Y-87444190D02*
X142444190Y-87596693D01*
X143105810Y-87953307D02*
X142953307Y-88105810D01*
%TO.C,RESET*%
X153930000Y-112330000D02*
X154230000Y-112330000D01*
X153930000Y-116470000D02*
X153930000Y-112330000D01*
X154230000Y-116470000D02*
X153930000Y-116470000D01*
X156770000Y-112330000D02*
X157070000Y-112330000D01*
X157070000Y-112330000D02*
X157070000Y-116470000D01*
X157070000Y-116470000D02*
X156770000Y-116470000D01*
%TO.C,R5*%
X156203630Y-100579889D02*
X155180111Y-99556370D01*
X158119889Y-98663630D02*
X157096370Y-97640111D01*
%TO.C,U1*%
X141454237Y-93759548D02*
X141913856Y-93299929D01*
X141913856Y-94219167D02*
X141454237Y-93759548D01*
X146099929Y-89113856D02*
X146389842Y-88823943D01*
X146099929Y-98405240D02*
X146559548Y-98864859D01*
X146559548Y-98864859D02*
X147019167Y-98405240D01*
X147019167Y-89113856D02*
X146771680Y-88866369D01*
X151205240Y-93299929D02*
X151664859Y-93759548D01*
X151664859Y-93759548D02*
X151205240Y-94219167D01*
X146962599Y-88590597D02*
X146559548Y-88654237D01*
X146623188Y-88251186D01*
X146962599Y-88590597D01*
G36*
X146962599Y-88590597D02*
G01*
X146559548Y-88654237D01*
X146623188Y-88251186D01*
X146962599Y-88590597D01*
G37*
%TO.C,C6*%
X140715000Y-86492163D02*
X140715000Y-86707835D01*
X141435000Y-86492163D02*
X141435000Y-86707835D01*
%TO.C,R1*%
X145195000Y-110821359D02*
X145195000Y-111128641D01*
X145955000Y-110821359D02*
X145955000Y-111128641D01*
%TO.C,U4*%
X137437500Y-104165000D02*
X139437500Y-104165000D01*
X137437500Y-106385000D02*
X139437500Y-106385000D01*
X137197500Y-104265000D02*
X136917500Y-104265000D01*
X137197500Y-103985000D01*
X137197500Y-104265000D01*
G36*
X137197500Y-104265000D02*
G01*
X136917500Y-104265000D01*
X137197500Y-103985000D01*
X137197500Y-104265000D01*
G37*
D12*
%TO.C,G\u002A\u002A\u002A*%
G36*
X135064219Y-97239073D02*
G01*
X135099508Y-97323407D01*
X135072970Y-97427469D01*
X135061552Y-97445334D01*
X134975271Y-97511011D01*
X134872597Y-97513465D01*
X134794785Y-97463024D01*
X134766000Y-97377915D01*
X134788588Y-97281372D01*
X134851872Y-97211261D01*
X134867848Y-97203967D01*
X134982025Y-97193060D01*
X135064219Y-97239073D01*
G37*
G36*
X135360381Y-93440364D02*
G01*
X135434921Y-93645161D01*
X135150301Y-93761070D01*
X134865682Y-93876979D01*
X134993863Y-94229153D01*
X135122044Y-94581328D01*
X135419930Y-94472906D01*
X135717817Y-94364484D01*
X135792358Y-94569281D01*
X135866898Y-94774079D01*
X135159416Y-95031581D01*
X134451935Y-95289083D01*
X134377395Y-95084286D01*
X134302855Y-94879488D01*
X134600742Y-94771066D01*
X134898628Y-94662644D01*
X134769877Y-94308904D01*
X134641126Y-93955163D01*
X134343240Y-94063585D01*
X134045352Y-94172007D01*
X133963737Y-93947770D01*
X133882121Y-93723533D01*
X134583981Y-93479549D01*
X135285842Y-93235566D01*
X135360381Y-93440364D01*
G37*
G36*
X133994237Y-89674652D02*
G01*
X134037540Y-89758093D01*
X134075748Y-89852936D01*
X134154878Y-90070342D01*
X133869119Y-90588623D01*
X133583359Y-91106902D01*
X133443949Y-90781802D01*
X133304538Y-90456702D01*
X133142118Y-90502852D01*
X132979698Y-90549001D01*
X133122781Y-90942119D01*
X133265864Y-91335236D01*
X133861638Y-91118392D01*
X134457412Y-90901548D01*
X134531952Y-91106346D01*
X134606492Y-91311142D01*
X133899011Y-91568646D01*
X133191529Y-91826147D01*
X132900145Y-91025576D01*
X132608761Y-90225005D01*
X132979343Y-90090124D01*
X133349925Y-89955243D01*
X133441006Y-90170995D01*
X133532087Y-90386746D01*
X133732876Y-90022594D01*
X133818667Y-89871103D01*
X133892585Y-89748128D01*
X133945296Y-89668760D01*
X133965142Y-89646985D01*
X133994237Y-89674652D01*
G37*
G36*
X133101967Y-88305731D02*
G01*
X133526220Y-88401049D01*
X133732662Y-88936309D01*
X133804985Y-89128927D01*
X133863924Y-89295770D01*
X133904787Y-89422753D01*
X133922884Y-89495797D01*
X133922708Y-89506730D01*
X133881911Y-89530862D01*
X133778488Y-89576569D01*
X133624514Y-89638952D01*
X133432062Y-89713115D01*
X133246653Y-89781834D01*
X133223655Y-89790358D01*
X132540997Y-90038825D01*
X132334512Y-89470908D01*
X132193675Y-89083553D01*
X132467403Y-89083553D01*
X132539591Y-89316380D01*
X132611779Y-89549208D01*
X133097622Y-89372376D01*
X133583465Y-89195543D01*
X133503364Y-88975465D01*
X133423262Y-88755388D01*
X133122850Y-88690026D01*
X132822438Y-88624664D01*
X132644921Y-88854109D01*
X132467403Y-89083553D01*
X132193675Y-89083553D01*
X132128025Y-88902991D01*
X132402869Y-88556702D01*
X132677713Y-88210414D01*
X133101967Y-88305731D01*
G37*
G36*
X134723400Y-91690278D02*
G01*
X134797942Y-91895075D01*
X134513322Y-92010984D01*
X134228703Y-92126893D01*
X134356314Y-92477501D01*
X134483925Y-92828109D01*
X134776460Y-92733951D01*
X135068997Y-92639793D01*
X135148263Y-92823405D01*
X135190793Y-92935713D01*
X135211556Y-93019005D01*
X135210676Y-93043159D01*
X135169725Y-93067605D01*
X135066154Y-93113592D01*
X134912050Y-93176200D01*
X134719497Y-93250514D01*
X134511166Y-93327766D01*
X134238103Y-93427153D01*
X133828509Y-93576233D01*
X133536825Y-92774840D01*
X133378776Y-92340605D01*
X133631788Y-92340605D01*
X133760539Y-92694346D01*
X133889290Y-93048086D01*
X134075470Y-92980323D01*
X134261649Y-92912559D01*
X134132898Y-92558818D01*
X134004147Y-92205077D01*
X133817968Y-92272841D01*
X133631788Y-92340605D01*
X133378776Y-92340605D01*
X133245142Y-91973447D01*
X133947002Y-91729464D01*
X134648861Y-91485480D01*
X134723400Y-91690278D01*
G37*
G36*
X135824790Y-95078974D02*
G01*
X135872617Y-95101111D01*
X136010685Y-95169130D01*
X136227640Y-95765209D01*
X136444595Y-96361288D01*
X136371840Y-96508969D01*
X136299086Y-96656650D01*
X136095970Y-96098593D01*
X136001319Y-95846852D01*
X135926799Y-95667621D01*
X135870747Y-95557210D01*
X135831907Y-95512115D01*
X135756472Y-95506164D01*
X135649723Y-95528273D01*
X135630434Y-95534843D01*
X135489908Y-95585990D01*
X135686308Y-96157580D01*
X135882709Y-96729166D01*
X135616396Y-96838494D01*
X135470752Y-96894942D01*
X135369692Y-96921375D01*
X135286039Y-96921406D01*
X135192614Y-96898650D01*
X135184008Y-96895985D01*
X135017933Y-96844150D01*
X134761117Y-96138553D01*
X134504300Y-95432955D01*
X134643614Y-95471468D01*
X134782927Y-95509981D01*
X134972233Y-95997804D01*
X135161537Y-96485627D01*
X135342539Y-96432601D01*
X135523540Y-96379575D01*
X135319506Y-95818996D01*
X135115472Y-95258419D01*
X135425011Y-95145756D01*
X135580271Y-95091239D01*
X135683888Y-95063410D01*
X135758010Y-95060057D01*
X135824790Y-95078974D01*
G37*
G36*
X133767579Y-87342113D02*
G01*
X133901476Y-87404550D01*
X135591873Y-92048878D01*
X137282271Y-96693207D01*
X137219834Y-96827104D01*
X137157396Y-96961001D01*
X136031856Y-97370664D01*
X134906318Y-97780326D01*
X134772421Y-97717889D01*
X134638525Y-97655452D01*
X132948127Y-93011123D01*
X131257730Y-88366795D01*
X131276441Y-88326668D01*
X131378243Y-88326668D01*
X131383015Y-88363935D01*
X131394312Y-88416170D01*
X131413500Y-88487315D01*
X131441945Y-88581320D01*
X131481014Y-88702129D01*
X131532071Y-88853691D01*
X131596483Y-89039951D01*
X131675616Y-89264855D01*
X131770835Y-89532349D01*
X131883506Y-89846382D01*
X132014996Y-90210898D01*
X132166670Y-90629844D01*
X132339894Y-91107168D01*
X132536034Y-91646814D01*
X132756455Y-92252731D01*
X133002524Y-92928864D01*
X133022599Y-92984019D01*
X133270735Y-93665715D01*
X133493270Y-94276838D01*
X133691694Y-94821285D01*
X133867496Y-95302960D01*
X134022168Y-95725762D01*
X134157200Y-96093594D01*
X134274082Y-96410356D01*
X134374304Y-96679949D01*
X134459359Y-96906275D01*
X134530734Y-97093234D01*
X134589921Y-97244728D01*
X134638411Y-97364657D01*
X134677693Y-97456924D01*
X134709259Y-97525429D01*
X134734598Y-97574072D01*
X134755203Y-97606757D01*
X134772561Y-97627383D01*
X134788163Y-97639852D01*
X134803502Y-97648064D01*
X134804717Y-97648632D01*
X134837045Y-97661069D01*
X134874837Y-97666388D01*
X134926756Y-97662047D01*
X135001459Y-97645501D01*
X135107609Y-97614208D01*
X135253868Y-97565622D01*
X135448894Y-97497202D01*
X135701351Y-97406402D01*
X136004752Y-97296192D01*
X136320127Y-97181161D01*
X136569210Y-97089365D01*
X136760268Y-97017185D01*
X136901572Y-96961003D01*
X137001393Y-96917201D01*
X137068000Y-96882159D01*
X137109660Y-96852258D01*
X137134646Y-96823882D01*
X137150576Y-96794809D01*
X137157186Y-96778759D01*
X137161369Y-96759583D01*
X137161756Y-96733335D01*
X137156985Y-96696067D01*
X137145688Y-96643833D01*
X137126500Y-96572687D01*
X137098054Y-96478683D01*
X137058987Y-96357872D01*
X137007929Y-96206311D01*
X136943517Y-96020052D01*
X136864385Y-95795147D01*
X136769165Y-95527653D01*
X136656493Y-95213621D01*
X136525004Y-94849104D01*
X136373330Y-94430158D01*
X136200106Y-93952834D01*
X136003967Y-93413187D01*
X135783545Y-92807271D01*
X135537476Y-92131138D01*
X135517402Y-92075984D01*
X135269265Y-91394287D01*
X135046729Y-90783163D01*
X134848306Y-90238717D01*
X134672504Y-89757042D01*
X134517832Y-89334240D01*
X134382800Y-88966408D01*
X134265919Y-88649646D01*
X134165695Y-88380053D01*
X134080642Y-88153727D01*
X134009267Y-87966768D01*
X133950079Y-87815274D01*
X133901590Y-87695345D01*
X133862307Y-87603078D01*
X133830741Y-87534573D01*
X133805401Y-87485929D01*
X133784798Y-87453245D01*
X133767440Y-87432619D01*
X133751836Y-87420150D01*
X133736498Y-87411938D01*
X133735284Y-87411370D01*
X133702955Y-87398933D01*
X133665162Y-87393613D01*
X133613245Y-87397955D01*
X133538541Y-87414501D01*
X133432390Y-87445795D01*
X133286133Y-87494380D01*
X133091107Y-87562800D01*
X132838649Y-87653601D01*
X132535249Y-87763810D01*
X132219873Y-87878841D01*
X131970791Y-87970637D01*
X131779732Y-88042817D01*
X131638427Y-88098999D01*
X131538607Y-88142802D01*
X131472001Y-88177844D01*
X131430340Y-88207744D01*
X131405354Y-88236120D01*
X131389424Y-88265193D01*
X131382814Y-88281243D01*
X131378632Y-88300419D01*
X131378243Y-88326668D01*
X131276441Y-88326668D01*
X131320167Y-88232898D01*
X131382603Y-88098999D01*
X132508143Y-87689338D01*
X133633681Y-87279675D01*
X133767579Y-87342113D01*
G37*
D11*
%TO.C,J3*%
X160795322Y-99069905D02*
X161250209Y-97820113D01*
X161684573Y-96626703D02*
X167786214Y-79862587D01*
X162045113Y-99524791D02*
X160795322Y-99069905D01*
X164184157Y-97536478D02*
X161684573Y-96626703D01*
X164184157Y-97536478D02*
X170285796Y-80772360D01*
X170285796Y-80772360D02*
X167786214Y-79862587D01*
%TO.C,R3*%
X153675000Y-92700436D02*
X153675000Y-93154564D01*
X155145000Y-92700436D02*
X155145000Y-93154564D01*
%TO.C,C14*%
X136265000Y-105292164D02*
X136265000Y-105507836D01*
X136985000Y-105292164D02*
X136985000Y-105507836D01*
%TO.C,R12*%
X156524483Y-91043930D02*
X156845600Y-91365047D01*
X157563930Y-90004483D02*
X157885047Y-90325600D01*
%TO.C,D3*%
X154122499Y-96591000D02*
X156807498Y-96591000D01*
X156807498Y-94671000D02*
X154122499Y-94671000D01*
X156807498Y-96591000D02*
X156807498Y-94671000D01*
%TO.C,J1*%
X142540000Y-116730000D02*
X142540000Y-115030000D01*
X151880000Y-116730000D02*
X151880000Y-115030000D01*
%TD*%
M02*
