%TF.GenerationSoftware,KiCad,Pcbnew,8.0.4*%
%TF.CreationDate,2024-08-07T12:18:04+02:00*%
%TF.ProjectId,Shard,53686172-642e-46b6-9963-61645f706362,rev?*%
%TF.SameCoordinates,Original*%
%TF.FileFunction,Copper,L2,Inr*%
%TF.FilePolarity,Positive*%
%FSLAX46Y46*%
G04 Gerber Fmt 4.6, Leading zero omitted, Abs format (unit mm)*
G04 Created by KiCad (PCBNEW 8.0.4) date 2024-08-07 12:18:04*
%MOMM*%
%LPD*%
G01*
G04 APERTURE LIST*
G04 Aperture macros list*
%AMHorizOval*
0 Thick line with rounded ends*
0 $1 width*
0 $2 $3 position (X,Y) of the first rounded end (center of the circle)*
0 $4 $5 position (X,Y) of the second rounded end (center of the circle)*
0 Add line between two ends*
20,1,$1,$2,$3,$4,$5,0*
0 Add two circle primitives to create the rounded ends*
1,1,$1,$2,$3*
1,1,$1,$4,$5*%
G04 Aperture macros list end*
%TA.AperFunction,ComponentPad*%
%ADD10HorizOval,1.700000X0.000000X0.000000X0.000000X0.000000X0*%
%TD*%
%TA.AperFunction,ComponentPad*%
%ADD11HorizOval,1.700000X0.000000X0.000000X0.000000X0.000000X0*%
%TD*%
%TA.AperFunction,HeatsinkPad*%
%ADD12C,0.600000*%
%TD*%
%TA.AperFunction,ComponentPad*%
%ADD13R,0.900000X0.500000*%
%TD*%
%TA.AperFunction,ComponentPad*%
%ADD14O,1.000000X2.100000*%
%TD*%
%TA.AperFunction,ComponentPad*%
%ADD15O,1.000000X1.800000*%
%TD*%
%TA.AperFunction,ViaPad*%
%ADD16C,0.600000*%
%TD*%
%TA.AperFunction,ViaPad*%
%ADD17C,1.200000*%
%TD*%
G04 APERTURE END LIST*
D10*
%TO.N,/9*%
%TO.C,J5*%
X127162613Y-93329084D03*
%TO.N,/10*%
X128031344Y-95715903D03*
%TO.N,/11*%
X128900075Y-98102723D03*
%TO.N,/12*%
X129768806Y-100489542D03*
%TO.N,/13*%
X130637538Y-102876361D03*
%TO.N,/14*%
X131506269Y-105263180D03*
%TO.N,/E3.3V*%
X132375000Y-107650000D03*
%TO.N,GND*%
X133243731Y-110036819D03*
%TD*%
%TO.N,/1*%
%TO.C,J4*%
X125843882Y-81567265D03*
%TO.N,/2*%
X126712613Y-83954084D03*
%TO.N,/3*%
X127581344Y-86340904D03*
%TO.N,/4*%
X128450075Y-88727723D03*
%TO.N,/5*%
X129318807Y-91114542D03*
%TO.N,/6*%
X130187538Y-93501361D03*
%TO.N,/7*%
X131056269Y-95888181D03*
%TO.N,/8*%
X131925000Y-98275000D03*
%TD*%
D11*
%TO.N,/15*%
%TO.C,J2*%
X161175000Y-110050000D03*
%TO.N,/16*%
X162043731Y-107663181D03*
%TO.N,/17*%
X162912462Y-105276361D03*
%TO.N,/18*%
X163781193Y-102889542D03*
%TO.N,GND*%
X164649925Y-100502723D03*
%TO.N,/38*%
X165518656Y-98115904D03*
%TO.N,/47*%
X166387387Y-95729084D03*
%TO.N,/48*%
X167256118Y-93342265D03*
%TD*%
D12*
%TO.N,GND*%
%TO.C,U3*%
X138437500Y-101950000D03*
X138437500Y-103050000D03*
%TD*%
D13*
%TO.N,GND*%
%TO.C,ANT1*%
X140550000Y-80300000D03*
%TD*%
D12*
%TO.N,GND*%
%TO.C,U4*%
X138437500Y-104725000D03*
X138437500Y-105825000D03*
%TD*%
D11*
%TO.N,/RX*%
%TO.C,J3*%
X162500000Y-98275000D03*
%TO.N,/TX*%
X163368731Y-95888181D03*
%TO.N,/RESET*%
X164237463Y-93501361D03*
%TO.N,GND*%
X165106193Y-91114542D03*
X165974924Y-88727723D03*
X166843655Y-86340904D03*
%TO.N,/E3.3V*%
X167712387Y-83954084D03*
%TO.N,Net-(D2-A)*%
X168581118Y-81567265D03*
%TD*%
D14*
%TO.N,unconnected-(J1-SHIELD-PadS1)_3*%
%TO.C,J1*%
X142890000Y-113725000D03*
D15*
%TO.N,unconnected-(J1-SHIELD-PadS1)_2*%
X142890000Y-117905000D03*
D14*
%TO.N,unconnected-(J1-SHIELD-PadS1)_1*%
X151530000Y-113725000D03*
D15*
%TO.N,unconnected-(J1-SHIELD-PadS1)*%
X151530000Y-117905000D03*
%TD*%
D16*
%TO.N,GND*%
X144361000Y-115934000D03*
X152489000Y-111870000D03*
X164681000Y-85454000D03*
X143665226Y-81720113D03*
X141770407Y-83995120D03*
X146550000Y-91900000D03*
X128105000Y-101710000D03*
X151325000Y-89325000D03*
X162649000Y-81390000D03*
X146550000Y-95650000D03*
X168745000Y-79358000D03*
X151800000Y-106200000D03*
X136233000Y-87486000D03*
X146393000Y-115934000D03*
X128105000Y-99678000D03*
X158585000Y-85454000D03*
X148950000Y-87350000D03*
X143000000Y-101000000D03*
X160617000Y-81390000D03*
X154521000Y-83422000D03*
X139500000Y-107100000D03*
X136233000Y-83422000D03*
X147500000Y-94700000D03*
X164681000Y-89518000D03*
X156553000Y-85454000D03*
X143920170Y-84220409D03*
X152550000Y-85250000D03*
X155000000Y-86000000D03*
X154900000Y-102000000D03*
X143150000Y-88600000D03*
X145650000Y-94700000D03*
X159250000Y-90910000D03*
X138265000Y-87486000D03*
X152600000Y-83700000D03*
X139450000Y-100900000D03*
X138265000Y-81390000D03*
X152661646Y-91867501D03*
X132169000Y-81390000D03*
X155000000Y-88000000D03*
X164681000Y-81390000D03*
X150457000Y-115934000D03*
X146393000Y-81390000D03*
X162649000Y-93582000D03*
X138000000Y-97000000D03*
X156000000Y-87000000D03*
X152489000Y-81390000D03*
X151200000Y-84800000D03*
X141665226Y-81720113D03*
X136233000Y-111870000D03*
X130137000Y-83422000D03*
X156553000Y-83422000D03*
X156553000Y-113902000D03*
X130137000Y-81390000D03*
X160617000Y-111870000D03*
X126073000Y-85454000D03*
X168745000Y-91550000D03*
X134201000Y-81390000D03*
X150457000Y-83422000D03*
X154100000Y-117300000D03*
X134201000Y-83422000D03*
X154521000Y-81390000D03*
X158585000Y-113902000D03*
X157700000Y-102750000D03*
X139900000Y-99800000D03*
X141665226Y-80500000D03*
X142329000Y-111870000D03*
X150457000Y-81390000D03*
X148425000Y-115934000D03*
X146400000Y-99100000D03*
X140900000Y-88100000D03*
X132169000Y-85454000D03*
X138265000Y-109838000D03*
X158585000Y-111870000D03*
X157300000Y-95550000D03*
X148425000Y-81390000D03*
X160617000Y-83422000D03*
X152489000Y-115934000D03*
X126073000Y-95614000D03*
X144700000Y-93750000D03*
X126073000Y-79358000D03*
X166713000Y-99678000D03*
X136233000Y-113902000D03*
X158585000Y-95614000D03*
X168745000Y-85454000D03*
X160617000Y-85454000D03*
X143725000Y-89200000D03*
X134201000Y-85454000D03*
X154000000Y-89000000D03*
X130137000Y-87486000D03*
X143664924Y-82915682D03*
X140297000Y-113902000D03*
X162649000Y-99678000D03*
X143665226Y-80500000D03*
X146550000Y-93770000D03*
X141665226Y-82940226D03*
X151300000Y-102300000D03*
X156553000Y-81390000D03*
X146393000Y-83422000D03*
X150457000Y-111870000D03*
X162649000Y-91550000D03*
X160617000Y-101710000D03*
X157250000Y-93620000D03*
X159780000Y-97190000D03*
X124041000Y-79358000D03*
X169160000Y-93160000D03*
X153700000Y-84700000D03*
X136600000Y-103950000D03*
X126073000Y-87486000D03*
X146200000Y-86400000D03*
X145400000Y-85000000D03*
X164470000Y-106600000D03*
X134201000Y-111870000D03*
X148450000Y-93750000D03*
X147190000Y-111570000D03*
X162649000Y-109838000D03*
X142072134Y-84985893D03*
X150457000Y-117966000D03*
X158585000Y-81390000D03*
X136600000Y-106700000D03*
X130137000Y-89518000D03*
X136233000Y-109838000D03*
X146393000Y-117966000D03*
X158585000Y-87486000D03*
X134201000Y-87486000D03*
X142329000Y-115934000D03*
X129920000Y-105050000D03*
X144361000Y-101710000D03*
X140297000Y-109838000D03*
X152800000Y-101850000D03*
X132169000Y-83422000D03*
X124041000Y-81390000D03*
X144361000Y-117966000D03*
X128105000Y-81390000D03*
X138265000Y-83422000D03*
X147500000Y-92800000D03*
X140297000Y-81390000D03*
X158585000Y-83422000D03*
X149800000Y-85900000D03*
X140297000Y-83422000D03*
X138265000Y-113902000D03*
X136233000Y-81390000D03*
X136233000Y-85454000D03*
X160617000Y-103742000D03*
X148425000Y-117966000D03*
X145650000Y-92800000D03*
X153714726Y-104285274D03*
X154521000Y-113902000D03*
X145000000Y-88092500D03*
X164681000Y-87486000D03*
X156000000Y-93630000D03*
X138265000Y-85454000D03*
X140300000Y-117300000D03*
X148425000Y-83422000D03*
X126073000Y-91550000D03*
D17*
%TO.N,/VIN*%
X144338542Y-104286458D03*
X160750000Y-91225000D03*
%TO.N,+3.3V*%
X135475000Y-100325000D03*
X148000000Y-86475000D03*
X142325000Y-86325000D03*
D16*
X141250000Y-97075000D03*
X151870000Y-91520000D03*
%TO.N,/E3.3V*%
X157050000Y-110325000D03*
%TO.N,/RESET*%
X146457641Y-90441616D03*
X151870000Y-93640000D03*
X156025000Y-108725000D03*
%TO.N,/21*%
X145194993Y-98518215D03*
X148669999Y-102880001D03*
%TO.N,/11*%
X139150000Y-95025000D03*
%TO.N,/14*%
X139675000Y-97400000D03*
%TO.N,/15*%
X141175000Y-99650000D03*
%TO.N,/10*%
X141507500Y-93671241D03*
%TO.N,/9*%
X141486350Y-92646150D03*
%TO.N,/18*%
X145380121Y-96358570D03*
%TO.N,/16*%
X142175000Y-99475000D03*
%TO.N,/48*%
X152470000Y-95519827D03*
%TO.N,/17*%
X142966735Y-99360280D03*
%TO.N,/47*%
X148593339Y-95500890D03*
%TO.N,/RX*%
X158502637Y-93640000D03*
X152760000Y-90260000D03*
%TO.N,/TX*%
X158870000Y-91810000D03*
X161540000Y-94051361D03*
%TO.N,/SPICS0*%
X153777961Y-105197039D03*
X152018768Y-100502740D03*
%TO.N,/SPIQ*%
X150999645Y-97987415D03*
X153975000Y-102450000D03*
%TO.N,/SPIWP*%
X155185430Y-103049794D03*
X149325000Y-99325000D03*
%TO.N,/BOOT*%
X144925000Y-91850000D03*
X140500000Y-107410000D03*
%TD*%
%TA.AperFunction,Conductor*%
%TO.N,GND*%
G36*
X165667917Y-89127822D02*
G01*
X165781931Y-89193648D01*
X165909098Y-89227723D01*
X166040750Y-89227723D01*
X166060952Y-89222309D01*
X165733413Y-90122219D01*
X165733413Y-90122220D01*
X165489931Y-90791174D01*
X165413200Y-90714443D01*
X165299186Y-90648617D01*
X165172019Y-90614542D01*
X165040367Y-90614542D01*
X165020161Y-90619956D01*
X165347704Y-89720045D01*
X165591184Y-89051089D01*
X165667917Y-89127822D01*
G37*
%TD.AperFunction*%
%TA.AperFunction,Conductor*%
G36*
X166536648Y-86741003D02*
G01*
X166650662Y-86806829D01*
X166777829Y-86840904D01*
X166909481Y-86840904D01*
X166929683Y-86835490D01*
X166602144Y-87735400D01*
X166602144Y-87735401D01*
X166358662Y-88404355D01*
X166281931Y-88327624D01*
X166167917Y-88261798D01*
X166040750Y-88227723D01*
X165909098Y-88227723D01*
X165888892Y-88233137D01*
X166216435Y-87333226D01*
X166459915Y-86664270D01*
X166536648Y-86741003D01*
G37*
%TD.AperFunction*%
%TA.AperFunction,Conductor*%
G36*
X169857233Y-77163708D02*
G01*
X169876163Y-77166402D01*
X170068309Y-77209096D01*
X170086598Y-77214671D01*
X170269880Y-77286424D01*
X170287102Y-77294752D01*
X170307155Y-77306438D01*
X170457151Y-77393851D01*
X170472895Y-77404736D01*
X170625662Y-77528821D01*
X170639542Y-77541998D01*
X170771395Y-77688115D01*
X170783083Y-77703273D01*
X170890874Y-77867934D01*
X170900090Y-77884708D01*
X170981261Y-78064003D01*
X170987786Y-78081997D01*
X171040398Y-78271652D01*
X171044075Y-78290435D01*
X171067535Y-78491600D01*
X171068276Y-78501148D01*
X171070916Y-78569094D01*
X171070922Y-78569147D01*
X171123512Y-79921022D01*
X171123512Y-79921032D01*
X171126107Y-79987757D01*
X171126188Y-79990761D01*
X171134261Y-80542361D01*
X171134203Y-80548374D01*
X171115578Y-81098177D01*
X171115229Y-81104180D01*
X171069973Y-81652454D01*
X171069333Y-81658432D01*
X170997556Y-82203852D01*
X170996627Y-82209793D01*
X170898491Y-82751103D01*
X170897275Y-82756991D01*
X170773022Y-83292878D01*
X170771523Y-83298701D01*
X170621430Y-83827971D01*
X170619650Y-83833714D01*
X170443519Y-84356740D01*
X170442526Y-84359575D01*
X170428802Y-84397281D01*
X170422275Y-84415218D01*
X170421955Y-84416096D01*
X170421954Y-84416098D01*
X168847436Y-88741948D01*
X168847093Y-88742878D01*
X168828190Y-88793549D01*
X168811632Y-88837933D01*
X168772599Y-89030911D01*
X168772083Y-89033464D01*
X168763779Y-89232784D01*
X168786925Y-89430933D01*
X168840942Y-89622961D01*
X168924490Y-89804111D01*
X168924493Y-89804117D01*
X169035487Y-89969868D01*
X169035491Y-89969872D01*
X169171178Y-90116110D01*
X169328175Y-90239189D01*
X169502575Y-90336045D01*
X169526500Y-90344763D01*
X169526895Y-90344937D01*
X169534349Y-90347650D01*
X169534352Y-90347652D01*
X170214424Y-90595184D01*
X170412267Y-90667195D01*
X170425039Y-90672673D01*
X170534518Y-90727092D01*
X170557836Y-90742155D01*
X170647028Y-90815128D01*
X170666415Y-90835007D01*
X170737134Y-90926000D01*
X170751613Y-90949696D01*
X170800308Y-91054142D01*
X170809150Y-91080465D01*
X170833383Y-91193132D01*
X170836145Y-91220762D01*
X170834699Y-91335988D01*
X170831244Y-91363541D01*
X170802413Y-91482924D01*
X170798395Y-91496238D01*
X170775965Y-91557841D01*
X170775931Y-91557956D01*
X170607576Y-92020500D01*
X170429178Y-92510636D01*
X170429177Y-92510638D01*
X166866329Y-102299305D01*
X163651262Y-111132468D01*
X163615951Y-111183762D01*
X158099372Y-115964795D01*
X158087359Y-115973986D01*
X152132907Y-119978396D01*
X152066293Y-119999473D01*
X152063709Y-119999500D01*
X142390458Y-119999500D01*
X142323419Y-119979815D01*
X142321260Y-119978396D01*
X139935556Y-118373995D01*
X142189499Y-118373995D01*
X142216418Y-118509322D01*
X142216421Y-118509332D01*
X142269221Y-118636804D01*
X142269228Y-118636817D01*
X142345885Y-118751541D01*
X142345888Y-118751545D01*
X142443454Y-118849111D01*
X142443458Y-118849114D01*
X142558182Y-118925771D01*
X142558195Y-118925778D01*
X142685667Y-118978578D01*
X142685672Y-118978580D01*
X142685676Y-118978580D01*
X142685677Y-118978581D01*
X142821004Y-119005500D01*
X142821007Y-119005500D01*
X142958995Y-119005500D01*
X143050041Y-118987389D01*
X143094328Y-118978580D01*
X143221811Y-118925775D01*
X143336542Y-118849114D01*
X143434114Y-118751542D01*
X143510775Y-118636811D01*
X143563580Y-118509328D01*
X143590500Y-118373995D01*
X150829499Y-118373995D01*
X150856418Y-118509322D01*
X150856421Y-118509332D01*
X150909221Y-118636804D01*
X150909228Y-118636817D01*
X150985885Y-118751541D01*
X150985888Y-118751545D01*
X151083454Y-118849111D01*
X151083458Y-118849114D01*
X151198182Y-118925771D01*
X151198195Y-118925778D01*
X151325667Y-118978578D01*
X151325672Y-118978580D01*
X151325676Y-118978580D01*
X151325677Y-118978581D01*
X151461004Y-119005500D01*
X151461007Y-119005500D01*
X151598995Y-119005500D01*
X151690041Y-118987389D01*
X151734328Y-118978580D01*
X151861811Y-118925775D01*
X151976542Y-118849114D01*
X152074114Y-118751542D01*
X152150775Y-118636811D01*
X152203580Y-118509328D01*
X152230500Y-118373993D01*
X152230500Y-117436007D01*
X152230500Y-117436004D01*
X152203581Y-117300677D01*
X152203580Y-117300676D01*
X152203580Y-117300672D01*
X152203578Y-117300667D01*
X152150778Y-117173195D01*
X152150771Y-117173182D01*
X152074114Y-117058458D01*
X152074111Y-117058454D01*
X151976545Y-116960888D01*
X151976541Y-116960885D01*
X151861817Y-116884228D01*
X151861804Y-116884221D01*
X151734332Y-116831421D01*
X151734322Y-116831418D01*
X151598995Y-116804500D01*
X151598993Y-116804500D01*
X151461007Y-116804500D01*
X151461005Y-116804500D01*
X151325677Y-116831418D01*
X151325667Y-116831421D01*
X151198195Y-116884221D01*
X151198182Y-116884228D01*
X151083458Y-116960885D01*
X151083454Y-116960888D01*
X150985888Y-117058454D01*
X150985885Y-117058458D01*
X150909228Y-117173182D01*
X150909221Y-117173195D01*
X150856421Y-117300667D01*
X150856418Y-117300677D01*
X150829500Y-117436004D01*
X150829500Y-117436007D01*
X150829500Y-118373993D01*
X150829500Y-118373995D01*
X150829499Y-118373995D01*
X143590500Y-118373995D01*
X143590500Y-118373993D01*
X143590500Y-117436007D01*
X143590500Y-117436004D01*
X143563581Y-117300677D01*
X143563580Y-117300676D01*
X143563580Y-117300672D01*
X143563578Y-117300667D01*
X143510778Y-117173195D01*
X143510771Y-117173182D01*
X143434114Y-117058458D01*
X143434111Y-117058454D01*
X143336545Y-116960888D01*
X143336541Y-116960885D01*
X143221817Y-116884228D01*
X143221804Y-116884221D01*
X143094332Y-116831421D01*
X143094322Y-116831418D01*
X142958995Y-116804500D01*
X142958993Y-116804500D01*
X142821007Y-116804500D01*
X142821005Y-116804500D01*
X142685677Y-116831418D01*
X142685667Y-116831421D01*
X142558195Y-116884221D01*
X142558182Y-116884228D01*
X142443458Y-116960885D01*
X142443454Y-116960888D01*
X142345888Y-117058454D01*
X142345885Y-117058458D01*
X142269228Y-117173182D01*
X142269221Y-117173195D01*
X142216421Y-117300667D01*
X142216418Y-117300677D01*
X142189500Y-117436004D01*
X142189500Y-117436007D01*
X142189500Y-118373993D01*
X142189500Y-118373995D01*
X142189499Y-118373995D01*
X139935556Y-118373995D01*
X136366805Y-115973987D01*
X136354792Y-115964796D01*
X135032848Y-114819111D01*
X134484637Y-114343995D01*
X142189499Y-114343995D01*
X142216418Y-114479322D01*
X142216421Y-114479332D01*
X142269221Y-114606804D01*
X142269228Y-114606817D01*
X142345885Y-114721541D01*
X142345888Y-114721545D01*
X142443454Y-114819111D01*
X142443458Y-114819114D01*
X142558182Y-114895771D01*
X142558195Y-114895778D01*
X142685667Y-114948578D01*
X142685672Y-114948580D01*
X142685676Y-114948580D01*
X142685677Y-114948581D01*
X142821004Y-114975500D01*
X142821007Y-114975500D01*
X142958995Y-114975500D01*
X143050041Y-114957389D01*
X143094328Y-114948580D01*
X143221811Y-114895775D01*
X143336542Y-114819114D01*
X143434114Y-114721542D01*
X143510775Y-114606811D01*
X143522559Y-114578361D01*
X143565911Y-114473701D01*
X143567718Y-114474449D01*
X143601044Y-114423565D01*
X143664847Y-114395089D01*
X143733918Y-114405629D01*
X143786325Y-114451838D01*
X143788822Y-114455974D01*
X143801944Y-114478702D01*
X143859485Y-114578365D01*
X143966635Y-114685515D01*
X144097865Y-114761281D01*
X144244234Y-114800500D01*
X144244236Y-114800500D01*
X144395764Y-114800500D01*
X144395766Y-114800500D01*
X144542135Y-114761281D01*
X144673365Y-114685515D01*
X144780515Y-114578365D01*
X144856281Y-114447135D01*
X144895500Y-114300766D01*
X144895500Y-114149234D01*
X149524500Y-114149234D01*
X149524500Y-114300765D01*
X149563719Y-114447136D01*
X149582308Y-114479332D01*
X149639485Y-114578365D01*
X149746635Y-114685515D01*
X149877865Y-114761281D01*
X150024234Y-114800500D01*
X150024236Y-114800500D01*
X150175764Y-114800500D01*
X150175766Y-114800500D01*
X150322135Y-114761281D01*
X150453365Y-114685515D01*
X150560515Y-114578365D01*
X150631177Y-114455974D01*
X150681744Y-114407759D01*
X150750351Y-114394536D01*
X150815216Y-114420504D01*
X150853322Y-114474018D01*
X150854089Y-114473701D01*
X150855469Y-114477033D01*
X150855744Y-114477419D01*
X150856160Y-114478702D01*
X150909221Y-114606804D01*
X150909228Y-114606817D01*
X150985885Y-114721541D01*
X150985888Y-114721545D01*
X151083454Y-114819111D01*
X151083458Y-114819114D01*
X151198182Y-114895771D01*
X151198195Y-114895778D01*
X151325667Y-114948578D01*
X151325672Y-114948580D01*
X151325676Y-114948580D01*
X151325677Y-114948581D01*
X151461004Y-114975500D01*
X151461007Y-114975500D01*
X151598995Y-114975500D01*
X151690041Y-114957389D01*
X151734328Y-114948580D01*
X151861811Y-114895775D01*
X151976542Y-114819114D01*
X152074114Y-114721542D01*
X152150775Y-114606811D01*
X152203580Y-114479328D01*
X152230500Y-114343993D01*
X152230500Y-113106007D01*
X152230500Y-113106004D01*
X152203581Y-112970677D01*
X152203580Y-112970676D01*
X152203580Y-112970672D01*
X152203578Y-112970667D01*
X152150778Y-112843195D01*
X152150771Y-112843182D01*
X152074114Y-112728458D01*
X152074111Y-112728454D01*
X151976545Y-112630888D01*
X151976541Y-112630885D01*
X151861817Y-112554228D01*
X151861804Y-112554221D01*
X151734332Y-112501421D01*
X151734322Y-112501418D01*
X151598995Y-112474500D01*
X151598993Y-112474500D01*
X151461007Y-112474500D01*
X151461005Y-112474500D01*
X151325677Y-112501418D01*
X151325667Y-112501421D01*
X151198195Y-112554221D01*
X151198182Y-112554228D01*
X151083458Y-112630885D01*
X151083454Y-112630888D01*
X150985888Y-112728454D01*
X150985885Y-112728458D01*
X150909228Y-112843182D01*
X150909221Y-112843195D01*
X150856421Y-112970667D01*
X150856418Y-112970677D01*
X150829500Y-113106004D01*
X150829500Y-113874755D01*
X150809815Y-113941794D01*
X150757011Y-113987549D01*
X150687853Y-113997493D01*
X150624297Y-113968468D01*
X150598113Y-113936756D01*
X150585731Y-113915310D01*
X150560515Y-113871635D01*
X150453365Y-113764485D01*
X150387750Y-113726602D01*
X150322136Y-113688719D01*
X150248950Y-113669109D01*
X150175766Y-113649500D01*
X150024234Y-113649500D01*
X149877863Y-113688719D01*
X149746635Y-113764485D01*
X149746632Y-113764487D01*
X149639487Y-113871632D01*
X149639485Y-113871635D01*
X149563719Y-114002863D01*
X149524500Y-114149234D01*
X144895500Y-114149234D01*
X144856281Y-114002865D01*
X144853179Y-113997493D01*
X144821021Y-113941794D01*
X144780515Y-113871635D01*
X144673365Y-113764485D01*
X144607750Y-113726602D01*
X144542136Y-113688719D01*
X144468950Y-113669109D01*
X144395766Y-113649500D01*
X144244234Y-113649500D01*
X144097863Y-113688719D01*
X143966635Y-113764485D01*
X143966632Y-113764487D01*
X143859487Y-113871632D01*
X143859485Y-113871635D01*
X143821887Y-113936756D01*
X143771319Y-113984971D01*
X143702712Y-113998193D01*
X143637847Y-113972225D01*
X143597319Y-113915310D01*
X143590500Y-113874755D01*
X143590500Y-113106004D01*
X143563581Y-112970677D01*
X143563580Y-112970676D01*
X143563580Y-112970672D01*
X143563578Y-112970667D01*
X143510778Y-112843195D01*
X143510771Y-112843182D01*
X143434114Y-112728458D01*
X143434111Y-112728454D01*
X143336545Y-112630888D01*
X143336541Y-112630885D01*
X143221817Y-112554228D01*
X143221804Y-112554221D01*
X143094332Y-112501421D01*
X143094322Y-112501418D01*
X142958995Y-112474500D01*
X142958993Y-112474500D01*
X142821007Y-112474500D01*
X142821005Y-112474500D01*
X142685677Y-112501418D01*
X142685667Y-112501421D01*
X142558195Y-112554221D01*
X142558182Y-112554228D01*
X142443458Y-112630885D01*
X142443454Y-112630888D01*
X142345888Y-112728454D01*
X142345885Y-112728458D01*
X142269228Y-112843182D01*
X142269221Y-112843195D01*
X142216421Y-112970667D01*
X142216418Y-112970677D01*
X142189500Y-113106004D01*
X142189500Y-113106007D01*
X142189500Y-114343993D01*
X142189500Y-114343995D01*
X142189499Y-114343995D01*
X134484637Y-114343995D01*
X130838213Y-111183761D01*
X130802903Y-111132468D01*
X130793117Y-111105583D01*
X129535365Y-107650000D01*
X131319417Y-107650000D01*
X131339699Y-107855932D01*
X131343953Y-107869954D01*
X131399768Y-108053954D01*
X131497315Y-108236450D01*
X131508134Y-108249633D01*
X131628589Y-108396410D01*
X131725209Y-108475702D01*
X131788550Y-108527685D01*
X131971046Y-108625232D01*
X132169066Y-108685300D01*
X132169065Y-108685300D01*
X132375000Y-108705583D01*
X132388611Y-108704242D01*
X132457257Y-108717257D01*
X132507969Y-108765320D01*
X132524647Y-108833170D01*
X132501994Y-108899266D01*
X132471894Y-108929218D01*
X132372660Y-108998703D01*
X132372651Y-108998710D01*
X132205622Y-109165739D01*
X132205617Y-109165745D01*
X132070131Y-109359239D01*
X132070130Y-109359241D01*
X131970301Y-109573326D01*
X131970297Y-109573335D01*
X131909163Y-109801492D01*
X131909161Y-109801503D01*
X131888574Y-110036817D01*
X131888574Y-110036821D01*
X131907836Y-110256999D01*
X132749144Y-109950788D01*
X132743731Y-109970993D01*
X132743731Y-110102645D01*
X132777806Y-110229812D01*
X132843632Y-110343826D01*
X132920364Y-110420558D01*
X132078847Y-110726846D01*
X132205621Y-110907897D01*
X132372648Y-111074924D01*
X132566152Y-111210419D01*
X132780238Y-111310248D01*
X132780247Y-111310252D01*
X133008404Y-111371386D01*
X133008415Y-111371388D01*
X133243729Y-111391976D01*
X133243732Y-111391976D01*
X133463911Y-111372711D01*
X133157701Y-110531405D01*
X133177905Y-110536819D01*
X133309557Y-110536819D01*
X133436724Y-110502744D01*
X133550738Y-110436918D01*
X133627469Y-110360186D01*
X133933758Y-111201701D01*
X134114810Y-111074928D01*
X134281836Y-110907901D01*
X134417331Y-110714397D01*
X134517160Y-110500311D01*
X134517164Y-110500302D01*
X134564136Y-110325000D01*
X156544353Y-110325000D01*
X156564834Y-110467456D01*
X156579835Y-110500302D01*
X156624623Y-110598373D01*
X156718872Y-110707143D01*
X156839947Y-110784953D01*
X156839950Y-110784954D01*
X156839949Y-110784954D01*
X156978036Y-110825499D01*
X156978038Y-110825500D01*
X156978039Y-110825500D01*
X157121962Y-110825500D01*
X157121962Y-110825499D01*
X157260053Y-110784953D01*
X157381128Y-110707143D01*
X157475377Y-110598373D01*
X157535165Y-110467457D01*
X157555647Y-110325000D01*
X157535165Y-110182543D01*
X157475377Y-110051627D01*
X157473967Y-110050000D01*
X160119417Y-110050000D01*
X160139699Y-110255932D01*
X160139700Y-110255934D01*
X160199768Y-110453954D01*
X160297315Y-110636450D01*
X160297317Y-110636452D01*
X160428589Y-110796410D01*
X160464035Y-110825499D01*
X160588550Y-110927685D01*
X160771046Y-111025232D01*
X160969066Y-111085300D01*
X160969065Y-111085300D01*
X160987529Y-111087118D01*
X161175000Y-111105583D01*
X161380934Y-111085300D01*
X161578954Y-111025232D01*
X161761450Y-110927685D01*
X161921410Y-110796410D01*
X162052685Y-110636450D01*
X162150232Y-110453954D01*
X162210300Y-110255934D01*
X162230583Y-110050000D01*
X162210300Y-109844066D01*
X162150232Y-109646046D01*
X162052685Y-109463550D01*
X162000702Y-109400209D01*
X161921410Y-109303589D01*
X161803677Y-109206969D01*
X161761450Y-109172315D01*
X161578954Y-109074768D01*
X161380934Y-109014700D01*
X161380932Y-109014699D01*
X161380934Y-109014699D01*
X161175000Y-108994417D01*
X160969067Y-109014699D01*
X160771043Y-109074769D01*
X160710477Y-109107143D01*
X160588550Y-109172315D01*
X160588548Y-109172316D01*
X160588547Y-109172317D01*
X160428589Y-109303589D01*
X160297317Y-109463547D01*
X160199769Y-109646043D01*
X160139699Y-109844067D01*
X160119417Y-110050000D01*
X157473967Y-110050000D01*
X157381128Y-109942857D01*
X157260053Y-109865047D01*
X157260051Y-109865046D01*
X157260049Y-109865045D01*
X157260050Y-109865045D01*
X157121963Y-109824500D01*
X157121961Y-109824500D01*
X156978039Y-109824500D01*
X156978036Y-109824500D01*
X156839949Y-109865045D01*
X156718873Y-109942856D01*
X156624623Y-110051626D01*
X156624622Y-110051628D01*
X156564834Y-110182543D01*
X156544353Y-110325000D01*
X134564136Y-110325000D01*
X134578298Y-110272145D01*
X134578300Y-110272134D01*
X134598888Y-110036820D01*
X134598888Y-110036818D01*
X134579623Y-109816637D01*
X133738317Y-110122846D01*
X133743731Y-110102645D01*
X133743731Y-109970993D01*
X133709656Y-109843826D01*
X133643830Y-109729812D01*
X133567096Y-109653078D01*
X134408613Y-109346791D01*
X134281840Y-109165739D01*
X134114813Y-108998713D01*
X133921309Y-108863218D01*
X133707223Y-108763389D01*
X133707214Y-108763385D01*
X133563958Y-108725000D01*
X155519353Y-108725000D01*
X155539834Y-108867456D01*
X155597816Y-108994417D01*
X155599623Y-108998373D01*
X155693872Y-109107143D01*
X155814947Y-109184953D01*
X155814950Y-109184954D01*
X155814949Y-109184954D01*
X155953036Y-109225499D01*
X155953038Y-109225500D01*
X155953039Y-109225500D01*
X156096962Y-109225500D01*
X156096962Y-109225499D01*
X156235053Y-109184953D01*
X156356128Y-109107143D01*
X156450377Y-108998373D01*
X156510165Y-108867457D01*
X156530647Y-108725000D01*
X156510165Y-108582543D01*
X156450377Y-108451627D01*
X156356128Y-108342857D01*
X156235053Y-108265047D01*
X156235051Y-108265046D01*
X156235049Y-108265045D01*
X156235050Y-108265045D01*
X156096963Y-108224500D01*
X156096961Y-108224500D01*
X155953039Y-108224500D01*
X155953036Y-108224500D01*
X155814949Y-108265045D01*
X155693873Y-108342856D01*
X155599623Y-108451626D01*
X155599622Y-108451628D01*
X155539834Y-108582543D01*
X155519353Y-108725000D01*
X133563958Y-108725000D01*
X133479057Y-108702251D01*
X133479046Y-108702249D01*
X133243733Y-108681662D01*
X133243729Y-108681662D01*
X133117120Y-108692738D01*
X133048620Y-108678971D01*
X132998437Y-108630355D01*
X132982504Y-108562327D01*
X133005880Y-108496483D01*
X133027644Y-108473361D01*
X133121410Y-108396410D01*
X133252685Y-108236450D01*
X133350232Y-108053954D01*
X133410300Y-107855934D01*
X133430583Y-107650000D01*
X133410300Y-107444066D01*
X133399966Y-107410000D01*
X139994353Y-107410000D01*
X140014834Y-107552456D01*
X140074622Y-107683371D01*
X140074623Y-107683373D01*
X140168872Y-107792143D01*
X140289947Y-107869953D01*
X140289950Y-107869954D01*
X140289949Y-107869954D01*
X140428036Y-107910499D01*
X140428038Y-107910500D01*
X140428039Y-107910500D01*
X140571962Y-107910500D01*
X140571962Y-107910499D01*
X140710053Y-107869953D01*
X140831128Y-107792143D01*
X140925377Y-107683373D01*
X140934598Y-107663181D01*
X160988148Y-107663181D01*
X161008430Y-107869113D01*
X161020985Y-107910500D01*
X161068499Y-108067135D01*
X161166046Y-108249631D01*
X161166048Y-108249633D01*
X161297320Y-108409591D01*
X161375019Y-108473356D01*
X161457281Y-108540866D01*
X161639777Y-108638413D01*
X161837797Y-108698481D01*
X161837796Y-108698481D01*
X161856260Y-108700299D01*
X162043731Y-108718764D01*
X162249665Y-108698481D01*
X162447685Y-108638413D01*
X162630181Y-108540866D01*
X162790141Y-108409591D01*
X162921416Y-108249631D01*
X163018963Y-108067135D01*
X163079031Y-107869115D01*
X163099314Y-107663181D01*
X163079031Y-107457247D01*
X163018963Y-107259227D01*
X162921416Y-107076731D01*
X162817450Y-106950047D01*
X162790141Y-106916770D01*
X162630183Y-106785498D01*
X162630184Y-106785498D01*
X162630181Y-106785496D01*
X162447685Y-106687949D01*
X162249665Y-106627881D01*
X162249663Y-106627880D01*
X162249665Y-106627880D01*
X162043731Y-106607598D01*
X161837798Y-106627880D01*
X161639774Y-106687950D01*
X161529629Y-106746824D01*
X161457281Y-106785496D01*
X161457279Y-106785497D01*
X161457278Y-106785498D01*
X161297320Y-106916770D01*
X161166048Y-107076728D01*
X161068500Y-107259224D01*
X161008430Y-107457248D01*
X160988148Y-107663181D01*
X140934598Y-107663181D01*
X140985165Y-107552457D01*
X141005647Y-107410000D01*
X140985165Y-107267543D01*
X140925377Y-107136627D01*
X140831128Y-107027857D01*
X140710053Y-106950047D01*
X140710051Y-106950046D01*
X140710049Y-106950045D01*
X140710050Y-106950045D01*
X140571963Y-106909500D01*
X140571961Y-106909500D01*
X140428039Y-106909500D01*
X140428036Y-106909500D01*
X140289949Y-106950045D01*
X140168873Y-107027856D01*
X140074623Y-107136626D01*
X140074622Y-107136628D01*
X140014834Y-107267543D01*
X139994353Y-107410000D01*
X133399966Y-107410000D01*
X133350232Y-107246046D01*
X133252685Y-107063550D01*
X133159536Y-106950047D01*
X133121410Y-106903589D01*
X133003677Y-106806969D01*
X132961450Y-106772315D01*
X132778954Y-106674768D01*
X132580934Y-106614700D01*
X132580932Y-106614699D01*
X132580934Y-106614699D01*
X132375000Y-106594417D01*
X132169067Y-106614699D01*
X131971043Y-106674769D01*
X131946384Y-106687950D01*
X131788550Y-106772315D01*
X131788548Y-106772316D01*
X131788547Y-106772317D01*
X131628589Y-106903589D01*
X131497317Y-107063547D01*
X131399769Y-107246043D01*
X131339699Y-107444067D01*
X131319417Y-107650000D01*
X129535365Y-107650000D01*
X129131955Y-106541660D01*
X138074392Y-106541660D01*
X138074392Y-106541661D01*
X138088192Y-106550333D01*
X138088191Y-106550333D01*
X138258361Y-106609878D01*
X138437497Y-106630062D01*
X138437503Y-106630062D01*
X138616638Y-106609878D01*
X138616641Y-106609877D01*
X138786805Y-106550334D01*
X138786806Y-106550334D01*
X138800606Y-106541661D01*
X138800606Y-106541660D01*
X138437501Y-106178553D01*
X138437500Y-106178553D01*
X138074392Y-106541660D01*
X129131955Y-106541660D01*
X128666618Y-105263180D01*
X130450686Y-105263180D01*
X130470968Y-105469112D01*
X130474967Y-105482295D01*
X130527960Y-105656992D01*
X130531038Y-105667136D01*
X130537771Y-105679734D01*
X130628584Y-105849630D01*
X130639403Y-105862813D01*
X130759858Y-106009590D01*
X130856478Y-106088882D01*
X130919819Y-106140865D01*
X131102315Y-106238412D01*
X131300335Y-106298480D01*
X131300334Y-106298480D01*
X131318798Y-106300298D01*
X131506269Y-106318763D01*
X131712203Y-106298480D01*
X131910223Y-106238412D01*
X132092719Y-106140865D01*
X132252679Y-106009590D01*
X132383954Y-105849630D01*
X132397121Y-105824997D01*
X137632438Y-105824997D01*
X137632438Y-105825002D01*
X137652621Y-106004138D01*
X137712165Y-106174304D01*
X137720838Y-106188107D01*
X138083946Y-105825000D01*
X138083946Y-105824999D01*
X138054110Y-105795163D01*
X138287500Y-105795163D01*
X138287500Y-105854837D01*
X138310336Y-105909968D01*
X138352532Y-105952164D01*
X138407663Y-105975000D01*
X138467337Y-105975000D01*
X138522468Y-105952164D01*
X138564664Y-105909968D01*
X138587500Y-105854837D01*
X138587500Y-105825000D01*
X138791053Y-105825000D01*
X139154160Y-106188106D01*
X139154161Y-106188106D01*
X139162834Y-106174306D01*
X139162834Y-106174305D01*
X139222377Y-106004141D01*
X139222378Y-106004138D01*
X139242562Y-105825002D01*
X139242562Y-105824997D01*
X139222378Y-105645861D01*
X139162833Y-105475692D01*
X139154161Y-105461892D01*
X139154160Y-105461892D01*
X138791053Y-105825000D01*
X138587500Y-105825000D01*
X138587500Y-105795163D01*
X138564664Y-105740032D01*
X138522468Y-105697836D01*
X138467337Y-105675000D01*
X138407663Y-105675000D01*
X138352532Y-105697836D01*
X138310336Y-105740032D01*
X138287500Y-105795163D01*
X138054110Y-105795163D01*
X137720838Y-105461891D01*
X137720837Y-105461891D01*
X137712167Y-105475691D01*
X137712162Y-105475701D01*
X137652622Y-105645858D01*
X137652621Y-105645861D01*
X137632438Y-105824997D01*
X132397121Y-105824997D01*
X132481501Y-105667134D01*
X132541569Y-105469114D01*
X132560688Y-105274999D01*
X138241053Y-105274999D01*
X138437500Y-105471446D01*
X138633946Y-105275001D01*
X138633946Y-105275000D01*
X138555985Y-105197039D01*
X153272314Y-105197039D01*
X153292795Y-105339495D01*
X153348693Y-105461892D01*
X153352584Y-105470412D01*
X153446833Y-105579182D01*
X153567908Y-105656992D01*
X153567911Y-105656993D01*
X153567910Y-105656993D01*
X153705997Y-105697538D01*
X153705999Y-105697539D01*
X153706000Y-105697539D01*
X153849923Y-105697539D01*
X153849923Y-105697538D01*
X153988014Y-105656992D01*
X154109089Y-105579182D01*
X154203338Y-105470412D01*
X154263126Y-105339496D01*
X154272203Y-105276361D01*
X161856879Y-105276361D01*
X161877161Y-105482293D01*
X161877162Y-105482295D01*
X161937230Y-105680315D01*
X162034777Y-105862811D01*
X162034779Y-105862813D01*
X162166051Y-106022771D01*
X162262671Y-106102063D01*
X162326012Y-106154046D01*
X162508508Y-106251593D01*
X162706528Y-106311661D01*
X162706527Y-106311661D01*
X162724991Y-106313479D01*
X162912462Y-106331944D01*
X163118396Y-106311661D01*
X163316416Y-106251593D01*
X163498912Y-106154046D01*
X163658872Y-106022771D01*
X163790147Y-105862811D01*
X163887694Y-105680315D01*
X163947762Y-105482295D01*
X163968045Y-105276361D01*
X163947762Y-105070427D01*
X163887694Y-104872407D01*
X163790147Y-104689911D01*
X163738164Y-104626570D01*
X163658872Y-104529950D01*
X163498914Y-104398678D01*
X163498915Y-104398678D01*
X163498912Y-104398676D01*
X163316416Y-104301129D01*
X163118396Y-104241061D01*
X163118394Y-104241060D01*
X163118396Y-104241060D01*
X162912462Y-104220778D01*
X162706529Y-104241060D01*
X162508505Y-104301130D01*
X162398360Y-104360004D01*
X162326012Y-104398676D01*
X162326010Y-104398677D01*
X162326009Y-104398678D01*
X162166051Y-104529950D01*
X162045594Y-104676730D01*
X162034777Y-104689911D01*
X162009562Y-104737084D01*
X161937231Y-104872404D01*
X161937230Y-104872406D01*
X161937230Y-104872407D01*
X161930360Y-104895053D01*
X161877161Y-105070428D01*
X161856879Y-105276361D01*
X154272203Y-105276361D01*
X154283608Y-105197039D01*
X154263126Y-105054582D01*
X154203338Y-104923666D01*
X154109089Y-104814896D01*
X153988014Y-104737086D01*
X153988012Y-104737085D01*
X153988010Y-104737084D01*
X153988011Y-104737084D01*
X153849924Y-104696539D01*
X153849922Y-104696539D01*
X153706000Y-104696539D01*
X153705997Y-104696539D01*
X153567910Y-104737084D01*
X153446834Y-104814895D01*
X153352584Y-104923665D01*
X153352583Y-104923667D01*
X153292795Y-105054582D01*
X153272314Y-105197039D01*
X138555985Y-105197039D01*
X138437500Y-105078553D01*
X138241053Y-105274999D01*
X132560688Y-105274999D01*
X132561852Y-105263180D01*
X132541569Y-105057246D01*
X132481501Y-104859226D01*
X132409753Y-104724997D01*
X137632438Y-104724997D01*
X137632438Y-104725002D01*
X137652621Y-104904138D01*
X137712165Y-105074304D01*
X137720838Y-105088107D01*
X138083946Y-104725000D01*
X138083946Y-104724999D01*
X138054110Y-104695163D01*
X138287500Y-104695163D01*
X138287500Y-104754837D01*
X138310336Y-104809968D01*
X138352532Y-104852164D01*
X138407663Y-104875000D01*
X138467337Y-104875000D01*
X138522468Y-104852164D01*
X138564664Y-104809968D01*
X138587500Y-104754837D01*
X138587500Y-104725000D01*
X138791053Y-104725000D01*
X139154160Y-105088106D01*
X139154161Y-105088106D01*
X139162834Y-105074306D01*
X139162834Y-105074305D01*
X139222377Y-104904141D01*
X139222378Y-104904138D01*
X139242562Y-104725002D01*
X139242562Y-104724997D01*
X139222378Y-104545861D01*
X139162833Y-104375692D01*
X139154161Y-104361892D01*
X139154160Y-104361892D01*
X138791053Y-104725000D01*
X138587500Y-104725000D01*
X138587500Y-104695163D01*
X138564664Y-104640032D01*
X138522468Y-104597836D01*
X138467337Y-104575000D01*
X138407663Y-104575000D01*
X138352532Y-104597836D01*
X138310336Y-104640032D01*
X138287500Y-104695163D01*
X138054110Y-104695163D01*
X137720838Y-104361891D01*
X137720837Y-104361891D01*
X137712167Y-104375691D01*
X137712162Y-104375701D01*
X137652622Y-104545858D01*
X137652621Y-104545861D01*
X137632438Y-104724997D01*
X132409753Y-104724997D01*
X132383954Y-104676730D01*
X132300467Y-104575000D01*
X132252679Y-104516769D01*
X132134946Y-104420149D01*
X132092719Y-104385495D01*
X131910223Y-104287948D01*
X131712203Y-104227880D01*
X131712201Y-104227879D01*
X131712203Y-104227879D01*
X131506269Y-104207597D01*
X131300336Y-104227879D01*
X131102312Y-104287949D01*
X131077653Y-104301130D01*
X130919819Y-104385495D01*
X130919817Y-104385496D01*
X130919816Y-104385497D01*
X130759858Y-104516769D01*
X130628586Y-104676727D01*
X130628584Y-104676730D01*
X130602783Y-104725000D01*
X130531038Y-104859223D01*
X130470968Y-105057247D01*
X130450686Y-105263180D01*
X128666618Y-105263180D01*
X128209885Y-104008337D01*
X138074391Y-104008337D01*
X138074391Y-104008338D01*
X138437500Y-104371446D01*
X138437501Y-104371446D01*
X138522493Y-104286454D01*
X143532977Y-104286454D01*
X143532977Y-104286461D01*
X143553172Y-104465707D01*
X143553173Y-104465712D01*
X143612753Y-104635981D01*
X143668686Y-104724997D01*
X143708726Y-104788720D01*
X143836280Y-104916274D01*
X143989020Y-105012247D01*
X144117620Y-105057246D01*
X144159287Y-105071826D01*
X144159292Y-105071827D01*
X144338538Y-105092023D01*
X144338542Y-105092023D01*
X144338546Y-105092023D01*
X144517791Y-105071827D01*
X144517794Y-105071826D01*
X144517797Y-105071826D01*
X144688064Y-105012247D01*
X144840804Y-104916274D01*
X144968358Y-104788720D01*
X145064331Y-104635980D01*
X145123910Y-104465713D01*
X145131463Y-104398678D01*
X145144107Y-104286461D01*
X145144107Y-104286454D01*
X145123911Y-104107208D01*
X145123910Y-104107203D01*
X145064331Y-103936936D01*
X145061194Y-103931944D01*
X144968357Y-103784195D01*
X144840804Y-103656642D01*
X144688065Y-103560669D01*
X144517796Y-103501089D01*
X144517791Y-103501088D01*
X144338546Y-103480893D01*
X144338538Y-103480893D01*
X144159292Y-103501088D01*
X144159287Y-103501089D01*
X143989018Y-103560669D01*
X143836279Y-103656642D01*
X143708726Y-103784195D01*
X143612753Y-103936934D01*
X143553173Y-104107203D01*
X143553172Y-104107208D01*
X143532977Y-104286454D01*
X138522493Y-104286454D01*
X138800607Y-104008338D01*
X138786800Y-103999662D01*
X138785885Y-103999222D01*
X138785395Y-103998779D01*
X138780906Y-103995959D01*
X138781399Y-103995172D01*
X138734023Y-103952402D01*
X138715708Y-103884976D01*
X138736753Y-103818351D01*
X138781331Y-103779722D01*
X138780905Y-103779043D01*
X138785312Y-103776273D01*
X138785884Y-103775778D01*
X138786809Y-103775332D01*
X138800606Y-103766661D01*
X138800606Y-103766660D01*
X138437501Y-103403553D01*
X138437500Y-103403553D01*
X138074392Y-103766660D01*
X138074392Y-103766661D01*
X138088190Y-103775332D01*
X138089108Y-103775774D01*
X138089599Y-103776217D01*
X138094094Y-103779042D01*
X138093599Y-103779828D01*
X138140972Y-103822591D01*
X138159291Y-103890016D01*
X138138250Y-103956642D01*
X138093667Y-103995284D01*
X138094092Y-103995960D01*
X138089714Y-103998710D01*
X138089138Y-103999210D01*
X138088200Y-103999661D01*
X138074391Y-104008337D01*
X128209885Y-104008337D01*
X127797872Y-102876361D01*
X129581955Y-102876361D01*
X129602237Y-103082293D01*
X129606236Y-103095476D01*
X129662306Y-103280315D01*
X129759853Y-103462811D01*
X129791266Y-103501088D01*
X129891127Y-103622771D01*
X129932400Y-103656642D01*
X130051088Y-103754046D01*
X130233584Y-103851593D01*
X130431604Y-103911661D01*
X130431603Y-103911661D01*
X130450067Y-103913479D01*
X130637538Y-103931944D01*
X130843472Y-103911661D01*
X131041492Y-103851593D01*
X131223988Y-103754046D01*
X131383948Y-103622771D01*
X131515223Y-103462811D01*
X131612770Y-103280315D01*
X131672838Y-103082295D01*
X131676019Y-103049997D01*
X137632438Y-103049997D01*
X137632438Y-103050002D01*
X137652621Y-103229138D01*
X137712165Y-103399304D01*
X137720838Y-103413107D01*
X138083946Y-103050000D01*
X138083946Y-103049999D01*
X138054110Y-103020163D01*
X138287500Y-103020163D01*
X138287500Y-103079837D01*
X138310336Y-103134968D01*
X138352532Y-103177164D01*
X138407663Y-103200000D01*
X138467337Y-103200000D01*
X138522468Y-103177164D01*
X138564664Y-103134968D01*
X138587500Y-103079837D01*
X138587500Y-103050000D01*
X138791053Y-103050000D01*
X139154160Y-103413106D01*
X139154161Y-103413106D01*
X139162834Y-103399306D01*
X139162834Y-103399305D01*
X139222377Y-103229141D01*
X139222378Y-103229138D01*
X139242562Y-103050002D01*
X139242562Y-103049997D01*
X139223408Y-102880001D01*
X148164352Y-102880001D01*
X148184833Y-103022457D01*
X148236216Y-103134968D01*
X148244622Y-103153374D01*
X148338871Y-103262144D01*
X148459946Y-103339954D01*
X148459949Y-103339955D01*
X148459948Y-103339955D01*
X148598035Y-103380500D01*
X148598037Y-103380501D01*
X148598038Y-103380501D01*
X148741961Y-103380501D01*
X148741961Y-103380500D01*
X148880052Y-103339954D01*
X149001127Y-103262144D01*
X149095376Y-103153374D01*
X149142680Y-103049794D01*
X154679783Y-103049794D01*
X154700264Y-103192250D01*
X154746503Y-103293498D01*
X154760053Y-103323167D01*
X154854302Y-103431937D01*
X154975377Y-103509747D01*
X154975380Y-103509748D01*
X154975379Y-103509748D01*
X155113466Y-103550293D01*
X155113468Y-103550294D01*
X155113469Y-103550294D01*
X155257392Y-103550294D01*
X155257392Y-103550293D01*
X155395483Y-103509747D01*
X155516558Y-103431937D01*
X155610807Y-103323167D01*
X155670595Y-103192251D01*
X155691077Y-103049794D01*
X155670595Y-102907337D01*
X155662468Y-102889542D01*
X162725610Y-102889542D01*
X162745892Y-103095474D01*
X162763455Y-103153372D01*
X162805961Y-103293496D01*
X162903508Y-103475992D01*
X162924105Y-103501090D01*
X163034782Y-103635952D01*
X163131402Y-103715244D01*
X163194743Y-103767227D01*
X163377239Y-103864774D01*
X163575259Y-103924842D01*
X163575258Y-103924842D01*
X163593722Y-103926660D01*
X163781193Y-103945125D01*
X163987127Y-103924842D01*
X164185147Y-103864774D01*
X164367643Y-103767227D01*
X164527603Y-103635952D01*
X164658878Y-103475992D01*
X164756425Y-103293496D01*
X164816493Y-103095476D01*
X164836776Y-102889542D01*
X164816493Y-102683608D01*
X164756425Y-102485588D01*
X164658878Y-102303092D01*
X164527603Y-102143132D01*
X164510555Y-102129141D01*
X164433841Y-102066183D01*
X164394507Y-102008438D01*
X164392636Y-101938593D01*
X164428823Y-101878825D01*
X164491579Y-101848109D01*
X164523314Y-101846802D01*
X164649925Y-101857880D01*
X164649927Y-101857880D01*
X164885240Y-101837292D01*
X164885251Y-101837290D01*
X165113408Y-101776156D01*
X165113417Y-101776152D01*
X165327503Y-101676323D01*
X165521007Y-101540828D01*
X165688034Y-101373802D01*
X165814807Y-101192750D01*
X164973290Y-100886463D01*
X165050024Y-100809730D01*
X165115850Y-100695716D01*
X165149925Y-100568549D01*
X165149925Y-100436897D01*
X165144511Y-100416693D01*
X165985817Y-100722903D01*
X166005082Y-100502723D01*
X166005082Y-100502721D01*
X165984494Y-100267407D01*
X165984492Y-100267396D01*
X165923358Y-100039239D01*
X165923354Y-100039230D01*
X165823525Y-99825145D01*
X165823524Y-99825143D01*
X165688038Y-99631649D01*
X165688033Y-99631643D01*
X165521003Y-99464613D01*
X165421761Y-99395122D01*
X165378136Y-99340545D01*
X165370944Y-99271047D01*
X165402467Y-99208692D01*
X165462697Y-99173279D01*
X165505042Y-99170146D01*
X165513438Y-99170973D01*
X165518654Y-99171487D01*
X165518655Y-99171487D01*
X165518655Y-99171486D01*
X165518656Y-99171487D01*
X165724590Y-99151204D01*
X165922610Y-99091136D01*
X166105106Y-98993589D01*
X166265066Y-98862314D01*
X166396341Y-98702354D01*
X166493888Y-98519858D01*
X166553956Y-98321838D01*
X166574239Y-98115904D01*
X166553956Y-97909970D01*
X166493888Y-97711950D01*
X166396341Y-97529454D01*
X166336997Y-97457143D01*
X166265066Y-97369493D01*
X166147333Y-97272873D01*
X166105106Y-97238219D01*
X165922610Y-97140672D01*
X165724590Y-97080604D01*
X165724588Y-97080603D01*
X165724590Y-97080603D01*
X165518656Y-97060321D01*
X165312723Y-97080603D01*
X165114699Y-97140673D01*
X165004554Y-97199547D01*
X164932206Y-97238219D01*
X164932204Y-97238220D01*
X164932203Y-97238221D01*
X164772245Y-97369493D01*
X164641680Y-97528590D01*
X164640971Y-97529454D01*
X164634021Y-97542457D01*
X164543425Y-97711947D01*
X164483355Y-97909971D01*
X164463073Y-98115904D01*
X164483355Y-98321836D01*
X164499712Y-98375758D01*
X164543424Y-98519858D01*
X164640971Y-98702354D01*
X164640973Y-98702356D01*
X164772245Y-98862314D01*
X164866006Y-98939260D01*
X164905341Y-98997006D01*
X164907212Y-99066850D01*
X164871025Y-99126619D01*
X164808270Y-99157335D01*
X164776535Y-99158642D01*
X164649927Y-99147566D01*
X164649923Y-99147566D01*
X164414609Y-99168153D01*
X164414598Y-99168155D01*
X164186441Y-99229289D01*
X164186432Y-99229293D01*
X163972347Y-99329122D01*
X163972345Y-99329123D01*
X163778851Y-99464609D01*
X163778845Y-99464614D01*
X163611815Y-99631644D01*
X163485041Y-99812695D01*
X164326558Y-100118983D01*
X164249826Y-100195716D01*
X164184000Y-100309730D01*
X164149925Y-100436897D01*
X164149925Y-100568549D01*
X164155338Y-100588751D01*
X163314030Y-100282541D01*
X163294768Y-100502720D01*
X163294768Y-100502724D01*
X163315355Y-100738038D01*
X163315357Y-100738049D01*
X163376491Y-100966206D01*
X163376495Y-100966215D01*
X163476324Y-101180301D01*
X163611819Y-101373805D01*
X163778846Y-101540832D01*
X163878088Y-101610323D01*
X163921713Y-101664900D01*
X163928905Y-101734398D01*
X163897383Y-101796753D01*
X163837152Y-101832166D01*
X163794811Y-101835300D01*
X163781194Y-101833959D01*
X163781193Y-101833959D01*
X163767578Y-101835300D01*
X163575260Y-101854241D01*
X163377236Y-101914311D01*
X163267091Y-101973185D01*
X163194743Y-102011857D01*
X163194741Y-102011858D01*
X163194740Y-102011859D01*
X163034782Y-102143131D01*
X162906615Y-102299306D01*
X162903508Y-102303092D01*
X162898155Y-102313107D01*
X162805962Y-102485585D01*
X162745892Y-102683609D01*
X162725610Y-102889542D01*
X155662468Y-102889542D01*
X155610807Y-102776421D01*
X155516558Y-102667651D01*
X155395483Y-102589841D01*
X155395481Y-102589840D01*
X155395479Y-102589839D01*
X155395480Y-102589839D01*
X155257393Y-102549294D01*
X155257391Y-102549294D01*
X155113469Y-102549294D01*
X155113466Y-102549294D01*
X154975379Y-102589839D01*
X154854303Y-102667650D01*
X154760053Y-102776420D01*
X154760052Y-102776422D01*
X154700264Y-102907337D01*
X154679783Y-103049794D01*
X149142680Y-103049794D01*
X149155164Y-103022458D01*
X149175646Y-102880001D01*
X149155164Y-102737544D01*
X149095376Y-102606628D01*
X149001127Y-102497858D01*
X148926658Y-102450000D01*
X153469353Y-102450000D01*
X153489834Y-102592456D01*
X153531463Y-102683608D01*
X153549623Y-102723373D01*
X153643872Y-102832143D01*
X153764947Y-102909953D01*
X153764950Y-102909954D01*
X153764949Y-102909954D01*
X153903036Y-102950499D01*
X153903038Y-102950500D01*
X153903039Y-102950500D01*
X154046962Y-102950500D01*
X154046962Y-102950499D01*
X154185053Y-102909953D01*
X154306128Y-102832143D01*
X154400377Y-102723373D01*
X154460165Y-102592457D01*
X154480647Y-102450000D01*
X154460165Y-102307543D01*
X154400377Y-102176627D01*
X154306128Y-102067857D01*
X154185053Y-101990047D01*
X154185051Y-101990046D01*
X154185049Y-101990045D01*
X154185050Y-101990045D01*
X154046963Y-101949500D01*
X154046961Y-101949500D01*
X153903039Y-101949500D01*
X153903036Y-101949500D01*
X153764949Y-101990045D01*
X153643873Y-102067856D01*
X153549623Y-102176626D01*
X153549622Y-102176628D01*
X153489834Y-102307543D01*
X153469353Y-102450000D01*
X148926658Y-102450000D01*
X148880052Y-102420048D01*
X148880050Y-102420047D01*
X148880048Y-102420046D01*
X148880049Y-102420046D01*
X148741962Y-102379501D01*
X148741960Y-102379501D01*
X148598038Y-102379501D01*
X148598035Y-102379501D01*
X148459948Y-102420046D01*
X148338872Y-102497857D01*
X148244622Y-102606627D01*
X148244621Y-102606629D01*
X148184833Y-102737544D01*
X148164352Y-102880001D01*
X139223408Y-102880001D01*
X139222378Y-102870861D01*
X139162833Y-102700692D01*
X139154161Y-102686892D01*
X139154160Y-102686892D01*
X138791053Y-103050000D01*
X138587500Y-103050000D01*
X138587500Y-103020163D01*
X138564664Y-102965032D01*
X138522468Y-102922836D01*
X138467337Y-102900000D01*
X138407663Y-102900000D01*
X138352532Y-102922836D01*
X138310336Y-102965032D01*
X138287500Y-103020163D01*
X138054110Y-103020163D01*
X137720838Y-102686891D01*
X137720837Y-102686891D01*
X137712167Y-102700691D01*
X137712162Y-102700701D01*
X137652622Y-102870858D01*
X137652621Y-102870861D01*
X137632438Y-103049997D01*
X131676019Y-103049997D01*
X131693121Y-102876361D01*
X131672838Y-102670427D01*
X131621140Y-102499999D01*
X138241053Y-102499999D01*
X138437500Y-102696446D01*
X138633946Y-102500001D01*
X138633946Y-102500000D01*
X138437500Y-102303553D01*
X138241053Y-102499999D01*
X131621140Y-102499999D01*
X131612770Y-102472407D01*
X131515223Y-102289911D01*
X131422253Y-102176626D01*
X131383948Y-102129950D01*
X131266215Y-102033330D01*
X131223988Y-101998676D01*
X131132917Y-101949997D01*
X137632438Y-101949997D01*
X137632438Y-101950002D01*
X137652621Y-102129138D01*
X137712165Y-102299304D01*
X137720838Y-102313107D01*
X138083946Y-101950000D01*
X138083946Y-101949999D01*
X138054110Y-101920163D01*
X138287500Y-101920163D01*
X138287500Y-101979837D01*
X138310336Y-102034968D01*
X138352532Y-102077164D01*
X138407663Y-102100000D01*
X138467337Y-102100000D01*
X138522468Y-102077164D01*
X138564664Y-102034968D01*
X138587500Y-101979837D01*
X138587500Y-101950000D01*
X138791053Y-101950000D01*
X139154160Y-102313106D01*
X139154161Y-102313106D01*
X139162834Y-102299306D01*
X139162834Y-102299305D01*
X139222377Y-102129141D01*
X139222378Y-102129138D01*
X139242562Y-101950002D01*
X139242562Y-101949997D01*
X139222378Y-101770861D01*
X139162833Y-101600692D01*
X139154161Y-101586892D01*
X139154160Y-101586892D01*
X138791053Y-101950000D01*
X138587500Y-101950000D01*
X138587500Y-101920163D01*
X138564664Y-101865032D01*
X138522468Y-101822836D01*
X138467337Y-101800000D01*
X138407663Y-101800000D01*
X138352532Y-101822836D01*
X138310336Y-101865032D01*
X138287500Y-101920163D01*
X138054110Y-101920163D01*
X137720838Y-101586891D01*
X137720837Y-101586891D01*
X137712167Y-101600691D01*
X137712162Y-101600701D01*
X137652622Y-101770858D01*
X137652621Y-101770861D01*
X137632438Y-101949997D01*
X131132917Y-101949997D01*
X131041492Y-101901129D01*
X130843472Y-101841061D01*
X130843470Y-101841060D01*
X130843472Y-101841060D01*
X130637538Y-101820778D01*
X130431605Y-101841060D01*
X130233581Y-101901130D01*
X130142150Y-101950002D01*
X130051088Y-101998676D01*
X130051086Y-101998677D01*
X130051085Y-101998678D01*
X129891127Y-102129950D01*
X129759855Y-102289908D01*
X129759853Y-102289911D01*
X129721181Y-102362259D01*
X129662307Y-102472404D01*
X129602237Y-102670428D01*
X129581955Y-102876361D01*
X127797872Y-102876361D01*
X126929125Y-100489542D01*
X128713223Y-100489542D01*
X128733505Y-100695474D01*
X128741826Y-100722903D01*
X128793574Y-100893496D01*
X128891121Y-101075992D01*
X128919333Y-101110369D01*
X129022395Y-101235952D01*
X129119015Y-101315244D01*
X129182356Y-101367227D01*
X129364852Y-101464774D01*
X129562872Y-101524842D01*
X129562871Y-101524842D01*
X129581335Y-101526660D01*
X129768806Y-101545125D01*
X129974740Y-101524842D01*
X130172760Y-101464774D01*
X130355256Y-101367227D01*
X130515216Y-101235952D01*
X130517362Y-101233337D01*
X138074391Y-101233337D01*
X138074391Y-101233338D01*
X138437500Y-101596446D01*
X138437501Y-101596446D01*
X138800607Y-101233338D01*
X138786804Y-101224665D01*
X138616638Y-101165121D01*
X138437503Y-101144938D01*
X138437497Y-101144938D01*
X138258361Y-101165121D01*
X138258358Y-101165122D01*
X138088201Y-101224662D01*
X138088191Y-101224667D01*
X138074391Y-101233337D01*
X130517362Y-101233337D01*
X130646491Y-101075992D01*
X130744038Y-100893496D01*
X130804106Y-100695476D01*
X130824389Y-100489542D01*
X130808182Y-100324996D01*
X134669435Y-100324996D01*
X134669435Y-100325003D01*
X134689630Y-100504249D01*
X134689631Y-100504254D01*
X134749211Y-100674523D01*
X134813045Y-100776113D01*
X134845184Y-100827262D01*
X134972738Y-100954816D01*
X135125478Y-101050789D01*
X135197510Y-101075994D01*
X135295745Y-101110368D01*
X135295750Y-101110369D01*
X135474996Y-101130565D01*
X135475000Y-101130565D01*
X135475004Y-101130565D01*
X135654249Y-101110369D01*
X135654252Y-101110368D01*
X135654255Y-101110368D01*
X135824522Y-101050789D01*
X135977262Y-100954816D01*
X136104816Y-100827262D01*
X136200789Y-100674522D01*
X136260368Y-100504255D01*
X136260539Y-100502740D01*
X151513121Y-100502740D01*
X151533602Y-100645196D01*
X151593390Y-100776111D01*
X151593391Y-100776113D01*
X151687640Y-100884883D01*
X151808715Y-100962693D01*
X151808718Y-100962694D01*
X151808717Y-100962694D01*
X151915875Y-100994157D01*
X151945046Y-101002723D01*
X151946804Y-101003239D01*
X151946806Y-101003240D01*
X151946807Y-101003240D01*
X152090730Y-101003240D01*
X152090730Y-101003239D01*
X152228821Y-100962693D01*
X152349896Y-100884883D01*
X152444145Y-100776113D01*
X152503933Y-100645197D01*
X152524415Y-100502740D01*
X152503933Y-100360283D01*
X152444145Y-100229367D01*
X152349896Y-100120597D01*
X152228821Y-100042787D01*
X152228819Y-100042786D01*
X152228817Y-100042785D01*
X152228818Y-100042785D01*
X152090731Y-100002240D01*
X152090729Y-100002240D01*
X151946807Y-100002240D01*
X151946804Y-100002240D01*
X151808717Y-100042785D01*
X151687641Y-100120596D01*
X151593391Y-100229366D01*
X151593390Y-100229368D01*
X151533602Y-100360283D01*
X151513121Y-100502740D01*
X136260539Y-100502740D01*
X136262026Y-100489542D01*
X136280565Y-100325003D01*
X136280565Y-100324996D01*
X136260369Y-100145750D01*
X136260368Y-100145745D01*
X136210153Y-100002240D01*
X136200789Y-99975478D01*
X136175325Y-99934953D01*
X136106551Y-99825500D01*
X136104816Y-99822738D01*
X135977262Y-99695184D01*
X135905353Y-99650000D01*
X140669353Y-99650000D01*
X140689834Y-99792456D01*
X140740361Y-99903092D01*
X140749623Y-99923373D01*
X140843872Y-100032143D01*
X140964947Y-100109953D01*
X140964950Y-100109954D01*
X140964949Y-100109954D01*
X141103036Y-100150499D01*
X141103038Y-100150500D01*
X141103039Y-100150500D01*
X141246962Y-100150500D01*
X141246962Y-100150499D01*
X141385053Y-100109953D01*
X141506128Y-100032143D01*
X141600377Y-99923373D01*
X141624071Y-99871490D01*
X141669823Y-99818688D01*
X141736863Y-99799003D01*
X141803902Y-99818687D01*
X141830575Y-99841798D01*
X141835941Y-99847991D01*
X141843872Y-99857143D01*
X141964947Y-99934953D01*
X141964950Y-99934954D01*
X141964949Y-99934954D01*
X142072107Y-99966417D01*
X142102957Y-99975476D01*
X142103036Y-99975499D01*
X142103038Y-99975500D01*
X142103039Y-99975500D01*
X142246962Y-99975500D01*
X142246962Y-99975499D01*
X142385053Y-99934953D01*
X142506128Y-99857143D01*
X142545927Y-99811211D01*
X142604704Y-99773437D01*
X142674574Y-99773437D01*
X142706678Y-99788097D01*
X142756682Y-99820233D01*
X142756685Y-99820234D01*
X142756684Y-99820234D01*
X142830126Y-99841798D01*
X142882387Y-99857143D01*
X142894771Y-99860779D01*
X142894773Y-99860780D01*
X142894774Y-99860780D01*
X143038697Y-99860780D01*
X143038697Y-99860779D01*
X143158850Y-99825500D01*
X143176785Y-99820234D01*
X143176785Y-99820233D01*
X143176788Y-99820233D01*
X143297863Y-99742423D01*
X143392112Y-99633653D01*
X143451900Y-99502737D01*
X143472382Y-99360280D01*
X143467310Y-99325000D01*
X148819353Y-99325000D01*
X148839834Y-99467456D01*
X148899622Y-99598371D01*
X148899623Y-99598373D01*
X148993872Y-99707143D01*
X149114947Y-99784953D01*
X149114950Y-99784954D01*
X149114949Y-99784954D01*
X149162797Y-99799003D01*
X149251823Y-99825143D01*
X149253036Y-99825499D01*
X149253038Y-99825500D01*
X149253039Y-99825500D01*
X149396962Y-99825500D01*
X149396962Y-99825499D01*
X149535053Y-99784953D01*
X149656128Y-99707143D01*
X149750377Y-99598373D01*
X149810165Y-99467457D01*
X149830647Y-99325000D01*
X149810165Y-99182543D01*
X149750377Y-99051627D01*
X149656128Y-98942857D01*
X149535053Y-98865047D01*
X149535051Y-98865046D01*
X149535049Y-98865045D01*
X149535050Y-98865045D01*
X149396963Y-98824500D01*
X149396961Y-98824500D01*
X149253039Y-98824500D01*
X149253036Y-98824500D01*
X149114949Y-98865045D01*
X148993873Y-98942856D01*
X148899623Y-99051626D01*
X148899622Y-99051628D01*
X148839834Y-99182543D01*
X148819353Y-99325000D01*
X143467310Y-99325000D01*
X143451900Y-99217823D01*
X143392112Y-99086907D01*
X143297863Y-98978137D01*
X143176788Y-98900327D01*
X143176786Y-98900326D01*
X143176784Y-98900325D01*
X143176785Y-98900325D01*
X143038698Y-98859780D01*
X143038696Y-98859780D01*
X142894774Y-98859780D01*
X142894771Y-98859780D01*
X142756684Y-98900325D01*
X142635607Y-98978136D01*
X142595806Y-99024069D01*
X142537027Y-99061843D01*
X142467158Y-99061842D01*
X142435055Y-99047181D01*
X142385050Y-99015045D01*
X142246963Y-98974500D01*
X142246961Y-98974500D01*
X142103039Y-98974500D01*
X142103036Y-98974500D01*
X141964949Y-99015045D01*
X141843873Y-99092856D01*
X141749623Y-99201626D01*
X141749621Y-99201628D01*
X141725929Y-99253508D01*
X141680174Y-99306312D01*
X141613134Y-99325996D01*
X141546095Y-99306311D01*
X141519424Y-99283201D01*
X141515278Y-99278417D01*
X141506128Y-99267857D01*
X141385053Y-99190047D01*
X141385051Y-99190046D01*
X141385049Y-99190045D01*
X141385050Y-99190045D01*
X141246963Y-99149500D01*
X141246961Y-99149500D01*
X141103039Y-99149500D01*
X141103036Y-99149500D01*
X140964949Y-99190045D01*
X140843873Y-99267856D01*
X140749623Y-99376626D01*
X140749622Y-99376628D01*
X140689834Y-99507543D01*
X140669353Y-99650000D01*
X135905353Y-99650000D01*
X135824523Y-99599211D01*
X135654254Y-99539631D01*
X135654249Y-99539630D01*
X135475004Y-99519435D01*
X135474996Y-99519435D01*
X135295750Y-99539630D01*
X135295745Y-99539631D01*
X135125476Y-99599211D01*
X134972737Y-99695184D01*
X134845184Y-99822737D01*
X134749211Y-99975476D01*
X134689631Y-100145745D01*
X134689630Y-100145750D01*
X134669435Y-100324996D01*
X130808182Y-100324996D01*
X130804106Y-100283608D01*
X130744038Y-100085588D01*
X130646491Y-99903092D01*
X130582813Y-99825500D01*
X130515216Y-99743131D01*
X130397483Y-99646511D01*
X130355256Y-99611857D01*
X130172760Y-99514310D01*
X129974740Y-99454242D01*
X129974738Y-99454241D01*
X129974740Y-99454241D01*
X129768806Y-99433959D01*
X129562873Y-99454241D01*
X129364849Y-99514311D01*
X129317480Y-99539631D01*
X129182356Y-99611857D01*
X129182354Y-99611858D01*
X129182353Y-99611859D01*
X129022395Y-99743131D01*
X128925845Y-99860780D01*
X128891121Y-99903092D01*
X128874091Y-99934953D01*
X128793575Y-100085585D01*
X128733505Y-100283609D01*
X128713223Y-100489542D01*
X126929125Y-100489542D01*
X126506759Y-99329123D01*
X126060378Y-98102723D01*
X127844492Y-98102723D01*
X127864774Y-98308655D01*
X127894809Y-98407667D01*
X127924843Y-98506677D01*
X128022390Y-98689173D01*
X128033209Y-98702356D01*
X128153664Y-98849133D01*
X128173056Y-98865047D01*
X128313625Y-98980408D01*
X128496121Y-99077955D01*
X128694141Y-99138023D01*
X128694140Y-99138023D01*
X128712604Y-99139841D01*
X128900075Y-99158306D01*
X129106009Y-99138023D01*
X129304029Y-99077955D01*
X129486525Y-98980408D01*
X129646485Y-98849133D01*
X129777760Y-98689173D01*
X129875307Y-98506677D01*
X129935375Y-98308657D01*
X129938690Y-98275000D01*
X130869417Y-98275000D01*
X130889699Y-98480932D01*
X130901009Y-98518215D01*
X130949768Y-98678954D01*
X131047315Y-98861450D01*
X131050267Y-98865047D01*
X131178589Y-99021410D01*
X131258399Y-99086907D01*
X131338550Y-99152685D01*
X131521046Y-99250232D01*
X131719066Y-99310300D01*
X131719065Y-99310300D01*
X131737529Y-99312118D01*
X131925000Y-99330583D01*
X132130934Y-99310300D01*
X132328954Y-99250232D01*
X132511450Y-99152685D01*
X132671410Y-99021410D01*
X132802685Y-98861450D01*
X132900232Y-98678954D01*
X132948991Y-98518215D01*
X144689346Y-98518215D01*
X144709827Y-98660671D01*
X144769615Y-98791586D01*
X144769616Y-98791588D01*
X144863865Y-98900358D01*
X144984940Y-98978168D01*
X144984943Y-98978169D01*
X144984942Y-98978169D01*
X145123029Y-99018714D01*
X145123031Y-99018715D01*
X145123032Y-99018715D01*
X145266955Y-99018715D01*
X145266955Y-99018714D01*
X145397417Y-98980408D01*
X145405043Y-98978169D01*
X145405043Y-98978168D01*
X145405046Y-98978168D01*
X145526121Y-98900358D01*
X145620370Y-98791588D01*
X145680158Y-98660672D01*
X145700640Y-98518215D01*
X145680158Y-98375758D01*
X145620370Y-98244842D01*
X145526121Y-98136072D01*
X145405046Y-98058262D01*
X145405044Y-98058261D01*
X145405042Y-98058260D01*
X145405043Y-98058260D01*
X145266956Y-98017715D01*
X145266954Y-98017715D01*
X145123032Y-98017715D01*
X145123029Y-98017715D01*
X144984942Y-98058260D01*
X144863866Y-98136071D01*
X144769616Y-98244841D01*
X144769615Y-98244843D01*
X144709827Y-98375758D01*
X144689346Y-98518215D01*
X132948991Y-98518215D01*
X132960300Y-98480934D01*
X132980583Y-98275000D01*
X132960300Y-98069066D01*
X132935532Y-97987415D01*
X150493998Y-97987415D01*
X150514479Y-98129871D01*
X150566986Y-98244843D01*
X150574268Y-98260788D01*
X150668517Y-98369558D01*
X150789592Y-98447368D01*
X150789595Y-98447369D01*
X150789594Y-98447369D01*
X150927681Y-98487914D01*
X150927683Y-98487915D01*
X150927684Y-98487915D01*
X151071607Y-98487915D01*
X151071607Y-98487914D01*
X151209698Y-98447368D01*
X151330773Y-98369558D01*
X151412707Y-98275000D01*
X161444417Y-98275000D01*
X161464699Y-98480932D01*
X161476009Y-98518215D01*
X161524768Y-98678954D01*
X161622315Y-98861450D01*
X161625267Y-98865047D01*
X161753589Y-99021410D01*
X161833399Y-99086907D01*
X161913550Y-99152685D01*
X162096046Y-99250232D01*
X162294066Y-99310300D01*
X162294065Y-99310300D01*
X162312529Y-99312118D01*
X162500000Y-99330583D01*
X162705934Y-99310300D01*
X162903954Y-99250232D01*
X163086450Y-99152685D01*
X163246410Y-99021410D01*
X163377685Y-98861450D01*
X163475232Y-98678954D01*
X163535300Y-98480934D01*
X163555583Y-98275000D01*
X163535300Y-98069066D01*
X163475232Y-97871046D01*
X163377685Y-97688550D01*
X163284907Y-97575499D01*
X163246410Y-97528589D01*
X163128677Y-97431969D01*
X163086450Y-97397315D01*
X162903954Y-97299768D01*
X162705934Y-97239700D01*
X162705932Y-97239699D01*
X162705934Y-97239699D01*
X162500000Y-97219417D01*
X162294067Y-97239699D01*
X162096043Y-97299769D01*
X161990259Y-97356313D01*
X161913550Y-97397315D01*
X161913548Y-97397316D01*
X161913547Y-97397317D01*
X161753589Y-97528589D01*
X161634770Y-97673373D01*
X161622315Y-97688550D01*
X161608690Y-97714041D01*
X161524769Y-97871043D01*
X161464699Y-98069067D01*
X161444417Y-98275000D01*
X151412707Y-98275000D01*
X151425022Y-98260788D01*
X151484810Y-98129872D01*
X151505292Y-97987415D01*
X151484810Y-97844958D01*
X151425022Y-97714042D01*
X151330773Y-97605272D01*
X151209698Y-97527462D01*
X151209696Y-97527461D01*
X151209694Y-97527460D01*
X151209695Y-97527460D01*
X151071608Y-97486915D01*
X151071606Y-97486915D01*
X150927684Y-97486915D01*
X150927681Y-97486915D01*
X150789594Y-97527460D01*
X150668518Y-97605271D01*
X150574268Y-97714041D01*
X150574267Y-97714043D01*
X150514479Y-97844958D01*
X150493998Y-97987415D01*
X132935532Y-97987415D01*
X132900232Y-97871046D01*
X132802685Y-97688550D01*
X132709907Y-97575499D01*
X132671410Y-97528589D01*
X132553677Y-97431969D01*
X132514722Y-97400000D01*
X139169353Y-97400000D01*
X139189834Y-97542456D01*
X139218522Y-97605272D01*
X139249623Y-97673373D01*
X139343872Y-97782143D01*
X139464947Y-97859953D01*
X139464950Y-97859954D01*
X139464949Y-97859954D01*
X139572107Y-97891417D01*
X139590400Y-97896789D01*
X139603036Y-97900499D01*
X139603038Y-97900500D01*
X139603039Y-97900500D01*
X139746962Y-97900500D01*
X139746962Y-97900499D01*
X139885053Y-97859953D01*
X140006128Y-97782143D01*
X140100377Y-97673373D01*
X140160165Y-97542457D01*
X140180647Y-97400000D01*
X140160165Y-97257543D01*
X140100377Y-97126627D01*
X140055642Y-97075000D01*
X140744353Y-97075000D01*
X140764834Y-97217456D01*
X140802426Y-97299769D01*
X140824623Y-97348373D01*
X140918872Y-97457143D01*
X141039947Y-97534953D01*
X141039950Y-97534954D01*
X141039949Y-97534954D01*
X141178036Y-97575499D01*
X141178038Y-97575500D01*
X141178039Y-97575500D01*
X141321962Y-97575500D01*
X141321962Y-97575499D01*
X141460053Y-97534953D01*
X141581128Y-97457143D01*
X141675377Y-97348373D01*
X141735165Y-97217457D01*
X141755647Y-97075000D01*
X141735165Y-96932543D01*
X141675377Y-96801627D01*
X141581128Y-96692857D01*
X141460053Y-96615047D01*
X141460051Y-96615046D01*
X141460049Y-96615045D01*
X141460050Y-96615045D01*
X141321963Y-96574500D01*
X141321961Y-96574500D01*
X141178039Y-96574500D01*
X141178036Y-96574500D01*
X141039949Y-96615045D01*
X140918873Y-96692856D01*
X140824623Y-96801626D01*
X140824622Y-96801628D01*
X140764834Y-96932543D01*
X140744353Y-97075000D01*
X140055642Y-97075000D01*
X140006128Y-97017857D01*
X139885053Y-96940047D01*
X139885051Y-96940046D01*
X139885049Y-96940045D01*
X139885050Y-96940045D01*
X139746963Y-96899500D01*
X139746961Y-96899500D01*
X139603039Y-96899500D01*
X139603036Y-96899500D01*
X139464949Y-96940045D01*
X139343873Y-97017856D01*
X139249623Y-97126626D01*
X139249622Y-97126628D01*
X139189834Y-97257543D01*
X139169353Y-97400000D01*
X132514722Y-97400000D01*
X132511450Y-97397315D01*
X132328954Y-97299768D01*
X132130934Y-97239700D01*
X132130932Y-97239699D01*
X132130934Y-97239699D01*
X131925000Y-97219417D01*
X131719067Y-97239699D01*
X131521043Y-97299769D01*
X131415259Y-97356313D01*
X131338550Y-97397315D01*
X131338548Y-97397316D01*
X131338547Y-97397317D01*
X131178589Y-97528589D01*
X131059770Y-97673373D01*
X131047315Y-97688550D01*
X131033690Y-97714041D01*
X130949769Y-97871043D01*
X130889699Y-98069067D01*
X130869417Y-98275000D01*
X129938690Y-98275000D01*
X129955658Y-98102723D01*
X129935375Y-97896789D01*
X129875307Y-97698769D01*
X129777760Y-97516273D01*
X129680136Y-97397317D01*
X129646485Y-97356312D01*
X129504391Y-97239700D01*
X129486525Y-97225038D01*
X129304029Y-97127491D01*
X129106009Y-97067423D01*
X129106007Y-97067422D01*
X129106009Y-97067422D01*
X128900075Y-97047140D01*
X128694142Y-97067422D01*
X128518767Y-97120621D01*
X128498970Y-97126627D01*
X128496118Y-97127492D01*
X128471459Y-97140673D01*
X128313625Y-97225038D01*
X128313623Y-97225039D01*
X128313622Y-97225040D01*
X128153664Y-97356312D01*
X128046483Y-97486915D01*
X128022390Y-97516273D01*
X128012405Y-97534954D01*
X127924844Y-97698766D01*
X127864774Y-97896790D01*
X127844492Y-98102723D01*
X126060378Y-98102723D01*
X125191631Y-95715903D01*
X126975761Y-95715903D01*
X126996043Y-95921835D01*
X127020176Y-96001390D01*
X127056112Y-96119857D01*
X127153659Y-96302353D01*
X127164478Y-96315536D01*
X127284933Y-96462313D01*
X127332106Y-96501026D01*
X127444894Y-96593588D01*
X127627390Y-96691135D01*
X127825410Y-96751203D01*
X127825409Y-96751203D01*
X127843873Y-96753021D01*
X128031344Y-96771486D01*
X128237278Y-96751203D01*
X128435298Y-96691135D01*
X128617794Y-96593588D01*
X128777754Y-96462313D01*
X128909029Y-96302353D01*
X129006576Y-96119857D01*
X129066644Y-95921837D01*
X129069959Y-95888181D01*
X130000686Y-95888181D01*
X130020968Y-96094113D01*
X130051003Y-96193125D01*
X130081037Y-96292135D01*
X130178584Y-96474631D01*
X130200246Y-96501026D01*
X130309858Y-96634591D01*
X130394817Y-96704314D01*
X130469819Y-96765866D01*
X130652315Y-96863413D01*
X130850335Y-96923481D01*
X130850334Y-96923481D01*
X130868798Y-96925299D01*
X131056269Y-96943764D01*
X131262203Y-96923481D01*
X131460223Y-96863413D01*
X131642719Y-96765866D01*
X131802679Y-96634591D01*
X131933954Y-96474631D01*
X131995990Y-96358570D01*
X144874474Y-96358570D01*
X144894955Y-96501026D01*
X144943246Y-96606766D01*
X144954744Y-96631943D01*
X145048993Y-96740713D01*
X145170068Y-96818523D01*
X145170071Y-96818524D01*
X145170070Y-96818524D01*
X145308157Y-96859069D01*
X145308159Y-96859070D01*
X145308160Y-96859070D01*
X145452083Y-96859070D01*
X145452083Y-96859069D01*
X145590174Y-96818523D01*
X145711249Y-96740713D01*
X145805498Y-96631943D01*
X145865286Y-96501027D01*
X145885768Y-96358570D01*
X145865286Y-96216113D01*
X145805498Y-96085197D01*
X145711249Y-95976427D01*
X145590174Y-95898617D01*
X145590172Y-95898616D01*
X145590170Y-95898615D01*
X145590171Y-95898615D01*
X145452084Y-95858070D01*
X145452082Y-95858070D01*
X145308160Y-95858070D01*
X145308157Y-95858070D01*
X145170070Y-95898615D01*
X145048994Y-95976426D01*
X144954744Y-96085196D01*
X144954743Y-96085198D01*
X144894955Y-96216113D01*
X144874474Y-96358570D01*
X131995990Y-96358570D01*
X132031501Y-96292135D01*
X132091569Y-96094115D01*
X132111852Y-95888181D01*
X132091569Y-95682247D01*
X132031501Y-95484227D01*
X131933954Y-95301731D01*
X131823759Y-95167457D01*
X131802679Y-95141770D01*
X131660392Y-95025000D01*
X138644353Y-95025000D01*
X138664834Y-95167456D01*
X138724622Y-95298371D01*
X138724623Y-95298373D01*
X138818872Y-95407143D01*
X138939947Y-95484953D01*
X138939950Y-95484954D01*
X138939949Y-95484954D01*
X139078036Y-95525499D01*
X139078038Y-95525500D01*
X139078039Y-95525500D01*
X139221962Y-95525500D01*
X139221962Y-95525499D01*
X139305775Y-95500890D01*
X148087692Y-95500890D01*
X148108173Y-95643346D01*
X148147329Y-95729084D01*
X148167962Y-95774263D01*
X148262211Y-95883033D01*
X148383286Y-95960843D01*
X148383289Y-95960844D01*
X148383288Y-95960844D01*
X148521375Y-96001389D01*
X148521377Y-96001390D01*
X148521378Y-96001390D01*
X148665301Y-96001390D01*
X148665301Y-96001389D01*
X148803392Y-95960843D01*
X148924467Y-95883033D01*
X149018716Y-95774263D01*
X149078504Y-95643347D01*
X149096263Y-95519827D01*
X151964353Y-95519827D01*
X151984834Y-95662283D01*
X151993952Y-95682248D01*
X152044623Y-95793200D01*
X152138872Y-95901970D01*
X152259947Y-95979780D01*
X152259950Y-95979781D01*
X152259949Y-95979781D01*
X152398036Y-96020326D01*
X152398038Y-96020327D01*
X152398039Y-96020327D01*
X152541962Y-96020327D01*
X152541962Y-96020326D01*
X152680053Y-95979780D01*
X152801128Y-95901970D01*
X152813076Y-95888181D01*
X162313148Y-95888181D01*
X162333430Y-96094113D01*
X162363465Y-96193125D01*
X162393499Y-96292135D01*
X162491046Y-96474631D01*
X162512708Y-96501026D01*
X162622320Y-96634591D01*
X162707279Y-96704314D01*
X162782281Y-96765866D01*
X162964777Y-96863413D01*
X163162797Y-96923481D01*
X163162796Y-96923481D01*
X163181260Y-96925299D01*
X163368731Y-96943764D01*
X163574665Y-96923481D01*
X163772685Y-96863413D01*
X163955181Y-96765866D01*
X164115141Y-96634591D01*
X164246416Y-96474631D01*
X164343963Y-96292135D01*
X164404031Y-96094115D01*
X164424314Y-95888181D01*
X164408644Y-95729084D01*
X165331804Y-95729084D01*
X165352086Y-95935016D01*
X165372220Y-96001389D01*
X165412155Y-96133038D01*
X165509702Y-96315534D01*
X165509704Y-96315536D01*
X165640976Y-96475494D01*
X165672089Y-96501027D01*
X165800937Y-96606769D01*
X165983433Y-96704316D01*
X166181453Y-96764384D01*
X166181452Y-96764384D01*
X166196469Y-96765863D01*
X166387387Y-96784667D01*
X166593321Y-96764384D01*
X166791341Y-96704316D01*
X166973837Y-96606769D01*
X167133797Y-96475494D01*
X167265072Y-96315534D01*
X167362619Y-96133038D01*
X167422687Y-95935018D01*
X167442970Y-95729084D01*
X167422687Y-95523150D01*
X167362619Y-95325130D01*
X167265072Y-95142634D01*
X167197153Y-95059874D01*
X167133797Y-94982673D01*
X167011786Y-94882543D01*
X166973837Y-94851399D01*
X166791341Y-94753852D01*
X166593321Y-94693784D01*
X166593319Y-94693783D01*
X166593321Y-94693783D01*
X166387387Y-94673501D01*
X166181454Y-94693783D01*
X165983430Y-94753853D01*
X165873285Y-94812727D01*
X165800937Y-94851399D01*
X165800935Y-94851400D01*
X165800934Y-94851401D01*
X165640976Y-94982673D01*
X165520519Y-95129453D01*
X165509702Y-95142634D01*
X165496434Y-95167457D01*
X165412156Y-95325127D01*
X165352086Y-95523151D01*
X165331804Y-95729084D01*
X164408644Y-95729084D01*
X164404031Y-95682247D01*
X164343963Y-95484227D01*
X164246416Y-95301731D01*
X164136221Y-95167457D01*
X164115141Y-95141770D01*
X163972854Y-95025000D01*
X163955181Y-95010496D01*
X163772685Y-94912949D01*
X163574665Y-94852881D01*
X163574663Y-94852880D01*
X163574665Y-94852880D01*
X163368731Y-94832598D01*
X163162798Y-94852880D01*
X162964774Y-94912950D01*
X162854629Y-94971824D01*
X162782281Y-95010496D01*
X162782279Y-95010497D01*
X162782278Y-95010498D01*
X162622320Y-95141770D01*
X162491048Y-95301728D01*
X162491046Y-95301731D01*
X162478539Y-95325130D01*
X162393500Y-95484224D01*
X162393499Y-95484226D01*
X162393499Y-95484227D01*
X162388444Y-95500890D01*
X162333430Y-95682248D01*
X162313148Y-95888181D01*
X152813076Y-95888181D01*
X152895377Y-95793200D01*
X152955165Y-95662284D01*
X152975647Y-95519827D01*
X152955165Y-95377370D01*
X152895377Y-95246454D01*
X152801128Y-95137684D01*
X152680053Y-95059874D01*
X152680051Y-95059873D01*
X152680049Y-95059872D01*
X152680050Y-95059872D01*
X152541963Y-95019327D01*
X152541961Y-95019327D01*
X152398039Y-95019327D01*
X152398036Y-95019327D01*
X152259949Y-95059872D01*
X152138873Y-95137683D01*
X152138872Y-95137683D01*
X152138872Y-95137684D01*
X152134583Y-95142634D01*
X152044623Y-95246453D01*
X152044622Y-95246455D01*
X151984834Y-95377370D01*
X151964353Y-95519827D01*
X149096263Y-95519827D01*
X149098986Y-95500890D01*
X149078504Y-95358433D01*
X149018716Y-95227517D01*
X148924467Y-95118747D01*
X148803392Y-95040937D01*
X148803390Y-95040936D01*
X148803388Y-95040935D01*
X148803389Y-95040935D01*
X148665302Y-95000390D01*
X148665300Y-95000390D01*
X148521378Y-95000390D01*
X148521375Y-95000390D01*
X148383288Y-95040935D01*
X148262212Y-95118746D01*
X148167962Y-95227516D01*
X148167961Y-95227518D01*
X148108173Y-95358433D01*
X148087692Y-95500890D01*
X139305775Y-95500890D01*
X139360053Y-95484953D01*
X139481128Y-95407143D01*
X139575377Y-95298373D01*
X139635165Y-95167457D01*
X139655647Y-95025000D01*
X139635165Y-94882543D01*
X139575377Y-94751627D01*
X139481128Y-94642857D01*
X139360053Y-94565047D01*
X139360051Y-94565046D01*
X139360049Y-94565045D01*
X139360050Y-94565045D01*
X139221963Y-94524500D01*
X139221961Y-94524500D01*
X139078039Y-94524500D01*
X139078036Y-94524500D01*
X138939949Y-94565045D01*
X138818873Y-94642856D01*
X138724623Y-94751626D01*
X138724622Y-94751628D01*
X138664834Y-94882543D01*
X138644353Y-95025000D01*
X131660392Y-95025000D01*
X131642719Y-95010496D01*
X131460223Y-94912949D01*
X131262203Y-94852881D01*
X131262201Y-94852880D01*
X131262203Y-94852880D01*
X131056269Y-94832598D01*
X130850336Y-94852880D01*
X130652312Y-94912950D01*
X130542167Y-94971824D01*
X130469819Y-95010496D01*
X130469817Y-95010497D01*
X130469816Y-95010498D01*
X130309858Y-95141770D01*
X130178586Y-95301728D01*
X130178584Y-95301731D01*
X130166077Y-95325130D01*
X130081038Y-95484224D01*
X130081037Y-95484226D01*
X130081037Y-95484227D01*
X130075982Y-95500890D01*
X130020968Y-95682248D01*
X130000686Y-95888181D01*
X129069959Y-95888181D01*
X129086927Y-95715903D01*
X129066644Y-95509969D01*
X129006576Y-95311949D01*
X128909029Y-95129453D01*
X128823307Y-95025000D01*
X128777754Y-94969492D01*
X128635660Y-94852880D01*
X128617794Y-94838218D01*
X128435298Y-94740671D01*
X128237278Y-94680603D01*
X128237276Y-94680602D01*
X128237278Y-94680602D01*
X128031344Y-94660320D01*
X127825411Y-94680602D01*
X127627387Y-94740672D01*
X127602728Y-94753853D01*
X127444894Y-94838218D01*
X127444892Y-94838219D01*
X127444891Y-94838220D01*
X127284933Y-94969492D01*
X127162445Y-95118747D01*
X127153659Y-95129453D01*
X127147075Y-95141771D01*
X127056113Y-95311946D01*
X126996043Y-95509970D01*
X126975761Y-95715903D01*
X125191631Y-95715903D01*
X124322884Y-93329084D01*
X126107030Y-93329084D01*
X126127312Y-93535016D01*
X126157347Y-93634028D01*
X126187381Y-93733038D01*
X126284928Y-93915534D01*
X126295747Y-93928717D01*
X126416202Y-94075494D01*
X126512822Y-94154786D01*
X126576163Y-94206769D01*
X126758659Y-94304316D01*
X126956679Y-94364384D01*
X126956678Y-94364384D01*
X126975142Y-94366202D01*
X127162613Y-94384667D01*
X127368547Y-94364384D01*
X127566567Y-94304316D01*
X127749063Y-94206769D01*
X127909023Y-94075494D01*
X128040298Y-93915534D01*
X128137845Y-93733038D01*
X128197913Y-93535018D01*
X128201228Y-93501361D01*
X129131955Y-93501361D01*
X129152237Y-93707293D01*
X129175038Y-93782457D01*
X129212306Y-93905315D01*
X129309853Y-94087811D01*
X129344507Y-94130038D01*
X129441127Y-94247771D01*
X129526087Y-94317495D01*
X129601088Y-94379046D01*
X129783584Y-94476593D01*
X129981604Y-94536661D01*
X129981603Y-94536661D01*
X130000067Y-94538479D01*
X130187538Y-94556944D01*
X130393472Y-94536661D01*
X130591492Y-94476593D01*
X130773988Y-94379046D01*
X130933948Y-94247771D01*
X131065223Y-94087811D01*
X131162770Y-93905315D01*
X131222838Y-93707295D01*
X131243121Y-93501361D01*
X131222838Y-93295427D01*
X131162770Y-93097407D01*
X131065223Y-92914911D01*
X130961568Y-92788606D01*
X130933948Y-92754950D01*
X130801373Y-92646150D01*
X140980703Y-92646150D01*
X141001184Y-92788606D01*
X141058865Y-92914908D01*
X141060973Y-92919523D01*
X141155222Y-93028293D01*
X141206388Y-93061175D01*
X141252143Y-93113979D01*
X141262087Y-93183138D01*
X141233062Y-93246693D01*
X141206390Y-93269805D01*
X141176376Y-93289094D01*
X141176374Y-93289096D01*
X141082123Y-93397867D01*
X141082122Y-93397869D01*
X141022334Y-93528784D01*
X141001853Y-93671241D01*
X141022334Y-93813697D01*
X141068842Y-93915534D01*
X141082123Y-93944614D01*
X141176372Y-94053384D01*
X141297447Y-94131194D01*
X141297450Y-94131195D01*
X141297449Y-94131195D01*
X141435536Y-94171740D01*
X141435538Y-94171741D01*
X141435539Y-94171741D01*
X141579462Y-94171741D01*
X141579462Y-94171740D01*
X141717553Y-94131194D01*
X141838628Y-94053384D01*
X141932877Y-93944614D01*
X141992665Y-93813698D01*
X142013147Y-93671241D01*
X142008655Y-93640000D01*
X151364353Y-93640000D01*
X151384834Y-93782456D01*
X151399102Y-93813697D01*
X151444623Y-93913373D01*
X151538872Y-94022143D01*
X151659947Y-94099953D01*
X151659950Y-94099954D01*
X151659949Y-94099954D01*
X151798036Y-94140499D01*
X151798038Y-94140500D01*
X151798039Y-94140500D01*
X151941962Y-94140500D01*
X151941962Y-94140499D01*
X152080053Y-94099953D01*
X152201128Y-94022143D01*
X152295377Y-93913373D01*
X152355165Y-93782457D01*
X152375647Y-93640000D01*
X157996990Y-93640000D01*
X158017471Y-93782456D01*
X158031739Y-93813697D01*
X158077260Y-93913373D01*
X158171509Y-94022143D01*
X158292584Y-94099953D01*
X158292587Y-94099954D01*
X158292586Y-94099954D01*
X158430673Y-94140499D01*
X158430675Y-94140500D01*
X158430676Y-94140500D01*
X158574599Y-94140500D01*
X158574599Y-94140499D01*
X158712690Y-94099953D01*
X158788301Y-94051361D01*
X161034353Y-94051361D01*
X161054834Y-94193817D01*
X161105297Y-94304314D01*
X161114623Y-94324734D01*
X161208872Y-94433504D01*
X161329947Y-94511314D01*
X161329950Y-94511315D01*
X161329949Y-94511315D01*
X161468036Y-94551860D01*
X161468038Y-94551861D01*
X161468039Y-94551861D01*
X161611962Y-94551861D01*
X161611962Y-94551860D01*
X161750053Y-94511314D01*
X161871128Y-94433504D01*
X161965377Y-94324734D01*
X162025165Y-94193818D01*
X162045647Y-94051361D01*
X162025165Y-93908904D01*
X161965377Y-93777988D01*
X161871128Y-93669218D01*
X161750053Y-93591408D01*
X161750051Y-93591407D01*
X161750049Y-93591406D01*
X161750050Y-93591406D01*
X161611963Y-93550861D01*
X161611961Y-93550861D01*
X161468039Y-93550861D01*
X161468036Y-93550861D01*
X161329949Y-93591406D01*
X161208873Y-93669217D01*
X161114623Y-93777987D01*
X161114622Y-93777989D01*
X161054834Y-93908904D01*
X161034353Y-94051361D01*
X158788301Y-94051361D01*
X158833765Y-94022143D01*
X158928014Y-93913373D01*
X158987802Y-93782457D01*
X159008284Y-93640000D01*
X158988351Y-93501361D01*
X163181880Y-93501361D01*
X163202162Y-93707293D01*
X163224963Y-93782457D01*
X163262231Y-93905315D01*
X163359778Y-94087811D01*
X163394432Y-94130038D01*
X163491052Y-94247771D01*
X163576012Y-94317495D01*
X163651013Y-94379046D01*
X163833509Y-94476593D01*
X164031529Y-94536661D01*
X164031528Y-94536661D01*
X164049992Y-94538479D01*
X164237463Y-94556944D01*
X164443397Y-94536661D01*
X164641417Y-94476593D01*
X164823913Y-94379046D01*
X164983873Y-94247771D01*
X165115148Y-94087811D01*
X165212695Y-93905315D01*
X165272763Y-93707295D01*
X165293046Y-93501361D01*
X165277376Y-93342265D01*
X166200535Y-93342265D01*
X166220817Y-93548197D01*
X166233925Y-93591408D01*
X166280886Y-93746219D01*
X166378433Y-93928715D01*
X166378435Y-93928717D01*
X166509707Y-94088675D01*
X166561519Y-94131195D01*
X166669668Y-94219950D01*
X166852164Y-94317497D01*
X167050184Y-94377565D01*
X167050183Y-94377565D01*
X167068647Y-94379383D01*
X167256118Y-94397848D01*
X167462052Y-94377565D01*
X167660072Y-94317497D01*
X167842568Y-94219950D01*
X168002528Y-94088675D01*
X168133803Y-93928715D01*
X168231350Y-93746219D01*
X168291418Y-93548199D01*
X168311701Y-93342265D01*
X168291418Y-93136331D01*
X168231350Y-92938311D01*
X168133803Y-92755815D01*
X168025362Y-92623678D01*
X168002528Y-92595854D01*
X167874328Y-92490645D01*
X167842568Y-92464580D01*
X167660072Y-92367033D01*
X167462052Y-92306965D01*
X167462050Y-92306964D01*
X167462052Y-92306964D01*
X167256118Y-92286682D01*
X167050185Y-92306964D01*
X166852161Y-92367034D01*
X166742016Y-92425908D01*
X166669668Y-92464580D01*
X166669666Y-92464581D01*
X166669665Y-92464582D01*
X166509707Y-92595854D01*
X166378435Y-92755812D01*
X166280887Y-92938308D01*
X166220817Y-93136332D01*
X166200535Y-93342265D01*
X165277376Y-93342265D01*
X165272763Y-93295427D01*
X165212695Y-93097407D01*
X165115148Y-92914911D01*
X165011493Y-92788606D01*
X164983873Y-92754950D01*
X164890112Y-92678004D01*
X164850777Y-92620258D01*
X164848906Y-92550414D01*
X164885093Y-92490645D01*
X164947849Y-92459929D01*
X164979584Y-92458622D01*
X165106192Y-92469699D01*
X165106195Y-92469699D01*
X165341508Y-92449111D01*
X165341519Y-92449109D01*
X165569676Y-92387975D01*
X165569685Y-92387971D01*
X165783771Y-92288142D01*
X165977275Y-92152647D01*
X166144302Y-91985621D01*
X166271075Y-91804569D01*
X165429558Y-91498282D01*
X165506292Y-91421549D01*
X165572118Y-91307535D01*
X165606193Y-91180368D01*
X165606193Y-91048716D01*
X165600779Y-91028512D01*
X166442085Y-91334722D01*
X166461350Y-91114542D01*
X166461350Y-91114540D01*
X166440762Y-90879226D01*
X166440760Y-90879215D01*
X166379626Y-90651058D01*
X166379622Y-90651049D01*
X166279793Y-90436964D01*
X166279792Y-90436962D01*
X166149478Y-90250854D01*
X166127151Y-90184648D01*
X166144161Y-90116881D01*
X166195109Y-90069068D01*
X166218960Y-90059956D01*
X166438407Y-90001156D01*
X166438416Y-90001152D01*
X166652502Y-89901323D01*
X166846006Y-89765828D01*
X167013033Y-89598802D01*
X167139806Y-89417750D01*
X166298290Y-89111462D01*
X166375023Y-89034730D01*
X166440849Y-88920716D01*
X166474924Y-88793549D01*
X166474924Y-88661897D01*
X166469510Y-88641693D01*
X167310816Y-88947903D01*
X167330081Y-88727723D01*
X167330081Y-88727721D01*
X167309493Y-88492407D01*
X167309491Y-88492396D01*
X167248357Y-88264239D01*
X167248353Y-88264230D01*
X167148524Y-88050145D01*
X167148523Y-88050143D01*
X167018209Y-87864035D01*
X166995882Y-87797829D01*
X167012892Y-87730062D01*
X167063840Y-87682249D01*
X167087691Y-87673137D01*
X167307138Y-87614337D01*
X167307147Y-87614333D01*
X167521233Y-87514504D01*
X167714737Y-87379009D01*
X167881764Y-87211983D01*
X168008537Y-87030931D01*
X167167021Y-86724643D01*
X167243754Y-86647911D01*
X167309580Y-86533897D01*
X167343655Y-86406730D01*
X167343655Y-86275078D01*
X167338241Y-86254874D01*
X168179547Y-86561084D01*
X168198812Y-86340904D01*
X168198812Y-86340902D01*
X168178224Y-86105588D01*
X168178222Y-86105577D01*
X168117088Y-85877420D01*
X168117084Y-85877411D01*
X168017255Y-85663326D01*
X168017254Y-85663324D01*
X167881768Y-85469830D01*
X167881763Y-85469824D01*
X167714733Y-85302794D01*
X167615489Y-85233302D01*
X167571864Y-85178725D01*
X167564672Y-85109227D01*
X167596194Y-85046872D01*
X167656425Y-85011459D01*
X167698765Y-85008325D01*
X167712387Y-85009667D01*
X167918321Y-84989384D01*
X168116341Y-84929316D01*
X168298837Y-84831769D01*
X168458797Y-84700494D01*
X168590072Y-84540534D01*
X168687619Y-84358038D01*
X168747687Y-84160018D01*
X168767970Y-83954084D01*
X168747687Y-83748150D01*
X168687619Y-83550130D01*
X168590072Y-83367634D01*
X168538089Y-83304293D01*
X168458797Y-83207673D01*
X168298839Y-83076401D01*
X168298840Y-83076401D01*
X168298837Y-83076399D01*
X168116341Y-82978852D01*
X167918321Y-82918784D01*
X167918319Y-82918783D01*
X167918321Y-82918783D01*
X167712387Y-82898501D01*
X167506454Y-82918783D01*
X167308430Y-82978853D01*
X167198285Y-83037727D01*
X167125937Y-83076399D01*
X167125935Y-83076400D01*
X167125934Y-83076401D01*
X166965976Y-83207673D01*
X166834704Y-83367631D01*
X166737156Y-83550127D01*
X166677086Y-83748151D01*
X166656804Y-83954084D01*
X166677086Y-84160016D01*
X166677087Y-84160018D01*
X166737143Y-84357999D01*
X166737156Y-84358040D01*
X166743889Y-84370638D01*
X166834702Y-84540534D01*
X166834704Y-84540536D01*
X166965977Y-84700494D01*
X167059739Y-84777443D01*
X167099073Y-84835188D01*
X167100944Y-84905033D01*
X167064757Y-84964801D01*
X167002001Y-84995517D01*
X166970267Y-84996824D01*
X166843657Y-84985747D01*
X166843653Y-84985747D01*
X166608339Y-85006334D01*
X166608328Y-85006336D01*
X166380171Y-85067470D01*
X166380162Y-85067474D01*
X166166077Y-85167303D01*
X166166075Y-85167304D01*
X165972581Y-85302790D01*
X165972575Y-85302795D01*
X165805545Y-85469825D01*
X165678771Y-85650876D01*
X166520288Y-85957164D01*
X166443556Y-86033897D01*
X166377730Y-86147911D01*
X166343655Y-86275078D01*
X166343655Y-86406730D01*
X166349068Y-86426933D01*
X165507760Y-86120722D01*
X165488498Y-86340901D01*
X165488498Y-86340905D01*
X165509085Y-86576219D01*
X165509087Y-86576230D01*
X165570221Y-86804387D01*
X165570225Y-86804396D01*
X165670054Y-87018482D01*
X165800370Y-87204590D01*
X165822697Y-87270796D01*
X165805687Y-87338564D01*
X165754739Y-87386377D01*
X165730888Y-87395489D01*
X165511440Y-87454289D01*
X165511431Y-87454293D01*
X165297346Y-87554122D01*
X165297344Y-87554123D01*
X165103850Y-87689609D01*
X165103844Y-87689614D01*
X164936814Y-87856644D01*
X164810040Y-88037695D01*
X165651558Y-88343982D01*
X165574825Y-88420716D01*
X165508999Y-88534730D01*
X165474924Y-88661897D01*
X165474924Y-88793549D01*
X165480337Y-88813752D01*
X164639029Y-88507541D01*
X164619767Y-88727720D01*
X164619767Y-88727724D01*
X164640354Y-88963038D01*
X164640356Y-88963049D01*
X164701490Y-89191206D01*
X164701494Y-89191215D01*
X164801323Y-89405301D01*
X164931639Y-89591409D01*
X164953966Y-89657615D01*
X164936956Y-89725383D01*
X164886008Y-89773196D01*
X164862157Y-89782308D01*
X164642709Y-89841108D01*
X164642700Y-89841112D01*
X164428615Y-89940941D01*
X164428613Y-89940942D01*
X164235119Y-90076428D01*
X164235113Y-90076433D01*
X164068083Y-90243463D01*
X163941309Y-90424514D01*
X164782827Y-90730801D01*
X164706094Y-90807535D01*
X164640268Y-90921549D01*
X164606193Y-91048716D01*
X164606193Y-91180368D01*
X164611606Y-91200570D01*
X163770298Y-90894360D01*
X163751036Y-91114539D01*
X163751036Y-91114543D01*
X163771623Y-91349857D01*
X163771625Y-91349868D01*
X163832759Y-91578025D01*
X163832763Y-91578034D01*
X163932592Y-91792120D01*
X164068087Y-91985624D01*
X164235114Y-92152651D01*
X164334356Y-92222142D01*
X164377981Y-92276719D01*
X164385173Y-92346217D01*
X164353651Y-92408572D01*
X164293420Y-92443985D01*
X164251078Y-92447119D01*
X164237463Y-92445778D01*
X164031530Y-92466060D01*
X163833506Y-92526130D01*
X163727722Y-92582674D01*
X163651013Y-92623676D01*
X163651011Y-92623677D01*
X163651010Y-92623678D01*
X163491052Y-92754950D01*
X163359780Y-92914908D01*
X163359778Y-92914911D01*
X163321106Y-92987259D01*
X163262232Y-93097404D01*
X163202162Y-93295428D01*
X163181880Y-93501361D01*
X158988351Y-93501361D01*
X158987802Y-93497543D01*
X158928014Y-93366627D01*
X158833765Y-93257857D01*
X158712690Y-93180047D01*
X158712688Y-93180046D01*
X158712686Y-93180045D01*
X158712687Y-93180045D01*
X158574600Y-93139500D01*
X158574598Y-93139500D01*
X158430676Y-93139500D01*
X158430673Y-93139500D01*
X158292586Y-93180045D01*
X158171510Y-93257856D01*
X158077260Y-93366626D01*
X158077259Y-93366628D01*
X158017471Y-93497543D01*
X157996990Y-93640000D01*
X152375647Y-93640000D01*
X152355165Y-93497543D01*
X152295377Y-93366627D01*
X152201128Y-93257857D01*
X152080053Y-93180047D01*
X152080051Y-93180046D01*
X152080049Y-93180045D01*
X152080050Y-93180045D01*
X151941963Y-93139500D01*
X151941961Y-93139500D01*
X151798039Y-93139500D01*
X151798036Y-93139500D01*
X151659949Y-93180045D01*
X151538873Y-93257856D01*
X151444623Y-93366626D01*
X151444622Y-93366628D01*
X151384834Y-93497543D01*
X151364353Y-93640000D01*
X142008655Y-93640000D01*
X141992665Y-93528784D01*
X141932877Y-93397868D01*
X141838628Y-93289098D01*
X141838625Y-93289096D01*
X141838626Y-93289096D01*
X141787460Y-93256214D01*
X141741706Y-93203410D01*
X141731762Y-93134252D01*
X141760787Y-93070696D01*
X141787462Y-93047583D01*
X141817475Y-93028295D01*
X141817475Y-93028294D01*
X141817478Y-93028293D01*
X141911727Y-92919523D01*
X141971515Y-92788607D01*
X141991997Y-92646150D01*
X141971515Y-92503693D01*
X141911727Y-92372777D01*
X141817478Y-92264007D01*
X141696403Y-92186197D01*
X141696401Y-92186196D01*
X141696399Y-92186195D01*
X141696400Y-92186195D01*
X141558313Y-92145650D01*
X141558311Y-92145650D01*
X141414389Y-92145650D01*
X141414386Y-92145650D01*
X141276299Y-92186195D01*
X141155223Y-92264006D01*
X141155222Y-92264006D01*
X141155222Y-92264007D01*
X141144207Y-92276719D01*
X141060973Y-92372776D01*
X141060972Y-92372778D01*
X141001184Y-92503693D01*
X140980703Y-92646150D01*
X130801373Y-92646150D01*
X130773990Y-92623678D01*
X130773991Y-92623678D01*
X130773988Y-92623676D01*
X130591492Y-92526129D01*
X130393472Y-92466061D01*
X130393470Y-92466060D01*
X130393472Y-92466060D01*
X130187538Y-92445778D01*
X129981605Y-92466060D01*
X129783581Y-92526130D01*
X129677797Y-92582674D01*
X129601088Y-92623676D01*
X129601086Y-92623677D01*
X129601085Y-92623678D01*
X129441127Y-92754950D01*
X129309855Y-92914908D01*
X129309853Y-92914911D01*
X129271181Y-92987259D01*
X129212307Y-93097404D01*
X129152237Y-93295428D01*
X129131955Y-93501361D01*
X128201228Y-93501361D01*
X128218196Y-93329084D01*
X128197913Y-93123150D01*
X128137845Y-92925130D01*
X128040298Y-92742634D01*
X127942674Y-92623678D01*
X127909023Y-92582673D01*
X127766929Y-92466061D01*
X127749063Y-92451399D01*
X127566567Y-92353852D01*
X127368547Y-92293784D01*
X127368545Y-92293783D01*
X127368547Y-92293783D01*
X127162613Y-92273501D01*
X126956680Y-92293783D01*
X126781305Y-92346982D01*
X126769713Y-92350499D01*
X126758656Y-92353853D01*
X126656286Y-92408572D01*
X126576163Y-92451399D01*
X126576161Y-92451400D01*
X126576160Y-92451401D01*
X126416202Y-92582673D01*
X126295979Y-92729168D01*
X126284928Y-92742634D01*
X126277884Y-92755812D01*
X126187382Y-92925127D01*
X126127312Y-93123151D01*
X126107030Y-93329084D01*
X124322884Y-93329084D01*
X124028279Y-92519679D01*
X124023773Y-92507299D01*
X123679476Y-91561367D01*
X123679473Y-91561352D01*
X123675768Y-91551173D01*
X123675768Y-91551172D01*
X123658096Y-91502625D01*
X123655617Y-91495813D01*
X123651597Y-91482482D01*
X123622855Y-91363272D01*
X123619410Y-91335655D01*
X123618071Y-91220075D01*
X123620876Y-91192379D01*
X123623479Y-91180368D01*
X123637744Y-91114542D01*
X128263224Y-91114542D01*
X128283506Y-91320474D01*
X128292477Y-91350047D01*
X128343575Y-91518496D01*
X128441122Y-91700992D01*
X128457609Y-91721081D01*
X128572396Y-91860952D01*
X128669016Y-91940244D01*
X128732357Y-91992227D01*
X128914853Y-92089774D01*
X129112873Y-92149842D01*
X129112872Y-92149842D01*
X129131336Y-92151660D01*
X129318807Y-92170125D01*
X129524741Y-92149842D01*
X129722761Y-92089774D01*
X129905257Y-91992227D01*
X130065217Y-91860952D01*
X130074205Y-91850000D01*
X144419353Y-91850000D01*
X144439834Y-91992456D01*
X144499622Y-92123371D01*
X144499623Y-92123373D01*
X144593872Y-92232143D01*
X144714947Y-92309953D01*
X144714950Y-92309954D01*
X144714949Y-92309954D01*
X144853036Y-92350499D01*
X144853038Y-92350500D01*
X144853039Y-92350500D01*
X144996962Y-92350500D01*
X144996962Y-92350499D01*
X145133190Y-92310500D01*
X145135050Y-92309954D01*
X145135050Y-92309953D01*
X145135053Y-92309953D01*
X145256128Y-92232143D01*
X145350377Y-92123373D01*
X145410165Y-91992457D01*
X145430647Y-91850000D01*
X145410165Y-91707543D01*
X145350377Y-91576627D01*
X145301310Y-91520000D01*
X151364353Y-91520000D01*
X151384834Y-91662456D01*
X151433797Y-91769668D01*
X151444623Y-91793373D01*
X151538872Y-91902143D01*
X151659947Y-91979953D01*
X151659950Y-91979954D01*
X151659949Y-91979954D01*
X151798036Y-92020499D01*
X151798038Y-92020500D01*
X151798039Y-92020500D01*
X151941962Y-92020500D01*
X151941962Y-92020499D01*
X152080053Y-91979953D01*
X152201128Y-91902143D01*
X152280970Y-91810000D01*
X158364353Y-91810000D01*
X158384834Y-91952456D01*
X158420506Y-92030565D01*
X158444623Y-92083373D01*
X158538872Y-92192143D01*
X158659947Y-92269953D01*
X158659950Y-92269954D01*
X158659949Y-92269954D01*
X158741105Y-92293783D01*
X158796179Y-92309954D01*
X158798036Y-92310499D01*
X158798038Y-92310500D01*
X158798039Y-92310500D01*
X158941962Y-92310500D01*
X158941962Y-92310499D01*
X159057010Y-92276719D01*
X159080050Y-92269954D01*
X159080050Y-92269953D01*
X159080053Y-92269953D01*
X159201128Y-92192143D01*
X159295377Y-92083373D01*
X159355165Y-91952457D01*
X159375647Y-91810000D01*
X159355165Y-91667543D01*
X159295377Y-91536627D01*
X159201128Y-91427857D01*
X159080053Y-91350047D01*
X159080051Y-91350046D01*
X159080049Y-91350045D01*
X159080050Y-91350045D01*
X158941963Y-91309500D01*
X158941961Y-91309500D01*
X158798039Y-91309500D01*
X158798036Y-91309500D01*
X158659949Y-91350045D01*
X158538873Y-91427856D01*
X158444623Y-91536626D01*
X158444622Y-91536628D01*
X158384834Y-91667543D01*
X158364353Y-91810000D01*
X152280970Y-91810000D01*
X152295377Y-91793373D01*
X152355165Y-91662457D01*
X152375647Y-91520000D01*
X152355165Y-91377543D01*
X152295377Y-91246627D01*
X152276634Y-91224996D01*
X159944435Y-91224996D01*
X159944435Y-91225003D01*
X159964630Y-91404249D01*
X159964631Y-91404254D01*
X160024211Y-91574523D01*
X160079464Y-91662457D01*
X160120184Y-91727262D01*
X160247738Y-91854816D01*
X160400478Y-91950789D01*
X160570745Y-92010368D01*
X160570750Y-92010369D01*
X160749996Y-92030565D01*
X160750000Y-92030565D01*
X160750004Y-92030565D01*
X160929249Y-92010369D01*
X160929252Y-92010368D01*
X160929255Y-92010368D01*
X161099522Y-91950789D01*
X161252262Y-91854816D01*
X161379816Y-91727262D01*
X161475789Y-91574522D01*
X161535368Y-91404255D01*
X161538378Y-91377543D01*
X161555565Y-91225003D01*
X161555565Y-91224996D01*
X161535369Y-91045750D01*
X161535368Y-91045745D01*
X161501304Y-90948397D01*
X161475789Y-90875478D01*
X161379816Y-90722738D01*
X161252262Y-90595184D01*
X161234577Y-90584072D01*
X161099523Y-90499211D01*
X160929254Y-90439631D01*
X160929249Y-90439630D01*
X160750004Y-90419435D01*
X160749996Y-90419435D01*
X160570750Y-90439630D01*
X160570745Y-90439631D01*
X160400476Y-90499211D01*
X160247737Y-90595184D01*
X160120184Y-90722737D01*
X160024211Y-90875476D01*
X159964631Y-91045745D01*
X159964630Y-91045750D01*
X159944435Y-91224996D01*
X152276634Y-91224996D01*
X152201128Y-91137857D01*
X152080053Y-91060047D01*
X152080051Y-91060046D01*
X152080049Y-91060045D01*
X152080050Y-91060045D01*
X151941963Y-91019500D01*
X151941961Y-91019500D01*
X151798039Y-91019500D01*
X151798036Y-91019500D01*
X151659949Y-91060045D01*
X151538873Y-91137856D01*
X151444623Y-91246626D01*
X151444622Y-91246628D01*
X151384834Y-91377543D01*
X151364353Y-91520000D01*
X145301310Y-91520000D01*
X145256128Y-91467857D01*
X145135053Y-91390047D01*
X145135051Y-91390046D01*
X145135049Y-91390045D01*
X145135050Y-91390045D01*
X144996963Y-91349500D01*
X144996961Y-91349500D01*
X144853039Y-91349500D01*
X144853036Y-91349500D01*
X144714949Y-91390045D01*
X144593873Y-91467856D01*
X144499623Y-91576626D01*
X144499622Y-91576628D01*
X144439834Y-91707543D01*
X144419353Y-91850000D01*
X130074205Y-91850000D01*
X130196492Y-91700992D01*
X130294039Y-91518496D01*
X130354107Y-91320476D01*
X130374390Y-91114542D01*
X130354107Y-90908608D01*
X130294039Y-90710588D01*
X130196492Y-90528092D01*
X130144509Y-90464751D01*
X130125523Y-90441616D01*
X145951994Y-90441616D01*
X145972475Y-90584072D01*
X146003063Y-90651049D01*
X146032264Y-90714989D01*
X146126513Y-90823759D01*
X146247588Y-90901569D01*
X146247591Y-90901570D01*
X146247590Y-90901570D01*
X146385677Y-90942115D01*
X146385679Y-90942116D01*
X146385680Y-90942116D01*
X146529603Y-90942116D01*
X146529603Y-90942115D01*
X146667694Y-90901569D01*
X146788769Y-90823759D01*
X146883018Y-90714989D01*
X146942806Y-90584073D01*
X146963288Y-90441616D01*
X146942806Y-90299159D01*
X146924922Y-90260000D01*
X152254353Y-90260000D01*
X152274834Y-90402456D01*
X152332210Y-90528089D01*
X152334623Y-90533373D01*
X152428872Y-90642143D01*
X152549947Y-90719953D01*
X152549950Y-90719954D01*
X152549949Y-90719954D01*
X152688036Y-90760499D01*
X152688038Y-90760500D01*
X152688039Y-90760500D01*
X152831962Y-90760500D01*
X152831962Y-90760499D01*
X152960568Y-90722738D01*
X152970050Y-90719954D01*
X152970050Y-90719953D01*
X152970053Y-90719953D01*
X153091128Y-90642143D01*
X153185377Y-90533373D01*
X153245165Y-90402457D01*
X153265647Y-90260000D01*
X153245165Y-90117543D01*
X153185377Y-89986627D01*
X153091128Y-89877857D01*
X152970053Y-89800047D01*
X152970051Y-89800046D01*
X152970049Y-89800045D01*
X152970050Y-89800045D01*
X152831963Y-89759500D01*
X152831961Y-89759500D01*
X152688039Y-89759500D01*
X152688036Y-89759500D01*
X152549949Y-89800045D01*
X152428873Y-89877856D01*
X152334623Y-89986626D01*
X152334622Y-89986628D01*
X152274834Y-90117543D01*
X152254353Y-90260000D01*
X146924922Y-90260000D01*
X146883018Y-90168243D01*
X146788769Y-90059473D01*
X146667694Y-89981663D01*
X146667692Y-89981662D01*
X146667690Y-89981661D01*
X146667691Y-89981661D01*
X146529604Y-89941116D01*
X146529602Y-89941116D01*
X146385680Y-89941116D01*
X146385677Y-89941116D01*
X146247590Y-89981661D01*
X146126514Y-90059472D01*
X146126513Y-90059472D01*
X146126513Y-90059473D01*
X146118199Y-90069068D01*
X146032264Y-90168242D01*
X146032263Y-90168244D01*
X145972475Y-90299159D01*
X145951994Y-90441616D01*
X130125523Y-90441616D01*
X130065217Y-90368131D01*
X129913306Y-90243463D01*
X129905257Y-90236857D01*
X129722761Y-90139310D01*
X129524741Y-90079242D01*
X129524739Y-90079241D01*
X129524741Y-90079241D01*
X129318807Y-90058959D01*
X129112874Y-90079241D01*
X128914850Y-90139311D01*
X128838578Y-90180080D01*
X128732357Y-90236857D01*
X128732355Y-90236858D01*
X128732354Y-90236859D01*
X128572396Y-90368131D01*
X128441124Y-90528089D01*
X128441122Y-90528092D01*
X128417494Y-90572296D01*
X128343576Y-90710585D01*
X128283506Y-90908609D01*
X128263224Y-91114542D01*
X123637744Y-91114542D01*
X123645355Y-91079420D01*
X123654269Y-91053048D01*
X123703335Y-90948397D01*
X123717903Y-90924682D01*
X123789084Y-90833612D01*
X123808579Y-90813745D01*
X123832739Y-90794113D01*
X123898281Y-90740853D01*
X123921718Y-90725835D01*
X124031725Y-90671693D01*
X124044530Y-90666262D01*
X124100002Y-90646337D01*
X124100002Y-90646336D01*
X124105055Y-90644522D01*
X124109318Y-90642655D01*
X124852607Y-90372114D01*
X124857933Y-90370176D01*
X124857932Y-90370175D01*
X124921845Y-90346919D01*
X124921867Y-90346904D01*
X124928020Y-90344664D01*
X124928166Y-90344599D01*
X124951148Y-90336237D01*
X125124681Y-90240059D01*
X125281031Y-90117918D01*
X125416349Y-89972822D01*
X125527303Y-89808343D01*
X125611159Y-89628533D01*
X125665854Y-89437817D01*
X125690041Y-89240894D01*
X125683123Y-89042611D01*
X125645272Y-88847852D01*
X125636623Y-88824087D01*
X125636612Y-88824050D01*
X125633877Y-88816536D01*
X125633877Y-88816534D01*
X125611255Y-88754382D01*
X125601553Y-88727723D01*
X127394492Y-88727723D01*
X127414774Y-88933655D01*
X127423691Y-88963049D01*
X127474843Y-89131677D01*
X127572390Y-89314173D01*
X127586029Y-89330792D01*
X127703664Y-89474133D01*
X127788844Y-89544037D01*
X127863625Y-89605408D01*
X128046121Y-89702955D01*
X128244141Y-89763023D01*
X128244140Y-89763023D01*
X128262604Y-89764841D01*
X128450075Y-89783306D01*
X128656009Y-89763023D01*
X128854029Y-89702955D01*
X129036525Y-89605408D01*
X129196485Y-89474133D01*
X129327760Y-89314173D01*
X129425307Y-89131677D01*
X129442500Y-89074999D01*
X143274999Y-89074999D01*
X143375000Y-89425000D01*
X143541652Y-89544037D01*
X143557259Y-89557259D01*
X144225000Y-90225000D01*
X144750000Y-89725000D01*
X144749999Y-89724999D01*
X144750000Y-89724999D01*
X143875000Y-88850000D01*
X143863164Y-88847848D01*
X143600000Y-88800000D01*
X143599999Y-88800000D01*
X143274999Y-89074999D01*
X129442500Y-89074999D01*
X129485375Y-88933657D01*
X129505658Y-88727723D01*
X129485375Y-88521789D01*
X129425307Y-88323769D01*
X129327760Y-88141273D01*
X129252972Y-88050143D01*
X129196485Y-87981312D01*
X129036527Y-87850040D01*
X129036528Y-87850040D01*
X129036525Y-87850038D01*
X128854029Y-87752491D01*
X128656009Y-87692423D01*
X128656007Y-87692422D01*
X128656009Y-87692422D01*
X128450075Y-87672140D01*
X128244142Y-87692422D01*
X128046118Y-87752492D01*
X127961300Y-87797829D01*
X127863625Y-87850038D01*
X127863623Y-87850039D01*
X127863622Y-87850040D01*
X127703664Y-87981312D01*
X127572392Y-88141270D01*
X127474844Y-88323766D01*
X127414774Y-88521790D01*
X127394492Y-88727723D01*
X125601553Y-88727723D01*
X125588811Y-88692713D01*
X125588808Y-88692709D01*
X125585935Y-88684814D01*
X125585925Y-88684790D01*
X124732801Y-86340904D01*
X126525761Y-86340904D01*
X126546043Y-86546836D01*
X126554960Y-86576230D01*
X126606112Y-86744858D01*
X126703659Y-86927354D01*
X126703661Y-86927356D01*
X126834933Y-87087314D01*
X126931553Y-87166606D01*
X126994894Y-87218589D01*
X127177390Y-87316136D01*
X127375410Y-87376204D01*
X127375409Y-87376204D01*
X127393873Y-87378022D01*
X127581344Y-87396487D01*
X127787278Y-87376204D01*
X127985298Y-87316136D01*
X128155800Y-87225000D01*
X145725000Y-87225000D01*
X146175000Y-87650000D01*
X146575000Y-87275000D01*
X146600000Y-86650000D01*
X146580555Y-86474996D01*
X147194435Y-86474996D01*
X147194435Y-86475003D01*
X147214630Y-86654249D01*
X147214631Y-86654254D01*
X147274211Y-86824523D01*
X147338826Y-86927356D01*
X147370184Y-86977262D01*
X147497738Y-87104816D01*
X147650478Y-87200789D01*
X147820745Y-87260368D01*
X147820750Y-87260369D01*
X147999996Y-87280565D01*
X148000000Y-87280565D01*
X148000004Y-87280565D01*
X148179249Y-87260369D01*
X148179252Y-87260368D01*
X148179255Y-87260368D01*
X148349522Y-87200789D01*
X148502262Y-87104816D01*
X148629816Y-86977262D01*
X148725789Y-86824522D01*
X148785368Y-86654255D01*
X148785369Y-86654249D01*
X148805565Y-86475003D01*
X148805565Y-86474996D01*
X148785369Y-86295750D01*
X148785368Y-86295745D01*
X148751865Y-86199999D01*
X148725789Y-86125478D01*
X148713284Y-86105577D01*
X148659812Y-86020476D01*
X148629816Y-85972738D01*
X148502262Y-85845184D01*
X148495450Y-85840904D01*
X148349523Y-85749211D01*
X148179254Y-85689631D01*
X148179249Y-85689630D01*
X148000004Y-85669435D01*
X147999996Y-85669435D01*
X147820750Y-85689630D01*
X147820745Y-85689631D01*
X147650476Y-85749211D01*
X147497737Y-85845184D01*
X147370184Y-85972737D01*
X147274211Y-86125476D01*
X147214631Y-86295745D01*
X147214630Y-86295750D01*
X147194435Y-86474996D01*
X146580555Y-86474996D01*
X146550000Y-86200000D01*
X146350000Y-86050000D01*
X146050000Y-86050000D01*
X145825000Y-86224999D01*
X145734444Y-87130565D01*
X145725000Y-87225000D01*
X128155800Y-87225000D01*
X128167794Y-87218589D01*
X128327754Y-87087314D01*
X128459029Y-86927354D01*
X128556576Y-86744858D01*
X128616644Y-86546838D01*
X128636927Y-86340904D01*
X128635360Y-86324996D01*
X141519435Y-86324996D01*
X141519435Y-86325003D01*
X141539630Y-86504249D01*
X141539631Y-86504254D01*
X141599211Y-86674523D01*
X141643406Y-86744858D01*
X141695184Y-86827262D01*
X141822738Y-86954816D01*
X141975478Y-87050789D01*
X142129878Y-87104816D01*
X142145745Y-87110368D01*
X142145750Y-87110369D01*
X142324996Y-87130565D01*
X142325000Y-87130565D01*
X142325004Y-87130565D01*
X142504249Y-87110369D01*
X142504252Y-87110368D01*
X142504255Y-87110368D01*
X142674522Y-87050789D01*
X142827262Y-86954816D01*
X142954816Y-86827262D01*
X143050789Y-86674522D01*
X143110368Y-86504255D01*
X143113664Y-86475003D01*
X143130565Y-86325003D01*
X143130565Y-86324996D01*
X143110369Y-86145750D01*
X143110368Y-86145745D01*
X143076865Y-86050000D01*
X143050789Y-85975478D01*
X143049067Y-85972738D01*
X142987641Y-85874979D01*
X142954816Y-85822738D01*
X142827262Y-85695184D01*
X142818426Y-85689632D01*
X142674523Y-85599211D01*
X142504254Y-85539631D01*
X142504249Y-85539630D01*
X142325004Y-85519435D01*
X142324996Y-85519435D01*
X142145750Y-85539630D01*
X142145745Y-85539631D01*
X141975476Y-85599211D01*
X141822737Y-85695184D01*
X141695184Y-85822737D01*
X141599211Y-85975476D01*
X141539631Y-86145745D01*
X141539630Y-86145750D01*
X141519435Y-86324996D01*
X128635360Y-86324996D01*
X128616644Y-86134970D01*
X128556576Y-85936950D01*
X128459029Y-85754454D01*
X128384241Y-85663324D01*
X128327754Y-85594493D01*
X128210021Y-85497873D01*
X128167794Y-85463219D01*
X127985298Y-85365672D01*
X127787278Y-85305604D01*
X127787276Y-85305603D01*
X127787278Y-85305603D01*
X127581344Y-85285321D01*
X127375411Y-85305603D01*
X127177387Y-85365673D01*
X127067242Y-85424547D01*
X126994894Y-85463219D01*
X126994892Y-85463220D01*
X126994891Y-85463221D01*
X126834933Y-85594493D01*
X126703661Y-85754451D01*
X126606113Y-85936947D01*
X126546043Y-86134971D01*
X126525761Y-86340904D01*
X124732801Y-86340904D01*
X124011593Y-84359444D01*
X124010596Y-84356597D01*
X123875086Y-83954084D01*
X125657030Y-83954084D01*
X125677312Y-84160016D01*
X125677313Y-84160018D01*
X125737369Y-84357999D01*
X125737382Y-84358040D01*
X125744115Y-84370638D01*
X125834928Y-84540534D01*
X125834930Y-84540536D01*
X125966202Y-84700494D01*
X126059966Y-84777443D01*
X126126163Y-84831769D01*
X126308659Y-84929316D01*
X126506679Y-84989384D01*
X126506678Y-84989384D01*
X126525142Y-84991202D01*
X126712613Y-85009667D01*
X126918547Y-84989384D01*
X127116567Y-84929316D01*
X127299063Y-84831769D01*
X127459023Y-84700494D01*
X127590298Y-84540534D01*
X127687845Y-84358038D01*
X127747913Y-84160018D01*
X127768196Y-83954084D01*
X127747913Y-83748150D01*
X127687845Y-83550130D01*
X127590298Y-83367634D01*
X127538315Y-83304293D01*
X127459023Y-83207673D01*
X127299065Y-83076401D01*
X127299066Y-83076401D01*
X127299063Y-83076399D01*
X127116567Y-82978852D01*
X126918547Y-82918784D01*
X126918545Y-82918783D01*
X126918547Y-82918783D01*
X126712613Y-82898501D01*
X126506680Y-82918783D01*
X126308656Y-82978853D01*
X126198511Y-83037727D01*
X126126163Y-83076399D01*
X126126161Y-83076400D01*
X126126160Y-83076401D01*
X125966202Y-83207673D01*
X125834930Y-83367631D01*
X125737382Y-83550127D01*
X125677312Y-83748151D01*
X125657030Y-83954084D01*
X123875086Y-83954084D01*
X123833986Y-83832003D01*
X123832201Y-83826241D01*
X123753971Y-83550127D01*
X123681725Y-83295132D01*
X123680238Y-83289350D01*
X123555768Y-82751538D01*
X123554554Y-82745644D01*
X123532363Y-82622847D01*
X123456392Y-82202443D01*
X123455466Y-82196489D01*
X123449869Y-82153717D01*
X123383839Y-81649159D01*
X123383204Y-81643173D01*
X123377006Y-81567265D01*
X124788299Y-81567265D01*
X124808581Y-81773197D01*
X124808582Y-81773199D01*
X124868650Y-81971219D01*
X124966197Y-82153715D01*
X124966199Y-82153717D01*
X125097471Y-82313675D01*
X125194091Y-82392967D01*
X125257432Y-82444950D01*
X125439928Y-82542497D01*
X125637948Y-82602565D01*
X125637947Y-82602565D01*
X125656411Y-82604383D01*
X125843882Y-82622848D01*
X126049816Y-82602565D01*
X126247836Y-82542497D01*
X126430332Y-82444950D01*
X126590292Y-82313675D01*
X126721567Y-82153715D01*
X126819114Y-81971219D01*
X126879182Y-81773199D01*
X126899465Y-81567265D01*
X167525535Y-81567265D01*
X167545817Y-81773197D01*
X167545818Y-81773199D01*
X167605886Y-81971219D01*
X167703433Y-82153715D01*
X167703435Y-82153717D01*
X167834707Y-82313675D01*
X167931327Y-82392967D01*
X167994668Y-82444950D01*
X168177164Y-82542497D01*
X168375184Y-82602565D01*
X168375183Y-82602565D01*
X168393647Y-82604383D01*
X168581118Y-82622848D01*
X168787052Y-82602565D01*
X168985072Y-82542497D01*
X169167568Y-82444950D01*
X169327528Y-82313675D01*
X169458803Y-82153715D01*
X169556350Y-81971219D01*
X169616418Y-81773199D01*
X169636701Y-81567265D01*
X169616418Y-81361331D01*
X169556350Y-81163311D01*
X169458803Y-80980815D01*
X169406820Y-80917474D01*
X169327528Y-80820854D01*
X169167570Y-80689582D01*
X169167571Y-80689582D01*
X169167568Y-80689580D01*
X168985072Y-80592033D01*
X168787052Y-80531965D01*
X168787050Y-80531964D01*
X168787052Y-80531964D01*
X168581118Y-80511682D01*
X168375185Y-80531964D01*
X168177161Y-80592034D01*
X168067016Y-80650908D01*
X167994668Y-80689580D01*
X167994666Y-80689581D01*
X167994665Y-80689582D01*
X167834707Y-80820854D01*
X167703435Y-80980812D01*
X167605887Y-81163308D01*
X167545817Y-81361332D01*
X167525535Y-81567265D01*
X126899465Y-81567265D01*
X126879182Y-81361331D01*
X126819114Y-81163311D01*
X126721567Y-80980815D01*
X126669584Y-80917474D01*
X126590292Y-80820854D01*
X126430334Y-80689582D01*
X126430335Y-80689582D01*
X126430332Y-80689580D01*
X126247836Y-80592033D01*
X126049816Y-80531965D01*
X126049814Y-80531964D01*
X126049816Y-80531964D01*
X125843882Y-80511682D01*
X125637949Y-80531964D01*
X125439925Y-80592034D01*
X125329780Y-80650908D01*
X125257432Y-80689580D01*
X125257430Y-80689581D01*
X125257429Y-80689582D01*
X125097471Y-80820854D01*
X124966199Y-80980812D01*
X124868651Y-81163308D01*
X124808581Y-81361332D01*
X124788299Y-81567265D01*
X123377006Y-81567265D01*
X123338279Y-81092980D01*
X123337938Y-81087014D01*
X123319824Y-80535270D01*
X123319774Y-80529307D01*
X123328530Y-79976420D01*
X123328611Y-79973535D01*
X123331225Y-79908506D01*
X123331224Y-79908503D01*
X123331516Y-79901247D01*
X123331479Y-79899801D01*
X123333882Y-79838045D01*
X123385920Y-78500369D01*
X123386662Y-78490819D01*
X123410031Y-78290537D01*
X123413707Y-78271763D01*
X123466334Y-78082092D01*
X123472858Y-78064106D01*
X123496127Y-78012711D01*
X123554046Y-77884792D01*
X123563251Y-77868038D01*
X123671068Y-77703352D01*
X123682748Y-77688206D01*
X123814617Y-77542084D01*
X123828490Y-77528913D01*
X123981284Y-77404815D01*
X123997014Y-77393941D01*
X124167082Y-77294837D01*
X124184300Y-77286511D01*
X124367597Y-77214757D01*
X124385881Y-77209184D01*
X124578042Y-77166491D01*
X124596975Y-77163797D01*
X124793396Y-77151185D01*
X124812530Y-77151435D01*
X125008555Y-77169200D01*
X125027417Y-77172392D01*
X125218385Y-77220114D01*
X125236528Y-77226171D01*
X125417862Y-77302706D01*
X125434861Y-77311483D01*
X125585777Y-77404820D01*
X125602260Y-77415014D01*
X125617712Y-77426307D01*
X125770904Y-77557551D01*
X125777924Y-77564052D01*
X125780808Y-77566937D01*
X125780821Y-77566949D01*
X127123050Y-78909882D01*
X127123193Y-78910146D01*
X127123254Y-78910087D01*
X127237027Y-79024454D01*
X127486931Y-79235198D01*
X127604982Y-79318235D01*
X127754314Y-79423277D01*
X128037120Y-79587250D01*
X128037122Y-79587251D01*
X128037129Y-79587255D01*
X128311014Y-79715479D01*
X128333185Y-79725859D01*
X128640237Y-79838043D01*
X128798081Y-79880492D01*
X128955917Y-79922939D01*
X128955918Y-79922939D01*
X128955925Y-79922941D01*
X129277829Y-79979902D01*
X129603481Y-80008491D01*
X129692785Y-80008503D01*
X129692943Y-80008515D01*
X129701037Y-80008515D01*
X129766933Y-80008515D01*
X129832826Y-80008515D01*
X134469948Y-80008515D01*
X134710825Y-80008515D01*
X134777864Y-80028200D01*
X134823008Y-80079684D01*
X134850000Y-80137000D01*
X159650000Y-80137000D01*
X159676343Y-80080282D01*
X159722435Y-80027772D01*
X159788805Y-80008515D01*
X164761051Y-80008515D01*
X164761509Y-80008485D01*
X164850190Y-80008485D01*
X164931342Y-80001383D01*
X165174806Y-79980079D01*
X165495711Y-79923479D01*
X165810460Y-79839118D01*
X166116656Y-79727636D01*
X166411966Y-79589884D01*
X166694142Y-79426910D01*
X166961035Y-79239955D01*
X167210612Y-79030443D01*
X167272921Y-78968105D01*
X167272946Y-78968083D01*
X167279216Y-78961809D01*
X167279221Y-78961807D01*
X167325794Y-78915209D01*
X167372376Y-78868605D01*
X167372376Y-78868603D01*
X167381262Y-78859714D01*
X167381279Y-78859694D01*
X167442639Y-78798302D01*
X168622998Y-77617320D01*
X168623001Y-77617319D01*
X168633207Y-77607106D01*
X168633210Y-77607106D01*
X168676408Y-77563884D01*
X168683402Y-77557406D01*
X168836546Y-77426199D01*
X168851985Y-77414916D01*
X169019387Y-77311381D01*
X169036371Y-77302612D01*
X169217713Y-77226072D01*
X169235844Y-77220020D01*
X169426809Y-77172298D01*
X169445667Y-77169108D01*
X169641684Y-77151344D01*
X169660816Y-77151094D01*
X169857233Y-77163708D01*
G37*
%TD.AperFunction*%
%TD*%
M02*
