%TF.GenerationSoftware,KiCad,Pcbnew,8.0.3*%
%TF.CreationDate,2024-07-10T12:49:55+02:00*%
%TF.ProjectId,Shard,53686172-642e-46b6-9963-61645f706362,rev?*%
%TF.SameCoordinates,Original*%
%TF.FileFunction,Paste,Top*%
%TF.FilePolarity,Positive*%
%FSLAX46Y46*%
G04 Gerber Fmt 4.6, Leading zero omitted, Abs format (unit mm)*
G04 Created by KiCad (PCBNEW 8.0.3) date 2024-07-10 12:49:55*
%MOMM*%
%LPD*%
G01*
G04 APERTURE LIST*
G04 Aperture macros list*
%AMRoundRect*
0 Rectangle with rounded corners*
0 $1 Rounding radius*
0 $2 $3 $4 $5 $6 $7 $8 $9 X,Y pos of 4 corners*
0 Add a 4 corners polygon primitive as box body*
4,1,4,$2,$3,$4,$5,$6,$7,$8,$9,$2,$3,0*
0 Add four circle primitives for the rounded corners*
1,1,$1+$1,$2,$3*
1,1,$1+$1,$4,$5*
1,1,$1+$1,$6,$7*
1,1,$1+$1,$8,$9*
0 Add four rect primitives between the rounded corners*
20,1,$1+$1,$2,$3,$4,$5,0*
20,1,$1+$1,$4,$5,$6,$7,0*
20,1,$1+$1,$6,$7,$8,$9,0*
20,1,$1+$1,$8,$9,$2,$3,0*%
%AMRotRect*
0 Rectangle, with rotation*
0 The origin of the aperture is its center*
0 $1 length*
0 $2 width*
0 $3 Rotation angle, in degrees counterclockwise*
0 Add horizontal line*
21,1,$1,$2,0,0,$3*%
G04 Aperture macros list end*
%ADD10RoundRect,0.250000X0.268780X-1.162006X0.952820X0.717380X-0.268780X1.162006X-0.952820X-0.717380X0*%
%ADD11RoundRect,0.079500X-0.014849X0.127279X-0.127279X0.014849X0.014849X-0.127279X0.127279X-0.014849X0*%
%ADD12RoundRect,0.079500X-0.100500X0.079500X-0.100500X-0.079500X0.100500X-0.079500X0.100500X0.079500X0*%
%ADD13RoundRect,0.140000X-0.021213X0.219203X-0.219203X0.021213X0.021213X-0.219203X0.219203X-0.021213X0*%
%ADD14RoundRect,0.135000X0.185000X-0.135000X0.185000X0.135000X-0.185000X0.135000X-0.185000X-0.135000X0*%
%ADD15RoundRect,0.250000X-0.650000X1.000000X-0.650000X-1.000000X0.650000X-1.000000X0.650000X1.000000X0*%
%ADD16RoundRect,0.079500X0.100500X-0.079500X0.100500X0.079500X-0.100500X0.079500X-0.100500X-0.079500X0*%
%ADD17RoundRect,0.079500X-0.127279X-0.014849X-0.014849X-0.127279X0.127279X0.014849X0.014849X0.127279X0*%
%ADD18RoundRect,0.135000X0.135000X0.185000X-0.135000X0.185000X-0.135000X-0.185000X0.135000X-0.185000X0*%
%ADD19RoundRect,0.200000X0.800000X-0.200000X0.800000X0.200000X-0.800000X0.200000X-0.800000X-0.200000X0*%
%ADD20RoundRect,0.093750X0.093750X-0.156250X0.093750X0.156250X-0.093750X0.156250X-0.093750X-0.156250X0*%
%ADD21RoundRect,0.075000X0.075000X-0.250000X0.075000X0.250000X-0.075000X0.250000X-0.075000X-0.250000X0*%
%ADD22RoundRect,0.140000X-0.170000X0.140000X-0.170000X-0.140000X0.170000X-0.140000X0.170000X0.140000X0*%
%ADD23RoundRect,0.250000X-0.475000X0.250000X-0.475000X-0.250000X0.475000X-0.250000X0.475000X0.250000X0*%
%ADD24RoundRect,0.172500X-0.262500X-0.172500X0.262500X-0.172500X0.262500X0.172500X-0.262500X0.172500X0*%
%ADD25RoundRect,0.093750X-0.093750X-0.106250X0.093750X-0.106250X0.093750X0.106250X-0.093750X0.106250X0*%
%ADD26RoundRect,0.150000X0.565685X-0.353553X-0.353553X0.565685X-0.565685X0.353553X0.353553X-0.565685X0*%
%ADD27RoundRect,0.079500X0.014849X-0.127279X0.127279X-0.014849X-0.014849X0.127279X-0.127279X0.014849X0*%
%ADD28R,0.700000X0.700000*%
%ADD29RoundRect,0.140000X0.021213X-0.219203X0.219203X-0.021213X-0.021213X0.219203X-0.219203X0.021213X0*%
%ADD30RotRect,1.150000X1.000000X315.000000*%
%ADD31RoundRect,0.250000X0.981111X0.539169X0.539169X0.981111X-0.981111X-0.539169X-0.539169X-0.981111X0*%
%ADD32RoundRect,0.250000X-0.403051X0.000000X0.000000X-0.403051X0.403051X0.000000X0.000000X0.403051X0*%
%ADD33RoundRect,0.050000X-0.282843X0.212132X0.212132X-0.282843X0.282843X-0.212132X-0.212132X0.282843X0*%
%ADD34RoundRect,0.050000X-0.282843X-0.212132X-0.212132X-0.282843X0.282843X0.212132X0.212132X0.282843X0*%
%ADD35RoundRect,0.067500X-0.095459X0.000000X0.000000X-0.095459X0.095459X0.000000X0.000000X0.095459X0*%
%ADD36RoundRect,0.135000X-0.185000X0.135000X-0.185000X-0.135000X0.185000X-0.135000X0.185000X0.135000X0*%
%ADD37RoundRect,0.079500X0.079500X0.100500X-0.079500X0.100500X-0.079500X-0.100500X0.079500X-0.100500X0*%
%ADD38RoundRect,0.079500X0.127279X0.014849X0.014849X0.127279X-0.127279X-0.014849X-0.014849X-0.127279X0*%
%ADD39RoundRect,0.250000X-0.450000X0.262500X-0.450000X-0.262500X0.450000X-0.262500X0.450000X0.262500X0*%
%ADD40RoundRect,0.250000X-0.503814X-0.132583X-0.132583X-0.503814X0.503814X0.132583X0.132583X0.503814X0*%
%ADD41RoundRect,0.243750X0.243750X0.456250X-0.243750X0.456250X-0.243750X-0.456250X0.243750X-0.456250X0*%
%ADD42RoundRect,0.150000X-0.150000X-0.425000X0.150000X-0.425000X0.150000X0.425000X-0.150000X0.425000X0*%
%ADD43RoundRect,0.075000X-0.075000X-0.500000X0.075000X-0.500000X0.075000X0.500000X-0.075000X0.500000X0*%
%ADD44O,1.000000X2.100000*%
%ADD45O,1.000000X1.800000*%
G04 APERTURE END LIST*
D10*
%TO.C,D2*%
X161715960Y-88654385D03*
X163084040Y-84895615D03*
%TD*%
D11*
%TO.C,C9*%
X147350000Y-99275000D03*
X146862096Y-99762904D03*
%TD*%
D12*
%TO.C,C1*%
X140175000Y-105950000D03*
X140175000Y-106640000D03*
%TD*%
D13*
%TO.C,C8*%
X144864411Y-88985589D03*
X144185589Y-89664411D03*
%TD*%
D14*
%TO.C,R2*%
X148825000Y-111460000D03*
X148825000Y-110440000D03*
%TD*%
D15*
%TO.C,D1*%
X142500000Y-103225000D03*
X142500000Y-107225002D03*
%TD*%
D16*
%TO.C,C13*%
X140150000Y-101800000D03*
X140150000Y-101110000D03*
%TD*%
D17*
%TO.C,L1*%
X143706048Y-88006048D03*
X144193952Y-88493952D03*
%TD*%
D18*
%TO.C,R4*%
X157060000Y-111150000D03*
X156040000Y-111150000D03*
%TD*%
D19*
%TO.C,BOOT*%
X138900000Y-116500000D03*
X138900000Y-112300000D03*
%TD*%
D20*
%TO.C,U2*%
X146662500Y-110850000D03*
D21*
X147200000Y-110925000D03*
D20*
X147737500Y-110850000D03*
X147737500Y-109150000D03*
D21*
X147200000Y-109075000D03*
D20*
X146662500Y-109150000D03*
%TD*%
D22*
%TO.C,C2*%
X136600000Y-102145000D03*
X136600000Y-103105000D03*
%TD*%
D17*
%TO.C,C11*%
X150826048Y-91596048D03*
X151313952Y-92083952D03*
%TD*%
D23*
%TO.C,C5*%
X139625000Y-86125001D03*
X139625000Y-88024999D03*
%TD*%
D24*
%TO.C,U3*%
X138437500Y-102100000D03*
X138437500Y-102900000D03*
D25*
X137550000Y-101850000D03*
X137550000Y-102500000D03*
X137550000Y-103150000D03*
X139325000Y-103150000D03*
X139325000Y-102500000D03*
X139325000Y-101850000D03*
%TD*%
D26*
%TO.C,U5*%
X154653143Y-106249195D03*
X155551169Y-105351169D03*
X156449194Y-104453144D03*
X157347220Y-103555118D03*
X152256051Y-98463949D03*
X151358025Y-99361975D03*
X150460000Y-100260000D03*
X149561974Y-101158026D03*
%TD*%
D27*
%TO.C,C19*%
X145675000Y-87725000D03*
X146162904Y-87237096D03*
%TD*%
D28*
%TO.C,D4*%
X149035000Y-106175000D03*
X149035000Y-107275000D03*
X150865000Y-107275000D03*
X150865000Y-106175000D03*
%TD*%
D29*
%TO.C,C20*%
X143975000Y-86050000D03*
X144653822Y-85371178D03*
%TD*%
D30*
%TO.C,Y1*%
X150975000Y-87325000D03*
X152212437Y-88562437D03*
X153202386Y-87572488D03*
X151964949Y-86335051D03*
%TD*%
D13*
%TO.C,C7*%
X143114411Y-87435589D03*
X142435589Y-88114411D03*
%TD*%
D19*
%TO.C,RESET*%
X155500000Y-116500000D03*
X155500000Y-112300000D03*
%TD*%
D31*
%TO.C,R5*%
X157684144Y-100144144D03*
X155615856Y-98075856D03*
%TD*%
D27*
%TO.C,C4*%
X148082322Y-88817678D03*
X148570226Y-88329774D03*
%TD*%
D32*
%TO.C,U1*%
X146559548Y-91878644D03*
X145619096Y-92819096D03*
X144678644Y-93759548D03*
X147500000Y-92819096D03*
X146559548Y-93759548D03*
X145619096Y-94700000D03*
X148440452Y-93759548D03*
X147500000Y-94700000D03*
X146559548Y-95640452D03*
D33*
X145958507Y-89481552D03*
X145675665Y-89764395D03*
X145392822Y-90047237D03*
X145109979Y-90330080D03*
X144827136Y-90612923D03*
X144544294Y-90895766D03*
X144261451Y-91178608D03*
X143978608Y-91461451D03*
X143695766Y-91744294D03*
X143412923Y-92027136D03*
X143130080Y-92309979D03*
X142847237Y-92592822D03*
X142564395Y-92875665D03*
X142281552Y-93158507D03*
D34*
X142281552Y-94360589D03*
X142564395Y-94643431D03*
X142847237Y-94926274D03*
X143130080Y-95209117D03*
X143412923Y-95491960D03*
X143695766Y-95774802D03*
X143978608Y-96057645D03*
X144261451Y-96340488D03*
X144544294Y-96623330D03*
X144827136Y-96906173D03*
X145109979Y-97189016D03*
X145392822Y-97471859D03*
X145675665Y-97754701D03*
X145958507Y-98037544D03*
D33*
X147160589Y-98037544D03*
X147443431Y-97754701D03*
X147726274Y-97471859D03*
X148009117Y-97189016D03*
X148291960Y-96906173D03*
X148574802Y-96623330D03*
X148857645Y-96340488D03*
X149140488Y-96057645D03*
X149423330Y-95774802D03*
X149706173Y-95491960D03*
X149989016Y-95209117D03*
X150271859Y-94926274D03*
X150554701Y-94643431D03*
X150837544Y-94360589D03*
D34*
X150837544Y-93158507D03*
X150554701Y-92875665D03*
X150271859Y-92592822D03*
X149989016Y-92309979D03*
X149706173Y-92027136D03*
X149423330Y-91744294D03*
X149140488Y-91461451D03*
X148857645Y-91178608D03*
X148574802Y-90895766D03*
X148291960Y-90612923D03*
X148009117Y-90330080D03*
X147726274Y-90047237D03*
X147443431Y-89764395D03*
X147160589Y-89481552D03*
%TD*%
D35*
%TO.C,R6*%
X149280546Y-97730546D03*
X149669454Y-98119454D03*
%TD*%
D22*
%TO.C,C6*%
X141075000Y-86119999D03*
X141075000Y-87079999D03*
%TD*%
D35*
%TO.C,R7*%
X149705546Y-97305546D03*
X150094454Y-97694454D03*
%TD*%
D36*
%TO.C,R1*%
X145575000Y-110465000D03*
X145575000Y-111485000D03*
%TD*%
D17*
%TO.C,C17*%
X150006048Y-88006048D03*
X150493952Y-88493952D03*
%TD*%
D27*
%TO.C,C3*%
X147500000Y-88250000D03*
X147987904Y-87762096D03*
%TD*%
D24*
%TO.C,U4*%
X138437500Y-104875000D03*
X138437500Y-105675000D03*
D25*
X137550000Y-104625000D03*
X137550000Y-105275000D03*
X137550000Y-105925000D03*
X139325000Y-105925000D03*
X139325000Y-105275000D03*
X139325000Y-104625000D03*
%TD*%
D37*
%TO.C,C15*%
X154795000Y-111150000D03*
X154105000Y-111150000D03*
%TD*%
D11*
%TO.C,C10*%
X147875000Y-99800000D03*
X147387096Y-100287904D03*
%TD*%
D38*
%TO.C,C16*%
X148393952Y-101853952D03*
X147906048Y-101366048D03*
%TD*%
D35*
%TO.C,R10*%
X148025000Y-98930546D03*
X148413908Y-99319454D03*
%TD*%
%TO.C,R9*%
X148453769Y-98503769D03*
X148842677Y-98892677D03*
%TD*%
D27*
%TO.C,R11*%
X148575000Y-89325000D03*
X149062904Y-88837096D03*
%TD*%
D17*
%TO.C,L2*%
X144612096Y-86687096D03*
X145100000Y-87175000D03*
%TD*%
D38*
%TO.C,C18*%
X153668952Y-86368952D03*
X153181048Y-85881048D03*
%TD*%
D39*
%TO.C,R3*%
X154410000Y-92015000D03*
X154410000Y-93840000D03*
%TD*%
D35*
%TO.C,R8*%
X150130546Y-96880546D03*
X150519454Y-97269454D03*
%TD*%
D22*
%TO.C,C14*%
X136625000Y-104920000D03*
X136625000Y-105880000D03*
%TD*%
D40*
%TO.C,R12*%
X156559530Y-90039530D03*
X157850000Y-91330000D03*
%TD*%
D11*
%TO.C,C12*%
X142495226Y-96979774D03*
X142007322Y-97467678D03*
%TD*%
D41*
%TO.C,D3*%
X156060000Y-95631000D03*
X154184998Y-95631000D03*
%TD*%
D42*
%TO.C,J1*%
X144010000Y-113150000D03*
X144810000Y-113150000D03*
D43*
X145960000Y-113150000D03*
X146960000Y-113150000D03*
X147460000Y-113150000D03*
X148460000Y-113150000D03*
D42*
X149610000Y-113150000D03*
X150410000Y-113150000D03*
X150410000Y-113150000D03*
X149610000Y-113150000D03*
D43*
X148960000Y-113150000D03*
X147960000Y-113150000D03*
X146460000Y-113150000D03*
X145460000Y-113150000D03*
D42*
X144810000Y-113150000D03*
X144010000Y-113150000D03*
D44*
X142890000Y-113725000D03*
D45*
X142890000Y-117905000D03*
D44*
X151530000Y-113725000D03*
D45*
X151530000Y-117905000D03*
%TD*%
M02*
