M48
; DRILL file {KiCad 8.0.3} date 2024-07-12T18:14:52+0200
; FORMAT={-:-/ absolute / metric / decimal}
; #@! TF.CreationDate,2024-07-12T18:14:52+02:00
; #@! TF.GenerationSoftware,Kicad,Pcbnew,8.0.3
; #@! TF.FileFunction,Plated,1,4,PTH
FMAT,2
METRIC
; #@! TA.AperFunction,Plated,PTH,ViaDrill
T1C0.300
; #@! TA.AperFunction,Plated,PTH,ComponentDrill
T2C0.300
; #@! TA.AperFunction,Plated,PTH,ViaDrill
T3C0.600
; #@! TA.AperFunction,Plated,PTH,ComponentDrill
T4C0.600
; #@! TA.AperFunction,Plated,PTH,ComponentDrill
T5C1.000
%
G90
G05
T1
X124.041Y-79.358
X124.041Y-81.39
X126.073Y-79.358
X126.073Y-85.454
X126.073Y-87.486
X126.073Y-91.55
X126.073Y-95.614
X128.105Y-81.39
X128.105Y-99.678
X128.105Y-101.71
X129.92Y-105.05
X130.137Y-81.39
X130.137Y-83.422
X130.137Y-87.486
X130.137Y-89.518
X132.169Y-81.39
X132.169Y-83.422
X132.169Y-85.454
X134.201Y-81.39
X134.201Y-83.422
X134.201Y-85.454
X134.201Y-87.486
X134.201Y-111.87
X136.233Y-81.39
X136.233Y-83.422
X136.233Y-85.454
X136.233Y-87.486
X136.233Y-109.838
X136.233Y-111.87
X136.233Y-113.902
X136.6Y-103.95
X136.6Y-106.7
X138.0Y-97.0
X138.265Y-81.39
X138.265Y-83.422
X138.265Y-85.454
X138.265Y-87.486
X138.265Y-109.838
X138.265Y-113.902
X139.15Y-95.025
X139.45Y-100.9
X139.5Y-107.1
X139.675Y-97.4
X139.9Y-99.8
X140.297Y-81.39
X140.297Y-83.422
X140.297Y-109.838
X140.297Y-113.902
X140.3Y-117.3
X140.5Y-107.41
X140.9Y-88.1
X141.175Y-99.65
X141.25Y-97.075
X141.486Y-92.646
X141.507Y-93.671
X141.665Y-80.5
X141.665Y-81.72
X141.665Y-82.94
X141.77Y-83.995
X142.072Y-84.986
X142.175Y-99.475
X142.329Y-111.87
X142.329Y-115.934
X142.967Y-99.36
X143.0Y-101.0
X143.15Y-88.6
X143.665Y-82.916
X143.665Y-80.5
X143.665Y-81.72
X143.725Y-89.2
X143.92Y-84.22
X144.361Y-101.71
X144.361Y-115.934
X144.361Y-117.966
X144.7Y-93.75
X144.925Y-91.85
X145.0Y-88.093
X145.195Y-98.518
X145.38Y-96.359
X145.4Y-85.0
X145.65Y-92.8
X145.65Y-94.7
X146.2Y-86.4
X146.393Y-81.39
X146.393Y-83.422
X146.393Y-115.934
X146.393Y-117.966
X146.4Y-99.1
X146.458Y-90.442
X146.55Y-91.9
X146.55Y-93.77
X146.55Y-95.65
X147.19Y-111.57
X147.5Y-92.8
X147.5Y-94.7
X148.425Y-81.39
X148.425Y-83.422
X148.425Y-115.934
X148.425Y-117.966
X148.45Y-93.75
X148.593Y-95.501
X148.67Y-102.88
X148.95Y-87.35
X148.975Y-105.025
X149.325Y-99.325
X149.8Y-85.9
X150.457Y-81.39
X150.457Y-83.422
X150.457Y-111.87
X150.457Y-115.934
X150.457Y-117.966
X151.0Y-97.987
X151.2Y-84.8
X151.3Y-102.3
X151.325Y-89.325
X151.6Y-108.0
X151.87Y-91.52
X151.87Y-93.64
X152.019Y-100.503
X152.47Y-95.52
X152.489Y-81.39
X152.489Y-111.87
X152.489Y-115.934
X152.55Y-85.25
X152.6Y-83.7
X152.662Y-91.868
X152.76Y-90.26
X152.8Y-101.85
X153.7Y-84.7
X153.715Y-104.285
X153.778Y-105.197
X153.975Y-102.45
X154.0Y-89.0
X154.1Y-117.3
X154.521Y-81.39
X154.521Y-83.422
X154.521Y-113.902
X154.9Y-102.0
X155.0Y-86.0
X155.0Y-88.0
X155.185Y-103.05
X156.0Y-87.0
X156.0Y-93.63
X156.025Y-108.725
X156.553Y-81.39
X156.553Y-83.422
X156.553Y-85.454
X156.553Y-113.902
X157.05Y-110.325
X157.25Y-93.62
X157.3Y-95.55
X157.7Y-102.75
X158.503Y-93.64
X158.585Y-81.39
X158.585Y-83.422
X158.585Y-85.454
X158.585Y-87.486
X158.585Y-95.614
X158.585Y-111.87
X158.585Y-113.902
X158.87Y-91.81
X159.25Y-90.91
X159.78Y-97.19
X160.617Y-81.39
X160.617Y-83.422
X160.617Y-85.454
X160.617Y-101.71
X160.617Y-103.742
X160.617Y-111.87
X161.54Y-94.051
X162.649Y-81.39
X162.649Y-91.55
X162.649Y-93.582
X162.649Y-99.678
X162.649Y-109.838
X164.47Y-106.6
X164.681Y-81.39
X164.681Y-85.454
X164.681Y-87.486
X164.681Y-89.518
X166.713Y-99.678
X168.745Y-79.358
X168.745Y-85.454
X168.745Y-91.55
X169.16Y-93.16
T2
X138.438Y-101.95
X138.438Y-103.05
X138.438Y-104.725
X138.438Y-105.825
X140.55Y-80.3
T3
X135.475Y-100.325
X142.325Y-86.325
X144.339Y-104.286
X148.0Y-86.475
X160.75Y-91.225
T5
X125.844Y-81.567
X126.713Y-83.954
X127.163Y-93.329
X127.581Y-86.341
X128.031Y-95.716
X128.45Y-88.728
X128.9Y-98.103
X129.319Y-91.115
X129.769Y-100.49
X130.188Y-93.501
X130.638Y-102.876
X131.056Y-95.888
X131.506Y-105.263
X131.925Y-98.275
X132.375Y-107.65
X133.244Y-110.037
X161.175Y-110.05
X162.044Y-107.663
X162.5Y-98.275
X162.912Y-105.276
X163.369Y-95.888
X163.781Y-102.89
X164.237Y-93.501
X164.65Y-100.503
X165.106Y-91.115
X165.519Y-98.116
X165.975Y-88.728
X166.387Y-95.729
X166.844Y-86.341
X167.256Y-93.342
X167.712Y-83.954
X168.581Y-81.567
T4
G00X142.89Y-113.175
M15
G01X142.89Y-114.275
M16
G05
G00X142.89Y-117.505
M15
G01X142.89Y-118.305
M16
G05
G00X151.53Y-113.175
M15
G01X151.53Y-114.275
M16
G05
G00X151.53Y-117.505
M15
G01X151.53Y-118.305
M16
G05
M30
